G04*
G04 #@! TF.GenerationSoftware,Altium Limited,Altium Designer,25.1.2 (22)*
G04*
G04 Layer_Color=8421504*
%FSLAX44Y44*%
%MOMM*%
G71*
G04*
G04 #@! TF.SameCoordinates,54FBF0B5-E2CF-4F3E-8A6F-997AE4EABEE6*
G04*
G04*
G04 #@! TF.FilePolarity,Positive*
G04*
G01*
G75*
%ADD18R,0.6000X1.9700*%
%ADD19R,2.4892X0.8890*%
%ADD20R,2.4892X3.2004*%
%ADD21R,0.7620X0.8128*%
%ADD22R,0.8000X0.7500*%
%ADD23R,1.9700X0.6000*%
%ADD24R,0.8128X0.7620*%
%ADD25R,1.7000X1.0000*%
%ADD26R,0.5080X0.6604*%
%ADD27R,0.6604X0.5080*%
%ADD28R,0.6000X0.5000*%
%ADD29R,1.4478X1.1176*%
%ADD30R,1.7000X2.2000*%
%ADD31R,0.8128X0.8128*%
%ADD32R,0.7500X0.8000*%
%ADD33R,1.1176X1.4478*%
G04:AMPARAMS|DCode=34|XSize=2.05mm|YSize=0.59mm|CornerRadius=0.0738mm|HoleSize=0mm|Usage=FLASHONLY|Rotation=0.000|XOffset=0mm|YOffset=0mm|HoleType=Round|Shape=RoundedRectangle|*
%AMROUNDEDRECTD34*
21,1,2.0500,0.4425,0,0,0.0*
21,1,1.9025,0.5900,0,0,0.0*
1,1,0.1475,0.9513,-0.2213*
1,1,0.1475,-0.9513,-0.2213*
1,1,0.1475,-0.9513,0.2213*
1,1,0.1475,0.9513,0.2213*
%
%ADD34ROUNDEDRECTD34*%
G04:AMPARAMS|DCode=35|XSize=2.3mm|YSize=1.48mm|CornerRadius=0.185mm|HoleSize=0mm|Usage=FLASHONLY|Rotation=0.000|XOffset=0mm|YOffset=0mm|HoleType=Round|Shape=RoundedRectangle|*
%AMROUNDEDRECTD35*
21,1,2.3000,1.1100,0,0,0.0*
21,1,1.9300,1.4800,0,0,0.0*
1,1,0.3700,0.9650,-0.5550*
1,1,0.3700,-0.9650,-0.5550*
1,1,0.3700,-0.9650,0.5550*
1,1,0.3700,0.9650,0.5550*
%
%ADD35ROUNDEDRECTD35*%
G04:AMPARAMS|DCode=36|XSize=1.47mm|YSize=0.28mm|CornerRadius=0.035mm|HoleSize=0mm|Usage=FLASHONLY|Rotation=0.000|XOffset=0mm|YOffset=0mm|HoleType=Round|Shape=RoundedRectangle|*
%AMROUNDEDRECTD36*
21,1,1.4700,0.2100,0,0,0.0*
21,1,1.4000,0.2800,0,0,0.0*
1,1,0.0700,0.7000,-0.1050*
1,1,0.0700,-0.7000,-0.1050*
1,1,0.0700,-0.7000,0.1050*
1,1,0.0700,0.7000,0.1050*
%
%ADD36ROUNDEDRECTD36*%
%ADD37R,1.2000X1.0160*%
%ADD38R,0.9000X0.9000*%
%ADD39R,0.9000X1.5000*%
%ADD40R,1.5000X0.9000*%
%ADD41R,0.9000X0.9000*%
%ADD42R,1.5000X0.9000*%
%ADD43R,0.9000X1.5000*%
%ADD44R,1.0160X1.2000*%
%ADD45R,2.2000X1.7000*%
%ADD46R,1.0160X1.1938*%
%ADD47R,4.0000X2.7000*%
%ADD48R,2.3000X4.5000*%
%ADD49R,1.6000X0.8000*%
%ADD50R,3.0000X2.1000*%
%ADD51R,0.3000X1.2500*%
%ADD52R,2.3000X3.1000*%
%ADD53R,3.2000X1.5000*%
%ADD54R,1.7000X2.5000*%
%ADD55R,1.3700X1.7300*%
%ADD56R,0.8128X0.8128*%
%ADD57R,2.5000X1.7000*%
%ADD58R,0.5000X0.6000*%
G04:AMPARAMS|DCode=59|XSize=1.81mm|YSize=1.32mm|CornerRadius=0.165mm|HoleSize=0mm|Usage=FLASHONLY|Rotation=270.000|XOffset=0mm|YOffset=0mm|HoleType=Round|Shape=RoundedRectangle|*
%AMROUNDEDRECTD59*
21,1,1.8100,0.9900,0,0,270.0*
21,1,1.4800,1.3200,0,0,270.0*
1,1,0.3300,-0.4950,-0.7400*
1,1,0.3300,-0.4950,0.7400*
1,1,0.3300,0.4950,0.7400*
1,1,0.3300,0.4950,-0.7400*
%
%ADD59ROUNDEDRECTD59*%
%ADD60R,1.8034X1.1176*%
%ADD61R,1.1176X1.8034*%
G04:AMPARAMS|DCode=62|XSize=1.81mm|YSize=1.32mm|CornerRadius=0.165mm|HoleSize=0mm|Usage=FLASHONLY|Rotation=0.000|XOffset=0mm|YOffset=0mm|HoleType=Round|Shape=RoundedRectangle|*
%AMROUNDEDRECTD62*
21,1,1.8100,0.9900,0,0,0.0*
21,1,1.4800,1.3200,0,0,0.0*
1,1,0.3300,0.7400,-0.4950*
1,1,0.3300,-0.7400,-0.4950*
1,1,0.3300,-0.7400,0.4950*
1,1,0.3300,0.7400,0.4950*
%
%ADD62ROUNDEDRECTD62*%
G36*
X215471Y924052D02*
Y939303D01*
X236286D01*
Y924052D01*
X215471D01*
D02*
G37*
G36*
X393779Y924560D02*
Y939811D01*
X414594D01*
Y924560D01*
X393779D01*
D02*
G37*
D18*
X206836Y906922D02*
D03*
X232236Y956422D02*
D03*
X219536D02*
D03*
X206836D02*
D03*
X219536Y906922D02*
D03*
X232236D02*
D03*
X244936D02*
D03*
Y956422D02*
D03*
X666256Y344520D02*
D03*
Y295020D02*
D03*
X653556D02*
D03*
X640856D02*
D03*
X628156Y344520D02*
D03*
X640856D02*
D03*
X653556D02*
D03*
X628156Y295020D02*
D03*
X540540Y54887D02*
D03*
Y104387D02*
D03*
X553240D02*
D03*
X565940D02*
D03*
X578640Y54887D02*
D03*
X565940D02*
D03*
X553240D02*
D03*
X578640Y104387D02*
D03*
X627106Y175940D02*
D03*
X652506Y225440D02*
D03*
X639806D02*
D03*
X627106D02*
D03*
X639806Y175940D02*
D03*
X652506D02*
D03*
X665206D02*
D03*
Y225440D02*
D03*
X325374Y479186D02*
D03*
X350774Y528686D02*
D03*
X338074D02*
D03*
X325374D02*
D03*
X338074Y479186D02*
D03*
X350774D02*
D03*
X363474D02*
D03*
Y528686D02*
D03*
X216916Y414132D02*
D03*
X191516Y364632D02*
D03*
X204216D02*
D03*
X216916D02*
D03*
X204216Y414132D02*
D03*
X191516D02*
D03*
X178816D02*
D03*
Y364632D02*
D03*
X448644Y795640D02*
D03*
X423244Y746140D02*
D03*
X435944D02*
D03*
X448644D02*
D03*
X435944Y795640D02*
D03*
X423244D02*
D03*
X410544D02*
D03*
Y746140D02*
D03*
X385144Y907430D02*
D03*
X410544Y956930D02*
D03*
X397844D02*
D03*
X385144D02*
D03*
X397844Y907430D02*
D03*
X410544D02*
D03*
X423244D02*
D03*
Y956930D02*
D03*
D19*
X311277Y757896D02*
D03*
Y780796D02*
D03*
Y803696D02*
D03*
D20*
X256159Y780796D02*
D03*
D21*
X872713Y128746D02*
D03*
X857219D02*
D03*
X843744Y143000D02*
D03*
X828250D02*
D03*
X872459Y143224D02*
D03*
X856965D02*
D03*
X938247Y906000D02*
D03*
X922753D02*
D03*
X963676Y906780D02*
D03*
X979170D02*
D03*
X624185Y257078D02*
D03*
X639679D02*
D03*
X668127D02*
D03*
X652633D02*
D03*
X352171Y453390D02*
D03*
X336677D02*
D03*
X205613Y431292D02*
D03*
X190119D02*
D03*
X811784Y900684D02*
D03*
X796290D02*
D03*
X888111D02*
D03*
X872617D02*
D03*
X537619Y23645D02*
D03*
X553113D02*
D03*
Y9675D02*
D03*
X537619D02*
D03*
X566067D02*
D03*
X581561D02*
D03*
Y23899D02*
D03*
X566067D02*
D03*
X875205Y286512D02*
D03*
X859711D02*
D03*
X790401Y551434D02*
D03*
X805895D02*
D03*
X790401Y487426D02*
D03*
X805895D02*
D03*
X67437Y405384D02*
D03*
X51943D02*
D03*
X312674Y563118D02*
D03*
X297180D02*
D03*
X312547Y578612D02*
D03*
X297053D02*
D03*
X50253Y566000D02*
D03*
X65747D02*
D03*
X23749Y878840D02*
D03*
X39243D02*
D03*
X267753Y656750D02*
D03*
X283247D02*
D03*
X267753Y627500D02*
D03*
X283247D02*
D03*
X267753Y641500D02*
D03*
X283247D02*
D03*
X267753Y670500D02*
D03*
X283247D02*
D03*
X267753Y685250D02*
D03*
X283247D02*
D03*
X384255Y984758D02*
D03*
X399749D02*
D03*
X397717Y889508D02*
D03*
X382223D02*
D03*
X205947Y984362D02*
D03*
X221441D02*
D03*
X219536Y889508D02*
D03*
X204042D02*
D03*
X232109Y984362D02*
D03*
X247603D02*
D03*
Y973186D02*
D03*
X232109D02*
D03*
D22*
X828250Y129000D02*
D03*
Y115500D02*
D03*
X679730Y331054D02*
D03*
Y344554D02*
D03*
X692683Y331054D02*
D03*
Y344554D02*
D03*
X689030Y124254D02*
D03*
Y137754D02*
D03*
X700206Y124254D02*
D03*
Y137754D02*
D03*
X728900Y131296D02*
D03*
Y117796D02*
D03*
X740326Y131150D02*
D03*
Y117650D02*
D03*
X773176Y257448D02*
D03*
Y243948D02*
D03*
X298196Y510432D02*
D03*
Y496932D02*
D03*
X310134Y510178D02*
D03*
Y496678D02*
D03*
X682498Y654704D02*
D03*
Y641204D02*
D03*
X693674Y654812D02*
D03*
Y641312D02*
D03*
X832866Y642004D02*
D03*
Y628504D02*
D03*
X821182Y642004D02*
D03*
Y628504D02*
D03*
X899368Y113194D02*
D03*
Y99694D02*
D03*
X887500Y113250D02*
D03*
Y99750D02*
D03*
X744728Y506730D02*
D03*
Y493230D02*
D03*
X733552Y506730D02*
D03*
Y493230D02*
D03*
X841614Y169524D02*
D03*
Y156024D02*
D03*
X860588Y273450D02*
D03*
Y259950D02*
D03*
X841614Y302768D02*
D03*
Y316268D02*
D03*
X854456Y302768D02*
D03*
Y316268D02*
D03*
X769414Y376766D02*
D03*
Y363266D02*
D03*
X744131Y321456D02*
D03*
Y307956D02*
D03*
X758698Y321456D02*
D03*
Y307956D02*
D03*
X785876Y298704D02*
D03*
Y312204D02*
D03*
X772922Y298704D02*
D03*
Y312204D02*
D03*
X793258Y408848D02*
D03*
Y395348D02*
D03*
X780304Y408848D02*
D03*
Y395348D02*
D03*
X836090Y391014D02*
D03*
Y404514D02*
D03*
X823056Y391014D02*
D03*
Y404514D02*
D03*
X769414Y337212D02*
D03*
Y350712D02*
D03*
X929132Y610522D02*
D03*
Y597022D02*
D03*
X917956Y610522D02*
D03*
Y597022D02*
D03*
X61722Y604920D02*
D03*
Y591420D02*
D03*
X50546Y604920D02*
D03*
Y591420D02*
D03*
X400304Y370078D02*
D03*
Y383578D02*
D03*
X347834Y370078D02*
D03*
Y383578D02*
D03*
X435690Y920930D02*
D03*
Y907430D02*
D03*
X257382Y920422D02*
D03*
Y906922D02*
D03*
D23*
X807940Y117570D02*
D03*
X758440D02*
D03*
Y130270D02*
D03*
Y142970D02*
D03*
X807940Y155670D02*
D03*
Y142970D02*
D03*
Y130270D02*
D03*
X758440Y155670D02*
D03*
X841614Y247650D02*
D03*
X792114Y273050D02*
D03*
Y260350D02*
D03*
Y247650D02*
D03*
X841614Y260350D02*
D03*
Y273050D02*
D03*
Y285750D02*
D03*
X792114D02*
D03*
X836106Y337504D02*
D03*
X786606Y362904D02*
D03*
Y350204D02*
D03*
Y337504D02*
D03*
X836106Y350204D02*
D03*
Y362904D02*
D03*
Y375604D02*
D03*
X786606D02*
D03*
X846440Y500380D02*
D03*
X796940Y525780D02*
D03*
Y513080D02*
D03*
Y500380D02*
D03*
X846440Y513080D02*
D03*
Y525780D02*
D03*
Y538480D02*
D03*
X796940D02*
D03*
D24*
X843750Y129247D02*
D03*
Y113753D02*
D03*
X128000Y228696D02*
D03*
Y213202D02*
D03*
X893250Y424503D02*
D03*
Y439997D02*
D03*
X828250Y171537D02*
D03*
Y156043D02*
D03*
X758698Y270383D02*
D03*
Y285877D02*
D03*
X773176D02*
D03*
Y270383D02*
D03*
X758698Y256921D02*
D03*
Y241427D02*
D03*
X773176Y227203D02*
D03*
Y211709D02*
D03*
X758698Y227457D02*
D03*
Y211963D02*
D03*
X756698Y378779D02*
D03*
Y363285D02*
D03*
X744131D02*
D03*
Y378779D02*
D03*
Y349696D02*
D03*
Y334202D02*
D03*
X756698Y334329D02*
D03*
Y349823D02*
D03*
X877250Y511503D02*
D03*
Y526997D02*
D03*
X617474Y501888D02*
D03*
Y486394D02*
D03*
X395224Y66421D02*
D03*
Y50927D02*
D03*
X420624Y66421D02*
D03*
Y50927D02*
D03*
X372698Y972439D02*
D03*
Y987933D02*
D03*
X194644Y973059D02*
D03*
Y988553D02*
D03*
X372698Y941451D02*
D03*
Y956945D02*
D03*
X194644Y940928D02*
D03*
Y956422D02*
D03*
D25*
X853000Y21716D02*
D03*
Y38716D02*
D03*
X905500Y21716D02*
D03*
Y38716D02*
D03*
D26*
X641000Y376500D02*
D03*
Y364500D02*
D03*
X374650Y491140D02*
D03*
Y479140D02*
D03*
X178816Y443388D02*
D03*
Y431388D02*
D03*
X192040Y225202D02*
D03*
Y213202D02*
D03*
X179340Y225202D02*
D03*
Y213202D02*
D03*
X532892Y670148D02*
D03*
Y682148D02*
D03*
Y707548D02*
D03*
Y695548D02*
D03*
X899250Y125750D02*
D03*
Y137750D02*
D03*
X510286Y839882D02*
D03*
Y827882D02*
D03*
X622046Y934370D02*
D03*
Y922370D02*
D03*
Y983392D02*
D03*
Y971392D02*
D03*
X510286Y778922D02*
D03*
Y766922D02*
D03*
X659892Y523730D02*
D03*
Y511730D02*
D03*
X532796Y442310D02*
D03*
Y454310D02*
D03*
X545496Y442310D02*
D03*
Y454310D02*
D03*
X507396Y442310D02*
D03*
Y454310D02*
D03*
X520096Y442310D02*
D03*
Y454310D02*
D03*
X930324Y647386D02*
D03*
Y635387D02*
D03*
X916764Y647386D02*
D03*
Y635387D02*
D03*
X84836Y417672D02*
D03*
Y429672D02*
D03*
X848000Y391000D02*
D03*
Y403000D02*
D03*
X893250Y489616D02*
D03*
Y477616D02*
D03*
X141240Y225202D02*
D03*
Y213202D02*
D03*
X153940Y225202D02*
D03*
Y213202D02*
D03*
X319532Y192182D02*
D03*
Y180182D02*
D03*
Y218790D02*
D03*
Y230790D02*
D03*
X864500Y114500D02*
D03*
Y102500D02*
D03*
X110236Y16140D02*
D03*
Y28140D02*
D03*
X72390Y188116D02*
D03*
Y176116D02*
D03*
X72136Y100268D02*
D03*
Y112268D02*
D03*
D27*
X841000Y64529D02*
D03*
X853000D02*
D03*
X780334Y81844D02*
D03*
X792334D02*
D03*
X816148Y77780D02*
D03*
X828148D02*
D03*
X652760Y268540D02*
D03*
X664760D02*
D03*
X639456D02*
D03*
X627456D02*
D03*
X337470Y545338D02*
D03*
X325470D02*
D03*
X351474Y545338D02*
D03*
X363474D02*
D03*
X631814Y886968D02*
D03*
X643814D02*
D03*
X634814Y855788D02*
D03*
X646814D02*
D03*
X634814Y865186D02*
D03*
X646814D02*
D03*
X632576Y810006D02*
D03*
X644576D02*
D03*
X635576Y778826D02*
D03*
X647576D02*
D03*
X635576Y788224D02*
D03*
X647576D02*
D03*
X624744Y527288D02*
D03*
X612744D02*
D03*
X624744Y578088D02*
D03*
X612744D02*
D03*
X625506Y590804D02*
D03*
X613506D02*
D03*
X625506Y603504D02*
D03*
X613506D02*
D03*
X62388Y553974D02*
D03*
X50388D02*
D03*
X62134Y350774D02*
D03*
X50134D02*
D03*
D28*
X853000Y55250D02*
D03*
X843000D02*
D03*
X826148Y69144D02*
D03*
X816148D02*
D03*
X790334Y72700D02*
D03*
X780334D02*
D03*
X387960Y370078D02*
D03*
X377960D02*
D03*
X335816D02*
D03*
X325816D02*
D03*
D29*
X714176Y135857D02*
D03*
Y118023D02*
D03*
X666256Y364701D02*
D03*
Y382535D02*
D03*
X759206Y506730D02*
D03*
Y488896D02*
D03*
X807530Y391014D02*
D03*
Y408848D02*
D03*
X338582Y45693D02*
D03*
Y63527D02*
D03*
Y10309D02*
D03*
Y28194D02*
D03*
X318262Y10387D02*
D03*
Y28272D02*
D03*
D30*
X816148Y16584D02*
D03*
Y50584D02*
D03*
X780334Y16584D02*
D03*
Y50584D02*
D03*
D31*
X923428Y918500D02*
D03*
X938428D02*
D03*
X979050Y918464D02*
D03*
X964050D02*
D03*
X646814Y876046D02*
D03*
X631814D02*
D03*
X647576Y799084D02*
D03*
X632576D02*
D03*
X299500Y627500D02*
D03*
X314500D02*
D03*
X299500Y641500D02*
D03*
X314500D02*
D03*
X299500Y670500D02*
D03*
X314500D02*
D03*
X299500Y685250D02*
D03*
X314500D02*
D03*
X299500Y656750D02*
D03*
X314500D02*
D03*
D32*
X699269Y239552D02*
D03*
X685769D02*
D03*
X699269Y225836D02*
D03*
X685769D02*
D03*
X680808Y190022D02*
D03*
X694308D02*
D03*
X680808Y176052D02*
D03*
X694308D02*
D03*
X666006Y243362D02*
D03*
X652506D02*
D03*
X626198D02*
D03*
X639698D02*
D03*
X204216Y346456D02*
D03*
X190716D02*
D03*
X204216Y333502D02*
D03*
X190716D02*
D03*
X539632Y37361D02*
D03*
X553132D02*
D03*
X506543Y43925D02*
D03*
X520043D02*
D03*
X506543Y56879D02*
D03*
X520043D02*
D03*
X524377Y91677D02*
D03*
X510877D02*
D03*
X524377Y104377D02*
D03*
X510877D02*
D03*
X579548Y37361D02*
D03*
X566048D02*
D03*
X888265Y332994D02*
D03*
X874765D02*
D03*
X888265Y320040D02*
D03*
X874765D02*
D03*
X846440Y562356D02*
D03*
X832940D02*
D03*
X846440Y551180D02*
D03*
X832940D02*
D03*
X23984Y893572D02*
D03*
X37484D02*
D03*
X358394Y415036D02*
D03*
X371894D02*
D03*
X306432D02*
D03*
X319932D02*
D03*
X397736Y973582D02*
D03*
X384236D02*
D03*
X219536Y972932D02*
D03*
X206036D02*
D03*
D33*
X680808Y208056D02*
D03*
X698642D02*
D03*
X524377Y74405D02*
D03*
X506543D02*
D03*
X870431Y302768D02*
D03*
X888265D02*
D03*
X85371Y390906D02*
D03*
X67537D02*
D03*
X445770Y435864D02*
D03*
X463604D02*
D03*
X23595Y860298D02*
D03*
X41429D02*
D03*
X413485Y435864D02*
D03*
X431370D02*
D03*
X413485Y453390D02*
D03*
X431370D02*
D03*
X428429Y838200D02*
D03*
X410544D02*
D03*
X428429Y817880D02*
D03*
X410544D02*
D03*
D34*
X710878Y667512D02*
D03*
Y654812D02*
D03*
Y642112D02*
D03*
Y629412D02*
D03*
Y616712D02*
D03*
Y604012D02*
D03*
Y591312D02*
D03*
Y578612D02*
D03*
X803978D02*
D03*
Y591312D02*
D03*
Y604012D02*
D03*
Y616712D02*
D03*
Y629412D02*
D03*
Y642112D02*
D03*
Y654812D02*
D03*
Y667512D02*
D03*
D35*
X614492Y839978D02*
D03*
Y814578D02*
D03*
X527492D02*
D03*
Y839978D02*
D03*
X643316Y909066D02*
D03*
Y934466D02*
D03*
X730316D02*
D03*
Y909066D02*
D03*
X614746Y779018D02*
D03*
Y753618D02*
D03*
X527746D02*
D03*
Y779018D02*
D03*
X643062Y957834D02*
D03*
Y983234D02*
D03*
X730062D02*
D03*
Y957834D02*
D03*
D36*
X717714Y516730D02*
D03*
Y511730D02*
D03*
Y506730D02*
D03*
Y501730D02*
D03*
Y496730D02*
D03*
X674714D02*
D03*
Y501730D02*
D03*
Y506730D02*
D03*
Y511730D02*
D03*
Y516730D02*
D03*
D37*
X799660Y312204D02*
D03*
X820860Y321704D02*
D03*
Y302704D02*
D03*
X656014Y833690D02*
D03*
X634814Y824190D02*
D03*
Y843190D02*
D03*
X656776Y757490D02*
D03*
X635576Y747990D02*
D03*
Y766990D02*
D03*
X51884Y427228D02*
D03*
X73084Y436728D02*
D03*
Y417728D02*
D03*
D38*
X495870Y544038D02*
D03*
Y530038D02*
D03*
Y558038D02*
D03*
X509870Y530038D02*
D03*
Y544038D02*
D03*
Y558038D02*
D03*
X481870Y530038D02*
D03*
Y544038D02*
D03*
Y558038D02*
D03*
D39*
X418670Y471538D02*
D03*
X431370D02*
D03*
X444070D02*
D03*
X456770D02*
D03*
X469470D02*
D03*
X482170D02*
D03*
X494870D02*
D03*
X507570D02*
D03*
X520270D02*
D03*
X532970D02*
D03*
X545670D02*
D03*
X558370D02*
D03*
X571070D02*
D03*
X583770D02*
D03*
Y646538D02*
D03*
X571070D02*
D03*
X558370D02*
D03*
X545670D02*
D03*
X532970D02*
D03*
X520270D02*
D03*
X507570D02*
D03*
X494870D02*
D03*
X482170D02*
D03*
X469470D02*
D03*
X456770D02*
D03*
X444070D02*
D03*
X431370D02*
D03*
X418670D02*
D03*
D40*
X596270Y489188D02*
D03*
Y501888D02*
D03*
Y514588D02*
D03*
Y527288D02*
D03*
Y539988D02*
D03*
Y552688D02*
D03*
Y565388D02*
D03*
Y578088D02*
D03*
Y590788D02*
D03*
Y603488D02*
D03*
Y616188D02*
D03*
Y628888D02*
D03*
D41*
X226090Y92740D02*
D03*
X240090D02*
D03*
X212090D02*
D03*
X240090Y106740D02*
D03*
X226090D02*
D03*
X212090D02*
D03*
X240090Y78740D02*
D03*
X226090D02*
D03*
X212090D02*
D03*
D42*
X298590Y15540D02*
D03*
Y28240D02*
D03*
Y40940D02*
D03*
Y53640D02*
D03*
Y66340D02*
D03*
Y79040D02*
D03*
Y91740D02*
D03*
Y104440D02*
D03*
Y117140D02*
D03*
Y129840D02*
D03*
Y142540D02*
D03*
Y155240D02*
D03*
Y167940D02*
D03*
Y180640D02*
D03*
X123590D02*
D03*
Y167940D02*
D03*
Y155240D02*
D03*
Y142540D02*
D03*
Y129840D02*
D03*
Y117140D02*
D03*
Y104440D02*
D03*
Y91740D02*
D03*
Y79040D02*
D03*
Y66340D02*
D03*
Y53640D02*
D03*
Y40940D02*
D03*
Y28240D02*
D03*
Y15540D02*
D03*
D43*
X280940Y193140D02*
D03*
X268240D02*
D03*
X255540D02*
D03*
X242840D02*
D03*
X230140D02*
D03*
X217440D02*
D03*
X204740D02*
D03*
X192040D02*
D03*
X179340D02*
D03*
X166640D02*
D03*
X153940D02*
D03*
X141240D02*
D03*
D44*
X378460Y402336D02*
D03*
X387960Y381136D02*
D03*
X368960D02*
D03*
X326244Y402336D02*
D03*
X335744Y381136D02*
D03*
X316744D02*
D03*
X882980Y263906D02*
D03*
X892480Y242706D02*
D03*
X873480D02*
D03*
D45*
X54084Y147574D02*
D03*
X20084D02*
D03*
X54084Y112268D02*
D03*
X20084D02*
D03*
D46*
X829488Y232156D02*
D03*
X812470D02*
D03*
X843570D02*
D03*
X860588D02*
D03*
D47*
X509858Y973352D02*
D03*
Y912852D02*
D03*
X330026Y973352D02*
D03*
Y912852D02*
D03*
D48*
X167640Y675126D02*
D03*
Y511126D02*
D03*
D49*
X944956Y697944D02*
D03*
Y685444D02*
D03*
Y672944D02*
D03*
Y660444D02*
D03*
Y647944D02*
D03*
Y635444D02*
D03*
Y622944D02*
D03*
X945268Y610688D02*
D03*
D50*
X974268Y723448D02*
D03*
Y585188D02*
D03*
D51*
X515902Y278354D02*
D03*
X510902D02*
D03*
X505902D02*
D03*
X500902D02*
D03*
X495902D02*
D03*
X490902D02*
D03*
X485902D02*
D03*
X480902D02*
D03*
X475902D02*
D03*
X470902D02*
D03*
X465902D02*
D03*
X460902D02*
D03*
X455902D02*
D03*
X450902D02*
D03*
X445902D02*
D03*
X440902D02*
D03*
X435902D02*
D03*
X430902D02*
D03*
X425902D02*
D03*
X420902D02*
D03*
X415902D02*
D03*
X410902D02*
D03*
X405902D02*
D03*
X400902D02*
D03*
D52*
X384202Y260604D02*
D03*
X532602D02*
D03*
D53*
X191516Y825582D02*
D03*
Y867582D02*
D03*
D54*
X679704Y833690D02*
D03*
Y873690D02*
D03*
Y757490D02*
D03*
Y797490D02*
D03*
X456518Y918276D02*
D03*
Y958276D02*
D03*
X277956Y918530D02*
D03*
Y958530D02*
D03*
D55*
X772634Y427990D02*
D03*
X736634D02*
D03*
Y451104D02*
D03*
X772634D02*
D03*
X653254Y427990D02*
D03*
X617254D02*
D03*
Y451104D02*
D03*
X653254D02*
D03*
X712944Y427990D02*
D03*
X676944D02*
D03*
Y451104D02*
D03*
X712944D02*
D03*
D56*
X875250Y114500D02*
D03*
Y99499D02*
D03*
X101092Y16140D02*
D03*
Y31140D02*
D03*
D57*
X71694Y864616D02*
D03*
X111694D02*
D03*
D58*
X450596Y296244D02*
D03*
Y306244D02*
D03*
X415798Y296244D02*
D03*
Y306244D02*
D03*
X440690Y296244D02*
D03*
Y306244D02*
D03*
X72390Y147574D02*
D03*
Y157574D02*
D03*
X72136Y122268D02*
D03*
Y132268D02*
D03*
X358394Y402256D02*
D03*
Y392256D02*
D03*
X306432Y402336D02*
D03*
Y392336D02*
D03*
D59*
X467360Y795640D02*
D03*
Y821640D02*
D03*
D60*
X340614Y750062D02*
D03*
Y781050D02*
D03*
X365252Y750316D02*
D03*
Y781304D02*
D03*
X340360Y799846D02*
D03*
Y830834D02*
D03*
D61*
X280670D02*
D03*
X311658D02*
D03*
X479124Y863854D02*
D03*
X510112D02*
D03*
X479124Y885698D02*
D03*
X510112D02*
D03*
X441532Y885444D02*
D03*
X410544D02*
D03*
X441532Y864362D02*
D03*
X410544D02*
D03*
X299038Y885556D02*
D03*
X330026D02*
D03*
X299038Y864220D02*
D03*
X330026D02*
D03*
X263224Y885048D02*
D03*
X232236D02*
D03*
X263224Y864220D02*
D03*
X232236D02*
D03*
D62*
X448610Y720090D02*
D03*
X422610D02*
D03*
M02*
