G04*
G04 #@! TF.GenerationSoftware,Altium Limited,Altium Designer,25.1.2 (22)*
G04*
G04 Layer_Color=8388736*
%FSLAX44Y44*%
%MOMM*%
G71*
G04*
G04 #@! TF.SameCoordinates,54FBF0B5-E2CF-4F3E-8A6F-997AE4EABEE6*
G04*
G04*
G04 #@! TF.FilePolarity,Negative*
G04*
G01*
G75*
%ADD19R,2.4892X0.8890*%
%ADD20R,2.4892X3.2004*%
%ADD63R,0.8032X2.1732*%
%ADD64R,3.5032X2.6132*%
%ADD65R,0.9652X1.0160*%
%ADD66R,1.0032X0.9532*%
%ADD67R,2.1732X0.8032*%
%ADD68R,1.0160X0.9652*%
%ADD69R,1.9032X1.2032*%
%ADD70R,0.7112X0.8636*%
%ADD71R,0.8636X0.7112*%
%ADD72R,0.8032X0.7032*%
%ADD73R,1.6510X1.3208*%
%ADD74R,1.9032X2.4032*%
%ADD75R,1.0160X1.0160*%
%ADD76R,0.9532X1.0032*%
%ADD77R,1.3208X1.6510*%
G04:AMPARAMS|DCode=78|XSize=2.2532mm|YSize=0.7932mm|CornerRadius=0.1754mm|HoleSize=0mm|Usage=FLASHONLY|Rotation=0.000|XOffset=0mm|YOffset=0mm|HoleType=Round|Shape=RoundedRectangle|*
%AMROUNDEDRECTD78*
21,1,2.2532,0.4425,0,0,0.0*
21,1,1.9025,0.7932,0,0,0.0*
1,1,0.3507,0.9513,-0.2213*
1,1,0.3507,-0.9513,-0.2213*
1,1,0.3507,-0.9513,0.2213*
1,1,0.3507,0.9513,0.2213*
%
%ADD78ROUNDEDRECTD78*%
G04:AMPARAMS|DCode=79|XSize=2.5032mm|YSize=1.6832mm|CornerRadius=0.2866mm|HoleSize=0mm|Usage=FLASHONLY|Rotation=0.000|XOffset=0mm|YOffset=0mm|HoleType=Round|Shape=RoundedRectangle|*
%AMROUNDEDRECTD79*
21,1,2.5032,1.1100,0,0,0.0*
21,1,1.9300,1.6832,0,0,0.0*
1,1,0.5732,0.9650,-0.5550*
1,1,0.5732,-0.9650,-0.5550*
1,1,0.5732,-0.9650,0.5550*
1,1,0.5732,0.9650,0.5550*
%
%ADD79ROUNDEDRECTD79*%
G04:AMPARAMS|DCode=80|XSize=1.6732mm|YSize=0.4832mm|CornerRadius=0.1366mm|HoleSize=0mm|Usage=FLASHONLY|Rotation=0.000|XOffset=0mm|YOffset=0mm|HoleType=Round|Shape=RoundedRectangle|*
%AMROUNDEDRECTD80*
21,1,1.6732,0.2100,0,0,0.0*
21,1,1.4000,0.4832,0,0,0.0*
1,1,0.2732,0.7000,-0.1050*
1,1,0.2732,-0.7000,-0.1050*
1,1,0.2732,-0.7000,0.1050*
1,1,0.2732,0.7000,0.1050*
%
%ADD80ROUNDEDRECTD80*%
%ADD81R,1.4032X1.2192*%
%ADD82R,1.1032X1.1032*%
%ADD83R,1.1032X1.7032*%
%ADD84R,1.7032X1.1032*%
%ADD85R,1.1032X1.1032*%
%ADD86R,1.7032X1.1032*%
%ADD87R,1.1032X1.7032*%
%ADD88R,1.2192X1.4032*%
%ADD89R,3.0000X3.0000*%
%ADD90R,2.4032X1.9032*%
%ADD91R,1.2192X1.3970*%
%ADD92R,4.2032X2.9032*%
%ADD93R,2.5032X4.7032*%
%ADD94R,1.8032X1.0032*%
%ADD95R,3.2032X2.3032*%
%ADD96R,0.5032X1.4532*%
%ADD97R,2.5032X3.3032*%
%ADD98R,3.4032X1.7032*%
%ADD99R,1.9032X2.7032*%
%ADD100R,1.5732X1.9332*%
%ADD101R,1.0160X1.0160*%
%ADD102R,2.7032X1.9032*%
%ADD103R,0.7032X0.8032*%
G04:AMPARAMS|DCode=104|XSize=2.0132mm|YSize=1.5232mm|CornerRadius=0.2666mm|HoleSize=0mm|Usage=FLASHONLY|Rotation=270.000|XOffset=0mm|YOffset=0mm|HoleType=Round|Shape=RoundedRectangle|*
%AMROUNDEDRECTD104*
21,1,2.0132,0.9900,0,0,270.0*
21,1,1.4800,1.5232,0,0,270.0*
1,1,0.5332,-0.4950,-0.7400*
1,1,0.5332,-0.4950,0.7400*
1,1,0.5332,0.4950,0.7400*
1,1,0.5332,0.4950,-0.7400*
%
%ADD104ROUNDEDRECTD104*%
%ADD105R,2.0066X1.3208*%
%ADD106R,1.3208X2.0066*%
G04:AMPARAMS|DCode=107|XSize=2.0132mm|YSize=1.5232mm|CornerRadius=0.2666mm|HoleSize=0mm|Usage=FLASHONLY|Rotation=0.000|XOffset=0mm|YOffset=0mm|HoleType=Round|Shape=RoundedRectangle|*
%AMROUNDEDRECTD107*
21,1,2.0132,0.9900,0,0,0.0*
21,1,1.4800,1.5232,0,0,0.0*
1,1,0.5332,0.7400,-0.4950*
1,1,0.5332,-0.7400,-0.4950*
1,1,0.5332,-0.7400,0.4950*
1,1,0.5332,0.7400,0.4950*
%
%ADD107ROUNDEDRECTD107*%
%ADD108C,2.3032*%
%ADD109R,2.3032X2.3032*%
%ADD110C,1.5000*%
G04:AMPARAMS|DCode=111|XSize=2.3032mm|YSize=2.3032mm|CornerRadius=0.6266mm|HoleSize=0mm|Usage=FLASHONLY|Rotation=90.000|XOffset=0mm|YOffset=0mm|HoleType=Round|Shape=RoundedRectangle|*
%AMROUNDEDRECTD111*
21,1,2.3032,1.0500,0,0,90.0*
21,1,1.0500,2.3032,0,0,90.0*
1,1,1.2532,0.5250,0.5250*
1,1,1.2532,0.5250,-0.5250*
1,1,1.2532,-0.5250,-0.5250*
1,1,1.2532,-0.5250,0.5250*
%
%ADD111ROUNDEDRECTD111*%
%ADD112C,0.2032*%
%ADD113R,3.2032X3.2032*%
%ADD114C,3.2032*%
G04:AMPARAMS|DCode=115|XSize=2.3032mm|YSize=2.3032mm|CornerRadius=0.6266mm|HoleSize=0mm|Usage=FLASHONLY|Rotation=180.000|XOffset=0mm|YOffset=0mm|HoleType=Round|Shape=RoundedRectangle|*
%AMROUNDEDRECTD115*
21,1,2.3032,1.0500,0,0,180.0*
21,1,1.0500,2.3032,0,0,180.0*
1,1,1.2532,-0.5250,0.5250*
1,1,1.2532,0.5250,0.5250*
1,1,1.2532,0.5250,-0.5250*
1,1,1.2532,-0.5250,-0.5250*
%
%ADD115ROUNDEDRECTD115*%
G04:AMPARAMS|DCode=116|XSize=2.6032mm|YSize=2.6032mm|CornerRadius=0.7016mm|HoleSize=0mm|Usage=FLASHONLY|Rotation=180.000|XOffset=0mm|YOffset=0mm|HoleType=Round|Shape=RoundedRectangle|*
%AMROUNDEDRECTD116*
21,1,2.6032,1.2000,0,0,180.0*
21,1,1.2000,2.6032,0,0,180.0*
1,1,1.4032,-0.6000,0.6000*
1,1,1.4032,0.6000,0.6000*
1,1,1.4032,0.6000,-0.6000*
1,1,1.4032,-0.6000,-0.6000*
%
%ADD116ROUNDEDRECTD116*%
%ADD117C,2.6032*%
%ADD118O,2.4032X1.9032*%
%ADD119C,5.2032*%
%ADD120C,2.0032*%
%ADD121R,2.0032X2.0032*%
%ADD122C,1.5032*%
%ADD123C,1.2532*%
%ADD124R,2.3032X2.3032*%
%ADD125C,1.0032*%
%ADD126C,6.4000*%
D19*
X311277Y757896D02*
D03*
Y780796D02*
D03*
Y803696D02*
D03*
D20*
X256159Y780796D02*
D03*
D63*
X206836Y906922D02*
D03*
X232236Y956422D02*
D03*
X219536D02*
D03*
X206836D02*
D03*
X219536Y906922D02*
D03*
X232236D02*
D03*
X244936D02*
D03*
Y956422D02*
D03*
X666256Y344520D02*
D03*
Y295020D02*
D03*
X653556D02*
D03*
X640856D02*
D03*
X628156Y344520D02*
D03*
X640856D02*
D03*
X653556D02*
D03*
X628156Y295020D02*
D03*
X540540Y54887D02*
D03*
Y104387D02*
D03*
X553240D02*
D03*
X565940D02*
D03*
X578640Y54887D02*
D03*
X565940D02*
D03*
X553240D02*
D03*
X578640Y104387D02*
D03*
X627106Y175940D02*
D03*
X652506Y225440D02*
D03*
X639806D02*
D03*
X627106D02*
D03*
X639806Y175940D02*
D03*
X652506D02*
D03*
X665206D02*
D03*
Y225440D02*
D03*
X325374Y479186D02*
D03*
X350774Y528686D02*
D03*
X338074D02*
D03*
X325374D02*
D03*
X338074Y479186D02*
D03*
X350774D02*
D03*
X363474D02*
D03*
Y528686D02*
D03*
X216916Y414132D02*
D03*
X191516Y364632D02*
D03*
X204216D02*
D03*
X216916D02*
D03*
X204216Y414132D02*
D03*
X191516D02*
D03*
X178816D02*
D03*
Y364632D02*
D03*
X448644Y795640D02*
D03*
X423244Y746140D02*
D03*
X435944D02*
D03*
X448644D02*
D03*
X435944Y795640D02*
D03*
X423244D02*
D03*
X410544D02*
D03*
Y746140D02*
D03*
X385144Y907430D02*
D03*
X410544Y956930D02*
D03*
X397844D02*
D03*
X385144D02*
D03*
X397844Y907430D02*
D03*
X410544D02*
D03*
X423244D02*
D03*
Y956930D02*
D03*
D64*
X225886Y931672D02*
D03*
X404194Y932180D02*
D03*
D65*
X872713Y128746D02*
D03*
X857219D02*
D03*
X843744Y143000D02*
D03*
X828250D02*
D03*
X872459Y143224D02*
D03*
X856965D02*
D03*
X938247Y906000D02*
D03*
X922753D02*
D03*
X963676Y906780D02*
D03*
X979170D02*
D03*
X624185Y257078D02*
D03*
X639679D02*
D03*
X668127D02*
D03*
X652633D02*
D03*
X352171Y453390D02*
D03*
X336677D02*
D03*
X205613Y431292D02*
D03*
X190119D02*
D03*
X811784Y900684D02*
D03*
X796290D02*
D03*
X888111D02*
D03*
X872617D02*
D03*
X537619Y23645D02*
D03*
X553113D02*
D03*
Y9675D02*
D03*
X537619D02*
D03*
X566067D02*
D03*
X581561D02*
D03*
Y23899D02*
D03*
X566067D02*
D03*
X875205Y286512D02*
D03*
X859711D02*
D03*
X790401Y551434D02*
D03*
X805895D02*
D03*
X790401Y487426D02*
D03*
X805895D02*
D03*
X67437Y405384D02*
D03*
X51943D02*
D03*
X312674Y563118D02*
D03*
X297180D02*
D03*
X312547Y578612D02*
D03*
X297053D02*
D03*
X50253Y566000D02*
D03*
X65747D02*
D03*
X23749Y878840D02*
D03*
X39243D02*
D03*
X267753Y656750D02*
D03*
X283247D02*
D03*
X267753Y627500D02*
D03*
X283247D02*
D03*
X267753Y641500D02*
D03*
X283247D02*
D03*
X267753Y670500D02*
D03*
X283247D02*
D03*
X267753Y685250D02*
D03*
X283247D02*
D03*
X384255Y984758D02*
D03*
X399749D02*
D03*
X397717Y889508D02*
D03*
X382223D02*
D03*
X205947Y984362D02*
D03*
X221441D02*
D03*
X219536Y889508D02*
D03*
X204042D02*
D03*
X232109Y984362D02*
D03*
X247603D02*
D03*
Y973186D02*
D03*
X232109D02*
D03*
D66*
X828250Y129000D02*
D03*
Y115500D02*
D03*
X679730Y331054D02*
D03*
Y344554D02*
D03*
X692683Y331054D02*
D03*
Y344554D02*
D03*
X689030Y124254D02*
D03*
Y137754D02*
D03*
X700206Y124254D02*
D03*
Y137754D02*
D03*
X728900Y131296D02*
D03*
Y117796D02*
D03*
X740326Y131150D02*
D03*
Y117650D02*
D03*
X773176Y257448D02*
D03*
Y243948D02*
D03*
X298196Y510432D02*
D03*
Y496932D02*
D03*
X310134Y510178D02*
D03*
Y496678D02*
D03*
X682498Y654704D02*
D03*
Y641204D02*
D03*
X693674Y654812D02*
D03*
Y641312D02*
D03*
X832866Y642004D02*
D03*
Y628504D02*
D03*
X821182Y642004D02*
D03*
Y628504D02*
D03*
X899368Y113194D02*
D03*
Y99694D02*
D03*
X887500Y113250D02*
D03*
Y99750D02*
D03*
X744728Y506730D02*
D03*
Y493230D02*
D03*
X733552Y506730D02*
D03*
Y493230D02*
D03*
X841614Y169524D02*
D03*
Y156024D02*
D03*
X860588Y273450D02*
D03*
Y259950D02*
D03*
X841614Y302768D02*
D03*
Y316268D02*
D03*
X854456Y302768D02*
D03*
Y316268D02*
D03*
X769414Y376766D02*
D03*
Y363266D02*
D03*
X744131Y321456D02*
D03*
Y307956D02*
D03*
X758698Y321456D02*
D03*
Y307956D02*
D03*
X785876Y298704D02*
D03*
Y312204D02*
D03*
X772922Y298704D02*
D03*
Y312204D02*
D03*
X793258Y408848D02*
D03*
Y395348D02*
D03*
X780304Y408848D02*
D03*
Y395348D02*
D03*
X836090Y391014D02*
D03*
Y404514D02*
D03*
X823056Y391014D02*
D03*
Y404514D02*
D03*
X769414Y337212D02*
D03*
Y350712D02*
D03*
X929132Y610522D02*
D03*
Y597022D02*
D03*
X917956Y610522D02*
D03*
Y597022D02*
D03*
X61722Y604920D02*
D03*
Y591420D02*
D03*
X50546Y604920D02*
D03*
Y591420D02*
D03*
X400304Y370078D02*
D03*
Y383578D02*
D03*
X347834Y370078D02*
D03*
Y383578D02*
D03*
X435690Y920930D02*
D03*
Y907430D02*
D03*
X257382Y920422D02*
D03*
Y906922D02*
D03*
D67*
X807940Y117570D02*
D03*
X758440D02*
D03*
Y130270D02*
D03*
Y142970D02*
D03*
X807940Y155670D02*
D03*
Y142970D02*
D03*
Y130270D02*
D03*
X758440Y155670D02*
D03*
X841614Y247650D02*
D03*
X792114Y273050D02*
D03*
Y260350D02*
D03*
Y247650D02*
D03*
X841614Y260350D02*
D03*
Y273050D02*
D03*
Y285750D02*
D03*
X792114D02*
D03*
X836106Y337504D02*
D03*
X786606Y362904D02*
D03*
Y350204D02*
D03*
Y337504D02*
D03*
X836106Y350204D02*
D03*
Y362904D02*
D03*
Y375604D02*
D03*
X786606D02*
D03*
X846440Y500380D02*
D03*
X796940Y525780D02*
D03*
Y513080D02*
D03*
Y500380D02*
D03*
X846440Y513080D02*
D03*
Y525780D02*
D03*
Y538480D02*
D03*
X796940D02*
D03*
D68*
X843750Y129247D02*
D03*
Y113753D02*
D03*
X128000Y228696D02*
D03*
Y213202D02*
D03*
X893250Y424503D02*
D03*
Y439997D02*
D03*
X828250Y171537D02*
D03*
Y156043D02*
D03*
X758698Y270383D02*
D03*
Y285877D02*
D03*
X773176D02*
D03*
Y270383D02*
D03*
X758698Y256921D02*
D03*
Y241427D02*
D03*
X773176Y227203D02*
D03*
Y211709D02*
D03*
X758698Y227457D02*
D03*
Y211963D02*
D03*
X756698Y378779D02*
D03*
Y363285D02*
D03*
X744131D02*
D03*
Y378779D02*
D03*
Y349696D02*
D03*
Y334202D02*
D03*
X756698Y334329D02*
D03*
Y349823D02*
D03*
X877250Y511503D02*
D03*
Y526997D02*
D03*
X617474Y501888D02*
D03*
Y486394D02*
D03*
X395224Y66421D02*
D03*
Y50927D02*
D03*
X420624Y66421D02*
D03*
Y50927D02*
D03*
X372698Y972439D02*
D03*
Y987933D02*
D03*
X194644Y973059D02*
D03*
Y988553D02*
D03*
X372698Y941451D02*
D03*
Y956945D02*
D03*
X194644Y940928D02*
D03*
Y956422D02*
D03*
D69*
X853000Y21716D02*
D03*
Y38716D02*
D03*
X905500Y21716D02*
D03*
Y38716D02*
D03*
D70*
X641000Y376500D02*
D03*
Y364500D02*
D03*
X374650Y491140D02*
D03*
Y479140D02*
D03*
X178816Y443388D02*
D03*
Y431388D02*
D03*
X192040Y225202D02*
D03*
Y213202D02*
D03*
X179340Y225202D02*
D03*
Y213202D02*
D03*
X532892Y670148D02*
D03*
Y682148D02*
D03*
Y707548D02*
D03*
Y695548D02*
D03*
X899250Y125750D02*
D03*
Y137750D02*
D03*
X510286Y839882D02*
D03*
Y827882D02*
D03*
X622046Y934370D02*
D03*
Y922370D02*
D03*
Y983392D02*
D03*
Y971392D02*
D03*
X510286Y778922D02*
D03*
Y766922D02*
D03*
X659892Y523730D02*
D03*
Y511730D02*
D03*
X532796Y442310D02*
D03*
Y454310D02*
D03*
X545496Y442310D02*
D03*
Y454310D02*
D03*
X507396Y442310D02*
D03*
Y454310D02*
D03*
X520096Y442310D02*
D03*
Y454310D02*
D03*
X930324Y647386D02*
D03*
Y635387D02*
D03*
X916764Y647386D02*
D03*
Y635387D02*
D03*
X84836Y417672D02*
D03*
Y429672D02*
D03*
X848000Y391000D02*
D03*
Y403000D02*
D03*
X893250Y489616D02*
D03*
Y477616D02*
D03*
X141240Y225202D02*
D03*
Y213202D02*
D03*
X153940Y225202D02*
D03*
Y213202D02*
D03*
X319532Y192182D02*
D03*
Y180182D02*
D03*
Y218790D02*
D03*
Y230790D02*
D03*
X864500Y114500D02*
D03*
Y102500D02*
D03*
X110236Y16140D02*
D03*
Y28140D02*
D03*
X72390Y188116D02*
D03*
Y176116D02*
D03*
X72136Y100268D02*
D03*
Y112268D02*
D03*
D71*
X841000Y64529D02*
D03*
X853000D02*
D03*
X780334Y81844D02*
D03*
X792334D02*
D03*
X816148Y77780D02*
D03*
X828148D02*
D03*
X652760Y268540D02*
D03*
X664760D02*
D03*
X639456D02*
D03*
X627456D02*
D03*
X337470Y545338D02*
D03*
X325470D02*
D03*
X351474Y545338D02*
D03*
X363474D02*
D03*
X631814Y886968D02*
D03*
X643814D02*
D03*
X634814Y855788D02*
D03*
X646814D02*
D03*
X634814Y865186D02*
D03*
X646814D02*
D03*
X632576Y810006D02*
D03*
X644576D02*
D03*
X635576Y778826D02*
D03*
X647576D02*
D03*
X635576Y788224D02*
D03*
X647576D02*
D03*
X624744Y527288D02*
D03*
X612744D02*
D03*
X624744Y578088D02*
D03*
X612744D02*
D03*
X625506Y590804D02*
D03*
X613506D02*
D03*
X625506Y603504D02*
D03*
X613506D02*
D03*
X62388Y553974D02*
D03*
X50388D02*
D03*
X62134Y350774D02*
D03*
X50134D02*
D03*
D72*
X853000Y55250D02*
D03*
X843000D02*
D03*
X826148Y69144D02*
D03*
X816148D02*
D03*
X790334Y72700D02*
D03*
X780334D02*
D03*
X387960Y370078D02*
D03*
X377960D02*
D03*
X335816D02*
D03*
X325816D02*
D03*
D73*
X714176Y135857D02*
D03*
Y118023D02*
D03*
X666256Y364701D02*
D03*
Y382535D02*
D03*
X759206Y506730D02*
D03*
Y488896D02*
D03*
X807530Y391014D02*
D03*
Y408848D02*
D03*
X338582Y45693D02*
D03*
Y63527D02*
D03*
Y10309D02*
D03*
Y28194D02*
D03*
X318262Y10387D02*
D03*
Y28272D02*
D03*
D74*
X816148Y16584D02*
D03*
Y50584D02*
D03*
X780334Y16584D02*
D03*
Y50584D02*
D03*
D75*
X923428Y918500D02*
D03*
X938428D02*
D03*
X979050Y918464D02*
D03*
X964050D02*
D03*
X646814Y876046D02*
D03*
X631814D02*
D03*
X647576Y799084D02*
D03*
X632576D02*
D03*
X299500Y627500D02*
D03*
X314500D02*
D03*
X299500Y641500D02*
D03*
X314500D02*
D03*
X299500Y670500D02*
D03*
X314500D02*
D03*
X299500Y685250D02*
D03*
X314500D02*
D03*
X299500Y656750D02*
D03*
X314500D02*
D03*
D76*
X699269Y239552D02*
D03*
X685769D02*
D03*
X699269Y225836D02*
D03*
X685769D02*
D03*
X680808Y190022D02*
D03*
X694308D02*
D03*
X680808Y176052D02*
D03*
X694308D02*
D03*
X666006Y243362D02*
D03*
X652506D02*
D03*
X626198D02*
D03*
X639698D02*
D03*
X204216Y346456D02*
D03*
X190716D02*
D03*
X204216Y333502D02*
D03*
X190716D02*
D03*
X539632Y37361D02*
D03*
X553132D02*
D03*
X506543Y43925D02*
D03*
X520043D02*
D03*
X506543Y56879D02*
D03*
X520043D02*
D03*
X524377Y91677D02*
D03*
X510877D02*
D03*
X524377Y104377D02*
D03*
X510877D02*
D03*
X579548Y37361D02*
D03*
X566048D02*
D03*
X888265Y332994D02*
D03*
X874765D02*
D03*
X888265Y320040D02*
D03*
X874765D02*
D03*
X846440Y562356D02*
D03*
X832940D02*
D03*
X846440Y551180D02*
D03*
X832940D02*
D03*
X23984Y893572D02*
D03*
X37484D02*
D03*
X358394Y415036D02*
D03*
X371894D02*
D03*
X306432D02*
D03*
X319932D02*
D03*
X397736Y973582D02*
D03*
X384236D02*
D03*
X219536Y972932D02*
D03*
X206036D02*
D03*
D77*
X680808Y208056D02*
D03*
X698642D02*
D03*
X524377Y74405D02*
D03*
X506543D02*
D03*
X870431Y302768D02*
D03*
X888265D02*
D03*
X85371Y390906D02*
D03*
X67537D02*
D03*
X445770Y435864D02*
D03*
X463604D02*
D03*
X23595Y860298D02*
D03*
X41429D02*
D03*
X413485Y435864D02*
D03*
X431370D02*
D03*
X413485Y453390D02*
D03*
X431370D02*
D03*
X428429Y838200D02*
D03*
X410544D02*
D03*
X428429Y817880D02*
D03*
X410544D02*
D03*
D78*
X710878Y667512D02*
D03*
Y654812D02*
D03*
Y642112D02*
D03*
Y629412D02*
D03*
Y616712D02*
D03*
Y604012D02*
D03*
Y591312D02*
D03*
Y578612D02*
D03*
X803978D02*
D03*
Y591312D02*
D03*
Y604012D02*
D03*
Y616712D02*
D03*
Y629412D02*
D03*
Y642112D02*
D03*
Y654812D02*
D03*
Y667512D02*
D03*
D79*
X614492Y839978D02*
D03*
Y814578D02*
D03*
X527492D02*
D03*
Y839978D02*
D03*
X643316Y909066D02*
D03*
Y934466D02*
D03*
X730316D02*
D03*
Y909066D02*
D03*
X614746Y779018D02*
D03*
Y753618D02*
D03*
X527746D02*
D03*
Y779018D02*
D03*
X643062Y957834D02*
D03*
Y983234D02*
D03*
X730062D02*
D03*
Y957834D02*
D03*
D80*
X717714Y516730D02*
D03*
Y511730D02*
D03*
Y506730D02*
D03*
Y501730D02*
D03*
Y496730D02*
D03*
X674714D02*
D03*
Y501730D02*
D03*
Y506730D02*
D03*
Y511730D02*
D03*
Y516730D02*
D03*
D81*
X799660Y312204D02*
D03*
X820860Y321704D02*
D03*
Y302704D02*
D03*
X656014Y833690D02*
D03*
X634814Y824190D02*
D03*
Y843190D02*
D03*
X656776Y757490D02*
D03*
X635576Y747990D02*
D03*
Y766990D02*
D03*
X51884Y427228D02*
D03*
X73084Y436728D02*
D03*
Y417728D02*
D03*
D82*
X495870Y544038D02*
D03*
Y530038D02*
D03*
Y558038D02*
D03*
X509870Y530038D02*
D03*
Y544038D02*
D03*
Y558038D02*
D03*
X481870Y530038D02*
D03*
Y544038D02*
D03*
Y558038D02*
D03*
D83*
X418670Y471538D02*
D03*
X431370D02*
D03*
X444070D02*
D03*
X456770D02*
D03*
X469470D02*
D03*
X482170D02*
D03*
X494870D02*
D03*
X507570D02*
D03*
X520270D02*
D03*
X532970D02*
D03*
X545670D02*
D03*
X558370D02*
D03*
X571070D02*
D03*
X583770D02*
D03*
Y646538D02*
D03*
X571070D02*
D03*
X558370D02*
D03*
X545670D02*
D03*
X532970D02*
D03*
X520270D02*
D03*
X507570D02*
D03*
X494870D02*
D03*
X482170D02*
D03*
X469470D02*
D03*
X456770D02*
D03*
X444070D02*
D03*
X431370D02*
D03*
X418670D02*
D03*
D84*
X596270Y489188D02*
D03*
Y501888D02*
D03*
Y514588D02*
D03*
Y527288D02*
D03*
Y539988D02*
D03*
Y552688D02*
D03*
Y565388D02*
D03*
Y578088D02*
D03*
Y590788D02*
D03*
Y603488D02*
D03*
Y616188D02*
D03*
Y628888D02*
D03*
D85*
X226090Y92740D02*
D03*
X240090D02*
D03*
X212090D02*
D03*
X240090Y106740D02*
D03*
X226090D02*
D03*
X212090D02*
D03*
X240090Y78740D02*
D03*
X226090D02*
D03*
X212090D02*
D03*
D86*
X298590Y15540D02*
D03*
Y28240D02*
D03*
Y40940D02*
D03*
Y53640D02*
D03*
Y66340D02*
D03*
Y79040D02*
D03*
Y91740D02*
D03*
Y104440D02*
D03*
Y117140D02*
D03*
Y129840D02*
D03*
Y142540D02*
D03*
Y155240D02*
D03*
Y167940D02*
D03*
Y180640D02*
D03*
X123590D02*
D03*
Y167940D02*
D03*
Y155240D02*
D03*
Y142540D02*
D03*
Y129840D02*
D03*
Y117140D02*
D03*
Y104440D02*
D03*
Y91740D02*
D03*
Y79040D02*
D03*
Y66340D02*
D03*
Y53640D02*
D03*
Y40940D02*
D03*
Y28240D02*
D03*
Y15540D02*
D03*
D87*
X280940Y193140D02*
D03*
X268240D02*
D03*
X255540D02*
D03*
X242840D02*
D03*
X230140D02*
D03*
X217440D02*
D03*
X204740D02*
D03*
X192040D02*
D03*
X179340D02*
D03*
X166640D02*
D03*
X153940D02*
D03*
X141240D02*
D03*
D88*
X378460Y402336D02*
D03*
X387960Y381136D02*
D03*
X368960D02*
D03*
X326244Y402336D02*
D03*
X335744Y381136D02*
D03*
X316744D02*
D03*
X882980Y263906D02*
D03*
X892480Y242706D02*
D03*
X873480D02*
D03*
D89*
X30000Y638000D02*
D03*
D90*
X54084Y147574D02*
D03*
X20084D02*
D03*
X54084Y112268D02*
D03*
X20084D02*
D03*
D91*
X829488Y232156D02*
D03*
X812470D02*
D03*
X843570D02*
D03*
X860588D02*
D03*
D92*
X509858Y973352D02*
D03*
Y912852D02*
D03*
X330026Y973352D02*
D03*
Y912852D02*
D03*
D93*
X167640Y675126D02*
D03*
Y511126D02*
D03*
D94*
X944956Y697944D02*
D03*
Y685444D02*
D03*
Y672944D02*
D03*
Y660444D02*
D03*
Y647944D02*
D03*
Y635444D02*
D03*
Y622944D02*
D03*
X945268Y610688D02*
D03*
D95*
X974268Y723448D02*
D03*
Y585188D02*
D03*
D96*
X515902Y278354D02*
D03*
X510902D02*
D03*
X505902D02*
D03*
X500902D02*
D03*
X495902D02*
D03*
X490902D02*
D03*
X485902D02*
D03*
X480902D02*
D03*
X475902D02*
D03*
X470902D02*
D03*
X465902D02*
D03*
X460902D02*
D03*
X455902D02*
D03*
X450902D02*
D03*
X445902D02*
D03*
X440902D02*
D03*
X435902D02*
D03*
X430902D02*
D03*
X425902D02*
D03*
X420902D02*
D03*
X415902D02*
D03*
X410902D02*
D03*
X405902D02*
D03*
X400902D02*
D03*
D97*
X384202Y260604D02*
D03*
X532602D02*
D03*
D98*
X191516Y825582D02*
D03*
Y867582D02*
D03*
D99*
X679704Y833690D02*
D03*
Y873690D02*
D03*
Y757490D02*
D03*
Y797490D02*
D03*
X456518Y918276D02*
D03*
Y958276D02*
D03*
X277956Y918530D02*
D03*
Y958530D02*
D03*
D100*
X772634Y427990D02*
D03*
X736634D02*
D03*
Y451104D02*
D03*
X772634D02*
D03*
X653254Y427990D02*
D03*
X617254D02*
D03*
Y451104D02*
D03*
X653254D02*
D03*
X712944Y427990D02*
D03*
X676944D02*
D03*
Y451104D02*
D03*
X712944D02*
D03*
D101*
X875250Y114500D02*
D03*
Y99499D02*
D03*
X101092Y16140D02*
D03*
Y31140D02*
D03*
D102*
X71694Y864616D02*
D03*
X111694D02*
D03*
D103*
X450596Y296244D02*
D03*
Y306244D02*
D03*
X415798Y296244D02*
D03*
Y306244D02*
D03*
X440690Y296244D02*
D03*
Y306244D02*
D03*
X72390Y147574D02*
D03*
Y157574D02*
D03*
X72136Y122268D02*
D03*
Y132268D02*
D03*
X358394Y402256D02*
D03*
Y392256D02*
D03*
X306432Y402336D02*
D03*
Y392336D02*
D03*
D104*
X467360Y795640D02*
D03*
Y821640D02*
D03*
D105*
X340614Y750062D02*
D03*
Y781050D02*
D03*
X365252Y750316D02*
D03*
Y781304D02*
D03*
X340360Y799846D02*
D03*
Y830834D02*
D03*
D106*
X280670D02*
D03*
X311658D02*
D03*
X479124Y863854D02*
D03*
X510112D02*
D03*
X479124Y885698D02*
D03*
X510112D02*
D03*
X441532Y885444D02*
D03*
X410544D02*
D03*
X441532Y864362D02*
D03*
X410544D02*
D03*
X299038Y885556D02*
D03*
X330026D02*
D03*
X299038Y864220D02*
D03*
X330026D02*
D03*
X263224Y885048D02*
D03*
X232236D02*
D03*
X263224Y864220D02*
D03*
X232236D02*
D03*
D107*
X448610Y720090D02*
D03*
X422610D02*
D03*
D108*
X264160Y518350D02*
D03*
Y543750D02*
D03*
X919246Y451671D02*
D03*
Y544876D02*
D03*
Y358666D02*
D03*
Y320565D02*
D03*
Y282465D02*
D03*
X919226Y871790D02*
D03*
Y833690D02*
D03*
Y795590D02*
D03*
X919246Y189600D02*
D03*
Y151500D02*
D03*
X850000Y920000D02*
D03*
X811900D02*
D03*
X773800D02*
D03*
X655451Y81750D02*
D03*
X693551D02*
D03*
X731651D02*
D03*
X395224Y27432D02*
D03*
X369824D02*
D03*
D109*
X264160Y569150D02*
D03*
D110*
X874250Y158500D02*
D03*
X740156Y256921D02*
D03*
X652506Y142077D02*
D03*
X617500Y109250D02*
D03*
X565940Y130760D02*
D03*
X592750Y285500D02*
D03*
X677164Y401574D02*
D03*
D111*
X919246Y413571D02*
D03*
Y506776D02*
D03*
Y244366D02*
D03*
X919226Y757490D02*
D03*
X919246Y113400D02*
D03*
D112*
X879250Y16466D02*
D03*
Y43966D02*
D03*
D113*
X153162Y827702D02*
D03*
D114*
Y780702D02*
D03*
Y733702D02*
D03*
X23662Y805702D02*
D03*
Y755702D02*
D03*
D115*
X888100Y920000D02*
D03*
X617351Y81750D02*
D03*
D116*
X162560Y903102D02*
D03*
D117*
X111760D02*
D03*
D118*
X26924Y604774D02*
D03*
Y579374D02*
D03*
Y553974D02*
D03*
Y528574D02*
D03*
Y503174D02*
D03*
Y477774D02*
D03*
Y452374D02*
D03*
Y426974D02*
D03*
Y401574D02*
D03*
Y376174D02*
D03*
Y350774D02*
D03*
Y325374D02*
D03*
Y299974D02*
D03*
Y274574D02*
D03*
X867224Y477674D02*
D03*
Y452274D02*
D03*
Y426874D02*
D03*
Y401474D02*
D03*
D119*
X36924Y194474D02*
D03*
Y684874D02*
D03*
X867224D02*
D03*
Y194474D02*
D03*
D120*
X892556Y833690D02*
D03*
X822556D02*
D03*
X707556D02*
D03*
X892302Y757490D02*
D03*
X822302D02*
D03*
X707302D02*
D03*
D121*
X707556Y880690D02*
D03*
X707302Y804490D02*
D03*
D122*
X167640Y632626D02*
D03*
D123*
Y558126D02*
D03*
D124*
X420624Y27432D02*
D03*
D125*
X936000Y40000D02*
D03*
X976971Y56971D02*
D03*
X960000Y16000D02*
D03*
X984000Y40000D02*
D03*
X943029Y23029D02*
D03*
Y56971D02*
D03*
X976971Y23029D02*
D03*
X960000Y64000D02*
D03*
X936000Y960000D02*
D03*
X976971Y976971D02*
D03*
X960000Y936000D02*
D03*
X984000Y960000D02*
D03*
X943029Y943029D02*
D03*
Y976971D02*
D03*
X976971Y943029D02*
D03*
X960000Y984000D02*
D03*
X16000Y40000D02*
D03*
X56971Y56971D02*
D03*
X40000Y16000D02*
D03*
X64000Y40000D02*
D03*
X23029Y23029D02*
D03*
Y56971D02*
D03*
X56971Y23029D02*
D03*
X40000Y64000D02*
D03*
X16000Y960000D02*
D03*
X56971Y976971D02*
D03*
X40000Y936000D02*
D03*
X64000Y960000D02*
D03*
X23029Y943029D02*
D03*
Y976971D02*
D03*
X56971Y943029D02*
D03*
X40000Y984000D02*
D03*
D126*
X960000Y40000D02*
D03*
Y960000D02*
D03*
X40000Y40000D02*
D03*
Y960000D02*
D03*
M02*
