G04*
G04 #@! TF.GenerationSoftware,Altium Limited,Altium Designer,25.1.2 (22)*
G04*
G04 Layer_Physical_Order=3*
G04 Layer_Color=16440176*
%FSLAX44Y44*%
%MOMM*%
G71*
G04*
G04 #@! TF.SameCoordinates,54FBF0B5-E2CF-4F3E-8A6F-997AE4EABEE6*
G04*
G04*
G04 #@! TF.FilePolarity,Positive*
G04*
G01*
G75*
%ADD11C,0.2540*%
%ADD89R,3.0000X3.0000*%
%ADD126C,6.4000*%
%ADD129C,0.5000*%
%ADD131C,0.3810*%
%ADD132C,0.7620*%
%ADD133C,0.5080*%
%ADD136C,2.1000*%
%ADD137R,2.1000X2.1000*%
G04:AMPARAMS|DCode=138|XSize=2.1mm|YSize=2.1mm|CornerRadius=0.525mm|HoleSize=0mm|Usage=FLASHONLY|Rotation=90.000|XOffset=0mm|YOffset=0mm|HoleType=Round|Shape=RoundedRectangle|*
%AMROUNDEDRECTD138*
21,1,2.1000,1.0500,0,0,90.0*
21,1,1.0500,2.1000,0,0,90.0*
1,1,1.0500,0.5250,0.5250*
1,1,1.0500,0.5250,-0.5250*
1,1,1.0500,-0.5250,-0.5250*
1,1,1.0500,-0.5250,0.5250*
%
%ADD138ROUNDEDRECTD138*%
%ADD139C,0.8000*%
%ADD140C,3.0000*%
G04:AMPARAMS|DCode=141|XSize=2.1mm|YSize=2.1mm|CornerRadius=0.525mm|HoleSize=0mm|Usage=FLASHONLY|Rotation=180.000|XOffset=0mm|YOffset=0mm|HoleType=Round|Shape=RoundedRectangle|*
%AMROUNDEDRECTD141*
21,1,2.1000,1.0500,0,0,180.0*
21,1,1.0500,2.1000,0,0,180.0*
1,1,1.0500,-0.5250,0.5250*
1,1,1.0500,0.5250,0.5250*
1,1,1.0500,0.5250,-0.5250*
1,1,1.0500,-0.5250,-0.5250*
%
%ADD141ROUNDEDRECTD141*%
G04:AMPARAMS|DCode=142|XSize=2.4mm|YSize=2.4mm|CornerRadius=0.6mm|HoleSize=0mm|Usage=FLASHONLY|Rotation=180.000|XOffset=0mm|YOffset=0mm|HoleType=Round|Shape=RoundedRectangle|*
%AMROUNDEDRECTD142*
21,1,2.4000,1.2000,0,0,180.0*
21,1,1.2000,2.4000,0,0,180.0*
1,1,1.2000,-0.6000,0.6000*
1,1,1.2000,0.6000,0.6000*
1,1,1.2000,0.6000,-0.6000*
1,1,1.2000,-0.6000,-0.6000*
%
%ADD142ROUNDEDRECTD142*%
%ADD143C,2.4000*%
%ADD144O,2.2000X1.7000*%
%ADD146C,1.8000*%
%ADD148C,1.3000*%
%ADD149C,1.0500*%
%ADD150R,2.1000X2.1000*%
%ADD151C,1.5240*%
%ADD152O,2.0000X1.5000*%
%ADD153C,1.0160*%
%ADD154C,1.0000*%
G36*
X730278Y974475D02*
X731249Y973504D01*
X731293Y973398D01*
X731774Y971550D01*
Y971550D01*
X731774D01*
X731774Y971550D01*
X731774Y780542D01*
X731774Y780138D01*
X731465Y779391D01*
X730893Y778819D01*
X730146Y778510D01*
X729742Y778510D01*
X671322D01*
X670918Y778510D01*
X670171Y778819D01*
X669599Y779391D01*
X669290Y780138D01*
X669290Y780542D01*
X669290Y938276D01*
X669250Y939098D01*
X668929Y940709D01*
X668300Y942227D01*
X667387Y943594D01*
X666226Y944755D01*
X664859Y945668D01*
X663341Y946297D01*
X661730Y946618D01*
X660908Y946658D01*
X659384D01*
X366268Y946658D01*
X365475Y946580D01*
X364010Y945973D01*
X362888Y944852D01*
X362282Y943387D01*
X362204Y942594D01*
X362204Y942594D01*
X362204Y942594D01*
X362204Y924560D01*
X362204Y921512D01*
X362262Y920917D01*
X362718Y919818D01*
X363559Y918978D01*
X364657Y918522D01*
X365252Y918464D01*
X375158Y918464D01*
X375494Y918464D01*
X375753Y918205D01*
X376936Y916686D01*
X376936Y914788D01*
X376936Y909828D01*
X376936Y849376D01*
X376936Y848668D01*
X376395Y847361D01*
X375394Y846361D01*
X375218Y846288D01*
X373380Y845820D01*
Y845820D01*
X302514Y845820D01*
X301251Y845820D01*
X298917Y846787D01*
X297131Y848573D01*
X296164Y850907D01*
X296164Y852170D01*
Y967994D01*
X296164Y969250D01*
X297024Y971609D01*
X298640Y973531D01*
X300816Y974784D01*
X302053Y975000D01*
X302053Y975000D01*
X728324Y975000D01*
X729010Y975000D01*
X730278Y974475D01*
D02*
G37*
G36*
X617455Y852598D02*
X617386Y852504D01*
X617325Y852336D01*
X617270Y852094D01*
X617223Y851779D01*
X617151Y850927D01*
X617097Y849098D01*
X617093Y848341D01*
X612013Y849023D01*
X611884Y853170D01*
X617455Y852598D01*
D02*
G37*
G36*
X617144Y831901D02*
X617296Y831037D01*
X617550Y830275D01*
X617906Y829615D01*
X618363Y829056D01*
X618922Y828599D01*
X619582Y828243D01*
X620344Y827989D01*
X621208Y827837D01*
X622173Y827786D01*
Y822706D01*
X621208Y822655D01*
X620344Y822503D01*
X619582Y822249D01*
X618922Y821893D01*
X618363Y821436D01*
X617906Y820877D01*
X617550Y820217D01*
X617296Y819455D01*
X617144Y818591D01*
X617093Y817626D01*
X612013Y825246D01*
X617093Y832866D01*
X617144Y831901D01*
D02*
G37*
G36*
X360250Y840740D02*
X360250Y840740D01*
X382750Y840740D01*
X383160Y840740D01*
X383854Y840452D01*
X384810Y838680D01*
X384810Y836793D01*
X384810Y773430D01*
X384750Y773370D01*
X384750Y599531D01*
X384749Y598629D01*
X384058Y596963D01*
X382781Y595688D01*
X382079Y595398D01*
X380212Y595000D01*
X114736Y595000D01*
X114683Y595129D01*
X113129Y596683D01*
X111099Y597524D01*
X108901D01*
X106871Y596683D01*
X105317Y595129D01*
X105264Y595000D01*
X98736D01*
X98683Y595129D01*
X97129Y596683D01*
X95099Y597524D01*
X92901D01*
X90871Y596683D01*
X89317Y595129D01*
X89263Y595000D01*
X83736D01*
X83683Y595129D01*
X82129Y596683D01*
X80099Y597524D01*
X77901D01*
X75871Y596683D01*
X74317Y595129D01*
X74264Y595000D01*
X14346D01*
X13647Y595000D01*
X12276Y595273D01*
X11019Y595793D01*
X10129Y596683D01*
X9437Y596970D01*
X8834Y597573D01*
X8058Y598735D01*
X7523Y600026D01*
X7250Y601397D01*
X7250Y602096D01*
Y624750D01*
X7250Y625844D01*
X8087Y627866D01*
X9634Y629413D01*
X11656Y630250D01*
X12750Y630250D01*
X12750Y630250D01*
X47848Y630250D01*
X47924Y630174D01*
X159990D01*
X160163Y629529D01*
X161219Y627699D01*
X162713Y626205D01*
X164543Y625149D01*
X166584Y624602D01*
X168696D01*
X170737Y625149D01*
X172567Y626205D01*
X174061Y627699D01*
X175117Y629529D01*
X175290Y630174D01*
X236474D01*
X237187Y630209D01*
X238586Y630487D01*
X239904Y631033D01*
X241090Y631825D01*
X242098Y632834D01*
X242891Y634020D01*
X243437Y635338D01*
X243715Y636737D01*
X243750Y637450D01*
X243750Y637450D01*
Y796798D01*
Y797303D01*
X244137Y798237D01*
X244851Y798951D01*
X245785Y799338D01*
X246380D01*
X356700Y799338D01*
X356710Y799338D01*
X356710Y799338D01*
X356989Y799365D01*
X357505Y799579D01*
X357899Y799974D01*
X358112Y800489D01*
X358140Y800768D01*
X358140Y800768D01*
X358140Y800777D01*
Y838640D01*
X358141Y839059D01*
X358463Y839832D01*
X359057Y840423D01*
X359831Y840741D01*
X360250Y840740D01*
D02*
G37*
G36*
X617097Y801394D02*
X617270Y798398D01*
X617325Y798156D01*
X617386Y797988D01*
X617455Y797894D01*
X611884Y797322D01*
X611909Y797391D01*
X611931Y797537D01*
X611950Y797760D01*
X612001Y799419D01*
X612013Y801469D01*
X617093Y802151D01*
X617097Y801394D01*
D02*
G37*
G36*
X487680Y781050D02*
Y741680D01*
X485140Y739140D01*
X463550D01*
X461010Y741680D01*
Y781050D01*
X463550Y783590D01*
X485140D01*
X487680Y781050D01*
D02*
G37*
G36*
X580834Y924000D02*
X580834Y924000D01*
X580834D01*
X582709Y923905D01*
X584966Y923456D01*
X586943Y922637D01*
X593637Y915943D01*
X594456Y913966D01*
X595000Y911229D01*
X595000Y909834D01*
X595000Y822073D01*
X592968Y820102D01*
X592655D01*
X590624Y819261D01*
X589071Y817707D01*
X588229Y815677D01*
Y813479D01*
X589071Y811449D01*
X590624Y809895D01*
X592655Y809054D01*
X594852D01*
X595000Y808955D01*
X595000Y764000D01*
X775000Y584000D01*
X889000Y584000D01*
X889000Y584000D01*
X889000Y584000D01*
X889001D01*
X890887Y583801D01*
X891625Y583654D01*
X893263Y582976D01*
X894737Y581991D01*
X895991Y580737D01*
X896976Y579263D01*
X897654Y577625D01*
X898000Y575886D01*
X898000Y575000D01*
X898000Y471000D01*
Y470212D01*
X897693Y468666D01*
X897089Y467211D01*
X896214Y465900D01*
X895100Y464786D01*
X893789Y463910D01*
X892334Y463307D01*
X890788Y463000D01*
X852436D01*
X851950Y463629D01*
X851353Y465032D01*
X852024Y466651D01*
Y468849D01*
X851183Y470879D01*
X849629Y472433D01*
X847599Y473274D01*
X845401D01*
X843371Y472433D01*
X841817Y470879D01*
X840976Y468849D01*
Y466651D01*
X841647Y465032D01*
X841050Y463629D01*
X840614Y463064D01*
X838636D01*
X838200Y463629D01*
X837603Y465032D01*
X838274Y466651D01*
Y468849D01*
X837433Y470879D01*
X835879Y472433D01*
X833849Y473274D01*
X831651D01*
X829621Y472433D01*
X828067Y470879D01*
X827226Y468849D01*
Y466651D01*
X827897Y465032D01*
X827300Y463629D01*
X826814Y463000D01*
X770000D01*
X770000Y463000D01*
X769118Y462957D01*
X767387Y462612D01*
X765757Y461937D01*
X764290Y460957D01*
X763043Y459710D01*
X762063Y458242D01*
X761387Y456613D01*
X761043Y454882D01*
X761000Y454000D01*
Y404686D01*
X758968Y403844D01*
X758129Y404683D01*
X756099Y405524D01*
X753901D01*
X751871Y404683D01*
X750317Y403129D01*
X749476Y401099D01*
Y398901D01*
X750317Y396871D01*
X751871Y395317D01*
X753901Y394476D01*
X756099D01*
X758129Y395317D01*
X758968Y396156D01*
X761000Y395314D01*
Y298000D01*
X761000Y298000D01*
X761005Y297119D01*
X760671Y295388D01*
X760006Y293755D01*
X759035Y292284D01*
X757796Y291031D01*
X756336Y290043D01*
X754711Y289359D01*
X753462Y289103D01*
X731539D01*
X730697Y291135D01*
X731433Y291871D01*
X732274Y293901D01*
Y296099D01*
X731433Y298129D01*
X729879Y299683D01*
X727849Y300524D01*
X725651D01*
X723621Y299683D01*
X722067Y298129D01*
X721226Y296099D01*
Y293901D01*
X722067Y291871D01*
X722803Y291135D01*
X721961Y289103D01*
X706289D01*
X705447Y291135D01*
X705933Y291621D01*
X706774Y293651D01*
Y295849D01*
X705933Y297879D01*
X704379Y299433D01*
X702349Y300274D01*
X700151D01*
X698121Y299433D01*
X696567Y297879D01*
X695726Y295849D01*
Y293651D01*
X696567Y291621D01*
X697053Y291135D01*
X696211Y289103D01*
X616250D01*
X614680Y288790D01*
X613349Y287901D01*
X602849Y277401D01*
X601959Y276070D01*
X601647Y274500D01*
Y239897D01*
X415750Y54000D01*
X283860D01*
X282443Y54282D01*
X281109Y54834D01*
X279908Y55637D01*
X278887Y56658D01*
X278084Y57859D01*
X277532Y59193D01*
X277250Y60610D01*
Y72877D01*
X279282Y73586D01*
X280335Y72533D01*
X282365Y71692D01*
X284563D01*
X286593Y72533D01*
X288147Y74087D01*
X288988Y76117D01*
Y78315D01*
X288147Y80345D01*
X286593Y81899D01*
X284563Y82740D01*
X282365D01*
X280335Y81899D01*
X279282Y80846D01*
X277250Y81555D01*
X277250Y163601D01*
X279282Y164310D01*
X280335Y163257D01*
X282365Y162416D01*
X284563D01*
X286593Y163257D01*
X288147Y164811D01*
X288988Y166841D01*
Y169039D01*
X288147Y171069D01*
X286593Y172623D01*
X284563Y173464D01*
X282365D01*
X280335Y172623D01*
X279282Y171570D01*
X277250Y172279D01*
X277250Y344240D01*
X277524Y344901D01*
Y347099D01*
X277250Y347760D01*
Y359240D01*
X277524Y359901D01*
Y362099D01*
X277250Y362760D01*
X277250Y584197D01*
X277866Y585974D01*
X278466Y586573D01*
X279496Y587000D01*
X280054Y587000D01*
X466465Y587000D01*
X468376Y587000D01*
X468376Y587000D01*
X468376Y587000D01*
X470495Y587104D01*
X474652Y587930D01*
X478568Y589551D01*
X482093Y591906D01*
X485090Y594902D01*
X487446Y598426D01*
X489068Y602342D01*
X489896Y606499D01*
X490000Y608618D01*
X490000Y798636D01*
X490524Y799901D01*
Y802099D01*
X490000Y803364D01*
Y817636D01*
X490524Y818901D01*
Y821099D01*
X490000Y822364D01*
Y836636D01*
X490524Y837901D01*
Y840099D01*
X490000Y841364D01*
X490000Y917000D01*
Y917690D01*
X490269Y919042D01*
X490797Y920316D01*
X491563Y921462D01*
X492538Y922437D01*
X493684Y923203D01*
X494958Y923731D01*
X496311Y924000D01*
X580834D01*
X580834Y924000D01*
D02*
G37*
G36*
X44451Y580136D02*
X44476Y580099D01*
Y577901D01*
X45317Y575871D01*
X46871Y574317D01*
X48901Y573476D01*
X51099D01*
X53129Y574317D01*
X54683Y575871D01*
X55524Y577901D01*
Y578104D01*
X57444Y580039D01*
X59476Y579908D01*
Y577901D01*
X60317Y575871D01*
X61871Y574317D01*
X63901Y573476D01*
X66099D01*
X68129Y574317D01*
X69683Y575871D01*
X70524Y577901D01*
X72322Y578669D01*
X73476Y578194D01*
Y577901D01*
X74317Y575871D01*
X75871Y574317D01*
X77901Y573476D01*
Y571524D01*
X75871Y570683D01*
X74317Y569129D01*
X73476Y567099D01*
Y564901D01*
X74317Y562871D01*
X75871Y561317D01*
X77901Y560476D01*
X80099D01*
X82129Y561317D01*
X83683Y562871D01*
X84524Y564901D01*
Y567099D01*
X83683Y569129D01*
X82129Y570683D01*
X80099Y571524D01*
Y573476D01*
X82129Y574317D01*
X83683Y575871D01*
X84524Y577901D01*
Y578104D01*
X86444Y580039D01*
X88476Y579908D01*
Y577901D01*
X89317Y575871D01*
X90871Y574317D01*
X92901Y573476D01*
Y571524D01*
X90871Y570683D01*
X89317Y569129D01*
X88476Y567099D01*
Y564901D01*
X89317Y562871D01*
X90871Y561317D01*
X92901Y560476D01*
X95099D01*
X97129Y561317D01*
X98683Y562871D01*
X99524Y564901D01*
Y567099D01*
X98683Y569129D01*
X97129Y570683D01*
X95099Y571524D01*
Y573476D01*
X97129Y574317D01*
X98683Y575871D01*
X99524Y577901D01*
Y578104D01*
X101541Y580136D01*
X138684Y580136D01*
X139543Y580136D01*
X141130Y579479D01*
X142345Y578264D01*
X142574Y577710D01*
X143002Y575818D01*
D01*
X143002Y573938D01*
X143002Y98372D01*
X141312Y97243D01*
X141261Y97264D01*
X139063D01*
X137033Y96423D01*
X135479Y94869D01*
X134638Y92839D01*
Y90641D01*
X135479Y88611D01*
X136374Y87716D01*
X136488Y87368D01*
X136253Y85567D01*
X136121Y85314D01*
X134938Y84809D01*
X133527Y84512D01*
X131572Y84328D01*
X131572Y84328D01*
X67572D01*
X67099Y84524D01*
X64901D01*
X64428Y84328D01*
X52572D01*
X52099Y84524D01*
X49901D01*
X49428Y84328D01*
X37572D01*
X37099Y84524D01*
X34901D01*
X34428Y84328D01*
X21572D01*
X21099Y84524D01*
X18901D01*
X18428Y84328D01*
X11176D01*
X10500Y84328D01*
X9176Y84592D01*
X7927Y85108D01*
X6804Y85859D01*
X5849Y86814D01*
X5098Y87937D01*
X4581Y89186D01*
X4318Y90511D01*
X4318Y91186D01*
Y558418D01*
X5901Y559476D01*
X8099D01*
X10129Y560317D01*
X11683Y561871D01*
X12524Y563901D01*
Y566099D01*
X11683Y568129D01*
X10129Y569683D01*
X8099Y570524D01*
X5901D01*
X5521Y570778D01*
Y571601D01*
X7448Y573476D01*
X8099D01*
X10129Y574317D01*
X11683Y575871D01*
X12524Y577901D01*
X14519Y577812D01*
X14658Y576757D01*
X15668Y574319D01*
X17275Y572225D01*
X19369Y570618D01*
X21807Y569608D01*
X24424Y569263D01*
X29424D01*
X32041Y569608D01*
X34479Y570618D01*
X36573Y572225D01*
X38180Y574319D01*
X39190Y576757D01*
X39534Y579374D01*
X40203Y580136D01*
X44451Y580136D01*
D02*
G37*
G36*
X917437Y348323D02*
X917136Y348322D01*
X916772Y348226D01*
X916344Y348035D01*
X915853Y347749D01*
X915297Y347367D01*
X914678Y346890D01*
X913249Y345651D01*
X911566Y344030D01*
X908030Y347566D01*
X908717Y348273D01*
X909818Y349539D01*
X910232Y350098D01*
X910556Y350608D01*
X910788Y351068D01*
X910930Y351478D01*
X910981Y351839D01*
X910942Y352151D01*
X910811Y352413D01*
X917437Y348323D01*
D02*
G37*
G36*
X891457Y348541D02*
X891626Y348490D01*
X891868Y348445D01*
X892185Y348406D01*
X893038Y348346D01*
X895627Y348298D01*
Y343298D01*
X894869Y343295D01*
X891626Y343106D01*
X891457Y343055D01*
X891361Y342998D01*
Y348598D01*
X891457Y348541D01*
D02*
G37*
G36*
X885648Y342998D02*
X885559Y343047D01*
X885397Y343092D01*
X885160Y343131D01*
X884848Y343164D01*
X883466Y343235D01*
X881414Y343258D01*
Y348338D01*
X882173Y348341D01*
X885559Y348549D01*
X885648Y348598D01*
Y342998D01*
D02*
G37*
G36*
X957080Y338169D02*
X946920Y325509D01*
X946870Y327439D01*
X946720Y329166D01*
X946470Y330690D01*
X946120Y332011D01*
X945670Y333129D01*
X945120Y334043D01*
X944470Y334754D01*
X943720Y335262D01*
X942952Y335538D01*
X941024Y335625D01*
X937418Y335669D01*
Y340669D01*
X939309Y340680D01*
X943400Y340961D01*
X943720Y341075D01*
X944470Y341583D01*
X945120Y342294D01*
X945670Y343209D01*
X946120Y344326D01*
X946470Y345647D01*
X946720Y347171D01*
X946870Y348898D01*
X946920Y350829D01*
X957080Y338169D01*
D02*
G37*
G36*
X823671Y288132D02*
X823620Y287963D01*
X823575Y287720D01*
X823536Y287404D01*
X823476Y286551D01*
X823428Y283962D01*
X818428D01*
X818425Y284719D01*
X818236Y287963D01*
X818185Y288132D01*
X818128Y288227D01*
X823728D01*
X823671Y288132D01*
D02*
G37*
G36*
X687751Y249555D02*
X687706Y249393D01*
X687667Y249155D01*
X687634Y248844D01*
X687563Y247462D01*
X687540Y245410D01*
X682460D01*
X682457Y246168D01*
X682249Y249555D01*
X682200Y249643D01*
X687800D01*
X687751Y249555D01*
D02*
G37*
G36*
X608253Y231615D02*
X608442Y228371D01*
X608493Y228202D01*
X608550Y228107D01*
X602950D01*
X603007Y228202D01*
X603058Y228371D01*
X603103Y228614D01*
X603142Y228930D01*
X603202Y229783D01*
X603250Y232372D01*
X608250D01*
X608253Y231615D01*
D02*
G37*
G36*
X687540Y159039D02*
X682460Y153728D01*
X682409Y154254D01*
X682257Y154725D01*
X682003Y155141D01*
X681647Y155501D01*
X681190Y155806D01*
X680631Y156055D01*
X679971Y156249D01*
X679209Y156388D01*
X678345Y156471D01*
X677380Y156499D01*
Y161579D01*
X678345Y161630D01*
X679209Y161782D01*
X679971Y162036D01*
X680631Y162392D01*
X681190Y162849D01*
X681647Y163408D01*
X682003Y164068D01*
X682257Y164830D01*
X682409Y165694D01*
X682460Y166659D01*
X687540Y159039D01*
D02*
G37*
G36*
X931848Y138000D02*
X931848Y138000D01*
X931848D01*
X933700Y137575D01*
X934200Y137368D01*
X935368Y136200D01*
X936000Y134674D01*
X936000Y133848D01*
X936000Y107000D01*
X893000Y64000D01*
X788424D01*
X788424Y64000D01*
X788141D01*
X787617Y64217D01*
X787217Y64617D01*
X787000Y65141D01*
X787000Y136464D01*
X787233Y136739D01*
X788261Y137767D01*
X788536Y138000D01*
X931848Y138000D01*
X931848Y138000D01*
D02*
G37*
G36*
X582511Y45059D02*
X583036Y37408D01*
X583200Y36748D01*
X583386Y36265D01*
X583594Y35958D01*
X576406D01*
X576614Y36265D01*
X576800Y36748D01*
X576964Y37408D01*
X577106Y38243D01*
X577325Y40441D01*
X577456Y43344D01*
X577500Y46951D01*
X582500D01*
X582511Y45059D01*
D02*
G37*
%LPC*%
G36*
X708941Y844214D02*
X706171D01*
X703494Y843497D01*
X701094Y842111D01*
X699135Y840152D01*
X697749Y837752D01*
X697032Y835076D01*
Y832305D01*
X697749Y829628D01*
X699135Y827228D01*
X701094Y825269D01*
X703494Y823883D01*
X706171Y823166D01*
X708941D01*
X711618Y823883D01*
X714018Y825269D01*
X715977Y827228D01*
X717363Y829628D01*
X718080Y832305D01*
Y835076D01*
X717363Y837752D01*
X715977Y840152D01*
X714018Y842111D01*
X711618Y843497D01*
X708941Y844214D01*
D02*
G37*
G36*
X313599Y748024D02*
X311401D01*
X309371Y747183D01*
X307817Y745629D01*
X306976Y743599D01*
Y741401D01*
X307817Y739371D01*
X309371Y737817D01*
X311401Y736976D01*
X313599D01*
X315629Y737817D01*
X317183Y739371D01*
X318024Y741401D01*
Y743599D01*
X317183Y745629D01*
X315629Y747183D01*
X313599Y748024D01*
D02*
G37*
G36*
X296099D02*
X293901D01*
X291871Y747183D01*
X290317Y745629D01*
X289476Y743599D01*
Y741401D01*
X290317Y739371D01*
X291871Y737817D01*
X293901Y736976D01*
X296099D01*
X298129Y737817D01*
X299683Y739371D01*
X300524Y741401D01*
Y743599D01*
X299683Y745629D01*
X298129Y747183D01*
X296099Y748024D01*
D02*
G37*
G36*
X366099Y738024D02*
X363901D01*
X361871Y737183D01*
X360317Y735629D01*
X359476Y733599D01*
Y731401D01*
X360317Y729371D01*
X361871Y727817D01*
X363901Y726976D01*
X366099D01*
X368129Y727817D01*
X369683Y729371D01*
X370524Y731401D01*
Y733599D01*
X369683Y735629D01*
X368129Y737183D01*
X366099Y738024D01*
D02*
G37*
G36*
X341099D02*
X338901D01*
X336871Y737183D01*
X335317Y735629D01*
X334476Y733599D01*
Y731401D01*
X335317Y729371D01*
X336871Y727817D01*
X338901Y726976D01*
X341099D01*
X343129Y727817D01*
X344683Y729371D01*
X345524Y731401D01*
Y733599D01*
X344683Y735629D01*
X343129Y737183D01*
X341099Y738024D01*
D02*
G37*
G36*
X315099Y705524D02*
X312901D01*
X310871Y704683D01*
X309317Y703129D01*
X308476Y701099D01*
Y698901D01*
X309317Y696871D01*
X310871Y695317D01*
X312901Y694476D01*
X315099D01*
X317129Y695317D01*
X318683Y696871D01*
X319524Y698901D01*
Y701099D01*
X318683Y703129D01*
X317129Y704683D01*
X315099Y705524D01*
D02*
G37*
G36*
X300099D02*
X297901D01*
X295871Y704683D01*
X294317Y703129D01*
X293476Y701099D01*
Y698901D01*
X294317Y696871D01*
X295871Y695317D01*
X297901Y694476D01*
X300099D01*
X302129Y695317D01*
X303683Y696871D01*
X304524Y698901D01*
Y701099D01*
X303683Y703129D01*
X302129Y704683D01*
X300099Y705524D01*
D02*
G37*
G36*
X284099D02*
X281901D01*
X279871Y704683D01*
X278317Y703129D01*
X277476Y701099D01*
Y698901D01*
X278317Y696871D01*
X279871Y695317D01*
X281901Y694476D01*
X284099D01*
X286129Y695317D01*
X287683Y696871D01*
X288524Y698901D01*
Y701099D01*
X287683Y703129D01*
X286129Y704683D01*
X284099Y705524D01*
D02*
G37*
G36*
X269099D02*
X266901D01*
X264871Y704683D01*
X263317Y703129D01*
X262476Y701099D01*
Y698901D01*
X263317Y696871D01*
X264871Y695317D01*
X266901Y694476D01*
X269099D01*
X271129Y695317D01*
X272683Y696871D01*
X273524Y698901D01*
Y701099D01*
X272683Y703129D01*
X271129Y704683D01*
X269099Y705524D01*
D02*
G37*
G36*
X329099Y690524D02*
X326901D01*
X324871Y689683D01*
X323317Y688129D01*
X322476Y686099D01*
Y683901D01*
X323317Y681871D01*
X324871Y680317D01*
X326901Y679476D01*
X329099D01*
X331129Y680317D01*
X332683Y681871D01*
X333524Y683901D01*
Y686099D01*
X332683Y688129D01*
X331129Y689683D01*
X329099Y690524D01*
D02*
G37*
G36*
X256099Y676524D02*
X253901D01*
X251871Y675683D01*
X250317Y674129D01*
X249476Y672099D01*
Y669901D01*
X250317Y667871D01*
X251871Y666317D01*
X253901Y665476D01*
X256099D01*
X258129Y666317D01*
X259683Y667871D01*
X260524Y669901D01*
Y672099D01*
X259683Y674129D01*
X258129Y675683D01*
X256099Y676524D01*
D02*
G37*
G36*
Y662524D02*
X253901D01*
X251871Y661683D01*
X250317Y660129D01*
X249476Y658099D01*
Y655901D01*
X250317Y653871D01*
X251871Y652317D01*
X253901Y651476D01*
X256099D01*
X258129Y652317D01*
X259683Y653871D01*
X260524Y655901D01*
Y658099D01*
X259683Y660129D01*
X258129Y661683D01*
X256099Y662524D01*
D02*
G37*
G36*
X328849Y662274D02*
X326651D01*
X324621Y661433D01*
X323067Y659879D01*
X322226Y657849D01*
Y655651D01*
X323067Y653621D01*
X324621Y652067D01*
X326651Y651226D01*
X328849D01*
X330879Y652067D01*
X332433Y653621D01*
X333274Y655651D01*
Y657849D01*
X332433Y659879D01*
X330879Y661433D01*
X328849Y662274D01*
D02*
G37*
G36*
X329099Y647524D02*
X326901D01*
X324871Y646683D01*
X323317Y645129D01*
X322476Y643099D01*
Y640901D01*
X323317Y638871D01*
X324871Y637317D01*
X326901Y636476D01*
X329099D01*
X331129Y637317D01*
X332683Y638871D01*
X333524Y640901D01*
Y643099D01*
X332683Y645129D01*
X331129Y646683D01*
X329099Y647524D01*
D02*
G37*
G36*
X511385Y820102D02*
X509187D01*
X507157Y819261D01*
X505603Y817707D01*
X504762Y815677D01*
Y813479D01*
X505603Y811449D01*
X507157Y809895D01*
X509187Y809054D01*
X511385D01*
X513415Y809895D01*
X514969Y811449D01*
X515810Y813479D01*
Y815677D01*
X514969Y817707D01*
X513415Y819261D01*
X511385Y820102D01*
D02*
G37*
G36*
X594852Y759142D02*
X592655D01*
X590624Y758301D01*
X589071Y756747D01*
X588229Y754717D01*
Y752519D01*
X588274Y752412D01*
X586551Y751261D01*
X586129Y751683D01*
X584099Y752524D01*
X581901D01*
X579871Y751683D01*
X578317Y750129D01*
X577476Y748099D01*
Y745901D01*
X578317Y743871D01*
X579871Y742317D01*
X581901Y741476D01*
X584099D01*
X586129Y742317D01*
X587683Y743871D01*
X588524Y745901D01*
Y748099D01*
X588479Y748206D01*
X590202Y749357D01*
X590624Y748935D01*
X592655Y748094D01*
X594852D01*
X596883Y748935D01*
X598437Y750489D01*
X599277Y752519D01*
Y754717D01*
X598437Y756747D01*
X596883Y758301D01*
X594852Y759142D01*
D02*
G37*
G36*
X511385D02*
X509187D01*
X507157Y758301D01*
X505603Y756747D01*
X504762Y754717D01*
Y752519D01*
X505603Y750489D01*
X507157Y748935D01*
X509187Y748094D01*
X511385D01*
X513415Y748935D01*
X514969Y750489D01*
X515810Y752519D01*
Y754717D01*
X514969Y756747D01*
X513415Y758301D01*
X511385Y759142D01*
D02*
G37*
G36*
X576099Y729524D02*
X573901D01*
X571871Y728683D01*
X570717Y727529D01*
X569500Y727290D01*
X568283Y727529D01*
X567129Y728683D01*
X565099Y729524D01*
X562901D01*
X560871Y728683D01*
X559317Y727129D01*
X558476Y725099D01*
Y722901D01*
X559317Y720871D01*
X560871Y719317D01*
X562901Y718476D01*
X565099D01*
X567129Y719317D01*
X568283Y720471D01*
X569500Y720710D01*
X570717Y720471D01*
X571871Y719317D01*
X573901Y718476D01*
X576099D01*
X578129Y719317D01*
X579683Y720871D01*
X580524Y722901D01*
Y725099D01*
X579683Y727129D01*
X578129Y728683D01*
X576099Y729524D01*
D02*
G37*
G36*
X597099Y730524D02*
X594901D01*
X592871Y729683D01*
X591317Y728129D01*
X590476Y726099D01*
Y723901D01*
X591317Y721871D01*
X592871Y720317D01*
X594901Y719476D01*
X597099D01*
X599129Y720317D01*
X600683Y721871D01*
X601524Y723901D01*
Y726099D01*
X600683Y728129D01*
X599129Y729683D01*
X597099Y730524D01*
D02*
G37*
G36*
X520761Y712740D02*
X518563D01*
X516533Y711899D01*
X514979Y710345D01*
X514138Y708315D01*
Y706117D01*
X514979Y704087D01*
X516533Y702533D01*
X518563Y701692D01*
X520761D01*
X522791Y702533D01*
X524345Y704087D01*
X525186Y706117D01*
Y708315D01*
X524345Y710345D01*
X522791Y711899D01*
X520761Y712740D01*
D02*
G37*
G36*
X585045Y669798D02*
X582847D01*
X580817Y668957D01*
X579263Y667403D01*
X578422Y665373D01*
Y663175D01*
X579263Y661145D01*
X580817Y659591D01*
X582847Y658750D01*
X585045D01*
X587075Y659591D01*
X588629Y661145D01*
X589470Y663175D01*
Y665373D01*
X588629Y667403D01*
X587075Y668957D01*
X585045Y669798D01*
D02*
G37*
G36*
X597369Y663130D02*
X595171D01*
X593141Y662289D01*
X591587Y660735D01*
X590746Y658705D01*
Y656507D01*
X591587Y654477D01*
X593141Y652923D01*
X595171Y652082D01*
X597369D01*
X599399Y652923D01*
X600953Y654477D01*
X601794Y656507D01*
Y658705D01*
X600953Y660735D01*
X599399Y662289D01*
X597369Y663130D01*
D02*
G37*
G36*
X669349Y646524D02*
X667151D01*
X665121Y645683D01*
X663567Y644129D01*
X662726Y642099D01*
Y639901D01*
X663567Y637871D01*
X665121Y636317D01*
X667151Y635476D01*
X669349D01*
X671379Y636317D01*
X672933Y637871D01*
X673774Y639901D01*
Y642099D01*
X672933Y644129D01*
X671379Y645683D01*
X669349Y646524D01*
D02*
G37*
G36*
X683849Y631524D02*
X681651D01*
X679621Y630683D01*
X678067Y629129D01*
X677226Y627099D01*
Y624901D01*
X678067Y622871D01*
X679621Y621317D01*
X681651Y620476D01*
X683849D01*
X685879Y621317D01*
X687433Y622871D01*
X688274Y624901D01*
Y627099D01*
X687433Y629129D01*
X685879Y630683D01*
X683849Y631524D01*
D02*
G37*
G36*
X669349D02*
X667151D01*
X665121Y630683D01*
X663567Y629129D01*
X662726Y627099D01*
Y624901D01*
X663567Y622871D01*
X665121Y621317D01*
X667151Y620476D01*
X669349D01*
X671379Y621317D01*
X672933Y622871D01*
X673774Y624901D01*
Y627099D01*
X672933Y629129D01*
X671379Y630683D01*
X669349Y631524D01*
D02*
G37*
G36*
X627463Y621728D02*
X625265D01*
X623235Y620887D01*
X621882Y619534D01*
X621106Y619359D01*
X619521Y619429D01*
X618317Y620633D01*
X616287Y621474D01*
X614089D01*
X612059Y620633D01*
X610505Y619079D01*
X609664Y617049D01*
Y614851D01*
X610505Y612821D01*
X612059Y611267D01*
X614089Y610426D01*
X616287D01*
X618317Y611267D01*
X619670Y612620D01*
X620446Y612795D01*
X622031Y612725D01*
X623235Y611521D01*
X625265Y610680D01*
X627463D01*
X629493Y611521D01*
X631047Y613075D01*
X631888Y615105D01*
Y617303D01*
X631047Y619333D01*
X629493Y620887D01*
X627463Y621728D01*
D02*
G37*
G36*
X638131Y609028D02*
X635933D01*
X633903Y608187D01*
X632349Y606633D01*
X631508Y604603D01*
Y602405D01*
X632349Y600375D01*
X633903Y598821D01*
X635389Y598205D01*
Y596103D01*
X633903Y595487D01*
X632349Y593933D01*
X631508Y591903D01*
Y589705D01*
X632349Y587675D01*
X633903Y586121D01*
X635933Y585280D01*
X638131D01*
X640161Y586121D01*
X641715Y587675D01*
X642556Y589705D01*
Y591903D01*
X641715Y593933D01*
X640161Y595487D01*
X638675Y596103D01*
Y598205D01*
X640161Y598821D01*
X641715Y600375D01*
X642556Y602405D01*
Y604603D01*
X641715Y606633D01*
X640161Y608187D01*
X638131Y609028D01*
D02*
G37*
G36*
X568027Y583374D02*
X565829D01*
X563799Y582533D01*
X562245Y580979D01*
X561404Y578949D01*
Y576751D01*
X562245Y574721D01*
X563799Y573167D01*
X565829Y572326D01*
X568027D01*
X570057Y573167D01*
X571611Y574721D01*
X572452Y576751D01*
Y578949D01*
X571611Y580979D01*
X570057Y582533D01*
X568027Y583374D01*
D02*
G37*
G36*
X848599Y581774D02*
X846401D01*
X844371Y580933D01*
X842817Y579379D01*
X841976Y577349D01*
Y575151D01*
X842817Y573121D01*
X844371Y571567D01*
X846401Y570726D01*
X848599D01*
X850629Y571567D01*
X852183Y573121D01*
X853024Y575151D01*
Y577349D01*
X852183Y579379D01*
X850629Y580933D01*
X848599Y581774D01*
D02*
G37*
G36*
X834099Y581524D02*
X831901D01*
X829871Y580683D01*
X828317Y579129D01*
X827476Y577099D01*
Y574901D01*
X828317Y572871D01*
X829871Y571317D01*
X831901Y570476D01*
X834099D01*
X836129Y571317D01*
X837683Y572871D01*
X838524Y574901D01*
Y577099D01*
X837683Y579129D01*
X836129Y580683D01*
X834099Y581524D01*
D02*
G37*
G36*
X809099Y571524D02*
X806901D01*
X804871Y570683D01*
X803317Y569129D01*
X802476Y567099D01*
Y564901D01*
X803317Y562871D01*
X804871Y561317D01*
X806901Y560476D01*
X809099D01*
X811129Y561317D01*
X812683Y562871D01*
X813524Y564901D01*
Y567099D01*
X812683Y569129D01*
X811129Y570683D01*
X809099Y571524D01*
D02*
G37*
G36*
X793099D02*
X790901D01*
X788871Y570683D01*
X787317Y569129D01*
X786476Y567099D01*
Y564901D01*
X787317Y562871D01*
X788871Y561317D01*
X790901Y560476D01*
X793099D01*
X795129Y561317D01*
X796683Y562871D01*
X797524Y564901D01*
Y567099D01*
X796683Y569129D01*
X795129Y570683D01*
X793099Y571524D01*
D02*
G37*
G36*
X776099D02*
X773901D01*
X771871Y570683D01*
X770317Y569129D01*
X769476Y567099D01*
Y564901D01*
X770317Y562871D01*
X771871Y561317D01*
X773901Y560476D01*
X776099D01*
X778129Y561317D01*
X779683Y562871D01*
X780524Y564901D01*
Y567099D01*
X779683Y569129D01*
X778129Y570683D01*
X776099Y571524D01*
D02*
G37*
G36*
X575393Y570928D02*
X573195D01*
X571165Y570087D01*
X569611Y568533D01*
X568770Y566503D01*
Y564305D01*
X569611Y562275D01*
X571165Y560721D01*
X573195Y559880D01*
X575393D01*
X577423Y560721D01*
X578977Y562275D01*
X579818Y564305D01*
Y566503D01*
X578977Y568533D01*
X577423Y570087D01*
X575393Y570928D01*
D02*
G37*
G36*
X620351Y570674D02*
X618153D01*
X616123Y569833D01*
X614569Y568279D01*
X613728Y566249D01*
Y564051D01*
X614569Y562021D01*
X616123Y560467D01*
X618153Y559626D01*
X620351D01*
X622381Y560467D01*
X623935Y562021D01*
X624776Y564051D01*
Y566249D01*
X623935Y568279D01*
X622381Y569833D01*
X620351Y570674D01*
D02*
G37*
G36*
X503969Y563562D02*
X501771D01*
X499741Y562721D01*
X498187Y561167D01*
X497346Y559137D01*
Y558704D01*
X496903Y558278D01*
X495110Y557627D01*
X494487Y557976D01*
X494394Y558439D01*
Y559137D01*
X493553Y561167D01*
X491999Y562721D01*
X489969Y563562D01*
X487771D01*
X485741Y562721D01*
X484187Y561167D01*
X483346Y559137D01*
Y558439D01*
X483032Y556876D01*
X481469Y556562D01*
X480771D01*
X478741Y555721D01*
X477187Y554167D01*
X476346Y552137D01*
Y549939D01*
X477187Y547909D01*
X478741Y546355D01*
X480771Y545514D01*
X481469D01*
X481932Y545421D01*
X482281Y544798D01*
X481630Y543005D01*
X481204Y542562D01*
X480771D01*
X478741Y541721D01*
X477187Y540167D01*
X476346Y538137D01*
Y535939D01*
X477187Y533909D01*
X478741Y532355D01*
X480771Y531514D01*
X481469D01*
X483032Y531200D01*
X483346Y529637D01*
Y528939D01*
X484187Y526909D01*
X485741Y525355D01*
X487771Y524514D01*
X489969D01*
X491999Y525355D01*
X493553Y526909D01*
X494394Y528939D01*
Y529637D01*
X494708Y531200D01*
X495870Y531433D01*
X497032Y531200D01*
X497346Y529637D01*
Y528939D01*
X498187Y526909D01*
X499741Y525355D01*
X501771Y524514D01*
X503969D01*
X505999Y525355D01*
X507553Y526909D01*
X508394Y528939D01*
Y529637D01*
X508708Y531200D01*
X510271Y531514D01*
X510969D01*
X512999Y532355D01*
X514553Y533909D01*
X515394Y535939D01*
Y538137D01*
X514553Y540167D01*
X512999Y541721D01*
X510969Y542562D01*
X510536D01*
X510110Y543005D01*
X509459Y544798D01*
X509808Y545421D01*
X510271Y545514D01*
X510969D01*
X512999Y546355D01*
X514553Y547909D01*
X515394Y549939D01*
Y552137D01*
X514553Y554167D01*
X512999Y555721D01*
X510969Y556562D01*
X510271D01*
X508708Y556876D01*
X508394Y558439D01*
Y559137D01*
X507553Y561167D01*
X505999Y562721D01*
X503969Y563562D01*
D02*
G37*
G36*
X352127Y560768D02*
X349929D01*
X347899Y559927D01*
X346345Y558373D01*
X345504Y556343D01*
Y554145D01*
X346345Y552115D01*
X347899Y550561D01*
X349929Y549720D01*
X352127D01*
X354157Y550561D01*
X355711Y552115D01*
X356552Y554145D01*
Y556343D01*
X355711Y558373D01*
X354157Y559927D01*
X352127Y560768D01*
D02*
G37*
G36*
X338569D02*
X336371D01*
X334341Y559927D01*
X332787Y558373D01*
X331946Y556343D01*
Y554145D01*
X332787Y552115D01*
X334341Y550561D01*
X336371Y549720D01*
X338569D01*
X340599Y550561D01*
X342153Y552115D01*
X342994Y554145D01*
Y556343D01*
X342153Y558373D01*
X340599Y559927D01*
X338569Y560768D01*
D02*
G37*
G36*
X611731Y558212D02*
X609533D01*
X607503Y557371D01*
X605949Y555817D01*
X605108Y553787D01*
Y551589D01*
X605949Y549559D01*
X607503Y548005D01*
X609533Y547164D01*
X611731D01*
X613761Y548005D01*
X615315Y549559D01*
X616156Y551589D01*
Y553787D01*
X615315Y555817D01*
X613761Y557371D01*
X611731Y558212D01*
D02*
G37*
G36*
X583521D02*
X581323D01*
X579293Y557371D01*
X577739Y555817D01*
X576898Y553787D01*
Y551589D01*
X577739Y549559D01*
X579293Y548005D01*
X581323Y547164D01*
X583521D01*
X585551Y548005D01*
X587105Y549559D01*
X587946Y551589D01*
Y553787D01*
X587105Y555817D01*
X585551Y557371D01*
X583521Y558212D01*
D02*
G37*
G36*
X776599Y557024D02*
X774401D01*
X772371Y556183D01*
X770817Y554629D01*
X769976Y552599D01*
Y550401D01*
X770817Y548371D01*
X772371Y546817D01*
X774401Y545976D01*
X776599D01*
X778629Y546817D01*
X780183Y548371D01*
X781024Y550401D01*
Y552599D01*
X780183Y554629D01*
X778629Y556183D01*
X776599Y557024D01*
D02*
G37*
G36*
X681819Y575754D02*
X679621D01*
X677591Y574913D01*
X676037Y573359D01*
X675196Y571329D01*
Y569131D01*
X676037Y567101D01*
X677591Y565547D01*
X679621Y564706D01*
X681819D01*
X682040Y564798D01*
X683595Y563242D01*
X683578Y563201D01*
Y561003D01*
X684419Y558973D01*
X685973Y557419D01*
X688003Y556578D01*
X689368D01*
X690707Y555299D01*
X690944Y554701D01*
Y552875D01*
X691785Y550845D01*
X693339Y549291D01*
X695369Y548450D01*
X696331D01*
X697792Y547738D01*
X698161Y546573D01*
Y545360D01*
X699002Y543330D01*
X700556Y541776D01*
X702586Y540935D01*
X704784D01*
X706814Y541776D01*
X708368Y543330D01*
X709209Y545360D01*
Y547558D01*
X708368Y549588D01*
X706814Y551142D01*
X704784Y551983D01*
X703822D01*
X702361Y552695D01*
X701992Y553860D01*
Y555073D01*
X701151Y557103D01*
X699597Y558657D01*
X697567Y559498D01*
X696202D01*
X694863Y560777D01*
X694626Y561375D01*
Y563201D01*
X693785Y565231D01*
X692231Y566785D01*
X690201Y567626D01*
X688003D01*
X687782Y567534D01*
X686227Y569090D01*
X686244Y569131D01*
Y571329D01*
X685403Y573359D01*
X683849Y574913D01*
X681819Y575754D01*
D02*
G37*
G36*
X620859Y545020D02*
X618661D01*
X616631Y544179D01*
X615077Y542625D01*
X614236Y540595D01*
Y538397D01*
X615077Y536367D01*
X616631Y534813D01*
X618661Y533972D01*
X620859D01*
X622889Y534813D01*
X624443Y536367D01*
X625284Y538397D01*
Y540595D01*
X624443Y542625D01*
X622889Y544179D01*
X620859Y545020D01*
D02*
G37*
G36*
X648545Y536892D02*
X646347D01*
X644317Y536051D01*
X642763Y534497D01*
X641922Y532467D01*
Y530269D01*
X642763Y528239D01*
X644317Y526685D01*
X646347Y525844D01*
X648545D01*
X650575Y526685D01*
X652129Y528239D01*
X652970Y530269D01*
Y532467D01*
X652129Y534497D01*
X650575Y536051D01*
X648545Y536892D01*
D02*
G37*
G36*
X676349Y536774D02*
X674151D01*
X672121Y535933D01*
X670567Y534379D01*
X669726Y532349D01*
Y530151D01*
X670567Y528121D01*
X672121Y526567D01*
X674151Y525726D01*
X676349D01*
X678379Y526567D01*
X679933Y528121D01*
X680774Y530151D01*
Y532349D01*
X679933Y534379D01*
X678379Y535933D01*
X676349Y536774D01*
D02*
G37*
G36*
X560915Y532812D02*
X558717D01*
X556687Y531971D01*
X555133Y530417D01*
X554292Y528387D01*
Y526189D01*
X555133Y524159D01*
X556687Y522605D01*
X558717Y521764D01*
X560915D01*
X562945Y522605D01*
X564499Y524159D01*
X565340Y526189D01*
Y528387D01*
X564499Y530417D01*
X562945Y531971D01*
X560915Y532812D01*
D02*
G37*
G36*
X640701Y519380D02*
X638503D01*
X636473Y518539D01*
X634919Y516985D01*
X634078Y514955D01*
Y512757D01*
X634919Y510727D01*
X636473Y509173D01*
X638503Y508332D01*
X640701D01*
X642731Y509173D01*
X644285Y510727D01*
X645126Y512757D01*
Y514955D01*
X644285Y516985D01*
X642731Y518539D01*
X640701Y519380D01*
D02*
G37*
G36*
X778575Y531304D02*
X776377D01*
X774347Y530463D01*
X772793Y528909D01*
X771952Y526879D01*
Y524681D01*
X772793Y522651D01*
X774347Y521097D01*
X775833Y520481D01*
Y518379D01*
X774347Y517763D01*
X772793Y516209D01*
X771952Y514179D01*
Y511981D01*
X772793Y509951D01*
X774347Y508397D01*
X776377Y507556D01*
X778575D01*
X780605Y508397D01*
X782159Y509951D01*
X783000Y511981D01*
Y514179D01*
X782159Y516209D01*
X780605Y517763D01*
X779118Y518379D01*
Y520481D01*
X780605Y521097D01*
X782159Y522651D01*
X783000Y524681D01*
Y526879D01*
X782159Y528909D01*
X780605Y530463D01*
X778575Y531304D01*
D02*
G37*
G36*
X428099Y511524D02*
X425901D01*
X423871Y510683D01*
X422317Y509129D01*
X421476Y507099D01*
Y504901D01*
X422317Y502871D01*
X423871Y501317D01*
X425901Y500476D01*
X428099D01*
X430129Y501317D01*
X431683Y502871D01*
X432524Y504901D01*
Y507099D01*
X431683Y509129D01*
X430129Y510683D01*
X428099Y511524D01*
D02*
G37*
G36*
X412099D02*
X409901D01*
X407871Y510683D01*
X406317Y509129D01*
X405476Y507099D01*
Y504901D01*
X406317Y502871D01*
X407871Y501317D01*
X409901Y500476D01*
X412099D01*
X414129Y501317D01*
X415683Y502871D01*
X416524Y504901D01*
Y507099D01*
X415683Y509129D01*
X414129Y510683D01*
X412099Y511524D01*
D02*
G37*
G36*
X396099D02*
X393901D01*
X391871Y510683D01*
X390317Y509129D01*
X389476Y507099D01*
Y504901D01*
X390317Y502871D01*
X391871Y501317D01*
X393901Y500476D01*
X396099D01*
X398129Y501317D01*
X399683Y502871D01*
X400524Y504901D01*
Y507099D01*
X399683Y509129D01*
X398129Y510683D01*
X396099Y511524D01*
D02*
G37*
G36*
X696849Y507024D02*
X694651D01*
X692621Y506183D01*
X691067Y504629D01*
X690226Y502599D01*
Y500401D01*
X691067Y498371D01*
X692621Y496817D01*
X694651Y495976D01*
X696849D01*
X698879Y496817D01*
X700433Y498371D01*
X701274Y500401D01*
Y502599D01*
X700433Y504629D01*
X698879Y506183D01*
X696849Y507024D01*
D02*
G37*
G36*
X470395Y492442D02*
X468197D01*
X466167Y491601D01*
X464613Y490047D01*
X463997Y488561D01*
X461895D01*
X461279Y490047D01*
X459725Y491601D01*
X457695Y492442D01*
X455497D01*
X453467Y491601D01*
X451913Y490047D01*
X451072Y488017D01*
Y485819D01*
X451913Y483789D01*
X453467Y482235D01*
X455497Y481394D01*
X457695D01*
X459725Y482235D01*
X461279Y483789D01*
X461895Y485275D01*
X463997D01*
X464613Y483789D01*
X466167Y482235D01*
X468197Y481394D01*
X470395D01*
X472425Y482235D01*
X473979Y483789D01*
X474820Y485819D01*
Y488017D01*
X473979Y490047D01*
X472425Y491601D01*
X470395Y492442D01*
D02*
G37*
G36*
X833849Y496774D02*
X831651D01*
X829621Y495933D01*
X828067Y494379D01*
X827226Y492349D01*
Y490151D01*
X828067Y488121D01*
X829621Y486567D01*
X831651Y485726D01*
X833849D01*
X835879Y486567D01*
X837433Y488121D01*
X838274Y490151D01*
Y492349D01*
X837433Y494379D01*
X835879Y495933D01*
X833849Y496774D01*
D02*
G37*
G36*
X847599Y496524D02*
X845401D01*
X843371Y495683D01*
X841817Y494129D01*
X840976Y492099D01*
Y489901D01*
X841817Y487871D01*
X843371Y486317D01*
X845401Y485476D01*
X847599D01*
X849629Y486317D01*
X851183Y487871D01*
X852024Y489901D01*
Y492099D01*
X851183Y494129D01*
X849629Y495683D01*
X847599Y496524D01*
D02*
G37*
G36*
X428099Y494524D02*
X425901D01*
X423871Y493683D01*
X422317Y492129D01*
X421476Y490099D01*
Y487901D01*
X422317Y485871D01*
X423871Y484317D01*
X425901Y483476D01*
X428099D01*
X430129Y484317D01*
X431683Y485871D01*
X432524Y487901D01*
Y490099D01*
X431683Y492129D01*
X430129Y493683D01*
X428099Y494524D01*
D02*
G37*
G36*
X412099D02*
X409901D01*
X407871Y493683D01*
X406317Y492129D01*
X405476Y490099D01*
Y487901D01*
X406317Y485871D01*
X407871Y484317D01*
X409901Y483476D01*
X412099D01*
X414129Y484317D01*
X415683Y485871D01*
X416524Y487901D01*
Y490099D01*
X415683Y492129D01*
X414129Y493683D01*
X412099Y494524D01*
D02*
G37*
G36*
X396099D02*
X393901D01*
X391871Y493683D01*
X390317Y492129D01*
X389476Y490099D01*
Y487901D01*
X390317Y485871D01*
X391871Y484317D01*
X393901Y483476D01*
X396099D01*
X398129Y484317D01*
X399683Y485871D01*
X400524Y487901D01*
Y490099D01*
X399683Y492129D01*
X398129Y493683D01*
X396099Y494524D01*
D02*
G37*
G36*
X869724Y487785D02*
X864724D01*
X862107Y487440D01*
X859669Y486430D01*
X857575Y484823D01*
X855968Y482729D01*
X854958Y480291D01*
X854613Y477674D01*
X854958Y475057D01*
X855968Y472619D01*
X857575Y470525D01*
X859669Y468918D01*
X862107Y467908D01*
X864724Y467564D01*
X869724D01*
X872341Y467908D01*
X874779Y468918D01*
X876873Y470525D01*
X878480Y472619D01*
X879490Y475057D01*
X879835Y477674D01*
X879490Y480291D01*
X878480Y482729D01*
X876873Y484823D01*
X874779Y486430D01*
X872341Y487440D01*
X869724Y487785D01*
D02*
G37*
G36*
X396099Y477524D02*
X393901D01*
X391871Y476683D01*
X390317Y475129D01*
X389476Y473099D01*
Y470901D01*
X390317Y468871D01*
X391871Y467317D01*
X393901Y466476D01*
X396099D01*
X398129Y467317D01*
X399683Y468871D01*
X400524Y470901D01*
Y473099D01*
X399683Y475129D01*
X398129Y476683D01*
X396099Y477524D01*
D02*
G37*
G36*
Y458524D02*
X393901D01*
X391871Y457683D01*
X390317Y456129D01*
X389476Y454099D01*
Y451901D01*
X390317Y449871D01*
X391871Y448317D01*
X393901Y447476D01*
X396099D01*
X398129Y448317D01*
X399683Y449871D01*
X400524Y451901D01*
Y454099D01*
X399683Y456129D01*
X398129Y457683D01*
X396099Y458524D01*
D02*
G37*
G36*
X376099D02*
X373901D01*
X371871Y457683D01*
X370317Y456129D01*
X369476Y454099D01*
Y451901D01*
X370317Y449871D01*
X371871Y448317D01*
X373901Y447476D01*
X376099D01*
X378129Y448317D01*
X379683Y449871D01*
X380524Y451901D01*
Y454099D01*
X379683Y456129D01*
X378129Y457683D01*
X376099Y458524D01*
D02*
G37*
G36*
X445061Y457940D02*
X442863D01*
X440833Y457099D01*
X439279Y455545D01*
X438438Y453515D01*
Y451317D01*
X439279Y449287D01*
X440833Y447733D01*
X442863Y446892D01*
X445061D01*
X447091Y447733D01*
X448645Y449287D01*
X449486Y451317D01*
Y453515D01*
X448645Y455545D01*
X447091Y457099D01*
X445061Y457940D01*
D02*
G37*
G36*
X546595Y438937D02*
X544397D01*
X542367Y438096D01*
X540813Y436542D01*
X540197Y435055D01*
X538095D01*
X537479Y436542D01*
X535925Y438096D01*
X533895Y438937D01*
X531697D01*
X529667Y438096D01*
X528113Y436542D01*
X527497Y435055D01*
X525395D01*
X524779Y436542D01*
X523225Y438096D01*
X521195Y438937D01*
X518997D01*
X516967Y438096D01*
X515413Y436542D01*
X514797Y435055D01*
X512695D01*
X512079Y436542D01*
X510525Y438096D01*
X508495Y438937D01*
X506297D01*
X504267Y438096D01*
X502713Y436542D01*
X502097Y435055D01*
X499995D01*
X499379Y436542D01*
X497825Y438096D01*
X495795Y438937D01*
X493597D01*
X491567Y438096D01*
X490013Y436542D01*
X489397Y435055D01*
X487295D01*
X486679Y436542D01*
X485125Y438096D01*
X483095Y438937D01*
X480897D01*
X478867Y438096D01*
X477313Y436542D01*
X476472Y434511D01*
Y432314D01*
X477313Y430283D01*
X478867Y428730D01*
X480897Y427888D01*
X483095D01*
X485125Y428730D01*
X486679Y430283D01*
X487295Y431770D01*
X489397D01*
X490013Y430283D01*
X491567Y428730D01*
X493597Y427888D01*
X495795D01*
X497825Y428730D01*
X499379Y430283D01*
X499995Y431770D01*
X502097D01*
X502713Y430283D01*
X504267Y428730D01*
X506297Y427888D01*
X508495D01*
X510525Y428730D01*
X512079Y430283D01*
X512695Y431770D01*
X514797D01*
X515413Y430283D01*
X516967Y428730D01*
X518997Y427888D01*
X521195D01*
X523225Y428730D01*
X524779Y430283D01*
X525395Y431770D01*
X527497D01*
X528113Y430283D01*
X529667Y428730D01*
X531697Y427888D01*
X533895D01*
X535925Y428730D01*
X537479Y430283D01*
X538095Y431770D01*
X540197D01*
X540813Y430283D01*
X542367Y428730D01*
X544397Y427888D01*
X546595D01*
X548625Y428730D01*
X550179Y430283D01*
X551020Y432314D01*
Y434511D01*
X550179Y436542D01*
X548625Y438096D01*
X546595Y438937D01*
D02*
G37*
G36*
X396099Y441524D02*
X393901D01*
X391871Y440683D01*
X390317Y439129D01*
X389476Y437099D01*
Y434901D01*
X390317Y432871D01*
X391871Y431317D01*
X393901Y430476D01*
X396099D01*
X398129Y431317D01*
X399683Y432871D01*
X400524Y434901D01*
Y437099D01*
X399683Y439129D01*
X398129Y440683D01*
X396099Y441524D01*
D02*
G37*
G36*
X376099D02*
X373901D01*
X371871Y440683D01*
X370317Y439129D01*
X369476Y437099D01*
Y434901D01*
X370317Y432871D01*
X371871Y431317D01*
X373901Y430476D01*
X376099D01*
X378129Y431317D01*
X379683Y432871D01*
X380524Y434901D01*
Y437099D01*
X379683Y439129D01*
X378129Y440683D01*
X376099Y441524D01*
D02*
G37*
G36*
X414099Y421524D02*
X411901D01*
X409871Y420683D01*
X408317Y419129D01*
X407476Y417099D01*
Y414901D01*
X408317Y412871D01*
X409871Y411317D01*
X411901Y410476D01*
X414099D01*
X416129Y411317D01*
X417683Y412871D01*
X418524Y414901D01*
Y417099D01*
X417683Y419129D01*
X416129Y420683D01*
X414099Y421524D01*
D02*
G37*
G36*
X396099D02*
X393901D01*
X391871Y420683D01*
X390317Y419129D01*
X389476Y417099D01*
Y414901D01*
X390317Y412871D01*
X391871Y411317D01*
X393901Y410476D01*
X396099D01*
X398129Y411317D01*
X399683Y412871D01*
X400524Y414901D01*
Y417099D01*
X399683Y419129D01*
X398129Y420683D01*
X396099Y421524D01*
D02*
G37*
G36*
X526099Y407524D02*
X523901D01*
X521871Y406683D01*
X520317Y405129D01*
X519476Y403099D01*
Y400901D01*
X520317Y398871D01*
X521871Y397317D01*
X523901Y396476D01*
X526099D01*
X528129Y397317D01*
X529683Y398871D01*
X530524Y400901D01*
Y403099D01*
X529683Y405129D01*
X528129Y406683D01*
X526099Y407524D01*
D02*
G37*
G36*
X492099D02*
X489901D01*
X487871Y406683D01*
X486317Y405129D01*
X485476Y403099D01*
Y400901D01*
X486317Y398871D01*
X487871Y397317D01*
X489901Y396476D01*
X492099D01*
X494129Y397317D01*
X495683Y398871D01*
X496524Y400901D01*
Y403099D01*
X495683Y405129D01*
X494129Y406683D01*
X492099Y407524D01*
D02*
G37*
G36*
X466099D02*
X463901D01*
X461871Y406683D01*
X460317Y405129D01*
X459476Y403099D01*
Y400901D01*
X460317Y398871D01*
X461871Y397317D01*
X463901Y396476D01*
X466099D01*
X468129Y397317D01*
X469683Y398871D01*
X470524Y400901D01*
Y403099D01*
X469683Y405129D01*
X468129Y406683D01*
X466099Y407524D01*
D02*
G37*
G36*
X436099D02*
X433901D01*
X431871Y406683D01*
X430317Y405129D01*
X429476Y403099D01*
Y400901D01*
X430317Y398871D01*
X431871Y397317D01*
X433901Y396476D01*
X436099D01*
X438129Y397317D01*
X439683Y398871D01*
X440524Y400901D01*
Y403099D01*
X439683Y405129D01*
X438129Y406683D01*
X436099Y407524D01*
D02*
G37*
G36*
X414099D02*
X411901D01*
X409871Y406683D01*
X408317Y405129D01*
X407476Y403099D01*
Y400901D01*
X408317Y398871D01*
X409871Y397317D01*
X411901Y396476D01*
X414099D01*
X416129Y397317D01*
X417683Y398871D01*
X418524Y400901D01*
Y403099D01*
X417683Y405129D01*
X416129Y406683D01*
X414099Y407524D01*
D02*
G37*
G36*
X396099D02*
X393901D01*
X391871Y406683D01*
X390317Y405129D01*
X389476Y403099D01*
Y400901D01*
X390317Y398871D01*
X391871Y397317D01*
X393901Y396476D01*
X396099D01*
X398129Y397317D01*
X399683Y398871D01*
X400524Y400901D01*
Y403099D01*
X399683Y405129D01*
X398129Y406683D01*
X396099Y407524D01*
D02*
G37*
G36*
X286099D02*
X283901D01*
X281871Y406683D01*
X280317Y405129D01*
X279476Y403099D01*
Y400901D01*
X280317Y398871D01*
X281871Y397317D01*
X283901Y396476D01*
X286099D01*
X288129Y397317D01*
X289683Y398871D01*
X290524Y400901D01*
Y403099D01*
X289683Y405129D01*
X288129Y406683D01*
X286099Y407524D01*
D02*
G37*
G36*
X741099Y405524D02*
X738901D01*
X736871Y404683D01*
X735317Y403129D01*
X734476Y401099D01*
Y398901D01*
X735317Y396871D01*
X736871Y395317D01*
X738901Y394476D01*
X741099D01*
X743129Y395317D01*
X744683Y396871D01*
X745524Y398901D01*
Y401099D01*
X744683Y403129D01*
X743129Y404683D01*
X741099Y405524D01*
D02*
G37*
G36*
X678368Y410718D02*
X675960D01*
X673634Y410095D01*
X671550Y408891D01*
X669847Y407188D01*
X668643Y405103D01*
X668020Y402778D01*
Y400370D01*
X668643Y398045D01*
X669847Y395960D01*
X671550Y394257D01*
X673634Y393053D01*
X675960Y392430D01*
X678368D01*
X680694Y393053D01*
X682778Y394257D01*
X684481Y395960D01*
X685685Y398045D01*
X686308Y400370D01*
Y402778D01*
X685685Y405103D01*
X684481Y407188D01*
X682778Y408891D01*
X680694Y410095D01*
X678368Y410718D01*
D02*
G37*
G36*
X642099Y393774D02*
X639901D01*
X637871Y392933D01*
X636317Y391379D01*
X635882Y390328D01*
X633682D01*
X633247Y391379D01*
X631693Y392933D01*
X629663Y393774D01*
X627465D01*
X625435Y392933D01*
X623881Y391379D01*
X623757Y391079D01*
X621557D01*
X621433Y391379D01*
X619879Y392933D01*
X617849Y393774D01*
X615651D01*
X613621Y392933D01*
X612467Y391779D01*
X611250Y391540D01*
X610033Y391779D01*
X608879Y392933D01*
X606849Y393774D01*
X604651D01*
X602621Y392933D01*
X601067Y391379D01*
X600226Y389349D01*
Y387151D01*
X601067Y385121D01*
X602621Y383567D01*
X604651Y382726D01*
X606849D01*
X608879Y383567D01*
X610033Y384721D01*
X611250Y384960D01*
X612467Y384721D01*
X613621Y383567D01*
X615651Y382726D01*
X617849D01*
X619879Y383567D01*
X621433Y385121D01*
X621557Y385421D01*
X623757D01*
X623881Y385121D01*
X625435Y383567D01*
X627465Y382726D01*
X629663D01*
X631693Y383567D01*
X633247Y385121D01*
X633682Y386171D01*
X635882D01*
X636317Y385121D01*
X637871Y383567D01*
X639901Y382726D01*
X642099D01*
X644129Y383567D01*
X645683Y385121D01*
X646524Y387151D01*
Y389349D01*
X645683Y391379D01*
X644129Y392933D01*
X642099Y393774D01*
D02*
G37*
G36*
X586099Y394524D02*
X583901D01*
X581871Y393683D01*
X580317Y392129D01*
X579476Y390099D01*
Y387901D01*
X580317Y385871D01*
X581871Y384317D01*
X583901Y383476D01*
X586099D01*
X588129Y384317D01*
X589683Y385871D01*
X590524Y387901D01*
Y390099D01*
X589683Y392129D01*
X588129Y393683D01*
X586099Y394524D01*
D02*
G37*
G36*
X556099D02*
X553901D01*
X551871Y393683D01*
X550317Y392129D01*
X549476Y390099D01*
Y387901D01*
X550317Y385871D01*
X551871Y384317D01*
X553901Y383476D01*
X556099D01*
X558129Y384317D01*
X559683Y385871D01*
X560524Y387901D01*
Y390099D01*
X559683Y392129D01*
X558129Y393683D01*
X556099Y394524D01*
D02*
G37*
G36*
X360400Y377570D02*
X358202D01*
X356172Y376729D01*
X354618Y375175D01*
X353777Y373145D01*
Y370947D01*
X354618Y368917D01*
X356172Y367363D01*
X358202Y366522D01*
X360400D01*
X362430Y367363D01*
X363984Y368917D01*
X364825Y370947D01*
Y373145D01*
X363984Y375175D01*
X362430Y376729D01*
X360400Y377570D01*
D02*
G37*
G36*
X410293Y375602D02*
X408095D01*
X406065Y374761D01*
X404511Y373207D01*
X403670Y371177D01*
Y368979D01*
X404511Y366949D01*
X406065Y365395D01*
X408095Y364554D01*
X410293D01*
X412323Y365395D01*
X413877Y366949D01*
X414718Y368979D01*
Y371177D01*
X413877Y373207D01*
X412323Y374761D01*
X410293Y375602D01*
D02*
G37*
G36*
X492099Y375524D02*
X489901D01*
X487871Y374683D01*
X486317Y373129D01*
X485476Y371099D01*
Y368901D01*
X486317Y366871D01*
X487871Y365317D01*
X489901Y364476D01*
X492099D01*
X494129Y365317D01*
X495683Y366871D01*
X496524Y368901D01*
Y371099D01*
X495683Y373129D01*
X494129Y374683D01*
X492099Y375524D01*
D02*
G37*
G36*
X466099D02*
X463901D01*
X461871Y374683D01*
X460317Y373129D01*
X459476Y371099D01*
Y368901D01*
X460317Y366871D01*
X461871Y365317D01*
X463901Y364476D01*
X466099D01*
X468129Y365317D01*
X469683Y366871D01*
X470524Y368901D01*
Y371099D01*
X469683Y373129D01*
X468129Y374683D01*
X466099Y375524D01*
D02*
G37*
G36*
X436099D02*
X433901D01*
X431871Y374683D01*
X430317Y373129D01*
X429476Y371099D01*
Y368901D01*
X430317Y366871D01*
X431871Y365317D01*
X433901Y364476D01*
X436099D01*
X438129Y365317D01*
X439683Y366871D01*
X440524Y368901D01*
Y371099D01*
X439683Y373129D01*
X438129Y374683D01*
X436099Y375524D01*
D02*
G37*
G36*
X287099Y367524D02*
X284901D01*
X282871Y366683D01*
X281317Y365129D01*
X280476Y363099D01*
Y360901D01*
X281317Y358871D01*
X282871Y357317D01*
X284901Y356476D01*
X287099D01*
X289129Y357317D01*
X290683Y358871D01*
X291524Y360901D01*
Y363099D01*
X290683Y365129D01*
X289129Y366683D01*
X287099Y367524D01*
D02*
G37*
G36*
X731099Y364524D02*
X728901D01*
X726871Y363683D01*
X725317Y362129D01*
X724476Y360099D01*
Y357901D01*
X725317Y355871D01*
X726871Y354317D01*
X728901Y353476D01*
X731099D01*
X733129Y354317D01*
X734683Y355871D01*
X735524Y357901D01*
Y360099D01*
X734683Y362129D01*
X733129Y363683D01*
X731099Y364524D01*
D02*
G37*
G36*
X691099D02*
X688901D01*
X686871Y363683D01*
X685317Y362129D01*
X684476Y360099D01*
Y357901D01*
X685317Y355871D01*
X686871Y354317D01*
X688901Y353476D01*
X691099D01*
X693129Y354317D01*
X694683Y355871D01*
X695524Y357901D01*
Y360099D01*
X694683Y362129D01*
X693129Y363683D01*
X691099Y364524D01*
D02*
G37*
G36*
X586099Y363524D02*
X583901D01*
X581871Y362683D01*
X580317Y361129D01*
X579476Y359099D01*
Y356901D01*
X580317Y354871D01*
X581871Y353317D01*
X583901Y352476D01*
X586099D01*
X588129Y353317D01*
X589683Y354871D01*
X590524Y356901D01*
Y359099D01*
X589683Y361129D01*
X588129Y362683D01*
X586099Y363524D01*
D02*
G37*
G36*
X556099D02*
X553901D01*
X551871Y362683D01*
X550317Y361129D01*
X549476Y359099D01*
Y356901D01*
X550317Y354871D01*
X551871Y353317D01*
X553901Y352476D01*
X556099D01*
X558129Y353317D01*
X559683Y354871D01*
X560524Y356901D01*
Y359099D01*
X559683Y361129D01*
X558129Y362683D01*
X556099Y363524D01*
D02*
G37*
G36*
X534099D02*
X531901D01*
X529871Y362683D01*
X528317Y361129D01*
X527476Y359099D01*
Y356901D01*
X528317Y354871D01*
X529871Y353317D01*
X531901Y352476D01*
X534099D01*
X536129Y353317D01*
X537683Y354871D01*
X538524Y356901D01*
Y359099D01*
X537683Y361129D01*
X536129Y362683D01*
X534099Y363524D01*
D02*
G37*
G36*
X513099D02*
X510901D01*
X508871Y362683D01*
X507317Y361129D01*
X506476Y359099D01*
Y356901D01*
X507317Y354871D01*
X508871Y353317D01*
X510901Y352476D01*
X513099D01*
X515129Y353317D01*
X516683Y354871D01*
X517524Y356901D01*
Y359099D01*
X516683Y361129D01*
X515129Y362683D01*
X513099Y363524D01*
D02*
G37*
G36*
X556099Y340524D02*
X553901D01*
X551871Y339683D01*
X550317Y338129D01*
X549476Y336099D01*
Y333901D01*
X550317Y331871D01*
X551871Y330317D01*
X553901Y329476D01*
X556099D01*
X558129Y330317D01*
X559683Y331871D01*
X560524Y333901D01*
Y336099D01*
X559683Y338129D01*
X558129Y339683D01*
X556099Y340524D01*
D02*
G37*
G36*
X534766D02*
X532568D01*
X530538Y339683D01*
X528984Y338129D01*
X528143Y336099D01*
Y333901D01*
X528984Y331871D01*
X530538Y330317D01*
X532568Y329476D01*
X534766D01*
X536796Y330317D01*
X538350Y331871D01*
X539191Y333901D01*
Y336099D01*
X538350Y338129D01*
X536796Y339683D01*
X534766Y340524D01*
D02*
G37*
G36*
X513432D02*
X511235D01*
X509204Y339683D01*
X507650Y338129D01*
X506809Y336099D01*
Y333901D01*
X507650Y331871D01*
X509204Y330317D01*
X511235Y329476D01*
X513432D01*
X515462Y330317D01*
X517016Y331871D01*
X517857Y333901D01*
Y336099D01*
X517016Y338129D01*
X515462Y339683D01*
X513432Y340524D01*
D02*
G37*
G36*
X492099D02*
X489901D01*
X487871Y339683D01*
X486317Y338129D01*
X485476Y336099D01*
Y333901D01*
X486317Y331871D01*
X487871Y330317D01*
X489901Y329476D01*
X492099D01*
X494129Y330317D01*
X495683Y331871D01*
X496524Y333901D01*
Y336099D01*
X495683Y338129D01*
X494129Y339683D01*
X492099Y340524D01*
D02*
G37*
G36*
X732619Y339726D02*
X730421D01*
X728391Y338885D01*
X726837Y337331D01*
X725996Y335301D01*
Y333103D01*
X726837Y331073D01*
X728391Y329519D01*
X730421Y328678D01*
X732619D01*
X734649Y329519D01*
X736203Y331073D01*
X737044Y333103D01*
Y335301D01*
X736203Y337331D01*
X734649Y338885D01*
X732619Y339726D01*
D02*
G37*
G36*
X556099Y323524D02*
X553901D01*
X551871Y322683D01*
X550317Y321129D01*
X549476Y319099D01*
Y316901D01*
X550317Y314871D01*
X551871Y313317D01*
X553901Y312476D01*
X556099D01*
X558129Y313317D01*
X559683Y314871D01*
X560524Y316901D01*
Y319099D01*
X559683Y321129D01*
X558129Y322683D01*
X556099Y323524D01*
D02*
G37*
G36*
X534766D02*
X532568D01*
X530538Y322683D01*
X528984Y321129D01*
X528143Y319099D01*
Y316901D01*
X528984Y314871D01*
X530538Y313317D01*
X532568Y312476D01*
X534766D01*
X536796Y313317D01*
X538350Y314871D01*
X539191Y316901D01*
Y319099D01*
X538350Y321129D01*
X536796Y322683D01*
X534766Y323524D01*
D02*
G37*
G36*
X513432D02*
X511235D01*
X509204Y322683D01*
X507650Y321129D01*
X506809Y319099D01*
Y316901D01*
X507650Y314871D01*
X509204Y313317D01*
X511235Y312476D01*
X513432D01*
X515462Y313317D01*
X517016Y314871D01*
X517857Y316901D01*
Y319099D01*
X517016Y321129D01*
X515462Y322683D01*
X513432Y323524D01*
D02*
G37*
G36*
X492099D02*
X489901D01*
X487871Y322683D01*
X486317Y321129D01*
X485476Y319099D01*
Y316901D01*
X486317Y314871D01*
X487871Y313317D01*
X489901Y312476D01*
X492099D01*
X494129Y313317D01*
X495683Y314871D01*
X496524Y316901D01*
Y319099D01*
X495683Y321129D01*
X494129Y322683D01*
X492099Y323524D01*
D02*
G37*
G36*
X556099Y305524D02*
X553901D01*
X551871Y304683D01*
X550317Y303129D01*
X549476Y301099D01*
Y298901D01*
X550317Y296871D01*
X551871Y295317D01*
X553901Y294476D01*
X556099D01*
X558129Y295317D01*
X559683Y296871D01*
X560524Y298901D01*
Y301099D01*
X559683Y303129D01*
X558129Y304683D01*
X556099Y305524D01*
D02*
G37*
G36*
X534766D02*
X532568D01*
X530538Y304683D01*
X528984Y303129D01*
X528143Y301099D01*
Y298901D01*
X528984Y296871D01*
X530538Y295317D01*
X532568Y294476D01*
X534766D01*
X536796Y295317D01*
X538350Y296871D01*
X539191Y298901D01*
Y301099D01*
X538350Y303129D01*
X536796Y304683D01*
X534766Y305524D01*
D02*
G37*
G36*
X513432D02*
X511235D01*
X509204Y304683D01*
X507650Y303129D01*
X506809Y301099D01*
Y298901D01*
X507650Y296871D01*
X509204Y295317D01*
X511235Y294476D01*
X513432D01*
X515462Y295317D01*
X517016Y296871D01*
X517857Y298901D01*
Y301099D01*
X517016Y303129D01*
X515462Y304683D01*
X513432Y305524D01*
D02*
G37*
G36*
X492099D02*
X489901D01*
X487871Y304683D01*
X486317Y303129D01*
X485476Y301099D01*
Y298901D01*
X486317Y296871D01*
X487871Y295317D01*
X489901Y294476D01*
X492099D01*
X494129Y295317D01*
X495683Y296871D01*
X496524Y298901D01*
Y301099D01*
X495683Y303129D01*
X494129Y304683D01*
X492099Y305524D01*
D02*
G37*
G36*
X430185Y301768D02*
X427987D01*
X425957Y300927D01*
X424403Y299373D01*
X423562Y297343D01*
Y295145D01*
X424403Y293115D01*
X425957Y291561D01*
X427987Y290720D01*
X430185D01*
X432215Y291561D01*
X433769Y293115D01*
X434610Y295145D01*
Y297343D01*
X433769Y299373D01*
X432215Y300927D01*
X430185Y301768D01*
D02*
G37*
G36*
X405599Y312024D02*
X403401D01*
X401371Y311183D01*
X399817Y309629D01*
X398976Y307599D01*
Y305401D01*
X399817Y303371D01*
X400509Y302679D01*
X401170Y301398D01*
X400509Y300023D01*
X399859Y299373D01*
X399018Y297343D01*
Y295145D01*
X399859Y293115D01*
X401413Y291561D01*
X403443Y290720D01*
X405641D01*
X407671Y291561D01*
X409225Y293115D01*
X410066Y295145D01*
Y297343D01*
X409225Y299373D01*
X408533Y300065D01*
X407872Y301346D01*
X408533Y302721D01*
X409183Y303371D01*
X410024Y305401D01*
Y307599D01*
X409183Y309629D01*
X407629Y311183D01*
X405599Y312024D01*
D02*
G37*
G36*
X593954Y294644D02*
X591546D01*
X589221Y294021D01*
X587136Y292817D01*
X585433Y291115D01*
X584229Y289029D01*
X583606Y286704D01*
Y284296D01*
X584229Y281971D01*
X585433Y279885D01*
X587136Y278183D01*
X589221Y276979D01*
X591546Y276356D01*
X593954D01*
X596279Y276979D01*
X598364Y278183D01*
X600067Y279885D01*
X601271Y281971D01*
X601894Y284296D01*
Y286704D01*
X601271Y289029D01*
X600067Y291115D01*
X598364Y292817D01*
X596279Y294021D01*
X593954Y294644D01*
D02*
G37*
G36*
X472099Y268274D02*
X469901D01*
X467871Y267433D01*
X466317Y265879D01*
X465476Y263849D01*
Y261651D01*
X466317Y259621D01*
X467871Y258067D01*
X469901Y257226D01*
X472099D01*
X474129Y258067D01*
X475683Y259621D01*
X476524Y261651D01*
Y263849D01*
X475683Y265879D01*
X474129Y267433D01*
X472099Y268274D01*
D02*
G37*
G36*
X362953Y266128D02*
X360755D01*
X358725Y265287D01*
X357171Y263733D01*
X356330Y261703D01*
Y259505D01*
X357171Y257475D01*
X358725Y255921D01*
X360755Y255080D01*
X362953D01*
X364983Y255921D01*
X366537Y257475D01*
X367378Y259505D01*
Y261703D01*
X366537Y263733D01*
X364983Y265287D01*
X362953Y266128D01*
D02*
G37*
G36*
X320885Y70802D02*
X318687D01*
X316657Y69961D01*
X315103Y68407D01*
X314262Y66377D01*
Y64179D01*
X315103Y62149D01*
X316657Y60595D01*
X318687Y59754D01*
X320885D01*
X322915Y60595D01*
X324469Y62149D01*
X325310Y64179D01*
Y66377D01*
X324469Y68407D01*
X322915Y69961D01*
X320885Y70802D01*
D02*
G37*
G36*
X29424Y564085D02*
X24424D01*
X21807Y563740D01*
X19369Y562730D01*
X17275Y561123D01*
X15668Y559029D01*
X14658Y556591D01*
X14313Y553974D01*
X14658Y551357D01*
X15668Y548919D01*
X17275Y546825D01*
X19369Y545218D01*
X21807Y544208D01*
X24424Y543863D01*
X29424D01*
X32041Y544208D01*
X34479Y545218D01*
X36573Y546825D01*
X38180Y548919D01*
X39190Y551357D01*
X39534Y553974D01*
X39190Y556591D01*
X38180Y559029D01*
X36573Y561123D01*
X34479Y562730D01*
X32041Y563740D01*
X29424Y564085D01*
D02*
G37*
G36*
Y538685D02*
X24424D01*
X21807Y538340D01*
X19369Y537330D01*
X17275Y535723D01*
X15668Y533629D01*
X14658Y531191D01*
X14313Y528574D01*
X14658Y525957D01*
X15668Y523519D01*
X17275Y521425D01*
X19369Y519818D01*
X21807Y518808D01*
X24424Y518464D01*
X29424D01*
X32041Y518808D01*
X34479Y519818D01*
X36573Y521425D01*
X38180Y523519D01*
X39190Y525957D01*
X39534Y528574D01*
X39190Y531191D01*
X38180Y533629D01*
X36573Y535723D01*
X34479Y537330D01*
X32041Y538340D01*
X29424Y538685D01*
D02*
G37*
G36*
Y513284D02*
X24424D01*
X21807Y512940D01*
X19369Y511930D01*
X17275Y510323D01*
X15668Y508229D01*
X14658Y505791D01*
X14313Y503174D01*
X14658Y500557D01*
X15668Y498119D01*
X17275Y496025D01*
X19369Y494418D01*
X20355Y494010D01*
X20492Y492941D01*
X20262Y491849D01*
X17063Y490524D01*
X14014Y488184D01*
X11674Y485135D01*
X10204Y481584D01*
X9702Y477774D01*
X10204Y473964D01*
X11674Y470413D01*
X14014Y467364D01*
X15674Y466090D01*
Y464058D01*
X14014Y462784D01*
X11674Y459735D01*
X10204Y456184D01*
X9702Y452374D01*
X10204Y448564D01*
X11674Y445013D01*
X14014Y441964D01*
X17063Y439624D01*
X20262Y438299D01*
X20492Y437207D01*
X20355Y436138D01*
X19369Y435730D01*
X17275Y434123D01*
X15668Y432029D01*
X14658Y429591D01*
X14313Y426974D01*
X14658Y424357D01*
X15668Y421919D01*
X17275Y419825D01*
X19369Y418218D01*
X21807Y417208D01*
X24424Y416864D01*
X29424D01*
X32041Y417208D01*
X34479Y418218D01*
X36573Y419825D01*
X38180Y421919D01*
X39190Y424357D01*
X39534Y426974D01*
X39190Y429591D01*
X38180Y432029D01*
X36573Y434123D01*
X34479Y435730D01*
X33493Y436138D01*
X33356Y437207D01*
X33586Y438299D01*
X36785Y439624D01*
X39834Y441964D01*
X42174Y445013D01*
X43644Y448564D01*
X44146Y452374D01*
X43644Y456184D01*
X42174Y459735D01*
X39834Y462784D01*
X38174Y464058D01*
Y466090D01*
X39834Y467364D01*
X42174Y470413D01*
X43644Y473964D01*
X44146Y477774D01*
X43644Y481584D01*
X42174Y485135D01*
X39834Y488184D01*
X36785Y490524D01*
X33586Y491849D01*
X33356Y492941D01*
X33493Y494010D01*
X34479Y494418D01*
X36573Y496025D01*
X38180Y498119D01*
X39190Y500557D01*
X39534Y503174D01*
X39190Y505791D01*
X38180Y508229D01*
X36573Y510323D01*
X34479Y511930D01*
X32041Y512940D01*
X29424Y513284D01*
D02*
G37*
G36*
X102445Y422592D02*
X100247D01*
X98217Y421751D01*
X96663Y420197D01*
X95822Y418167D01*
Y415969D01*
X96663Y413939D01*
X98217Y412385D01*
X100247Y411544D01*
X102445D01*
X104475Y412385D01*
X106029Y413939D01*
X106870Y415969D01*
Y418167D01*
X106029Y420197D01*
X104475Y421751D01*
X102445Y422592D01*
D02*
G37*
G36*
X29424Y411684D02*
X24424D01*
X21807Y411340D01*
X19369Y410330D01*
X17275Y408723D01*
X15668Y406629D01*
X14658Y404191D01*
X14313Y401574D01*
X14658Y398957D01*
X15668Y396519D01*
X17275Y394425D01*
X19369Y392818D01*
X20355Y392410D01*
X20492Y391341D01*
X20262Y390249D01*
X17063Y388924D01*
X14014Y386584D01*
X11674Y383535D01*
X10204Y379984D01*
X9702Y376174D01*
X10204Y372364D01*
X11674Y368813D01*
X14014Y365764D01*
X17063Y363424D01*
X20262Y362099D01*
X20492Y361007D01*
X20355Y359938D01*
X19369Y359530D01*
X17275Y357923D01*
X15668Y355829D01*
X14658Y353391D01*
X14313Y350774D01*
X14658Y348157D01*
X15668Y345719D01*
X17275Y343625D01*
X19369Y342018D01*
X20355Y341610D01*
X20492Y340541D01*
X20262Y339449D01*
X17063Y338124D01*
X14014Y335784D01*
X11674Y332735D01*
X10204Y329184D01*
X9702Y325374D01*
X10204Y321564D01*
X11674Y318013D01*
X14014Y314964D01*
X15674Y313690D01*
Y311658D01*
X14014Y310384D01*
X11674Y307335D01*
X10204Y303784D01*
X9702Y299974D01*
X10204Y296164D01*
X11674Y292613D01*
X14014Y289564D01*
X17063Y287224D01*
X20262Y285899D01*
X20492Y284807D01*
X20355Y283738D01*
X19369Y283330D01*
X17275Y281723D01*
X15668Y279629D01*
X14658Y277191D01*
X14313Y274574D01*
X14658Y271957D01*
X15668Y269519D01*
X17275Y267425D01*
X19369Y265818D01*
X21807Y264808D01*
X24424Y264464D01*
X29424D01*
X32041Y264808D01*
X34479Y265818D01*
X36573Y267425D01*
X38180Y269519D01*
X39190Y271957D01*
X39534Y274574D01*
X39190Y277191D01*
X38180Y279629D01*
X36573Y281723D01*
X34479Y283330D01*
X33493Y283738D01*
X33356Y284807D01*
X33586Y285899D01*
X36785Y287224D01*
X39834Y289564D01*
X42174Y292613D01*
X43644Y296164D01*
X44146Y299974D01*
X43644Y303784D01*
X42174Y307335D01*
X39834Y310384D01*
X38174Y311658D01*
Y313690D01*
X39834Y314964D01*
X42174Y318013D01*
X43644Y321564D01*
X44146Y325374D01*
X43644Y329184D01*
X42174Y332735D01*
X39834Y335784D01*
X36785Y338124D01*
X33586Y339449D01*
X33356Y340541D01*
X33493Y341610D01*
X34479Y342018D01*
X36573Y343625D01*
X38180Y345719D01*
X39190Y348157D01*
X39534Y350774D01*
X39190Y353391D01*
X38180Y355829D01*
X36573Y357923D01*
X34479Y359530D01*
X33493Y359938D01*
X33356Y361007D01*
X33586Y362099D01*
X36785Y363424D01*
X39834Y365764D01*
X42174Y368813D01*
X43644Y372364D01*
X44146Y376174D01*
X43644Y379984D01*
X42174Y383535D01*
X39834Y386584D01*
X36785Y388924D01*
X33586Y390249D01*
X33356Y391341D01*
X33493Y392410D01*
X34479Y392818D01*
X36573Y394425D01*
X38180Y396519D01*
X39190Y398957D01*
X39534Y401574D01*
X39190Y404191D01*
X38180Y406629D01*
X36573Y408723D01*
X34479Y410330D01*
X32041Y411340D01*
X29424Y411684D01*
D02*
G37*
G36*
X129099Y265524D02*
X126901D01*
X124871Y264683D01*
X123317Y263129D01*
X122476Y261099D01*
Y258901D01*
X123317Y256871D01*
X124871Y255317D01*
X126901Y254476D01*
X129099D01*
X131129Y255317D01*
X132683Y256871D01*
X133524Y258901D01*
Y261099D01*
X132683Y263129D01*
X131129Y264683D01*
X129099Y265524D01*
D02*
G37*
G36*
Y250524D02*
X126901D01*
X124871Y249683D01*
X123317Y248129D01*
X122476Y246099D01*
Y243901D01*
X123317Y241871D01*
X124871Y240317D01*
X126901Y239476D01*
X129099D01*
X131129Y240317D01*
X132683Y241871D01*
X133524Y243901D01*
Y246099D01*
X132683Y248129D01*
X131129Y249683D01*
X129099Y250524D01*
D02*
G37*
G36*
X124289Y197802D02*
X122091D01*
X120061Y196961D01*
X118507Y195407D01*
X117666Y193377D01*
Y191179D01*
X118507Y189149D01*
X120061Y187595D01*
X122091Y186754D01*
X124289D01*
X126319Y187595D01*
X127873Y189149D01*
X128714Y191179D01*
Y193377D01*
X127873Y195407D01*
X126319Y196961D01*
X124289Y197802D01*
D02*
G37*
G36*
X38749Y212998D02*
X35099D01*
X31521Y212286D01*
X28150Y210890D01*
X25116Y208862D01*
X22536Y206282D01*
X20508Y203248D01*
X19112Y199877D01*
X18400Y196299D01*
Y192650D01*
X19112Y189071D01*
X20508Y185700D01*
X22536Y182666D01*
X25116Y180086D01*
X28150Y178058D01*
X31521Y176662D01*
X35099Y175950D01*
X38749D01*
X42327Y176662D01*
X45698Y178058D01*
X48732Y180086D01*
X51312Y182666D01*
X53340Y185700D01*
X54736Y189071D01*
X55448Y192650D01*
Y196299D01*
X54736Y199877D01*
X53340Y203248D01*
X51312Y206282D01*
X48732Y208862D01*
X45698Y210890D01*
X42327Y212286D01*
X38749Y212998D01*
D02*
G37*
G36*
X21099Y170524D02*
X18901D01*
X16871Y169683D01*
X15317Y168129D01*
X14476Y166099D01*
Y163901D01*
X15317Y161871D01*
X16871Y160317D01*
X18901Y159476D01*
X21099D01*
X23129Y160317D01*
X24683Y161871D01*
X25524Y163901D01*
Y166099D01*
X24683Y168129D01*
X23129Y169683D01*
X21099Y170524D01*
D02*
G37*
G36*
X81871Y159194D02*
X79673D01*
X77643Y158353D01*
X76089Y156799D01*
X75248Y154769D01*
Y152571D01*
X76089Y150541D01*
X77643Y148987D01*
X79673Y148146D01*
X81871D01*
X83901Y148987D01*
X85455Y150541D01*
X86296Y152571D01*
Y154769D01*
X85455Y156799D01*
X83901Y158353D01*
X81871Y159194D01*
D02*
G37*
G36*
X38099Y136524D02*
X35901D01*
X33871Y135683D01*
X32317Y134129D01*
X31476Y132099D01*
Y129901D01*
X32317Y127871D01*
X33871Y126317D01*
X35901Y125476D01*
X38099D01*
X40129Y126317D01*
X41683Y127871D01*
X42524Y129901D01*
Y132099D01*
X41683Y134129D01*
X40129Y135683D01*
X38099Y136524D01*
D02*
G37*
G36*
X21099D02*
X18901D01*
X16871Y135683D01*
X15317Y134129D01*
X14476Y132099D01*
Y129901D01*
X15317Y127871D01*
X16871Y126317D01*
X18901Y125476D01*
X21099D01*
X23129Y126317D01*
X24683Y127871D01*
X25524Y129901D01*
Y132099D01*
X24683Y134129D01*
X23129Y135683D01*
X21099Y136524D01*
D02*
G37*
G36*
X55183Y136334D02*
X52985D01*
X50955Y135493D01*
X49401Y133939D01*
X48560Y131909D01*
Y129711D01*
X49401Y127681D01*
X50955Y126127D01*
X52985Y125286D01*
X55183D01*
X57213Y126127D01*
X58767Y127681D01*
X59608Y129711D01*
Y131909D01*
X58767Y133939D01*
X57213Y135493D01*
X55183Y136334D01*
D02*
G37*
G36*
X865599Y99024D02*
X863401D01*
X861371Y98183D01*
X859817Y96629D01*
X858976Y94599D01*
Y92401D01*
X859817Y90371D01*
X861371Y88817D01*
X863401Y87976D01*
X865599D01*
X867629Y88817D01*
X869183Y90371D01*
X870024Y92401D01*
Y94599D01*
X869183Y96629D01*
X867629Y98183D01*
X865599Y99024D01*
D02*
G37*
G36*
X818114Y94629D02*
X815917D01*
X813886Y93788D01*
X812332Y92234D01*
X811491Y90204D01*
Y88006D01*
X812332Y85976D01*
X813886Y84422D01*
X815917Y83581D01*
X818114D01*
X820144Y84422D01*
X821698Y85976D01*
X822539Y88006D01*
Y90204D01*
X821698Y92234D01*
X820144Y93788D01*
X818114Y94629D01*
D02*
G37*
G36*
X906349Y93524D02*
X904151D01*
X902121Y92683D01*
X900567Y91129D01*
X899726Y89099D01*
Y86901D01*
X900567Y84871D01*
X902121Y83317D01*
X904151Y82476D01*
X906349D01*
X908379Y83317D01*
X909933Y84871D01*
X910774Y86901D01*
Y89099D01*
X909933Y91129D01*
X908379Y92683D01*
X906349Y93524D01*
D02*
G37*
G36*
X889099D02*
X886901D01*
X884871Y92683D01*
X883317Y91129D01*
X882476Y89099D01*
Y86901D01*
X883317Y84871D01*
X884871Y83317D01*
X886901Y82476D01*
X889099D01*
X891129Y83317D01*
X892683Y84871D01*
X893524Y86901D01*
Y89099D01*
X892683Y91129D01*
X891129Y92683D01*
X889099Y93524D01*
D02*
G37*
%LPD*%
D11*
X268000Y588000D02*
X268060Y587940D01*
X275810D01*
X280994Y582756D01*
D89*
X153162Y827702D02*
D03*
D126*
X960000Y40000D02*
D03*
Y960000D02*
D03*
X40000Y40000D02*
D03*
Y960000D02*
D03*
D129*
X785837Y285000D02*
X786000Y285163D01*
Y329000D01*
X792114Y231252D02*
Y271886D01*
X786000Y278000D02*
X792114Y271886D01*
X786000Y278000D02*
Y285163D01*
X844000Y329000D02*
X853169Y338169D01*
X786000Y329000D02*
X844000D01*
X615000Y183750D02*
Y267750D01*
X551500Y165750D02*
X597000D01*
X615000Y183750D01*
X605750Y225250D02*
Y274500D01*
X357000Y49000D02*
X434750D01*
X551500Y165750D01*
X580000Y32368D02*
Y151000D01*
X615000Y267750D02*
X621250Y274000D01*
X766000D01*
X616250Y285000D02*
X785837D01*
X605750Y274500D02*
X616250Y285000D01*
X820928Y224928D02*
Y291084D01*
X785000Y218000D02*
X814000D01*
X820928Y224928D01*
X766000Y274000D02*
X777000Y263000D01*
Y226000D02*
Y263000D01*
Y226000D02*
X785000Y218000D01*
X315000Y7000D02*
X357000Y49000D01*
X190000Y7000D02*
X315000D01*
X174000Y23000D02*
X190000Y7000D01*
X853169Y338169D02*
X952000D01*
X919246Y355246D02*
Y358666D01*
X888504Y345798D02*
X909798D01*
X919246Y355246D01*
X174000Y23000D02*
Y332500D01*
X213500Y372000D01*
Y601000D01*
D131*
X703834Y908558D02*
X704342Y909066D01*
X673252Y908558D02*
X703834D01*
X673162Y825246D02*
X673252Y825337D01*
D132*
X369062Y955040D02*
X643890D01*
X355445Y889766D02*
Y941423D01*
X359918Y870712D02*
Y885190D01*
Y885293D01*
X355445Y889766D02*
X359918Y885293D01*
X673252Y908558D02*
Y925678D01*
Y880972D02*
Y908558D01*
Y804625D02*
Y825337D01*
Y880972D01*
D133*
X768858Y361142D02*
Y408848D01*
X580000Y151000D02*
X588039Y159039D01*
X685000D01*
Y153728D02*
Y159039D01*
X689030Y149292D02*
Y149698D01*
X685000Y153728D02*
X689030Y149698D01*
X685000Y159039D02*
Y252500D01*
X784202Y345798D02*
X888504D01*
X768858Y361142D02*
X784202Y345798D01*
X614553Y795175D02*
Y825246D01*
Y855317D02*
X614962Y855726D01*
X614553Y825246D02*
Y855317D01*
Y795175D02*
X614962Y794766D01*
X614553Y825246D02*
X673162D01*
X673387Y804490D02*
X685292D01*
X707302D01*
X673252Y804625D02*
X673387Y804490D01*
X673252Y880972D02*
X673534Y880690D01*
X707556D01*
D136*
X264160Y518350D02*
D03*
Y543750D02*
D03*
X919246Y451671D02*
D03*
Y544876D02*
D03*
Y358666D02*
D03*
Y320565D02*
D03*
Y282465D02*
D03*
X919226Y871790D02*
D03*
Y833690D02*
D03*
Y795590D02*
D03*
X919246Y189600D02*
D03*
Y151500D02*
D03*
X850000Y920000D02*
D03*
X811900D02*
D03*
X773800D02*
D03*
X655451Y81750D02*
D03*
X693551D02*
D03*
X731651D02*
D03*
X395224Y27432D02*
D03*
X369824D02*
D03*
D137*
X264160Y569150D02*
D03*
D138*
X919246Y413571D02*
D03*
Y506776D02*
D03*
Y244366D02*
D03*
X919226Y757490D02*
D03*
X919246Y113400D02*
D03*
D139*
X488870Y544038D02*
D03*
Y530038D02*
D03*
Y558038D02*
D03*
X502870Y530038D02*
D03*
Y544038D02*
D03*
Y558038D02*
D03*
X481870Y537038D02*
D03*
Y551038D02*
D03*
X495870Y537038D02*
D03*
Y551038D02*
D03*
X509870Y537038D02*
D03*
Y551038D02*
D03*
X226090Y85740D02*
D03*
X240090D02*
D03*
X212090D02*
D03*
X240090Y99740D02*
D03*
X226090D02*
D03*
X212090D02*
D03*
X233090Y78740D02*
D03*
X219090D02*
D03*
X233090Y92740D02*
D03*
X219090D02*
D03*
X233090Y106740D02*
D03*
X219090D02*
D03*
X936000Y40000D02*
D03*
X976971Y56971D02*
D03*
X960000Y16000D02*
D03*
X984000Y40000D02*
D03*
X943029Y23029D02*
D03*
Y56971D02*
D03*
X976971Y23029D02*
D03*
X960000Y64000D02*
D03*
X936000Y960000D02*
D03*
X976971Y976971D02*
D03*
X960000Y936000D02*
D03*
X984000Y960000D02*
D03*
X943029Y943029D02*
D03*
Y976971D02*
D03*
X976971Y943029D02*
D03*
X960000Y984000D02*
D03*
X16000Y40000D02*
D03*
X56971Y56971D02*
D03*
X40000Y16000D02*
D03*
X64000Y40000D02*
D03*
X23029Y23029D02*
D03*
Y56971D02*
D03*
X56971Y23029D02*
D03*
X40000Y64000D02*
D03*
X16000Y960000D02*
D03*
X56971Y976971D02*
D03*
X40000Y936000D02*
D03*
X64000Y960000D02*
D03*
X23029Y943029D02*
D03*
Y976971D02*
D03*
X56971Y943029D02*
D03*
X40000Y984000D02*
D03*
X658000Y737000D02*
D03*
X512000Y358000D02*
D03*
X856000Y355000D02*
D03*
X963000Y608000D02*
D03*
X128000Y882000D02*
D03*
X113000D02*
D03*
X99000D02*
D03*
X142000Y922000D02*
D03*
Y935000D02*
D03*
X128000D02*
D03*
Y922000D02*
D03*
X113000D02*
D03*
Y935000D02*
D03*
X99000D02*
D03*
Y922000D02*
D03*
X85000Y935000D02*
D03*
Y922000D02*
D03*
Y909000D02*
D03*
X836000Y420000D02*
D03*
X786000Y329000D02*
D03*
X768858Y408848D02*
D03*
X848000Y413000D02*
D03*
X822000Y420000D02*
D03*
X575000Y724000D02*
D03*
X564000D02*
D03*
X596000Y725000D02*
D03*
X583000Y747000D02*
D03*
X822000Y655000D02*
D03*
X610000Y925000D02*
D03*
X545000Y981000D02*
D03*
X561000D02*
D03*
X420000D02*
D03*
X440000D02*
D03*
X460000D02*
D03*
X480000D02*
D03*
X249000Y812000D02*
D03*
Y829000D02*
D03*
Y847000D02*
D03*
X264000D02*
D03*
X281000Y812000D02*
D03*
X264000D02*
D03*
X255000Y671000D02*
D03*
Y641000D02*
D03*
Y657000D02*
D03*
X268000Y700000D02*
D03*
X283000D02*
D03*
X299000D02*
D03*
X314000D02*
D03*
X328000Y685000D02*
D03*
Y642000D02*
D03*
X263000Y491000D02*
D03*
X236000Y503000D02*
D03*
Y518000D02*
D03*
Y532000D02*
D03*
X250000Y491000D02*
D03*
X458000Y859000D02*
D03*
X922000Y7500D02*
D03*
X286000Y362000D02*
D03*
X272000Y346000D02*
D03*
Y361000D02*
D03*
X244000D02*
D03*
X230000Y347000D02*
D03*
X244000Y346000D02*
D03*
X259000Y332000D02*
D03*
Y346000D02*
D03*
Y361000D02*
D03*
X128000Y260000D02*
D03*
Y245000D02*
D03*
X20000Y165000D02*
D03*
Y131000D02*
D03*
X37000D02*
D03*
X66000Y79000D02*
D03*
X51000D02*
D03*
X36000D02*
D03*
X20000D02*
D03*
X268000Y15000D02*
D03*
Y29000D02*
D03*
X281000D02*
D03*
Y16000D02*
D03*
X86000Y74000D02*
D03*
Y59000D02*
D03*
Y45000D02*
D03*
Y16000D02*
D03*
Y31000D02*
D03*
X156000Y29000D02*
D03*
Y16000D02*
D03*
X144000Y29000D02*
D03*
Y16000D02*
D03*
X816000Y172000D02*
D03*
X709000Y149000D02*
D03*
Y162000D02*
D03*
X695000D02*
D03*
X725000Y149000D02*
D03*
X700000Y109000D02*
D03*
X685000D02*
D03*
X888000Y88000D02*
D03*
X795000Y425000D02*
D03*
Y438000D02*
D03*
X775000Y566000D02*
D03*
X808000D02*
D03*
X481000Y715000D02*
D03*
X467000D02*
D03*
Y730000D02*
D03*
X481000D02*
D03*
X485000Y801000D02*
D03*
Y820000D02*
D03*
Y839000D02*
D03*
X446000Y820000D02*
D03*
Y839000D02*
D03*
X458000Y874000D02*
D03*
Y889000D02*
D03*
X963000Y621000D02*
D03*
Y634000D02*
D03*
Y647000D02*
D03*
X89000Y652000D02*
D03*
X75000D02*
D03*
X60000D02*
D03*
X89000Y638000D02*
D03*
X75000D02*
D03*
X60000D02*
D03*
X7000Y565000D02*
D03*
Y592000D02*
D03*
Y579000D02*
D03*
X79000Y566000D02*
D03*
X65000Y579000D02*
D03*
X50000D02*
D03*
X110000Y592000D02*
D03*
X94000Y566000D02*
D03*
Y579000D02*
D03*
X79000D02*
D03*
X94000Y592000D02*
D03*
X79000D02*
D03*
X555000Y300000D02*
D03*
X533667D02*
D03*
X512333D02*
D03*
X491000D02*
D03*
Y318000D02*
D03*
Y335000D02*
D03*
X512333Y318000D02*
D03*
Y335000D02*
D03*
X533667D02*
D03*
Y318000D02*
D03*
X555000D02*
D03*
Y335000D02*
D03*
X402000Y609000D02*
D03*
X419000D02*
D03*
X435000D02*
D03*
Y625000D02*
D03*
X402000Y642000D02*
D03*
Y625000D02*
D03*
X419000D02*
D03*
X411000Y489000D02*
D03*
X427000D02*
D03*
Y506000D02*
D03*
X411000D02*
D03*
X395000D02*
D03*
Y489000D02*
D03*
Y472000D02*
D03*
X413000Y402000D02*
D03*
X395000D02*
D03*
X413000Y416000D02*
D03*
X395000D02*
D03*
X375000Y453000D02*
D03*
Y436000D02*
D03*
X395000D02*
D03*
Y453000D02*
D03*
X227000Y411000D02*
D03*
Y430000D02*
D03*
X265000Y431000D02*
D03*
X246000D02*
D03*
Y450000D02*
D03*
X295000Y742500D02*
D03*
X85000Y842500D02*
D03*
X70000D02*
D03*
X55000D02*
D03*
X40000D02*
D03*
X85000Y882500D02*
D03*
Y895000D02*
D03*
X70000D02*
D03*
Y882500D02*
D03*
X55000D02*
D03*
Y895000D02*
D03*
X140000Y990000D02*
D03*
X160000D02*
D03*
X180000Y960000D02*
D03*
X190000Y930000D02*
D03*
Y890000D02*
D03*
X180000Y990000D02*
D03*
X395000Y794500D02*
D03*
X327750Y656750D02*
D03*
X268000Y588000D02*
D03*
X206000Y685250D02*
D03*
X668250Y626000D02*
D03*
Y641000D02*
D03*
X682750Y626000D02*
D03*
X675250Y531250D02*
D03*
X695750Y501500D02*
D03*
X775500Y551500D02*
D03*
X847500Y576250D02*
D03*
X833000Y576000D02*
D03*
X792000Y566000D02*
D03*
X846500Y467750D02*
D03*
X832750D02*
D03*
Y491250D02*
D03*
X846500Y491000D02*
D03*
X878500Y624250D02*
D03*
X864000Y624750D02*
D03*
X848250D02*
D03*
X534750Y199250D02*
D03*
X534500Y210250D02*
D03*
X547000D02*
D03*
Y199750D02*
D03*
X605750Y225250D02*
D03*
X522500Y117500D02*
D03*
X497500Y92500D02*
D03*
X602000Y144250D02*
D03*
X940000Y492500D02*
D03*
Y370000D02*
D03*
Y315000D02*
D03*
Y292500D02*
D03*
Y270000D02*
D03*
Y250000D02*
D03*
Y230000D02*
D03*
X975000Y80000D02*
D03*
X992500Y100000D02*
D03*
Y80000D02*
D03*
X765000Y81750D02*
D03*
Y100000D02*
D03*
X725000Y177500D02*
D03*
X740000D02*
D03*
X755000D02*
D03*
X770000D02*
D03*
X162500Y542500D02*
D03*
X177500D02*
D03*
X195000D02*
D03*
X762500Y7500D02*
D03*
X797500D02*
D03*
X905000D02*
D03*
X887500D02*
D03*
X870000D02*
D03*
X855000D02*
D03*
X837500D02*
D03*
X637500Y70000D02*
D03*
Y85000D02*
D03*
Y100000D02*
D03*
X655000D02*
D03*
X490000Y22500D02*
D03*
Y40000D02*
D03*
Y57500D02*
D03*
Y75000D02*
D03*
Y7500D02*
D03*
X505000D02*
D03*
X522500D02*
D03*
X420000D02*
D03*
X407500D02*
D03*
X395000D02*
D03*
X382500D02*
D03*
X357500D02*
D03*
X370000D02*
D03*
X244000Y332000D02*
D03*
X230000D02*
D03*
X152500Y380000D02*
D03*
Y402500D02*
D03*
Y442500D02*
D03*
Y422500D02*
D03*
X177500Y477500D02*
D03*
X195000Y527500D02*
D03*
Y492500D02*
D03*
X160000Y477500D02*
D03*
X195000Y510000D02*
D03*
X227000Y450000D02*
D03*
X265000D02*
D03*
X250000Y503000D02*
D03*
X312500Y742500D02*
D03*
X340000Y732500D02*
D03*
X365000D02*
D03*
X340000Y815000D02*
D03*
X264000Y830000D02*
D03*
X280000Y857500D02*
D03*
Y872500D02*
D03*
Y887500D02*
D03*
X297500Y980000D02*
D03*
X280000D02*
D03*
X297500Y992500D02*
D03*
X280000D02*
D03*
X262500D02*
D03*
X665000Y990000D02*
D03*
X561000Y993000D02*
D03*
X545000D02*
D03*
X480000D02*
D03*
X460000D02*
D03*
X440000D02*
D03*
X420000D02*
D03*
X285000Y402000D02*
D03*
X246000Y411000D02*
D03*
X435000Y370000D02*
D03*
Y402000D02*
D03*
X465000Y370000D02*
D03*
X491000D02*
D03*
X465000Y402000D02*
D03*
X491000D02*
D03*
X533000Y358000D02*
D03*
X525000Y402000D02*
D03*
X555000Y358000D02*
D03*
Y389000D02*
D03*
X585000D02*
D03*
Y358000D02*
D03*
X755000Y400000D02*
D03*
X740000D02*
D03*
X730000Y359000D02*
D03*
X690000D02*
D03*
X710000Y100000D02*
D03*
X730000D02*
D03*
X750000D02*
D03*
Y81750D02*
D03*
X920000Y210000D02*
D03*
X940000Y170000D02*
D03*
Y190000D02*
D03*
Y210000D02*
D03*
Y410000D02*
D03*
Y430000D02*
D03*
Y450000D02*
D03*
Y390750D02*
D03*
X919500Y391000D02*
D03*
X940000Y471500D02*
D03*
X919500D02*
D03*
X877000Y358000D02*
D03*
X966665Y358666D02*
D03*
X365252Y798802D02*
D03*
X657718Y886968D02*
D03*
X974250Y689250D02*
D03*
X986500D02*
D03*
Y701500D02*
D03*
X974268Y701482D02*
D03*
X963676Y895324D02*
D03*
X938244Y895500D02*
D03*
X37592Y100076D02*
D03*
X471000Y262750D02*
D03*
X404500Y306500D02*
D03*
X361854Y260604D02*
D03*
X204216Y320040D02*
D03*
X74422Y350774D02*
D03*
X135000Y360000D02*
D03*
X163684Y365390D02*
D03*
X135000Y350000D02*
D03*
X135037Y339037D02*
D03*
X890270Y647192D02*
D03*
X893000Y499000D02*
D03*
X591319Y54887D02*
D03*
X792114Y231252D02*
D03*
X887500Y125250D02*
D03*
X804000Y82000D02*
D03*
X903224Y659384D02*
D03*
X930656Y673100D02*
D03*
X804164Y680212D02*
D03*
X904494Y635387D02*
D03*
X840970Y77780D02*
D03*
X860044Y562356D02*
D03*
X872490Y575056D02*
D03*
X670052Y655320D02*
D03*
X614962Y794766D02*
D03*
X593754Y814578D02*
D03*
Y753618D02*
D03*
X614962Y855726D02*
D03*
X685000Y252500D02*
D03*
Y265000D02*
D03*
X699269D02*
D03*
Y252481D02*
D03*
X701250Y294750D02*
D03*
X726750Y295000D02*
D03*
X605750Y388250D02*
D03*
X616750D02*
D03*
X641000D02*
D03*
X628564D02*
D03*
X697500Y387750D02*
D03*
X780000Y97250D02*
D03*
X864500Y93500D02*
D03*
X817015Y89105D02*
D03*
X905250Y88000D02*
D03*
X506543Y32368D02*
D03*
X951230Y918464D02*
D03*
X376000Y63250D02*
D03*
X357777Y63527D02*
D03*
X585000Y909000D02*
D03*
X820928Y291084D02*
D03*
X712978Y468966D02*
D03*
X347786Y415036D02*
D03*
X294964D02*
D03*
X637032Y451358D02*
D03*
X773176Y196850D02*
D03*
X731520Y334202D02*
D03*
X78974Y553974D02*
D03*
X268240Y210804D02*
D03*
X626364Y616204D02*
D03*
X615188Y615950D02*
D03*
X596270Y657606D02*
D03*
X102362Y390906D02*
D03*
X283464Y77216D02*
D03*
X319786Y65278D02*
D03*
X100884Y66340D02*
D03*
X468884Y679704D02*
D03*
X456946D02*
D03*
X481996Y661670D02*
D03*
X482346Y672084D02*
D03*
X283464Y167940D02*
D03*
X230520Y364632D02*
D03*
X351028Y555244D02*
D03*
X337470D02*
D03*
X202628Y446024D02*
D03*
X193104D02*
D03*
X101300Y53640D02*
D03*
X310134Y521970D02*
D03*
X298196D02*
D03*
X319532Y205486D02*
D03*
X359301Y372046D02*
D03*
X450902Y261164D02*
D03*
X429086Y296244D02*
D03*
X404542D02*
D03*
X409194Y370078D02*
D03*
X123190Y192278D02*
D03*
X149352Y117094D02*
D03*
X80772Y153670D02*
D03*
X140162Y91740D02*
D03*
X481330Y774700D02*
D03*
Y760730D02*
D03*
Y746760D02*
D03*
X467360D02*
D03*
Y760730D02*
D03*
Y774700D02*
D03*
X365252Y812800D02*
D03*
Y825500D02*
D03*
X378460Y798830D02*
D03*
Y812800D02*
D03*
Y825500D02*
D03*
X659889Y546100D02*
D03*
Y556768D02*
D03*
X647446Y531368D02*
D03*
X583946Y664274D02*
D03*
X541782Y670148D02*
D03*
X519662Y707216D02*
D03*
X541782Y707548D02*
D03*
X566928Y577850D02*
D03*
X582422Y552688D02*
D03*
X559816Y527288D02*
D03*
X574294Y565404D02*
D03*
X101346Y417068D02*
D03*
X74930Y608076D02*
D03*
X89662Y607822D02*
D03*
X74930Y622808D02*
D03*
X60452D02*
D03*
X89408Y622554D02*
D03*
X124968Y558292D02*
D03*
Y574294D02*
D03*
X72390Y199390D02*
D03*
X639602Y513856D02*
D03*
X655574Y655320D02*
D03*
X464820Y417830D02*
D03*
X453390D02*
D03*
X298196Y534543D02*
D03*
X310134D02*
D03*
X610632Y552688D02*
D03*
X619760Y539496D02*
D03*
X619252Y565150D02*
D03*
X310134Y547116D02*
D03*
X298196D02*
D03*
X110490Y557276D02*
D03*
Y574040D02*
D03*
X704342Y909066D02*
D03*
X772668Y469138D02*
D03*
X759460Y469900D02*
D03*
X659889Y534044D02*
D03*
X441960Y417830D02*
D03*
X430022D02*
D03*
X523240Y861060D02*
D03*
X781558Y900684D02*
D03*
X859282D02*
D03*
X689030Y149292D02*
D03*
X888504Y345798D02*
D03*
X750570Y957580D02*
D03*
X703685Y546459D02*
D03*
X696468Y553974D02*
D03*
X689102Y562102D02*
D03*
X680720Y570230D02*
D03*
X510286Y753618D02*
D03*
Y814578D02*
D03*
X456596Y486918D02*
D03*
X469296D02*
D03*
X481996Y433413D02*
D03*
X494696D02*
D03*
X507396D02*
D03*
X520096D02*
D03*
X532796D02*
D03*
X545496D02*
D03*
X637032Y603504D02*
D03*
X657606Y876046D02*
D03*
Y799084D02*
D03*
X637032Y590804D02*
D03*
X774954Y493522D02*
D03*
X777476Y513080D02*
D03*
Y525780D02*
D03*
X443962Y452416D02*
D03*
X538480Y861060D02*
D03*
Y873760D02*
D03*
X523240D02*
D03*
Y886460D02*
D03*
X538480D02*
D03*
X359918Y856234D02*
D03*
Y870712D02*
D03*
X344678D02*
D03*
Y856234D02*
D03*
X359918Y885190D02*
D03*
X218210Y863911D02*
D03*
X258572Y973328D02*
D03*
X54084Y130810D02*
D03*
X372698Y929386D02*
D03*
X344758Y885190D02*
D03*
X178642Y940816D02*
D03*
D140*
X153162Y780702D02*
D03*
Y733702D02*
D03*
X23662Y805702D02*
D03*
Y755702D02*
D03*
D141*
X888100Y920000D02*
D03*
X617351Y81750D02*
D03*
D142*
X162560Y903102D02*
D03*
D143*
X111760D02*
D03*
D144*
X26924Y604774D02*
D03*
Y579374D02*
D03*
Y553974D02*
D03*
Y528574D02*
D03*
Y503174D02*
D03*
Y477774D02*
D03*
Y452374D02*
D03*
Y426974D02*
D03*
Y401574D02*
D03*
Y376174D02*
D03*
Y350774D02*
D03*
Y325374D02*
D03*
Y299974D02*
D03*
Y274574D02*
D03*
X867224Y477674D02*
D03*
Y452274D02*
D03*
Y426874D02*
D03*
Y401474D02*
D03*
D146*
X892556Y833690D02*
D03*
X822556D02*
D03*
X707556Y880690D02*
D03*
Y833690D02*
D03*
X892302Y757490D02*
D03*
X822302D02*
D03*
X707302Y804490D02*
D03*
Y757490D02*
D03*
D148*
X167640Y632626D02*
D03*
D149*
Y558126D02*
D03*
D150*
X420624Y27432D02*
D03*
D151*
X874250Y158500D02*
D03*
X740156Y256921D02*
D03*
X652506Y142077D02*
D03*
X617500Y109250D02*
D03*
X565940Y130760D02*
D03*
X592750Y285500D02*
D03*
X677164Y401574D02*
D03*
D152*
X36924Y194474D02*
D03*
Y684874D02*
D03*
X867224D02*
D03*
Y194474D02*
D03*
D153*
X468000Y774700D02*
Y923000D01*
X966750Y106750D02*
Y584250D01*
X799000Y611000D02*
X940000D01*
X966750Y584250D01*
X785000Y595000D02*
X926000D01*
X604357Y775642D02*
X785000Y595000D01*
X604357Y775642D02*
Y914642D01*
X586000Y933000D02*
X604357Y914642D01*
X478000Y933000D02*
X586000D01*
X685292Y724708D02*
X799000Y611000D01*
X892368Y32368D02*
X966750Y106750D01*
X894887Y54887D02*
X952000Y112000D01*
X591319Y54887D02*
X894887Y54887D01*
X952000Y112000D02*
Y338169D01*
X468000Y923000D02*
X478000Y933000D01*
X506543Y32368D02*
X580000D01*
X892368D01*
X952000Y338169D02*
Y569000D01*
X685292Y724708D02*
Y804490D01*
X926000Y595000D02*
X952000Y569000D01*
D154*
X602000Y144250D02*
X620250Y126000D01*
X820000D01*
X204216Y320040D02*
X286960D01*
M02*
