G04*
G04 #@! TF.GenerationSoftware,Altium Limited,Altium Designer,24.10.1 (45)*
G04*
G04 Layer_Color=8388736*
%FSLAX25Y25*%
%MOIN*%
G70*
G04*
G04 #@! TF.SameCoordinates,F8DE0C88-6A82-4F8F-96BC-C1AF256D62EF*
G04*
G04*
G04 #@! TF.FilePolarity,Negative*
G04*
G01*
G75*
%ADD21R,0.26000X0.15500*%
%ADD73R,0.04000X0.04000*%
%ADD74R,0.02800X0.03400*%
%ADD75R,0.04000X0.03800*%
%ADD76R,0.03950X0.03753*%
%ADD77R,0.06500X0.05200*%
%ADD78R,0.02769X0.03162*%
%ADD79R,0.05500X0.04800*%
%ADD80R,0.03400X0.02800*%
%ADD81R,0.03162X0.02769*%
%ADD82R,0.09855X0.18517*%
G04:AMPARAMS|DCode=83|XSize=55.64mil|YSize=31.23mil|CornerRadius=6.9mil|HoleSize=0mil|Usage=FLASHONLY|Rotation=90.000|XOffset=0mil|YOffset=0mil|HoleType=Round|Shape=RoundedRectangle|*
%AMROUNDEDRECTD83*
21,1,0.05564,0.01742,0,0,90.0*
21,1,0.04183,0.03123,0,0,90.0*
1,1,0.01381,0.00871,0.02092*
1,1,0.01381,0.00871,-0.02092*
1,1,0.01381,-0.00871,-0.02092*
1,1,0.01381,-0.00871,0.02092*
%
%ADD83ROUNDEDRECTD83*%
%ADD84R,0.05200X0.06500*%
G04:AMPARAMS|DCode=85|XSize=65.87mil|YSize=19.02mil|CornerRadius=5.38mil|HoleSize=0mil|Usage=FLASHONLY|Rotation=0.000|XOffset=0mil|YOffset=0mil|HoleType=Round|Shape=RoundedRectangle|*
%AMROUNDEDRECTD85*
21,1,0.06587,0.00827,0,0,0.0*
21,1,0.05512,0.01902,0,0,0.0*
1,1,0.01076,0.02756,-0.00413*
1,1,0.01076,-0.02756,-0.00413*
1,1,0.01076,-0.02756,0.00413*
1,1,0.01076,0.02756,0.00413*
%
%ADD85ROUNDEDRECTD85*%
%ADD86R,0.04343X0.04343*%
%ADD87R,0.04343X0.06706*%
%ADD88R,0.06706X0.04343*%
%ADD89R,0.08556X0.03162*%
%ADD90R,0.06509X0.03162*%
%ADD91R,0.10642X0.14186*%
G04:AMPARAMS|DCode=92|XSize=88.71mil|YSize=31.23mil|CornerRadius=6.9mil|HoleSize=0mil|Usage=FLASHONLY|Rotation=0.000|XOffset=0mil|YOffset=0mil|HoleType=Round|Shape=RoundedRectangle|*
%AMROUNDEDRECTD92*
21,1,0.08871,0.01742,0,0,0.0*
21,1,0.07490,0.03123,0,0,0.0*
1,1,0.01381,0.03745,-0.00871*
1,1,0.01381,-0.03745,-0.00871*
1,1,0.01381,-0.03745,0.00871*
1,1,0.01381,0.03745,0.00871*
%
%ADD92ROUNDEDRECTD92*%
G04:AMPARAMS|DCode=93|XSize=98.55mil|YSize=66.27mil|CornerRadius=11.28mil|HoleSize=0mil|Usage=FLASHONLY|Rotation=0.000|XOffset=0mil|YOffset=0mil|HoleType=Round|Shape=RoundedRectangle|*
%AMROUNDEDRECTD93*
21,1,0.09855,0.04370,0,0,0.0*
21,1,0.07598,0.06627,0,0,0.0*
1,1,0.02257,0.03799,-0.02185*
1,1,0.02257,-0.03799,-0.02185*
1,1,0.02257,-0.03799,0.02185*
1,1,0.02257,0.03799,0.02185*
%
%ADD93ROUNDEDRECTD93*%
%ADD94R,0.03162X0.08556*%
%ADD95R,0.05524X0.04800*%
%ADD96R,0.04343X0.04343*%
%ADD97R,0.06706X0.04343*%
%ADD98R,0.04343X0.06706*%
%ADD99R,0.04800X0.05524*%
%ADD100R,0.13792X0.10288*%
%ADD101R,0.04737X0.07493*%
%ADD102R,0.07493X0.09461*%
%ADD103R,0.09461X0.07493*%
%ADD104R,0.03800X0.04000*%
%ADD105R,0.04800X0.05500*%
%ADD106R,0.08280X0.21666*%
%ADD107R,0.16548X0.11430*%
%ADD108R,0.01981X0.05328*%
%ADD109R,0.03162X0.05328*%
G04:AMPARAMS|DCode=110|XSize=55.24mil|YSize=78.87mil|CornerRadius=15.81mil|HoleSize=0mil|Usage=FLASHONLY|Rotation=270.000|XOffset=0mil|YOffset=0mil|HoleType=Round|Shape=RoundedRectangle|*
%AMROUNDEDRECTD110*
21,1,0.05524,0.04724,0,0,270.0*
21,1,0.02362,0.07887,0,0,270.0*
1,1,0.03162,-0.02362,-0.01181*
1,1,0.03162,-0.02362,0.01181*
1,1,0.03162,0.02362,0.01181*
1,1,0.03162,0.02362,-0.01181*
%
%ADD110ROUNDEDRECTD110*%
G04:AMPARAMS|DCode=111|XSize=31.62mil|YSize=69.02mil|CornerRadius=9.91mil|HoleSize=0mil|Usage=FLASHONLY|Rotation=270.000|XOffset=0mil|YOffset=0mil|HoleType=Round|Shape=RoundedRectangle|*
%AMROUNDEDRECTD111*
21,1,0.03162,0.04921,0,0,270.0*
21,1,0.01181,0.06902,0,0,270.0*
1,1,0.01981,-0.02461,-0.00591*
1,1,0.01981,-0.02461,0.00591*
1,1,0.01981,0.02461,0.00591*
1,1,0.01981,0.02461,-0.00591*
%
%ADD111ROUNDEDRECTD111*%
%ADD112R,0.07099X0.03950*%
%ADD113R,0.12611X0.09068*%
%ADD114R,0.05721X0.01981*%
%ADD115R,0.13005X0.09855*%
%ADD116R,0.11811X0.11811*%
%ADD117R,0.13398X0.06706*%
%ADD118R,0.04000X0.04000*%
%ADD119R,0.07493X0.10642*%
%ADD120R,0.06194X0.07611*%
G04:AMPARAMS|DCode=121|XSize=55.64mil|YSize=36.74mil|CornerRadius=6.59mil|HoleSize=0mil|Usage=FLASHONLY|Rotation=90.000|XOffset=0mil|YOffset=0mil|HoleType=Round|Shape=RoundedRectangle|*
%AMROUNDEDRECTD121*
21,1,0.05564,0.02357,0,0,90.0*
21,1,0.04247,0.03674,0,0,90.0*
1,1,0.01317,0.01178,0.02123*
1,1,0.01317,0.01178,-0.02123*
1,1,0.01317,-0.01178,-0.02123*
1,1,0.01317,-0.01178,0.02123*
%
%ADD121ROUNDEDRECTD121*%
G04:AMPARAMS|DCode=122|XSize=55.64mil|YSize=36.74mil|CornerRadius=6.59mil|HoleSize=0mil|Usage=FLASHONLY|Rotation=180.000|XOffset=0mil|YOffset=0mil|HoleType=Round|Shape=RoundedRectangle|*
%AMROUNDEDRECTD122*
21,1,0.05564,0.02357,0,0,180.0*
21,1,0.04247,0.03674,0,0,180.0*
1,1,0.01317,-0.02123,0.01178*
1,1,0.01317,0.02123,0.01178*
1,1,0.01317,0.02123,-0.01178*
1,1,0.01317,-0.02123,-0.01178*
%
%ADD122ROUNDEDRECTD122*%
%ADD123R,0.10642X0.07493*%
%ADD124R,0.03753X0.03950*%
%ADD125R,0.05200X0.07900*%
%ADD126C,0.05906*%
%ADD127C,0.05918*%
%ADD128C,0.04934*%
%ADD129C,0.10249*%
G04:AMPARAMS|DCode=130|XSize=102.49mil|YSize=102.49mil|CornerRadius=27.62mil|HoleSize=0mil|Usage=FLASHONLY|Rotation=180.000|XOffset=0mil|YOffset=0mil|HoleType=Round|Shape=RoundedRectangle|*
%AMROUNDEDRECTD130*
21,1,0.10249,0.04724,0,0,180.0*
21,1,0.04724,0.10249,0,0,180.0*
1,1,0.05524,-0.02362,0.02362*
1,1,0.05524,0.02362,0.02362*
1,1,0.05524,0.02362,-0.02362*
1,1,0.05524,-0.02362,-0.02362*
%
%ADD130ROUNDEDRECTD130*%
%ADD131C,0.00800*%
%ADD132C,0.12611*%
%ADD133R,0.12611X0.12611*%
G04:AMPARAMS|DCode=134|XSize=90.68mil|YSize=90.68mil|CornerRadius=24.67mil|HoleSize=0mil|Usage=FLASHONLY|Rotation=90.000|XOffset=0mil|YOffset=0mil|HoleType=Round|Shape=RoundedRectangle|*
%AMROUNDEDRECTD134*
21,1,0.09068,0.04134,0,0,90.0*
21,1,0.04134,0.09068,0,0,90.0*
1,1,0.04934,0.02067,0.02067*
1,1,0.04934,0.02067,-0.02067*
1,1,0.04934,-0.02067,-0.02067*
1,1,0.04934,-0.02067,0.02067*
%
%ADD134ROUNDEDRECTD134*%
%ADD135C,0.09068*%
G04:AMPARAMS|DCode=136|XSize=90.68mil|YSize=90.68mil|CornerRadius=24.67mil|HoleSize=0mil|Usage=FLASHONLY|Rotation=180.000|XOffset=0mil|YOffset=0mil|HoleType=Round|Shape=RoundedRectangle|*
%AMROUNDEDRECTD136*
21,1,0.09068,0.04134,0,0,180.0*
21,1,0.04134,0.09068,0,0,180.0*
1,1,0.04934,-0.02067,0.02067*
1,1,0.04934,0.02067,0.02067*
1,1,0.04934,0.02067,-0.02067*
1,1,0.04934,-0.02067,-0.02067*
%
%ADD136ROUNDEDRECTD136*%
%ADD137O,0.09461X0.07493*%
%ADD138C,0.20485*%
%ADD139C,0.07887*%
%ADD140R,0.07887X0.07887*%
%ADD141C,0.03359*%
%ADD142O,0.04934X0.09068*%
%ADD143O,0.04934X0.09855*%
%ADD144C,0.03950*%
%ADD145C,0.25197*%
G36*
X144400Y393700D02*
X144400Y390500D01*
X144400Y390261D01*
X144217Y389820D01*
X143880Y389483D01*
X143439Y389300D01*
X143200Y389300D01*
X143200Y389300D01*
X122800D01*
X122527Y389273D01*
X122022Y389064D01*
X121636Y388678D01*
X121427Y388173D01*
X121400Y387900D01*
D01*
Y384800D01*
Y384422D01*
X121111Y383724D01*
X120576Y383189D01*
X119878Y382900D01*
X119500D01*
D01*
X106200D01*
X105941Y382900D01*
X105464Y383098D01*
X105098Y383464D01*
X104900Y383941D01*
X104900Y384200D01*
X104900Y384200D01*
X104865Y384560D01*
X104589Y385225D01*
X104080Y385733D01*
X103416Y386009D01*
X103056Y386044D01*
D01*
X101200D01*
Y393700D01*
X144400D01*
D02*
G37*
G36*
X214300Y393701D02*
Y389700D01*
X193300D01*
X193027Y389673D01*
X192522Y389464D01*
X192136Y389078D01*
X191927Y388573D01*
X191900Y388300D01*
D01*
Y385200D01*
Y384822D01*
X191611Y384124D01*
X191076Y383589D01*
X190378Y383300D01*
X190000D01*
D01*
X160500D01*
Y393701D01*
X214300D01*
D02*
G37*
D21*
X15000Y95750D02*
D03*
D73*
X249046Y314600D02*
D03*
X254951D02*
D03*
X15253Y35200D02*
D03*
X9347D02*
D03*
X108047Y277000D02*
D03*
X113953D02*
D03*
X110506Y253900D02*
D03*
X104600D02*
D03*
X254651Y344900D02*
D03*
X248746D02*
D03*
X363547Y361600D02*
D03*
X369453D02*
D03*
X379547D02*
D03*
X385453D02*
D03*
X324387Y7900D02*
D03*
X330293D02*
D03*
X186223Y308667D02*
D03*
X180318D02*
D03*
X186223Y298400D02*
D03*
X180318D02*
D03*
X169523Y308667D02*
D03*
X163618D02*
D03*
X169523Y298400D02*
D03*
X163618D02*
D03*
D74*
X199762Y174138D02*
D03*
Y178862D02*
D03*
X204762Y174138D02*
D03*
Y178862D02*
D03*
X143800Y243462D02*
D03*
Y238738D02*
D03*
X123700Y83800D02*
D03*
Y88524D02*
D03*
X143800Y228500D02*
D03*
Y233224D02*
D03*
X118700Y83800D02*
D03*
Y88524D02*
D03*
X237952Y11862D02*
D03*
Y7138D02*
D03*
X116800Y191962D02*
D03*
Y187238D02*
D03*
X234252Y26162D02*
D03*
Y21438D02*
D03*
X231152Y26162D02*
D03*
Y21438D02*
D03*
X112100Y197500D02*
D03*
Y202224D02*
D03*
X197637Y43386D02*
D03*
Y48110D02*
D03*
X153200Y205374D02*
D03*
Y200650D02*
D03*
X59600Y53162D02*
D03*
Y48438D02*
D03*
X81400Y12079D02*
D03*
Y7354D02*
D03*
X78300Y26662D02*
D03*
Y21938D02*
D03*
X75100Y26662D02*
D03*
Y21938D02*
D03*
X43500Y82724D02*
D03*
Y78000D02*
D03*
X39900Y82762D02*
D03*
Y78038D02*
D03*
X38426Y56739D02*
D03*
Y61463D02*
D03*
X79700Y65400D02*
D03*
Y60676D02*
D03*
X209800Y268562D02*
D03*
Y263838D02*
D03*
Y273838D02*
D03*
Y278562D02*
D03*
X365900Y213206D02*
D03*
Y208481D02*
D03*
X200900Y325938D02*
D03*
Y330662D02*
D03*
X244900Y363138D02*
D03*
Y367862D02*
D03*
Y382438D02*
D03*
Y387162D02*
D03*
X200900Y301938D02*
D03*
Y306662D02*
D03*
X276700Y126662D02*
D03*
Y121938D02*
D03*
X259800Y201468D02*
D03*
Y206193D02*
D03*
X209762Y178862D02*
D03*
Y174138D02*
D03*
X214762Y178862D02*
D03*
Y174138D02*
D03*
X366269Y250152D02*
D03*
Y254877D02*
D03*
X360931Y250152D02*
D03*
Y254877D02*
D03*
X33400Y169162D02*
D03*
Y164438D02*
D03*
X350100Y162762D02*
D03*
Y158038D02*
D03*
X350400Y188038D02*
D03*
Y192762D02*
D03*
X96600Y84338D02*
D03*
Y89062D02*
D03*
X172000Y72038D02*
D03*
Y76762D02*
D03*
Y81838D02*
D03*
Y86562D02*
D03*
X370700Y58835D02*
D03*
Y54110D02*
D03*
X91900Y12079D02*
D03*
Y7354D02*
D03*
X28500Y69337D02*
D03*
Y74061D02*
D03*
X28400Y44200D02*
D03*
Y39476D02*
D03*
D75*
X307200Y107950D02*
D03*
Y114050D02*
D03*
X303000D02*
D03*
Y107950D02*
D03*
X339800Y61650D02*
D03*
Y55550D02*
D03*
X106600Y232950D02*
D03*
Y239050D02*
D03*
X94500Y150250D02*
D03*
Y144150D02*
D03*
X350500Y144055D02*
D03*
Y150155D02*
D03*
X134200Y189750D02*
D03*
Y183650D02*
D03*
X82200Y30850D02*
D03*
Y36950D02*
D03*
X116800Y258350D02*
D03*
Y264450D02*
D03*
X99400Y265850D02*
D03*
Y271950D02*
D03*
X344200Y44350D02*
D03*
Y50450D02*
D03*
X303000Y49450D02*
D03*
Y55550D02*
D03*
X307300Y60650D02*
D03*
Y66750D02*
D03*
X348500Y50450D02*
D03*
Y44350D02*
D03*
X303000Y103050D02*
D03*
Y96950D02*
D03*
X307300Y92750D02*
D03*
Y86650D02*
D03*
X303000Y92750D02*
D03*
Y86650D02*
D03*
Y149126D02*
D03*
Y143026D02*
D03*
X298465D02*
D03*
Y149126D02*
D03*
Y137876D02*
D03*
Y131776D02*
D03*
X303000Y131826D02*
D03*
Y137926D02*
D03*
X352200Y201450D02*
D03*
Y207550D02*
D03*
X146731Y382850D02*
D03*
Y388950D02*
D03*
X76631Y383094D02*
D03*
Y389194D02*
D03*
X146731Y370650D02*
D03*
Y376750D02*
D03*
X76631Y370444D02*
D03*
Y376544D02*
D03*
D76*
X311100Y160964D02*
D03*
Y155649D02*
D03*
X327100Y153943D02*
D03*
Y159257D02*
D03*
X315500Y160964D02*
D03*
Y155649D02*
D03*
X331532Y153943D02*
D03*
Y159257D02*
D03*
X133638Y300617D02*
D03*
Y295302D02*
D03*
X268700Y252443D02*
D03*
Y257757D02*
D03*
X273100Y252485D02*
D03*
Y257800D02*
D03*
X327900Y247443D02*
D03*
Y252758D02*
D03*
X323300Y247443D02*
D03*
Y252758D02*
D03*
X365800Y222463D02*
D03*
Y217148D02*
D03*
X361400Y222463D02*
D03*
Y217148D02*
D03*
X296200Y108642D02*
D03*
Y113958D02*
D03*
X291800Y108642D02*
D03*
Y113958D02*
D03*
X293200Y194185D02*
D03*
Y199500D02*
D03*
X288800Y194185D02*
D03*
Y199500D02*
D03*
X307300Y55558D02*
D03*
Y50243D02*
D03*
X339900Y50500D02*
D03*
Y45185D02*
D03*
X330500Y27558D02*
D03*
Y22242D02*
D03*
X326100Y27558D02*
D03*
Y22242D02*
D03*
X310600Y24843D02*
D03*
Y30158D02*
D03*
X315000Y24785D02*
D03*
Y30100D02*
D03*
X339700Y102842D02*
D03*
Y108158D02*
D03*
X333200Y124515D02*
D03*
Y119200D02*
D03*
X337600Y124515D02*
D03*
Y119200D02*
D03*
X307300Y97742D02*
D03*
Y103058D02*
D03*
Y143018D02*
D03*
Y148333D02*
D03*
X298433Y121942D02*
D03*
Y127258D02*
D03*
X302900Y121942D02*
D03*
Y127258D02*
D03*
X311700Y124515D02*
D03*
Y119200D02*
D03*
X307300Y124515D02*
D03*
Y119200D02*
D03*
Y137933D02*
D03*
Y132618D02*
D03*
X365800Y235048D02*
D03*
Y240363D02*
D03*
X361400Y235048D02*
D03*
Y240363D02*
D03*
X24300Y232842D02*
D03*
Y238158D02*
D03*
X19900Y232842D02*
D03*
Y238158D02*
D03*
X174800Y137515D02*
D03*
Y132200D02*
D03*
X154142Y137515D02*
D03*
Y132200D02*
D03*
X171531Y357256D02*
D03*
Y362571D02*
D03*
X101331Y357056D02*
D03*
Y362371D02*
D03*
D77*
X321300Y160964D02*
D03*
Y153943D02*
D03*
X232752Y11911D02*
D03*
Y4889D02*
D03*
X221452Y35489D02*
D03*
Y42511D02*
D03*
X76500Y12079D02*
D03*
Y5057D02*
D03*
Y38211D02*
D03*
Y31189D02*
D03*
X286700Y121889D02*
D03*
Y128911D02*
D03*
X298900Y199500D02*
D03*
Y192479D02*
D03*
X320600Y30011D02*
D03*
Y22989D02*
D03*
X179800Y17800D02*
D03*
Y24821D02*
D03*
Y5059D02*
D03*
Y12100D02*
D03*
X172800Y5089D02*
D03*
Y12131D02*
D03*
D78*
X373900Y54898D02*
D03*
Y58835D02*
D03*
X241052Y7531D02*
D03*
Y11468D02*
D03*
X84700Y8142D02*
D03*
Y12079D02*
D03*
X28500Y58100D02*
D03*
Y62037D02*
D03*
X28400Y48137D02*
D03*
Y52074D02*
D03*
X158300Y144869D02*
D03*
Y140931D02*
D03*
X137843Y144900D02*
D03*
Y140963D02*
D03*
D79*
X345200Y61650D02*
D03*
Y54950D02*
D03*
D80*
X344324Y33600D02*
D03*
X339600D02*
D03*
X117738Y224100D02*
D03*
X122462D02*
D03*
X94462Y139700D02*
D03*
X89738D02*
D03*
X138662Y193500D02*
D03*
X133938D02*
D03*
X144438Y209311D02*
D03*
X149162D02*
D03*
X106638Y213248D02*
D03*
X111362D02*
D03*
X144438Y205374D02*
D03*
X149162D02*
D03*
X106638Y209311D02*
D03*
X111362D02*
D03*
X149162Y213200D02*
D03*
X144438D02*
D03*
X68662Y83260D02*
D03*
X63938D02*
D03*
X70438Y69400D02*
D03*
X75162D02*
D03*
X70438Y65400D02*
D03*
X75162D02*
D03*
Y73200D02*
D03*
X70438D02*
D03*
X24662Y35200D02*
D03*
X19938D02*
D03*
X253470Y349200D02*
D03*
X248746D02*
D03*
X254651Y336924D02*
D03*
X249927D02*
D03*
X254651Y340624D02*
D03*
X249927D02*
D03*
X253770Y318900D02*
D03*
X249046D02*
D03*
X254951Y306624D02*
D03*
X250227D02*
D03*
X254951Y310324D02*
D03*
X250227D02*
D03*
X241238Y207594D02*
D03*
X245962D02*
D03*
X241238Y227594D02*
D03*
X245962D02*
D03*
X287624Y78100D02*
D03*
X282900D02*
D03*
X272938D02*
D03*
X277662D02*
D03*
X241538Y232600D02*
D03*
X246262D02*
D03*
X241538Y237600D02*
D03*
X246262D02*
D03*
X108562Y83800D02*
D03*
X103838D02*
D03*
X19838Y218100D02*
D03*
X24562D02*
D03*
X19738Y138100D02*
D03*
X24462D02*
D03*
X171638Y110963D02*
D03*
X176362D02*
D03*
X176162Y107800D02*
D03*
X171438D02*
D03*
X329112Y4100D02*
D03*
X324387D02*
D03*
X353700Y32000D02*
D03*
X358424D02*
D03*
X9316Y342800D02*
D03*
X14040D02*
D03*
D81*
X343537Y30000D02*
D03*
X339600D02*
D03*
X138600Y217000D02*
D03*
X134663D02*
D03*
X64954Y78160D02*
D03*
X61017D02*
D03*
X175969Y117100D02*
D03*
X172031D02*
D03*
X175969Y103383D02*
D03*
X172032D02*
D03*
X175969Y114063D02*
D03*
X172032D02*
D03*
X353700Y28600D02*
D03*
X357637D02*
D03*
X13253Y345900D02*
D03*
X9316D02*
D03*
X169940Y132200D02*
D03*
X166003D02*
D03*
X149411D02*
D03*
X145474D02*
D03*
D82*
X66000Y265798D02*
D03*
Y201231D02*
D03*
D83*
X133598Y305645D02*
D03*
X137338D02*
D03*
X141078D02*
D03*
Y316275D02*
D03*
X137338D02*
D03*
X133598D02*
D03*
X210433Y37759D02*
D03*
X206693D02*
D03*
X202953D02*
D03*
Y47641D02*
D03*
X206693D02*
D03*
X210433D02*
D03*
X54540Y37759D02*
D03*
X50800D02*
D03*
X47060D02*
D03*
Y47641D02*
D03*
X50800D02*
D03*
X54540D02*
D03*
D84*
X130327Y322660D02*
D03*
X137369D02*
D03*
X293689Y61000D02*
D03*
X300711D02*
D03*
X238011Y66300D02*
D03*
X230989D02*
D03*
X342689Y119200D02*
D03*
X349711D02*
D03*
X33611Y153900D02*
D03*
X26589D02*
D03*
X175500Y171600D02*
D03*
X182521D02*
D03*
X9316Y337800D02*
D03*
X16337D02*
D03*
X162789Y171600D02*
D03*
X169831D02*
D03*
X162789Y178500D02*
D03*
X169831D02*
D03*
X130327Y329560D02*
D03*
X137369D02*
D03*
X117448Y317660D02*
D03*
X110407D02*
D03*
X117448Y324560D02*
D03*
X110407D02*
D03*
D85*
X265635Y203437D02*
D03*
Y201468D02*
D03*
Y199500D02*
D03*
Y197531D02*
D03*
Y195563D02*
D03*
X282565D02*
D03*
Y197531D02*
D03*
Y199500D02*
D03*
Y201468D02*
D03*
Y203437D02*
D03*
D86*
X195156Y214188D02*
D03*
Y208676D02*
D03*
Y219700D02*
D03*
X200668Y208676D02*
D03*
Y214188D02*
D03*
Y219700D02*
D03*
X189644Y208676D02*
D03*
Y214188D02*
D03*
Y219700D02*
D03*
D87*
X164762Y185645D02*
D03*
X169762D02*
D03*
X174762D02*
D03*
X179762D02*
D03*
X184762D02*
D03*
X189762D02*
D03*
X194762D02*
D03*
X199762D02*
D03*
X204762D02*
D03*
X209762D02*
D03*
X214762D02*
D03*
X219762D02*
D03*
X224762D02*
D03*
X229762D02*
D03*
Y254542D02*
D03*
X224762D02*
D03*
X219762D02*
D03*
X214762D02*
D03*
X209762D02*
D03*
X204762D02*
D03*
X199762D02*
D03*
X194762D02*
D03*
X189762D02*
D03*
X184762D02*
D03*
X179762D02*
D03*
X174762D02*
D03*
X169762D02*
D03*
X164762D02*
D03*
D88*
X234683Y192594D02*
D03*
Y197594D02*
D03*
Y202594D02*
D03*
Y207594D02*
D03*
Y212594D02*
D03*
Y217594D02*
D03*
Y222594D02*
D03*
Y227594D02*
D03*
Y232594D02*
D03*
Y237594D02*
D03*
Y242594D02*
D03*
Y247594D02*
D03*
D89*
X117756Y243500D02*
D03*
X137244Y233500D02*
D03*
Y238500D02*
D03*
Y243500D02*
D03*
X117756Y238500D02*
D03*
Y233500D02*
D03*
Y228500D02*
D03*
X137244D02*
D03*
X101256Y154700D02*
D03*
X120744Y144700D02*
D03*
Y149700D02*
D03*
Y154700D02*
D03*
X101256Y149700D02*
D03*
Y144700D02*
D03*
Y139700D02*
D03*
X120744D02*
D03*
X313756Y60500D02*
D03*
X333244Y50500D02*
D03*
Y55500D02*
D03*
Y60500D02*
D03*
X313756Y55500D02*
D03*
Y50500D02*
D03*
Y45500D02*
D03*
X333244D02*
D03*
Y98000D02*
D03*
X313756Y108000D02*
D03*
Y103000D02*
D03*
Y98000D02*
D03*
X333244Y103000D02*
D03*
Y108000D02*
D03*
Y113000D02*
D03*
X313756D02*
D03*
X333244Y132876D02*
D03*
X313756Y142876D02*
D03*
Y137876D02*
D03*
Y132876D02*
D03*
X333244Y137876D02*
D03*
Y142876D02*
D03*
Y147876D02*
D03*
X313756D02*
D03*
X333244Y197000D02*
D03*
X313756Y207000D02*
D03*
Y202000D02*
D03*
Y197000D02*
D03*
X333244Y202000D02*
D03*
Y207000D02*
D03*
Y212000D02*
D03*
X313756D02*
D03*
D90*
X117143Y213248D02*
D03*
Y209311D02*
D03*
Y205374D02*
D03*
Y201437D02*
D03*
Y197500D02*
D03*
X138600Y213248D02*
D03*
Y209311D02*
D03*
Y205374D02*
D03*
Y201437D02*
D03*
Y197500D02*
D03*
X43498Y73274D02*
D03*
Y69337D02*
D03*
Y65400D02*
D03*
Y61463D02*
D03*
Y57526D02*
D03*
X64954Y73274D02*
D03*
Y69337D02*
D03*
Y65400D02*
D03*
Y61463D02*
D03*
Y57526D02*
D03*
D91*
X127872Y205374D02*
D03*
X54226Y65400D02*
D03*
D92*
X316527Y262800D02*
D03*
Y257800D02*
D03*
Y252800D02*
D03*
Y247800D02*
D03*
Y242800D02*
D03*
Y237800D02*
D03*
Y232800D02*
D03*
Y227800D02*
D03*
X279873D02*
D03*
Y232800D02*
D03*
Y237800D02*
D03*
Y242800D02*
D03*
Y247800D02*
D03*
Y252800D02*
D03*
Y257800D02*
D03*
Y262800D02*
D03*
D93*
X241926Y330700D02*
D03*
Y320700D02*
D03*
X207674D02*
D03*
Y330700D02*
D03*
X253274Y357900D02*
D03*
Y367900D02*
D03*
X287526D02*
D03*
Y357900D02*
D03*
X242026Y306700D02*
D03*
Y296700D02*
D03*
X207774D02*
D03*
Y306700D02*
D03*
X253174Y377100D02*
D03*
Y387100D02*
D03*
X287426D02*
D03*
Y377100D02*
D03*
D94*
X271700Y94456D02*
D03*
X281700Y113944D02*
D03*
X276700D02*
D03*
X271700D02*
D03*
X276700Y94456D02*
D03*
X281700D02*
D03*
X286700D02*
D03*
Y113944D02*
D03*
X272800Y43856D02*
D03*
X282800Y63344D02*
D03*
X277800D02*
D03*
X272800D02*
D03*
X277800Y43856D02*
D03*
X282800D02*
D03*
X287800D02*
D03*
Y63344D02*
D03*
X259374Y76304D02*
D03*
X249374Y56816D02*
D03*
X254374D02*
D03*
X259374D02*
D03*
X254374Y76304D02*
D03*
X249374D02*
D03*
X244374D02*
D03*
Y56816D02*
D03*
X166631Y376744D02*
D03*
Y357256D02*
D03*
X161632D02*
D03*
X156632D02*
D03*
X151631Y376744D02*
D03*
X156632D02*
D03*
X161632D02*
D03*
X151631Y357256D02*
D03*
X96431Y376544D02*
D03*
Y357056D02*
D03*
X91431D02*
D03*
X86431D02*
D03*
X81432Y376544D02*
D03*
X86431D02*
D03*
X91431D02*
D03*
X81432Y357056D02*
D03*
D95*
X326473Y119760D02*
D03*
Y127240D02*
D03*
X318127Y123500D02*
D03*
X120827Y177140D02*
D03*
Y169660D02*
D03*
X129173Y173400D02*
D03*
X64427Y51340D02*
D03*
Y43860D02*
D03*
X72773Y47600D02*
D03*
X58147Y83260D02*
D03*
Y90740D02*
D03*
X49800Y87000D02*
D03*
X249927Y331965D02*
D03*
Y324484D02*
D03*
X258273Y328224D02*
D03*
X250227Y301965D02*
D03*
Y294484D02*
D03*
X258573Y298224D02*
D03*
X28773Y164460D02*
D03*
Y171940D02*
D03*
X20427Y168200D02*
D03*
D96*
X137106Y37472D02*
D03*
X142617D02*
D03*
X131594D02*
D03*
X142617Y42984D02*
D03*
X137106D02*
D03*
X131594D02*
D03*
X142617Y31961D02*
D03*
X137106D02*
D03*
X131594D02*
D03*
D97*
X165649Y7079D02*
D03*
Y12079D02*
D03*
Y17079D02*
D03*
Y22079D02*
D03*
Y27079D02*
D03*
Y32079D02*
D03*
Y37079D02*
D03*
Y42079D02*
D03*
Y47079D02*
D03*
Y52079D02*
D03*
Y57079D02*
D03*
Y62079D02*
D03*
Y67079D02*
D03*
Y72079D02*
D03*
X96751D02*
D03*
Y67079D02*
D03*
Y62079D02*
D03*
Y57079D02*
D03*
Y52079D02*
D03*
Y47079D02*
D03*
Y42079D02*
D03*
Y37079D02*
D03*
Y32079D02*
D03*
Y27079D02*
D03*
Y22079D02*
D03*
Y17079D02*
D03*
Y12079D02*
D03*
Y7079D02*
D03*
D98*
X158700Y77000D02*
D03*
X153700D02*
D03*
X148700D02*
D03*
X143700D02*
D03*
X138700D02*
D03*
X133700D02*
D03*
X128700D02*
D03*
X123700D02*
D03*
X118700D02*
D03*
X113700D02*
D03*
X108700D02*
D03*
X103700D02*
D03*
D99*
X162460Y136554D02*
D03*
X169940D02*
D03*
X166200Y144900D02*
D03*
X141902Y136554D02*
D03*
X149383D02*
D03*
X145642Y144900D02*
D03*
X129140Y191973D02*
D03*
X121660D02*
D03*
X125400Y183627D02*
D03*
X104360Y263627D02*
D03*
X111840D02*
D03*
X108100Y271973D02*
D03*
X345760Y95553D02*
D03*
X353240D02*
D03*
X349500Y103900D02*
D03*
X139460Y176590D02*
D03*
X146940D02*
D03*
X143200Y184936D02*
D03*
X41080Y48137D02*
D03*
X33600D02*
D03*
X37340Y39791D02*
D03*
D100*
X159132Y367000D02*
D03*
X88932Y366800D02*
D03*
D101*
X388460Y38165D02*
D03*
X381767D02*
D03*
X388460Y58835D02*
D03*
X381767D02*
D03*
D102*
X353700Y7907D02*
D03*
Y21293D02*
D03*
X339600Y7907D02*
D03*
Y21293D02*
D03*
D103*
X7907Y58100D02*
D03*
X21293D02*
D03*
X7907Y44200D02*
D03*
X21293D02*
D03*
D104*
X104350Y258300D02*
D03*
X110450D02*
D03*
X369450Y357000D02*
D03*
X363350D02*
D03*
X385500D02*
D03*
X379400D02*
D03*
X319600Y354600D02*
D03*
X313500D02*
D03*
X349650D02*
D03*
X343550D02*
D03*
X288950Y74300D02*
D03*
X282850D02*
D03*
X271650D02*
D03*
X277750D02*
D03*
X243224Y45916D02*
D03*
X249324D02*
D03*
Y41516D02*
D03*
X243224D02*
D03*
X254424D02*
D03*
X260524D02*
D03*
Y46016D02*
D03*
X254424D02*
D03*
X327150Y39600D02*
D03*
X333250D02*
D03*
X314250D02*
D03*
X320350D02*
D03*
X321150Y66400D02*
D03*
X327250D02*
D03*
X345750Y112800D02*
D03*
X339650D02*
D03*
X311181Y217100D02*
D03*
X317282D02*
D03*
X311181Y191900D02*
D03*
X317282D02*
D03*
X26550Y159600D02*
D03*
X20450D02*
D03*
X179650Y314200D02*
D03*
X185750D02*
D03*
X179650Y303933D02*
D03*
X185750D02*
D03*
X162950Y314200D02*
D03*
X169050D02*
D03*
X162950Y303933D02*
D03*
X169050D02*
D03*
X145688Y305660D02*
D03*
X151788D02*
D03*
Y297060D02*
D03*
X145688D02*
D03*
Y301360D02*
D03*
X151788D02*
D03*
Y316260D02*
D03*
X145688D02*
D03*
X151281Y387700D02*
D03*
X157381D02*
D03*
X156581Y350200D02*
D03*
X150481D02*
D03*
X81081Y387544D02*
D03*
X87182D02*
D03*
X86431Y350200D02*
D03*
X80331D02*
D03*
X91382Y387544D02*
D03*
X97482D02*
D03*
Y383144D02*
D03*
X91382D02*
D03*
D105*
X327456Y91400D02*
D03*
X320756D02*
D03*
X333000D02*
D03*
X339700D02*
D03*
D106*
X112445Y301660D02*
D03*
X125831D02*
D03*
D107*
X200731Y383209D02*
D03*
Y359390D02*
D03*
X129931Y383209D02*
D03*
Y359390D02*
D03*
D108*
X211805Y29681D02*
D03*
X215742D02*
D03*
X213773D02*
D03*
X209836D02*
D03*
X207868D02*
D03*
X205899D02*
D03*
X203931D02*
D03*
X201962D02*
D03*
X55753D02*
D03*
X59690D02*
D03*
X57721D02*
D03*
X53784D02*
D03*
X51816D02*
D03*
X49847D02*
D03*
X47879D02*
D03*
X45910D02*
D03*
D109*
X221450D02*
D03*
X218301D02*
D03*
X199403D02*
D03*
X196254D02*
D03*
X65398D02*
D03*
X62249D02*
D03*
X43351D02*
D03*
X40202D02*
D03*
D110*
X387256Y204150D02*
D03*
Y222261D02*
D03*
D111*
X372000Y217143D02*
D03*
Y213206D02*
D03*
Y209268D02*
D03*
D112*
X373677Y274758D02*
D03*
Y269837D02*
D03*
Y264916D02*
D03*
Y259995D02*
D03*
Y255073D02*
D03*
Y250152D02*
D03*
Y245231D02*
D03*
X373800Y240406D02*
D03*
D113*
X385217Y284799D02*
D03*
Y230366D02*
D03*
D114*
X183912Y97535D02*
D03*
Y99504D02*
D03*
Y101472D02*
D03*
Y103441D02*
D03*
Y105409D02*
D03*
Y107378D02*
D03*
Y109346D02*
D03*
Y111315D02*
D03*
Y113284D02*
D03*
Y115252D02*
D03*
Y117220D02*
D03*
Y119189D02*
D03*
Y121158D02*
D03*
Y123126D02*
D03*
Y125094D02*
D03*
Y127063D02*
D03*
Y129032D02*
D03*
Y131000D02*
D03*
Y132968D02*
D03*
Y134937D02*
D03*
Y136906D02*
D03*
Y138874D02*
D03*
Y140842D02*
D03*
Y142811D02*
D03*
D115*
X190900Y149386D02*
D03*
Y90961D02*
D03*
D116*
X11811Y251181D02*
D03*
Y356299D02*
D03*
D117*
X75400Y325032D02*
D03*
Y341568D02*
D03*
D118*
X193937Y48101D02*
D03*
Y42195D02*
D03*
X88300Y7354D02*
D03*
Y13260D02*
D03*
D119*
X267600Y328224D02*
D03*
Y343972D02*
D03*
Y298224D02*
D03*
Y313972D02*
D03*
X179732Y361526D02*
D03*
Y377274D02*
D03*
X109432Y361626D02*
D03*
Y377374D02*
D03*
D120*
X290013Y168500D02*
D03*
X304187D02*
D03*
Y177600D02*
D03*
X290013D02*
D03*
X243013Y168500D02*
D03*
X257187D02*
D03*
Y177600D02*
D03*
X243013D02*
D03*
X266513Y168500D02*
D03*
X280687D02*
D03*
Y177600D02*
D03*
X266513D02*
D03*
D121*
X124038Y316446D02*
D03*
Y329674D02*
D03*
D122*
X156452Y322560D02*
D03*
X143224D02*
D03*
D123*
X28226Y340400D02*
D03*
X43974D02*
D03*
D124*
X124742Y254200D02*
D03*
X130058D02*
D03*
X124643Y249500D02*
D03*
X129957D02*
D03*
X132757Y149700D02*
D03*
X127443D02*
D03*
X132757Y154200D02*
D03*
X127443D02*
D03*
X149458Y201500D02*
D03*
X144142D02*
D03*
X149458Y197100D02*
D03*
X144142D02*
D03*
X75978Y57000D02*
D03*
X70663D02*
D03*
X75978Y61500D02*
D03*
X70663D02*
D03*
X282800Y69900D02*
D03*
X288115D02*
D03*
X296143Y70900D02*
D03*
X301458D02*
D03*
X296143Y66500D02*
D03*
X301458D02*
D03*
X298257Y55400D02*
D03*
X292943D02*
D03*
X298257Y51000D02*
D03*
X292943D02*
D03*
X277758Y69900D02*
D03*
X272443D02*
D03*
X249331Y50316D02*
D03*
X244017D02*
D03*
X236304Y56400D02*
D03*
X230989D02*
D03*
X236304Y60800D02*
D03*
X230989D02*
D03*
X232696Y71900D02*
D03*
X238011D02*
D03*
X232696Y76300D02*
D03*
X238011D02*
D03*
X254416Y50316D02*
D03*
X259732D02*
D03*
X320456Y35300D02*
D03*
X315141D02*
D03*
X327256Y70900D02*
D03*
X321941D02*
D03*
X344396Y129500D02*
D03*
X349711D02*
D03*
X344396Y125000D02*
D03*
X349711D02*
D03*
X327929Y221400D02*
D03*
X333244D02*
D03*
X327929Y217000D02*
D03*
X333244D02*
D03*
X163615Y149900D02*
D03*
X158300D02*
D03*
X143157D02*
D03*
X137843D02*
D03*
X151274Y383300D02*
D03*
X156589D02*
D03*
X81116Y383044D02*
D03*
X86431D02*
D03*
D125*
X200832Y340100D02*
D03*
X188631D02*
D03*
X200832Y348700D02*
D03*
X188631D02*
D03*
X161632Y348600D02*
D03*
X173831D02*
D03*
X161632Y340300D02*
D03*
X173831D02*
D03*
X129931Y348644D02*
D03*
X117731D02*
D03*
X129931Y340244D02*
D03*
X117731D02*
D03*
X91431Y348444D02*
D03*
X103631D02*
D03*
X91431Y340244D02*
D03*
X103631D02*
D03*
D126*
X357400Y56200D02*
D03*
X256000Y90300D02*
D03*
X255900Y106800D02*
D03*
X236900Y32800D02*
D03*
X294800Y101000D02*
D03*
X276400Y155200D02*
D03*
X315000Y10300D02*
D03*
D127*
X66000Y249065D02*
D03*
D128*
Y219735D02*
D03*
D129*
X44000Y355552D02*
D03*
D130*
X64000D02*
D03*
D131*
X390527Y48500D02*
D03*
X379700D02*
D03*
D132*
X9316Y297521D02*
D03*
Y317206D02*
D03*
X60300Y288859D02*
D03*
Y307363D02*
D03*
D133*
Y325867D02*
D03*
D134*
X361614Y139606D02*
D03*
X361900Y298224D02*
D03*
X361600Y73900D02*
D03*
X361514Y175306D02*
D03*
D135*
X361614Y154606D02*
D03*
X361900Y313224D02*
D03*
Y328224D02*
D03*
Y343224D02*
D03*
X334646Y362205D02*
D03*
X319646D02*
D03*
X304646D02*
D03*
X267784Y32586D02*
D03*
X282784D02*
D03*
X297784D02*
D03*
X361600Y88900D02*
D03*
Y103900D02*
D03*
Y118900D02*
D03*
X361514Y190306D02*
D03*
D136*
X349646Y362205D02*
D03*
X252784Y32586D02*
D03*
D137*
X341427Y158061D02*
D03*
Y168061D02*
D03*
Y178061D02*
D03*
Y188061D02*
D03*
X10600Y108100D02*
D03*
Y118100D02*
D03*
Y128100D02*
D03*
Y138100D02*
D03*
Y148100D02*
D03*
Y158100D02*
D03*
Y168100D02*
D03*
Y178100D02*
D03*
Y188100D02*
D03*
Y198100D02*
D03*
Y208100D02*
D03*
Y218100D02*
D03*
Y228100D02*
D03*
Y238100D02*
D03*
D138*
X341427Y76565D02*
D03*
Y269635D02*
D03*
X14537D02*
D03*
Y76565D02*
D03*
D139*
X278565Y328224D02*
D03*
X323841D02*
D03*
X351400D02*
D03*
X278465Y298224D02*
D03*
X323741D02*
D03*
X351300D02*
D03*
D140*
X278565Y346728D02*
D03*
X278465Y316728D02*
D03*
D141*
X197474Y25488D02*
D03*
X220230D02*
D03*
X41422D02*
D03*
X64178D02*
D03*
D142*
X225880Y11000D02*
D03*
X191824D02*
D03*
X69828D02*
D03*
X35772D02*
D03*
D143*
X225880Y27457D02*
D03*
X191824D02*
D03*
X69828D02*
D03*
X35772D02*
D03*
D144*
X368504Y15748D02*
D03*
X384634Y22429D02*
D03*
X377953Y6299D02*
D03*
X387402Y15748D02*
D03*
X371271Y9067D02*
D03*
Y22429D02*
D03*
X384634Y9067D02*
D03*
X377953Y25197D02*
D03*
X368504Y377953D02*
D03*
X384634Y384634D02*
D03*
X377953Y368504D02*
D03*
X387402Y377953D02*
D03*
X371271Y371271D02*
D03*
Y384634D02*
D03*
X384634Y371271D02*
D03*
X377953Y387402D02*
D03*
X6299Y15748D02*
D03*
X22429Y22429D02*
D03*
X15748Y6299D02*
D03*
X25197Y15748D02*
D03*
X9067Y9067D02*
D03*
Y22429D02*
D03*
X22429Y9067D02*
D03*
X15748Y25197D02*
D03*
X6299Y377953D02*
D03*
X22429Y384634D02*
D03*
X15748Y368504D02*
D03*
X25197Y377953D02*
D03*
X9067Y371271D02*
D03*
Y384634D02*
D03*
X22429Y371271D02*
D03*
X15748Y387402D02*
D03*
D145*
X377953Y15748D02*
D03*
Y377953D02*
D03*
X15748Y15748D02*
D03*
Y377953D02*
D03*
M02*
