G04*
G04 #@! TF.GenerationSoftware,Altium Limited,Altium Designer,24.10.1 (45)*
G04*
G04 Layer_Physical_Order=3*
G04 Layer_Color=16440176*
%FSLAX25Y25*%
%MOIN*%
G70*
G04*
G04 #@! TF.SameCoordinates,F8DE0C88-6A82-4F8F-96BC-C1AF256D62EF*
G04*
G04*
G04 #@! TF.FilePolarity,Positive*
G04*
G01*
G75*
%ADD116R,0.11811X0.11811*%
%ADD145C,0.25197*%
%ADD146C,0.02000*%
%ADD149C,0.01500*%
%ADD150C,0.03000*%
%ADD153C,0.05118*%
%ADD154C,0.04134*%
%ADD155C,0.09449*%
G04:AMPARAMS|DCode=156|XSize=94.49mil|YSize=94.49mil|CornerRadius=23.62mil|HoleSize=0mil|Usage=FLASHONLY|Rotation=180.000|XOffset=0mil|YOffset=0mil|HoleType=Round|Shape=RoundedRectangle|*
%AMROUNDEDRECTD156*
21,1,0.09449,0.04724,0,0,180.0*
21,1,0.04724,0.09449,0,0,180.0*
1,1,0.04724,-0.02362,0.02362*
1,1,0.04724,0.02362,0.02362*
1,1,0.04724,0.02362,-0.02362*
1,1,0.04724,-0.02362,-0.02362*
%
%ADD156ROUNDEDRECTD156*%
%ADD157C,0.03150*%
%ADD158C,0.11811*%
G04:AMPARAMS|DCode=159|XSize=82.68mil|YSize=82.68mil|CornerRadius=20.67mil|HoleSize=0mil|Usage=FLASHONLY|Rotation=90.000|XOffset=0mil|YOffset=0mil|HoleType=Round|Shape=RoundedRectangle|*
%AMROUNDEDRECTD159*
21,1,0.08268,0.04134,0,0,90.0*
21,1,0.04134,0.08268,0,0,90.0*
1,1,0.04134,0.02067,0.02067*
1,1,0.04134,0.02067,-0.02067*
1,1,0.04134,-0.02067,-0.02067*
1,1,0.04134,-0.02067,0.02067*
%
%ADD159ROUNDEDRECTD159*%
%ADD160C,0.08268*%
G04:AMPARAMS|DCode=161|XSize=82.68mil|YSize=82.68mil|CornerRadius=20.67mil|HoleSize=0mil|Usage=FLASHONLY|Rotation=180.000|XOffset=0mil|YOffset=0mil|HoleType=Round|Shape=RoundedRectangle|*
%AMROUNDEDRECTD161*
21,1,0.08268,0.04134,0,0,180.0*
21,1,0.04134,0.08268,0,0,180.0*
1,1,0.04134,-0.02067,0.02067*
1,1,0.04134,0.02067,0.02067*
1,1,0.04134,0.02067,-0.02067*
1,1,0.04134,-0.02067,-0.02067*
%
%ADD161ROUNDEDRECTD161*%
%ADD162O,0.08661X0.06693*%
%ADD164C,0.07087*%
%ADD166C,0.02559*%
%ADD167O,0.04134X0.08268*%
%ADD168O,0.04134X0.09055*%
%ADD169C,0.05000*%
%ADD170C,0.06000*%
%ADD171O,0.07874X0.05906*%
%ADD172C,0.04000*%
G36*
X288100Y380700D02*
X288100Y309742D01*
X284858Y306500D01*
X265700D01*
X263500Y308700D01*
Y361700D01*
X252500Y372700D01*
X146200D01*
X144300Y370800D01*
X142600Y369100D01*
X142600Y364100D01*
X148400Y358300D01*
X148400Y334600D01*
X146800Y333000D01*
X123400Y333000D01*
X116600Y339800D01*
Y379700D01*
X120758Y383858D01*
X160100D01*
X161158Y382800D01*
X190700D01*
X191758Y383858D01*
X284942D01*
X288100Y380700D01*
D02*
G37*
G36*
X243021Y335778D02*
X243006Y335715D01*
X242993Y335623D01*
X242972Y335350D01*
X242951Y334450D01*
X242950Y334152D01*
X240950Y334069D01*
X240949Y334368D01*
X240876Y335640D01*
X240856Y335705D01*
X240834Y335741D01*
X243038Y335811D01*
X243021Y335778D01*
D02*
G37*
G36*
X259100Y361300D02*
Y352775D01*
X258467D01*
X257668Y352444D01*
X257056Y351832D01*
X256725Y351033D01*
Y350167D01*
X257056Y349368D01*
X257668Y348756D01*
X258467Y348425D01*
X259100D01*
Y347075D01*
X258467D01*
X257668Y346744D01*
X257056Y346132D01*
X256725Y345333D01*
Y344467D01*
X257056Y343668D01*
X257668Y343056D01*
X258467Y342725D01*
X259100D01*
Y326531D01*
X245020D01*
X244984Y326549D01*
X244644Y326566D01*
X244390Y326611D01*
X244188Y326678D01*
X244033Y326762D01*
X243912Y326862D01*
X243812Y326983D01*
X243728Y327138D01*
X243661Y327340D01*
X243616Y327594D01*
X243599Y327934D01*
X243581Y327970D01*
Y328000D01*
X243587Y328027D01*
X243581Y328035D01*
Y334106D01*
X243599Y334150D01*
X243600Y334442D01*
X243621Y335318D01*
X243639Y335552D01*
X243641Y335565D01*
X243744Y335668D01*
X244075Y336467D01*
Y337333D01*
X243744Y338132D01*
X243132Y338744D01*
X242333Y339075D01*
X241467D01*
X240668Y338744D01*
X240056Y338132D01*
X239725Y337333D01*
Y336467D01*
X240056Y335668D01*
X240234Y335491D01*
X240300Y334348D01*
X240301Y334067D01*
X240306Y334055D01*
X240301Y334043D01*
X240319Y334005D01*
Y325036D01*
X240313Y325027D01*
X240319Y325000D01*
Y324800D01*
X240313Y324773D01*
X240319Y324764D01*
Y315694D01*
X240301Y315650D01*
X240300Y315358D01*
X240279Y314482D01*
X240261Y314248D01*
X240259Y314235D01*
X240156Y314132D01*
X239825Y313333D01*
Y312467D01*
X240156Y311668D01*
X240768Y311056D01*
X241567Y310725D01*
X242433D01*
X243232Y311056D01*
X243844Y311668D01*
X244175Y312467D01*
Y313333D01*
X243844Y314132D01*
X243666Y314309D01*
X243601Y315452D01*
X243599Y315733D01*
X243594Y315745D01*
X243599Y315757D01*
X243581Y315795D01*
Y321764D01*
X243587Y321773D01*
X243581Y321800D01*
Y321830D01*
X243599Y321866D01*
X243616Y322206D01*
X243661Y322460D01*
X243728Y322661D01*
X243812Y322817D01*
X243912Y322938D01*
X244033Y323038D01*
X244188Y323122D01*
X244390Y323189D01*
X244644Y323234D01*
X244984Y323252D01*
X245020Y323269D01*
X259100D01*
Y321605D01*
X258468Y321344D01*
X257856Y320732D01*
X257525Y319933D01*
Y319067D01*
X257856Y318268D01*
X258468Y317656D01*
X258665Y317575D01*
X258506Y316775D01*
X258467D01*
X257668Y316444D01*
X257056Y315832D01*
X256725Y315033D01*
Y314167D01*
X257056Y313368D01*
X257668Y312756D01*
X258467Y312425D01*
X259100D01*
Y294717D01*
X258760Y294490D01*
X257895D01*
X257095Y294158D01*
X256484Y293547D01*
X256152Y292747D01*
Y291882D01*
X256484Y291083D01*
X257095Y290471D01*
X257895Y290140D01*
X258760D01*
X259100Y289913D01*
Y281700D01*
X290799Y250001D01*
X290768Y249844D01*
X290156Y249232D01*
X289825Y248433D01*
Y247567D01*
X290156Y246768D01*
X290768Y246156D01*
X291567Y245825D01*
X292433D01*
X293232Y246156D01*
X293844Y246768D01*
X294001Y246799D01*
X307800Y233000D01*
Y232700D01*
X371600D01*
X379700Y224600D01*
Y211721D01*
X378900Y211281D01*
X378433Y211475D01*
X377567D01*
X376768Y211144D01*
X376156Y210532D01*
X375825Y209733D01*
Y208867D01*
X376156Y208068D01*
X376768Y207456D01*
X377567Y207125D01*
X378433D01*
X378900Y207319D01*
X379700Y206879D01*
Y200507D01*
X378900Y200176D01*
X378632Y200444D01*
X377833Y200775D01*
X376967D01*
X376168Y200444D01*
X375556Y199832D01*
X375225Y199033D01*
Y198167D01*
X375556Y197368D01*
X376168Y196756D01*
X376967Y196425D01*
X377833D01*
X378632Y196756D01*
X378900Y197024D01*
X379700Y196693D01*
Y168700D01*
X376823Y165823D01*
X351169D01*
X351010Y166623D01*
X351332Y166756D01*
X351944Y167368D01*
X352275Y168167D01*
Y169033D01*
X351944Y169832D01*
X351332Y170444D01*
X350533Y170775D01*
X349667D01*
X348868Y170444D01*
X348256Y169832D01*
X347925Y169033D01*
Y168167D01*
X348256Y167368D01*
X348868Y166756D01*
X349190Y166623D01*
X349031Y165823D01*
X346622D01*
X346087Y166623D01*
X346256Y167030D01*
X346392Y168061D01*
X346256Y169091D01*
X345858Y170051D01*
X345226Y170875D01*
X344401Y171508D01*
X343441Y171906D01*
X342411Y172041D01*
X340442D01*
X339412Y171906D01*
X338452Y171508D01*
X337628Y170875D01*
X336995Y170051D01*
X336598Y169091D01*
X336462Y168061D01*
X336598Y167030D01*
X336766Y166623D01*
X336232Y165823D01*
X335253D01*
X334732Y166344D01*
X333933Y166675D01*
X333067D01*
X332268Y166344D01*
X331747Y165823D01*
X329253D01*
X328732Y166344D01*
X327933Y166675D01*
X327067D01*
X326268Y166344D01*
X325747Y165823D01*
X302923D01*
X301000Y163900D01*
Y153900D01*
X303300Y151600D01*
X315500D01*
X318600Y148500D01*
Y98000D01*
X315500Y94900D01*
X223100D01*
X216300Y88100D01*
Y43007D01*
X215818Y42637D01*
X214782D01*
X213780Y42369D01*
X212883Y41850D01*
X212150Y41117D01*
X211631Y40220D01*
X211363Y39218D01*
Y38182D01*
X211631Y37180D01*
X212150Y36283D01*
X212883Y35550D01*
X213780Y35031D01*
X214782Y34763D01*
X215818D01*
X216300Y34393D01*
Y19600D01*
X215510Y18810D01*
X214831Y19263D01*
X214875Y19367D01*
Y20233D01*
X214544Y21032D01*
X213932Y21644D01*
X213133Y21975D01*
X212267D01*
X211468Y21644D01*
X210856Y21032D01*
X210525Y20233D01*
Y19367D01*
X210856Y18568D01*
X211468Y17956D01*
X212267Y17625D01*
X212957D01*
X213295Y17167D01*
X213395Y16886D01*
X213094Y16500D01*
X206068D01*
X205951Y16775D01*
X206403Y17537D01*
X206478Y17579D01*
X207420Y17831D01*
X208317Y18350D01*
X209050Y19083D01*
X209569Y19980D01*
X209837Y20982D01*
Y22018D01*
X209569Y23020D01*
X209050Y23917D01*
X208317Y24650D01*
X207420Y25169D01*
X206418Y25437D01*
X205382D01*
X204380Y25169D01*
X203483Y24650D01*
X202750Y23917D01*
X202231Y23020D01*
X201963Y22018D01*
Y20982D01*
X202231Y19980D01*
X202558Y19414D01*
X202335Y18571D01*
X202243Y18458D01*
X201968Y18344D01*
X201356Y17732D01*
X201025Y16933D01*
Y16500D01*
X175097D01*
X174892Y17084D01*
X174876Y17300D01*
X175444Y17868D01*
X175775Y18667D01*
Y19533D01*
X175444Y20332D01*
X174832Y20944D01*
X174263Y21179D01*
X174253Y21238D01*
X174343Y22012D01*
X174932Y22256D01*
X175544Y22868D01*
X175875Y23667D01*
Y24533D01*
X175544Y25332D01*
X174932Y25944D01*
X174133Y26275D01*
X173267D01*
X172468Y25944D01*
X171856Y25332D01*
X171525Y24533D01*
Y23667D01*
X171856Y22868D01*
X172468Y22256D01*
X173037Y22021D01*
X173047Y21962D01*
X172957Y21188D01*
X172368Y20944D01*
X171756Y20332D01*
X171425Y19533D01*
Y18667D01*
X171756Y17868D01*
X172324Y17300D01*
X172308Y17084D01*
X172103Y16500D01*
X159700D01*
X154100Y22100D01*
Y68525D01*
X154333D01*
X155132Y68856D01*
X155744Y69468D01*
X156075Y70267D01*
Y71133D01*
X155744Y71932D01*
X155132Y72544D01*
X154333Y72875D01*
X154100D01*
Y170400D01*
X154112Y170412D01*
X154443Y171211D01*
Y172076D01*
X154112Y172876D01*
X154100Y172887D01*
Y177628D01*
X154900Y177787D01*
X155156Y177168D01*
X155768Y176556D01*
X156567Y176225D01*
X157433D01*
X158232Y176556D01*
X158844Y177168D01*
X159175Y177967D01*
Y178833D01*
X158844Y179632D01*
X158232Y180244D01*
X157433Y180575D01*
X156567D01*
X155768Y180244D01*
X155156Y179632D01*
X154900Y179013D01*
X154100Y179172D01*
Y184228D01*
X154900Y184387D01*
X155156Y183768D01*
X155768Y183156D01*
X156567Y182825D01*
X157433D01*
X158232Y183156D01*
X158844Y183768D01*
X159175Y184567D01*
Y185433D01*
X158844Y186232D01*
X158232Y186844D01*
X157433Y187175D01*
X156567D01*
X155768Y186844D01*
X155156Y186232D01*
X154900Y185613D01*
X154100Y185772D01*
Y194193D01*
X154900Y194524D01*
X154968Y194456D01*
X155767Y194125D01*
X156633D01*
X157432Y194456D01*
X158044Y195068D01*
X158375Y195867D01*
Y196733D01*
X158044Y197532D01*
X157432Y198144D01*
X156633Y198475D01*
X155767D01*
X154968Y198144D01*
X154356Y197532D01*
X154025Y196733D01*
Y196406D01*
X153225Y196075D01*
X152200Y197100D01*
X117900D01*
X111700Y203300D01*
Y221700D01*
X105100Y228300D01*
X105100Y287000D01*
X105708Y287608D01*
X106386Y287155D01*
X106325Y287007D01*
Y286142D01*
X106656Y285343D01*
X107268Y284731D01*
X108067Y284400D01*
X108933D01*
X109732Y284731D01*
X110344Y285343D01*
X110675Y286142D01*
Y287007D01*
X110344Y287807D01*
X109732Y288419D01*
X108933Y288750D01*
X108067D01*
X107920Y288688D01*
X107467Y289367D01*
X150300Y332200D01*
Y347800D01*
X172600Y370100D01*
X250300D01*
X259100Y361300D01*
D02*
G37*
G36*
X242970Y327520D02*
X243030Y327180D01*
X243130Y326880D01*
X243270Y326620D01*
X243450Y326400D01*
X243670Y326220D01*
X243930Y326080D01*
X244230Y325980D01*
X244570Y325920D01*
X244950Y325900D01*
Y323900D01*
X244570Y323880D01*
X244230Y323820D01*
X243930Y323720D01*
X243670Y323580D01*
X243450Y323400D01*
X243270Y323180D01*
X243130Y322920D01*
X243030Y322620D01*
X242970Y322280D01*
X242950Y321900D01*
X240950Y324900D01*
X242950Y327900D01*
X242970Y327520D01*
D02*
G37*
G36*
X242951Y315432D02*
X243024Y314160D01*
X243044Y314095D01*
X243066Y314059D01*
X240862Y313989D01*
X240879Y314022D01*
X240894Y314085D01*
X240907Y314177D01*
X240928Y314450D01*
X240949Y315350D01*
X240950Y315649D01*
X242950Y315731D01*
X242951Y315432D01*
D02*
G37*
G36*
X113800Y331600D02*
Y308500D01*
X98700Y293400D01*
Y187600D01*
X101987D01*
X102167Y187525D01*
X103033D01*
X103213Y187600D01*
X140700D01*
X142000Y188900D01*
X142000Y194400D01*
X143100Y195500D01*
X149800D01*
X150900Y194400D01*
Y182600D01*
X148500Y180200D01*
X129726D01*
X129640Y180236D01*
X128774D01*
X128688Y180200D01*
X111807D01*
X111476Y181000D01*
X111844Y181368D01*
X112175Y182167D01*
Y183033D01*
X111844Y183832D01*
X111232Y184444D01*
X110433Y184775D01*
X109567D01*
X108768Y184444D01*
X108156Y183832D01*
X107825Y183033D01*
Y182167D01*
X108156Y181368D01*
X108524Y181000D01*
X108193Y180200D01*
X101640D01*
X101105Y181000D01*
X101175Y181167D01*
Y182033D01*
X100844Y182832D01*
X100232Y183444D01*
X99433Y183775D01*
X98567D01*
X97768Y183444D01*
X97156Y182832D01*
X96825Y182033D01*
Y181167D01*
X97156Y180368D01*
X97768Y179756D01*
X98567Y179425D01*
X98700D01*
Y47700D01*
X96400Y45400D01*
X79076Y45400D01*
X79032Y45444D01*
X78233Y45775D01*
X77367D01*
X76568Y45444D01*
X76524Y45400D01*
X72900D01*
X70700Y47600D01*
Y85002D01*
X70932Y85234D01*
X71263Y86033D01*
Y86898D01*
X70932Y87698D01*
X70700Y87930D01*
Y149503D01*
X71284Y149708D01*
X71500Y149724D01*
X72068Y149156D01*
X72867Y148825D01*
X73733D01*
X74532Y149156D01*
X75144Y149768D01*
X75475Y150567D01*
Y151433D01*
X75144Y152232D01*
X74532Y152844D01*
X73733Y153175D01*
X72867D01*
X72068Y152844D01*
X71500Y152276D01*
X71284Y152292D01*
X70700Y152497D01*
Y233300D01*
X8000D01*
X5400Y235900D01*
Y255200D01*
X8200Y258000D01*
X21479D01*
X21553Y257876D01*
X21724Y257200D01*
X21256Y256732D01*
X20925Y255933D01*
Y255067D01*
X21256Y254268D01*
X21868Y253656D01*
X22667Y253325D01*
X23533D01*
X24332Y253656D01*
X24944Y254268D01*
X25275Y255067D01*
Y255933D01*
X24944Y256732D01*
X24476Y257200D01*
X24647Y257876D01*
X24721Y258000D01*
X73100D01*
Y331300D01*
X75200Y333400D01*
X112000Y333400D01*
X113800Y331600D01*
D02*
G37*
G36*
X56300Y225300D02*
Y210064D01*
X55768Y209844D01*
X55156Y209232D01*
X54825Y208433D01*
Y207567D01*
X55156Y206768D01*
X55768Y206156D01*
X56300Y205936D01*
Y203564D01*
X55768Y203344D01*
X55156Y202732D01*
X54825Y201933D01*
Y201067D01*
X55156Y200268D01*
X55768Y199656D01*
X56300Y199436D01*
Y197064D01*
X55768Y196844D01*
X55156Y196232D01*
X54825Y195433D01*
Y194567D01*
X55156Y193768D01*
X55768Y193156D01*
X56300Y192936D01*
Y190564D01*
X55768Y190344D01*
X55156Y189732D01*
X54825Y188933D01*
Y188067D01*
X55156Y187268D01*
X55768Y186656D01*
X56300Y186436D01*
Y72357D01*
X56268Y72344D01*
X55656Y71732D01*
X55325Y70933D01*
Y70067D01*
X55656Y69268D01*
X56041Y68884D01*
X56000Y68192D01*
X55433Y67675D01*
X54567D01*
X53768Y67344D01*
X53156Y66732D01*
X52825Y65933D01*
Y65067D01*
X53156Y64268D01*
X53768Y63656D01*
X53783Y63583D01*
X47791Y57591D01*
X47618Y57637D01*
X46582D01*
X45580Y57369D01*
X44683Y56850D01*
X43950Y56117D01*
X43431Y55220D01*
X43163Y54218D01*
Y53182D01*
X43209Y53009D01*
X32175Y41975D01*
X31967D01*
X31168Y41644D01*
X30556Y41032D01*
X30225Y40233D01*
Y40025D01*
X23400Y33200D01*
X8900D01*
X1700Y40400D01*
Y160679D01*
X2500Y161060D01*
X3067Y160825D01*
X3933D01*
X4732Y161156D01*
X5344Y161768D01*
X5675Y162567D01*
Y163433D01*
X5344Y164232D01*
X4732Y164844D01*
X3933Y165175D01*
X3067D01*
X2500Y164940D01*
X1700Y165321D01*
Y170679D01*
X2500Y171060D01*
X3067Y170825D01*
X3933D01*
X4732Y171156D01*
X5344Y171768D01*
X5675Y172567D01*
Y172872D01*
X6475Y173267D01*
X6718Y173081D01*
X7977Y172559D01*
X8068Y172129D01*
X8014Y171708D01*
X7626Y171547D01*
X6801Y170915D01*
X6168Y170090D01*
X5771Y169130D01*
X5635Y168100D01*
X5771Y167070D01*
X6168Y166110D01*
X6801Y165285D01*
X7626Y164653D01*
X8585Y164255D01*
X9616Y164120D01*
X11584D01*
X12615Y164255D01*
X13575Y164653D01*
X14399Y165285D01*
X15032Y166110D01*
X15429Y167070D01*
X15565Y168100D01*
X15429Y169130D01*
X15032Y170090D01*
X14399Y170915D01*
X13575Y171547D01*
X13186Y171708D01*
X13132Y172129D01*
X13223Y172559D01*
X14482Y173081D01*
X15683Y174002D01*
X16604Y175202D01*
X17183Y176600D01*
X17380Y178100D01*
X17183Y179600D01*
X16604Y180998D01*
X15683Y182198D01*
X15029Y182700D01*
Y183500D01*
X15683Y184002D01*
X16604Y185202D01*
X17183Y186600D01*
X17380Y188100D01*
X17183Y189600D01*
X16604Y190998D01*
X15683Y192198D01*
X14482Y193120D01*
X13223Y193641D01*
X13132Y194071D01*
X13186Y194492D01*
X13575Y194653D01*
X14399Y195285D01*
X15032Y196110D01*
X15429Y197070D01*
X15565Y198100D01*
X15429Y199130D01*
X15032Y200090D01*
X14399Y200915D01*
X13575Y201547D01*
X12615Y201945D01*
X11584Y202080D01*
X9616D01*
X8585Y201945D01*
X7626Y201547D01*
X6801Y200915D01*
X6168Y200090D01*
X5771Y199130D01*
X5635Y198100D01*
X5771Y197070D01*
X6168Y196110D01*
X6801Y195285D01*
X7626Y194653D01*
X8014Y194492D01*
X8068Y194071D01*
X7977Y193641D01*
X6718Y193120D01*
X5517Y192198D01*
X4596Y190998D01*
X4017Y189600D01*
X3820Y188100D01*
X4017Y186600D01*
X4596Y185202D01*
X5517Y184002D01*
X6171Y183500D01*
Y182700D01*
X5517Y182198D01*
X4596Y180998D01*
X4017Y179600D01*
X3820Y178100D01*
X4017Y176600D01*
X4314Y175883D01*
X4175Y175625D01*
X3742Y175175D01*
X3067D01*
X2500Y174940D01*
X1700Y175321D01*
Y221679D01*
X2500Y222060D01*
X3067Y221825D01*
X3933D01*
X4732Y222156D01*
X5344Y222768D01*
X5675Y223567D01*
Y224433D01*
X5344Y225232D01*
X4732Y225844D01*
X3933Y226175D01*
X3306D01*
X2918Y226893D01*
X2914Y226914D01*
X4400Y228400D01*
X5372D01*
X5635Y228100D01*
X5771Y227070D01*
X6168Y226110D01*
X6801Y225285D01*
X7626Y224653D01*
X8585Y224255D01*
X9616Y224119D01*
X11584D01*
X12615Y224255D01*
X13575Y224653D01*
X14399Y225285D01*
X15032Y226110D01*
X15429Y227070D01*
X15565Y228100D01*
X15828Y228400D01*
X17679D01*
X18060Y227600D01*
X17825Y227033D01*
Y226167D01*
X18156Y225368D01*
X18768Y224756D01*
X19567Y224425D01*
X20433D01*
X21232Y224756D01*
X21844Y225368D01*
X22175Y226167D01*
Y227033D01*
X21940Y227600D01*
X22321Y228400D01*
X24193D01*
X24399Y228103D01*
X24602Y227600D01*
X24325Y226933D01*
Y226067D01*
X24656Y225268D01*
X25268Y224656D01*
X26067Y224325D01*
X26933D01*
X27732Y224656D01*
X28344Y225268D01*
X28675Y226067D01*
Y226933D01*
X28398Y227600D01*
X28601Y228103D01*
X28807Y228400D01*
X30693D01*
X30899Y228103D01*
X31102Y227600D01*
X30825Y226933D01*
Y226067D01*
X31156Y225268D01*
X31768Y224656D01*
X32567Y224325D01*
X33433D01*
X34232Y224656D01*
X34844Y225268D01*
X35175Y226067D01*
Y226933D01*
X34898Y227600D01*
X35101Y228103D01*
X35307Y228400D01*
X53200D01*
X56300Y225300D01*
D02*
G37*
G36*
X306959Y162083D02*
X307023Y162065D01*
X307117Y162050D01*
X307240Y162037D01*
X307784Y162009D01*
X308591Y162000D01*
Y160000D01*
X308293Y159999D01*
X306959Y159917D01*
X306925Y159898D01*
Y162102D01*
X306959Y162083D01*
D02*
G37*
G36*
X386000Y163871D02*
X382000Y158871D01*
X381980Y159631D01*
X381920Y160311D01*
X381820Y160911D01*
X381680Y161431D01*
X381500Y161871D01*
X381280Y162231D01*
X381020Y162511D01*
X380720Y162711D01*
X380414Y162819D01*
X379014Y162867D01*
X378268Y162871D01*
Y164871D01*
X379014Y164875D01*
X380570Y164978D01*
X380720Y165031D01*
X381020Y165231D01*
X381280Y165511D01*
X381500Y165871D01*
X381680Y166311D01*
X381820Y166831D01*
X381920Y167431D01*
X381980Y168111D01*
X382000Y168871D01*
X386000Y163871D01*
D02*
G37*
G36*
X350805Y149033D02*
X348805Y146034D01*
X348785Y146414D01*
X348725Y146754D01*
X348625Y147054D01*
X348485Y147313D01*
X348305Y147534D01*
X348085Y147713D01*
X347825Y147854D01*
X347525Y147953D01*
X347185Y148013D01*
X346805Y148033D01*
Y150033D01*
X347185Y150054D01*
X347525Y150113D01*
X347825Y150214D01*
X348085Y150354D01*
X348305Y150533D01*
X348485Y150753D01*
X348625Y151014D01*
X348725Y151313D01*
X348785Y151654D01*
X348805Y152033D01*
X350805Y149033D01*
D02*
G37*
G36*
X350806Y137634D02*
X350888Y136300D01*
X350907Y136266D01*
X348703D01*
X348722Y136300D01*
X348739Y136364D01*
X348755Y136458D01*
X348768Y136580D01*
X348796Y137124D01*
X348805Y137932D01*
X350805D01*
X350806Y137634D01*
D02*
G37*
G36*
X364938Y121434D02*
X365354Y121112D01*
X365799Y120828D01*
X366274Y120582D01*
X366778Y120373D01*
X367313Y120203D01*
X367876Y120070D01*
X368470Y119976D01*
X369092Y119919D01*
X369668Y119902D01*
X370014Y119904D01*
X373023Y120103D01*
X373281Y120166D01*
X373469Y120236D01*
X373587Y120315D01*
Y119193D01*
X375000Y119900D01*
X376413Y119193D01*
Y120315D01*
X376531Y120236D01*
X376719Y120166D01*
X376977Y120103D01*
X377304Y120049D01*
X378168Y119966D01*
X379986Y119904D01*
X380732Y119900D01*
Y117900D01*
X379986Y117896D01*
X378430Y117793D01*
X378280Y117740D01*
X377980Y117540D01*
X377720Y117260D01*
X377500Y116900D01*
X377320Y116460D01*
X377180Y115940D01*
X377080Y115340D01*
X377020Y114660D01*
X377000Y113900D01*
X373000D01*
X372980Y114660D01*
X372920Y115340D01*
X372820Y115940D01*
X372680Y116460D01*
X372500Y116900D01*
X372280Y117260D01*
X372020Y117540D01*
X371720Y117740D01*
X371414Y117848D01*
X370014Y117896D01*
X369668Y117898D01*
X369092Y117881D01*
X368470Y117824D01*
X367876Y117730D01*
X367313Y117597D01*
X366778Y117427D01*
X366274Y117218D01*
X365799Y116972D01*
X365354Y116688D01*
X364938Y116366D01*
X364552Y116006D01*
Y121794D01*
X364938Y121434D01*
D02*
G37*
G36*
X302583Y74941D02*
X302566Y74877D01*
X302550Y74783D01*
X302537Y74660D01*
X302509Y74116D01*
X302500Y73309D01*
X300500D01*
X300499Y73607D01*
X300417Y74941D01*
X300398Y74975D01*
X302602D01*
X302583Y74941D01*
D02*
G37*
G36*
X302520Y61748D02*
X302580Y61408D01*
X302680Y61108D01*
X302820Y60848D01*
X303000Y60628D01*
X303220Y60448D01*
X303480Y60308D01*
X303780Y60208D01*
X304120Y60148D01*
X304500Y60128D01*
X301500Y58128D01*
X298500Y60128D01*
X298880Y60148D01*
X299220Y60208D01*
X299520Y60308D01*
X299780Y60448D01*
X300000Y60628D01*
X300180Y60848D01*
X300320Y61108D01*
X300420Y61408D01*
X300480Y61748D01*
X300500Y62128D01*
X302500D01*
X302520Y61748D01*
D02*
G37*
G36*
X233681Y52467D02*
X233471Y52255D01*
X232586Y51254D01*
X232575Y51216D01*
X231016Y52775D01*
X231054Y52785D01*
X231112Y52819D01*
X231189Y52874D01*
X231285Y52951D01*
X231689Y53316D01*
X232267Y53881D01*
X233681Y52467D01*
D02*
G37*
G36*
X222859Y51183D02*
X222923Y51165D01*
X223017Y51150D01*
X223140Y51137D01*
X223367Y51125D01*
X225164Y51161D01*
Y49039D01*
X225122Y49050D01*
X225022Y49061D01*
X224645Y49078D01*
X223948Y49084D01*
X222859Y49017D01*
X222825Y48998D01*
Y49094D01*
X222106Y49100D01*
Y51100D01*
X222825Y51114D01*
Y51202D01*
X222859Y51183D01*
D02*
G37*
G36*
X45481Y43967D02*
X45270Y43755D01*
X44385Y42754D01*
X44375Y42716D01*
X42816Y44275D01*
X42854Y44286D01*
X42912Y44319D01*
X42988Y44374D01*
X43085Y44451D01*
X43489Y44816D01*
X44067Y45381D01*
X45481Y43967D01*
D02*
G37*
G36*
X357942Y29488D02*
X360211Y27501D01*
X360438Y27362D01*
X360620Y27280D01*
X360759Y27252D01*
X358758Y25251D01*
X358731Y25390D01*
X358648Y25572D01*
X358510Y25799D01*
X358316Y26068D01*
X357764Y26738D01*
X356522Y28068D01*
X355998Y28598D01*
X357412Y30012D01*
X357942Y29488D01*
D02*
G37*
%LPC*%
G36*
X261177Y382575D02*
X260312D01*
X259512Y382244D01*
X258901Y381632D01*
X258570Y380833D01*
Y379967D01*
X258901Y379168D01*
X259512Y378556D01*
X260312Y378225D01*
X261177D01*
X261976Y378556D01*
X262588Y379168D01*
X262919Y379967D01*
Y380833D01*
X262588Y381632D01*
X261976Y382244D01*
X261177Y382575D01*
D02*
G37*
G36*
X279111Y332368D02*
X278020D01*
X276966Y332085D01*
X276021Y331540D01*
X275250Y330768D01*
X274704Y329824D01*
X274422Y328770D01*
Y327679D01*
X274704Y326625D01*
X275250Y325680D01*
X276021Y324909D01*
X276966Y324363D01*
X278020Y324081D01*
X279111D01*
X280165Y324363D01*
X281109Y324909D01*
X281881Y325680D01*
X282426Y326625D01*
X282709Y327679D01*
Y328770D01*
X282426Y329824D01*
X281881Y330768D01*
X281109Y331540D01*
X280165Y332085D01*
X279111Y332368D01*
D02*
G37*
G36*
X240933Y364690D02*
X240067D01*
X239268Y364359D01*
X238656Y363747D01*
X238325Y362948D01*
Y362083D01*
X238656Y361283D01*
X239268Y360671D01*
X240067Y360340D01*
X240933D01*
X241732Y360671D01*
X242344Y361283D01*
X242675Y362083D01*
Y362948D01*
X242344Y363747D01*
X241732Y364359D01*
X240933Y364690D01*
D02*
G37*
G36*
X181933Y352175D02*
X181067D01*
X180268Y351844D01*
X179656Y351232D01*
X179325Y350433D01*
Y349567D01*
X179656Y348768D01*
X180268Y348156D01*
X181067Y347825D01*
X181933D01*
X182732Y348156D01*
X183344Y348768D01*
X183675Y349567D01*
Y350433D01*
X183344Y351232D01*
X182732Y351844D01*
X181933Y352175D01*
D02*
G37*
G36*
X181864Y346134D02*
X180998D01*
X180199Y345803D01*
X179587Y345191D01*
X179256Y344392D01*
Y343526D01*
X179587Y342727D01*
X180199Y342115D01*
X180998Y341784D01*
X181864D01*
X182663Y342115D01*
X183275Y342727D01*
X183606Y343526D01*
Y344392D01*
X183275Y345191D01*
X182663Y345803D01*
X181864Y346134D01*
D02*
G37*
G36*
X181933Y340175D02*
X181067D01*
X180268Y339844D01*
X179656Y339232D01*
X179325Y338433D01*
Y337567D01*
X179656Y336768D01*
X180268Y336156D01*
X181067Y335825D01*
X181933D01*
X182732Y336156D01*
X183344Y336768D01*
X183675Y337567D01*
Y338433D01*
X183344Y339232D01*
X182732Y339844D01*
X181933Y340175D01*
D02*
G37*
G36*
X255333Y334975D02*
X254467D01*
X253668Y334644D01*
X253056Y334032D01*
X252725Y333233D01*
Y332367D01*
X253056Y331568D01*
X253668Y330956D01*
X254467Y330625D01*
X255333D01*
X256132Y330956D01*
X256744Y331568D01*
X257075Y332367D01*
Y333233D01*
X256744Y334032D01*
X256132Y334644D01*
X255333Y334975D01*
D02*
G37*
G36*
X189433Y334175D02*
X188567D01*
X187768Y333844D01*
X187156Y333232D01*
X186825Y332433D01*
Y331567D01*
X187156Y330768D01*
X187768Y330156D01*
X188567Y329825D01*
X189433D01*
X190232Y330156D01*
X190844Y330768D01*
X191175Y331567D01*
Y332433D01*
X190844Y333232D01*
X190232Y333844D01*
X189433Y334175D01*
D02*
G37*
G36*
X181933D02*
X181067D01*
X180268Y333844D01*
X179656Y333232D01*
X179325Y332433D01*
Y331567D01*
X179656Y330768D01*
X180268Y330156D01*
X181067Y329825D01*
X181933D01*
X182732Y330156D01*
X183344Y330768D01*
X183675Y331567D01*
Y332433D01*
X183344Y333232D01*
X182732Y333844D01*
X181933Y334175D01*
D02*
G37*
G36*
X174433D02*
X173567D01*
X172768Y333844D01*
X172156Y333232D01*
X171825Y332433D01*
Y331567D01*
X172156Y330768D01*
X172768Y330156D01*
X173567Y329825D01*
X174433D01*
X175232Y330156D01*
X175844Y330768D01*
X176175Y331567D01*
Y332433D01*
X175844Y333232D01*
X175232Y333844D01*
X174433Y334175D01*
D02*
G37*
G36*
X235033Y322875D02*
X234167D01*
X233368Y322544D01*
X232756Y321932D01*
X232425Y321133D01*
Y320267D01*
X232756Y319468D01*
X233368Y318856D01*
X234167Y318525D01*
X235033D01*
X235832Y318856D01*
X236444Y319468D01*
X236775Y320267D01*
Y321133D01*
X236444Y321932D01*
X235832Y322544D01*
X235033Y322875D01*
D02*
G37*
G36*
X201333D02*
X200467D01*
X199668Y322544D01*
X199056Y321932D01*
X198725Y321133D01*
Y320267D01*
X199056Y319468D01*
X199668Y318856D01*
X200467Y318525D01*
X201333D01*
X202132Y318856D01*
X202744Y319468D01*
X203075Y320267D01*
Y321133D01*
X202744Y321932D01*
X202132Y322544D01*
X201333Y322875D01*
D02*
G37*
G36*
X194160Y320541D02*
X193295D01*
X192495Y320210D01*
X191883Y319598D01*
X191552Y318799D01*
Y317934D01*
X191883Y317134D01*
X192495Y316523D01*
X193295Y316192D01*
X194160D01*
X194959Y316523D01*
X195571Y317134D01*
X195902Y317934D01*
Y318799D01*
X195571Y319598D01*
X194959Y320210D01*
X194160Y320541D01*
D02*
G37*
G36*
X175733Y306075D02*
X174867D01*
X174068Y305744D01*
X173456Y305132D01*
X173125Y304333D01*
Y303467D01*
X173456Y302668D01*
X174068Y302056D01*
X174867Y301725D01*
X175733D01*
X176532Y302056D01*
X177144Y302668D01*
X177475Y303467D01*
Y304333D01*
X177144Y305132D01*
X176532Y305744D01*
X175733Y306075D01*
D02*
G37*
G36*
X140833Y302475D02*
X139967D01*
X139168Y302144D01*
X138556Y301532D01*
X138225Y300733D01*
Y299867D01*
X138556Y299068D01*
X139168Y298456D01*
X139967Y298125D01*
X140833D01*
X141632Y298456D01*
X142244Y299068D01*
X142575Y299867D01*
Y300733D01*
X142244Y301532D01*
X141632Y302144D01*
X140833Y302475D01*
D02*
G37*
G36*
X158333Y299575D02*
X157467D01*
X156668Y299244D01*
X156056Y298632D01*
X155725Y297833D01*
Y296967D01*
X156056Y296168D01*
X156668Y295556D01*
X157467Y295225D01*
X158333D01*
X159132Y295556D01*
X159744Y296168D01*
X160075Y296967D01*
Y297833D01*
X159744Y298632D01*
X159132Y299244D01*
X158333Y299575D01*
D02*
G37*
G36*
X235033Y298875D02*
X234167D01*
X233368Y298544D01*
X232756Y297932D01*
X232425Y297133D01*
Y296267D01*
X232756Y295468D01*
X233368Y294856D01*
X234167Y294525D01*
X235033D01*
X235832Y294856D01*
X236444Y295468D01*
X236775Y296267D01*
Y297133D01*
X236444Y297932D01*
X235832Y298544D01*
X235033Y298875D01*
D02*
G37*
G36*
X201333D02*
X200467D01*
X199668Y298544D01*
X199056Y297932D01*
X198725Y297133D01*
Y296267D01*
X199056Y295468D01*
X199668Y294856D01*
X200467Y294525D01*
X201333D01*
X202132Y294856D01*
X202744Y295468D01*
X203075Y296267D01*
Y297133D01*
X202744Y297932D01*
X202132Y298544D01*
X201333Y298875D01*
D02*
G37*
G36*
X139901Y297331D02*
X139035D01*
X138236Y297000D01*
X137624Y296388D01*
X137293Y295589D01*
Y294724D01*
X137624Y293924D01*
X138236Y293313D01*
X139035Y292982D01*
X139901D01*
X140700Y293313D01*
X141312Y293924D01*
X141643Y294724D01*
Y295589D01*
X141312Y296388D01*
X140700Y297000D01*
X139901Y297331D01*
D02*
G37*
G36*
X229733Y291175D02*
X228867D01*
X228068Y290844D01*
X227456Y290232D01*
X227125Y289433D01*
Y288567D01*
X227456Y287768D01*
X228068Y287156D01*
X228867Y286825D01*
X229733D01*
X230532Y287156D01*
X231144Y287768D01*
X231475Y288567D01*
Y289433D01*
X231144Y290232D01*
X230532Y290844D01*
X229733Y291175D01*
D02*
G37*
G36*
X188833Y290275D02*
X187967D01*
X187168Y289944D01*
X186556Y289332D01*
X186225Y288533D01*
Y287667D01*
X186556Y286868D01*
X187168Y286256D01*
X187967Y285925D01*
X188833D01*
X189632Y286256D01*
X190244Y286868D01*
X190575Y287667D01*
Y288533D01*
X190244Y289332D01*
X189632Y289944D01*
X188833Y290275D01*
D02*
G37*
G36*
X132933Y288750D02*
X132067D01*
X131268Y288419D01*
X130656Y287807D01*
X130325Y287007D01*
Y286142D01*
X130656Y285343D01*
X131268Y284731D01*
X132067Y284400D01*
X132933D01*
X133732Y284731D01*
X134344Y285343D01*
X134675Y286142D01*
Y287007D01*
X134344Y287807D01*
X133732Y288419D01*
X132933Y288750D01*
D02*
G37*
G36*
X126933D02*
X126067D01*
X125268Y288419D01*
X124656Y287807D01*
X124325Y287007D01*
Y286142D01*
X124656Y285343D01*
X125268Y284731D01*
X126067Y284400D01*
X126933D01*
X127732Y284731D01*
X128344Y285343D01*
X128675Y286142D01*
Y287007D01*
X128344Y287807D01*
X127732Y288419D01*
X126933Y288750D01*
D02*
G37*
G36*
X120933D02*
X120067D01*
X119268Y288419D01*
X118656Y287807D01*
X118325Y287007D01*
Y286142D01*
X118656Y285343D01*
X119268Y284731D01*
X120067Y284400D01*
X120933D01*
X121732Y284731D01*
X122344Y285343D01*
X122675Y286142D01*
Y287007D01*
X122344Y287807D01*
X121732Y288419D01*
X120933Y288750D01*
D02*
G37*
G36*
X114933D02*
X114067D01*
X113268Y288419D01*
X112656Y287807D01*
X112325Y287007D01*
Y286142D01*
X112656Y285343D01*
X113268Y284731D01*
X114067Y284400D01*
X114933D01*
X115732Y284731D01*
X116344Y285343D01*
X116675Y286142D01*
Y287007D01*
X116344Y287807D01*
X115732Y288419D01*
X114933Y288750D01*
D02*
G37*
G36*
X226833Y283350D02*
X225967D01*
X225168Y283018D01*
X224735Y282586D01*
X224250Y282476D01*
X223765Y282586D01*
X223332Y283018D01*
X222533Y283350D01*
X221667D01*
X220868Y283018D01*
X220256Y282407D01*
X219925Y281607D01*
Y280742D01*
X220256Y279943D01*
X220868Y279331D01*
X221667Y279000D01*
X222533D01*
X223332Y279331D01*
X223765Y279764D01*
X224250Y279874D01*
X224735Y279764D01*
X225168Y279331D01*
X225967Y279000D01*
X226833D01*
X227632Y279331D01*
X228244Y279943D01*
X228575Y280742D01*
Y281607D01*
X228244Y282407D01*
X227632Y283018D01*
X226833Y283350D01*
D02*
G37*
G36*
X243649D02*
X242784D01*
X241984Y283018D01*
X241372Y282407D01*
X241041Y281607D01*
Y280742D01*
X241372Y279943D01*
X241984Y279331D01*
X242784Y279000D01*
X243649D01*
X244448Y279331D01*
X245060Y279943D01*
X245391Y280742D01*
Y281607D01*
X245060Y282407D01*
X244448Y283018D01*
X243649Y283350D01*
D02*
G37*
G36*
X205024Y280606D02*
X204159D01*
X203359Y280275D01*
X202748Y279663D01*
X202417Y278864D01*
Y277999D01*
X202748Y277200D01*
X203359Y276588D01*
X204159Y276257D01*
X205024D01*
X205823Y276588D01*
X206435Y277200D01*
X206766Y277999D01*
Y278864D01*
X206435Y279663D01*
X205823Y280275D01*
X205024Y280606D01*
D02*
G37*
G36*
X121433Y275275D02*
X120567D01*
X119768Y274944D01*
X119156Y274332D01*
X118825Y273533D01*
Y272667D01*
X119156Y271868D01*
X119768Y271256D01*
X120567Y270925D01*
X121433D01*
X122232Y271256D01*
X122844Y271868D01*
X123175Y272667D01*
Y273533D01*
X122844Y274332D01*
X122232Y274944D01*
X121433Y275275D01*
D02*
G37*
G36*
X190533Y267875D02*
X189667D01*
X188868Y267544D01*
X188256Y266932D01*
X187925Y266133D01*
Y265267D01*
X188256Y264468D01*
X188868Y263856D01*
X189667Y263525D01*
X190533D01*
X191332Y263856D01*
X191944Y264468D01*
X192275Y265267D01*
Y266133D01*
X191944Y266932D01*
X191332Y267544D01*
X190533Y267875D01*
D02*
G37*
G36*
X164933Y264675D02*
X164067D01*
X163268Y264344D01*
X162656Y263732D01*
X162325Y262933D01*
Y262067D01*
X162656Y261268D01*
X163268Y260656D01*
X164067Y260325D01*
X164933D01*
X165732Y260656D01*
X166344Y261268D01*
X166675Y262067D01*
Y262933D01*
X166344Y263732D01*
X165732Y264344D01*
X164933Y264675D01*
D02*
G37*
G36*
X158433D02*
X157567D01*
X156768Y264344D01*
X156156Y263732D01*
X155825Y262933D01*
Y262067D01*
X156156Y261268D01*
X156768Y260656D01*
X157567Y260325D01*
X158433D01*
X159232Y260656D01*
X159844Y261268D01*
X160175Y262067D01*
Y262933D01*
X159844Y263732D01*
X159232Y264344D01*
X158433Y264675D01*
D02*
G37*
G36*
X151933D02*
X151067D01*
X150268Y264344D01*
X149656Y263732D01*
X149325Y262933D01*
Y262067D01*
X149656Y261268D01*
X150268Y260656D01*
X151067Y260325D01*
X151933D01*
X152732Y260656D01*
X153344Y261268D01*
X153675Y262067D01*
Y262933D01*
X153344Y263732D01*
X152732Y264344D01*
X151933Y264675D01*
D02*
G37*
G36*
X230333Y263700D02*
X229467D01*
X228668Y263369D01*
X228056Y262757D01*
X227725Y261958D01*
Y261093D01*
X228056Y260293D01*
X228668Y259682D01*
X229467Y259350D01*
X230333D01*
X231132Y259682D01*
X231744Y260293D01*
X232075Y261093D01*
Y261958D01*
X231744Y262757D01*
X231132Y263369D01*
X230333Y263700D01*
D02*
G37*
G36*
X190195Y262675D02*
X189330D01*
X188530Y262344D01*
X187918Y261732D01*
X187587Y260933D01*
Y260067D01*
X187918Y259268D01*
X188530Y258656D01*
X189330Y258325D01*
X190195D01*
X190994Y258656D01*
X191606Y259268D01*
X191937Y260067D01*
Y260933D01*
X191606Y261732D01*
X190994Y262344D01*
X190195Y262675D01*
D02*
G37*
G36*
X235116Y261075D02*
X234251D01*
X233452Y260744D01*
X232840Y260132D01*
X232509Y259333D01*
Y258467D01*
X232840Y257668D01*
X233452Y257056D01*
X234251Y256725D01*
X235116D01*
X235915Y257056D01*
X236527Y257668D01*
X236858Y258467D01*
Y259333D01*
X236527Y260132D01*
X235915Y260744D01*
X235116Y261075D01*
D02*
G37*
G36*
X158433Y258175D02*
X157567D01*
X156768Y257844D01*
X156156Y257232D01*
X155825Y256433D01*
Y255567D01*
X156156Y254768D01*
X156768Y254156D01*
X157567Y253825D01*
X158433D01*
X159232Y254156D01*
X159844Y254768D01*
X160175Y255567D01*
Y256433D01*
X159844Y257232D01*
X159232Y257844D01*
X158433Y258175D01*
D02*
G37*
G36*
X151933D02*
X151067D01*
X150268Y257844D01*
X149656Y257232D01*
X149325Y256433D01*
Y255567D01*
X149656Y254768D01*
X150268Y254156D01*
X151067Y253825D01*
X151933D01*
X152732Y254156D01*
X153344Y254768D01*
X153675Y255567D01*
Y256433D01*
X153344Y257232D01*
X152732Y257844D01*
X151933Y258175D01*
D02*
G37*
G36*
X144433Y257975D02*
X143567D01*
X142768Y257644D01*
X142156Y257032D01*
X141825Y256233D01*
Y255367D01*
X142156Y254568D01*
X142768Y253956D01*
X143567Y253625D01*
X144433D01*
X145232Y253956D01*
X145844Y254568D01*
X146175Y255367D01*
Y256233D01*
X145844Y257032D01*
X145232Y257644D01*
X144433Y257975D01*
D02*
G37*
G36*
X117233Y256075D02*
X116367D01*
X115568Y255744D01*
X114956Y255132D01*
X114625Y254333D01*
Y253467D01*
X114956Y252668D01*
X115568Y252056D01*
X116367Y251725D01*
X117233D01*
X118032Y252056D01*
X118644Y252668D01*
X118975Y253467D01*
Y254333D01*
X118644Y255132D01*
X118032Y255744D01*
X117233Y256075D01*
D02*
G37*
G36*
X260433Y252675D02*
X259567D01*
X258768Y252344D01*
X258156Y251732D01*
X257825Y250933D01*
Y250067D01*
X258156Y249268D01*
X258768Y248656D01*
X259567Y248325D01*
X260433D01*
X261232Y248656D01*
X261844Y249268D01*
X262175Y250067D01*
Y250933D01*
X261844Y251732D01*
X261232Y252344D01*
X260433Y252675D01*
D02*
G37*
G36*
X151933Y251175D02*
X151067D01*
X150268Y250844D01*
X149656Y250232D01*
X149325Y249433D01*
Y248567D01*
X149656Y247768D01*
X150268Y247156D01*
X151067Y246825D01*
X151933D01*
X152732Y247156D01*
X153344Y247768D01*
X153675Y248567D01*
Y249433D01*
X153344Y250232D01*
X152732Y250844D01*
X151933Y251175D01*
D02*
G37*
G36*
X144433D02*
X143567D01*
X142768Y250844D01*
X142156Y250232D01*
X141825Y249433D01*
Y248567D01*
X142156Y247768D01*
X142768Y247156D01*
X143567Y246825D01*
X144433D01*
X145232Y247156D01*
X145844Y247768D01*
X146175Y248567D01*
Y249433D01*
X145844Y250232D01*
X145232Y250844D01*
X144433Y251175D01*
D02*
G37*
G36*
X119333Y250875D02*
X118467D01*
X117668Y250544D01*
X117056Y249932D01*
X116725Y249133D01*
Y248267D01*
X117056Y247468D01*
X117668Y246856D01*
X118467Y246525D01*
X119333D01*
X120132Y246856D01*
X120744Y247468D01*
X121075Y248267D01*
Y249133D01*
X120744Y249932D01*
X120132Y250544D01*
X119333Y250875D01*
D02*
G37*
G36*
X112233D02*
X111367D01*
X110568Y250544D01*
X109956Y249932D01*
X109625Y249133D01*
Y248267D01*
X109956Y247468D01*
X110568Y246856D01*
X111367Y246525D01*
X112233D01*
X113032Y246856D01*
X113644Y247468D01*
X113975Y248267D01*
Y249133D01*
X113644Y249932D01*
X113032Y250544D01*
X112233Y250875D01*
D02*
G37*
G36*
X271785Y249267D02*
X270920D01*
X270121Y248936D01*
X269509Y248324D01*
X269178Y247525D01*
Y246660D01*
X269509Y245861D01*
X270121Y245249D01*
X270920Y244918D01*
X271785D01*
X272585Y245249D01*
X273196Y245861D01*
X273528Y246660D01*
Y247525D01*
X273196Y248324D01*
X272585Y248936D01*
X271785Y249267D01*
D02*
G37*
G36*
X265933Y249175D02*
X265067D01*
X264268Y248844D01*
X263656Y248232D01*
X263325Y247433D01*
Y246567D01*
X263656Y245768D01*
X264268Y245156D01*
X265067Y244825D01*
X265933D01*
X266732Y245156D01*
X267344Y245768D01*
X267675Y246567D01*
Y247433D01*
X267344Y248232D01*
X266732Y248844D01*
X265933Y249175D01*
D02*
G37*
G36*
X245033Y244769D02*
X244167D01*
X243368Y244437D01*
X243173Y244242D01*
X242650Y243896D01*
X242127Y244242D01*
X241932Y244437D01*
X241133Y244769D01*
X240267D01*
X239468Y244437D01*
X238856Y243826D01*
X238525Y243026D01*
Y242161D01*
X238856Y241362D01*
X239468Y240750D01*
X240267Y240419D01*
X241133D01*
X241932Y240750D01*
X242127Y240945D01*
X242650Y241291D01*
X243173Y240945D01*
X243368Y240750D01*
X244167Y240419D01*
X245033D01*
X245832Y240750D01*
X246444Y241362D01*
X246775Y242161D01*
Y243026D01*
X246444Y243826D01*
X245832Y244437D01*
X245033Y244769D01*
D02*
G37*
G36*
X148133Y240913D02*
X147267D01*
X146468Y240581D01*
X145856Y239970D01*
X145525Y239170D01*
Y238305D01*
X145856Y237506D01*
X146468Y236894D01*
X147267Y236563D01*
X148133D01*
X148932Y236894D01*
X149544Y237506D01*
X149875Y238305D01*
Y239170D01*
X149544Y239970D01*
X148932Y240581D01*
X148133Y240913D01*
D02*
G37*
G36*
X155233Y237275D02*
X154367D01*
X153568Y236944D01*
X152956Y236332D01*
X152625Y235533D01*
Y234667D01*
X152956Y233868D01*
X153568Y233256D01*
X154367Y232925D01*
X155233D01*
X156032Y233256D01*
X156644Y233868D01*
X156975Y234667D01*
Y235533D01*
X156644Y236332D01*
X156032Y236944D01*
X155233Y237275D01*
D02*
G37*
G36*
X148033Y235575D02*
X147167D01*
X146368Y235244D01*
X145756Y234632D01*
X145425Y233833D01*
Y232967D01*
X145756Y232168D01*
X146368Y231556D01*
X147167Y231225D01*
X148033D01*
X148832Y231556D01*
X149444Y232168D01*
X149775Y232967D01*
Y233833D01*
X149444Y234632D01*
X148832Y235244D01*
X148033Y235575D01*
D02*
G37*
G36*
X251233Y239775D02*
X250367D01*
X249568Y239444D01*
X248956Y238832D01*
X248625Y238033D01*
Y237167D01*
X248956Y236368D01*
X249568Y235756D01*
X250153Y235514D01*
Y234686D01*
X249568Y234444D01*
X248956Y233832D01*
X248625Y233033D01*
Y232167D01*
X248956Y231368D01*
X249568Y230756D01*
X250367Y230425D01*
X251233D01*
X252032Y230756D01*
X252644Y231368D01*
X252975Y232167D01*
Y233033D01*
X252644Y233832D01*
X252032Y234444D01*
X251447Y234686D01*
Y235514D01*
X252032Y235756D01*
X252644Y236368D01*
X252975Y237167D01*
Y238033D01*
X252644Y238832D01*
X252032Y239444D01*
X251233Y239775D01*
D02*
G37*
G36*
X152701Y230475D02*
X151836D01*
X151036Y230144D01*
X150424Y229532D01*
X150093Y228733D01*
Y227867D01*
X150424Y227068D01*
X151036Y226456D01*
X151836Y226125D01*
X152701D01*
X153500Y226456D01*
X154112Y227068D01*
X154443Y227867D01*
Y228733D01*
X154112Y229532D01*
X153500Y230144D01*
X152701Y230475D01*
D02*
G37*
G36*
X328433Y229675D02*
X327567D01*
X326768Y229344D01*
X326156Y228732D01*
X325825Y227933D01*
Y227067D01*
X326156Y226268D01*
X326768Y225656D01*
X327567Y225325D01*
X328433D01*
X329232Y225656D01*
X329844Y226268D01*
X330175Y227067D01*
Y227933D01*
X329844Y228732D01*
X329232Y229344D01*
X328433Y229675D01*
D02*
G37*
G36*
X223633D02*
X222767D01*
X221968Y229344D01*
X221356Y228732D01*
X221025Y227933D01*
Y227067D01*
X221356Y226268D01*
X221968Y225656D01*
X222767Y225325D01*
X223633D01*
X224432Y225656D01*
X225044Y226268D01*
X225375Y227067D01*
Y227933D01*
X225044Y228732D01*
X224432Y229344D01*
X223633Y229675D01*
D02*
G37*
G36*
X319433Y225175D02*
X318567D01*
X317768Y224844D01*
X317156Y224232D01*
X316825Y223433D01*
Y222567D01*
X317156Y221768D01*
X317768Y221156D01*
X318567Y220825D01*
X319433D01*
X320232Y221156D01*
X320844Y221768D01*
X321175Y222567D01*
Y223433D01*
X320844Y224232D01*
X320232Y224844D01*
X319433Y225175D01*
D02*
G37*
G36*
X311433D02*
X310567D01*
X309768Y224844D01*
X309156Y224232D01*
X308825Y223433D01*
Y222567D01*
X309156Y221768D01*
X309768Y221156D01*
X310567Y220825D01*
X311433D01*
X312232Y221156D01*
X312844Y221768D01*
X313175Y222567D01*
Y223433D01*
X312844Y224232D01*
X312232Y224844D01*
X311433Y225175D01*
D02*
G37*
G36*
X374433Y224875D02*
X373567D01*
X372768Y224544D01*
X372156Y223932D01*
X371825Y223133D01*
Y222267D01*
X372156Y221468D01*
X372768Y220856D01*
X373567Y220525D01*
X374433D01*
X375232Y220856D01*
X375844Y221468D01*
X376175Y222267D01*
Y223133D01*
X375844Y223932D01*
X375232Y224544D01*
X374433Y224875D01*
D02*
G37*
G36*
X226533Y224775D02*
X225667D01*
X224868Y224444D01*
X224256Y223832D01*
X223925Y223033D01*
Y222167D01*
X224256Y221368D01*
X224868Y220756D01*
X225667Y220425D01*
X226533D01*
X227332Y220756D01*
X227944Y221368D01*
X228275Y222167D01*
Y223033D01*
X227944Y223832D01*
X227332Y224444D01*
X226533Y224775D01*
D02*
G37*
G36*
X244233Y224675D02*
X243367D01*
X242568Y224344D01*
X241956Y223732D01*
X241625Y222933D01*
Y222067D01*
X241956Y221268D01*
X242568Y220656D01*
X243367Y220325D01*
X244233D01*
X245032Y220656D01*
X245644Y221268D01*
X245975Y222067D01*
Y222933D01*
X245644Y223732D01*
X245032Y224344D01*
X244233Y224675D01*
D02*
G37*
G36*
X198344Y221875D02*
X197479D01*
X196680Y221544D01*
X196068Y220932D01*
X195737Y220133D01*
Y219962D01*
X195562Y219795D01*
X194857Y219538D01*
X194611Y219675D01*
X194575Y219858D01*
Y220133D01*
X194244Y220932D01*
X193632Y221544D01*
X192833Y221875D01*
X191967D01*
X191168Y221544D01*
X190556Y220932D01*
X190225Y220133D01*
Y219858D01*
X190102Y219243D01*
X189486Y219119D01*
X189211D01*
X188412Y218788D01*
X187800Y218176D01*
X187469Y217377D01*
Y216512D01*
X187800Y215712D01*
X188412Y215100D01*
X189211Y214769D01*
X189486D01*
X189669Y214733D01*
X189806Y214487D01*
X189550Y213782D01*
X189382Y213607D01*
X189211D01*
X188412Y213276D01*
X187800Y212664D01*
X187469Y211865D01*
Y211000D01*
X187800Y210200D01*
X188412Y209589D01*
X189211Y209258D01*
X189486D01*
X190102Y209134D01*
X190225Y208518D01*
Y208244D01*
X190556Y207445D01*
X191168Y206833D01*
X191967Y206502D01*
X192833D01*
X193632Y206833D01*
X194244Y207445D01*
X194575Y208244D01*
Y208518D01*
X194698Y209134D01*
X195156Y209226D01*
X195613Y209134D01*
X195737Y208518D01*
Y208244D01*
X196068Y207445D01*
X196680Y206833D01*
X197479Y206502D01*
X198344D01*
X199144Y206833D01*
X199756Y207445D01*
X200087Y208244D01*
Y208518D01*
X200210Y209134D01*
X200826Y209258D01*
X201100D01*
X201900Y209589D01*
X202511Y210200D01*
X202842Y211000D01*
Y211865D01*
X202511Y212664D01*
X201900Y213276D01*
X201100Y213607D01*
X200930D01*
X200762Y213782D01*
X200506Y214487D01*
X200643Y214733D01*
X200826Y214769D01*
X201100D01*
X201900Y215100D01*
X202511Y215712D01*
X202842Y216512D01*
Y217377D01*
X202511Y218176D01*
X201900Y218788D01*
X201100Y219119D01*
X200826D01*
X200210Y219243D01*
X200087Y219858D01*
Y220133D01*
X199756Y220932D01*
X199144Y221544D01*
X198344Y221875D01*
D02*
G37*
G36*
X305433Y221675D02*
X304567D01*
X303768Y221344D01*
X303156Y220732D01*
X302825Y219933D01*
Y219067D01*
X303156Y218268D01*
X303768Y217656D01*
X304567Y217325D01*
X305433D01*
X306232Y217656D01*
X306844Y218268D01*
X307175Y219067D01*
Y219933D01*
X306844Y220732D01*
X306232Y221344D01*
X305433Y221675D01*
D02*
G37*
G36*
X240839Y219769D02*
X239974D01*
X239174Y219437D01*
X238563Y218826D01*
X238231Y218026D01*
Y217161D01*
X238563Y216362D01*
X239174Y215750D01*
X239974Y215419D01*
X240839D01*
X241638Y215750D01*
X242250Y216362D01*
X242581Y217161D01*
Y218026D01*
X242250Y218826D01*
X241638Y219437D01*
X240839Y219769D01*
D02*
G37*
G36*
X229733D02*
X228867D01*
X228068Y219437D01*
X227456Y218826D01*
X227125Y218026D01*
Y217161D01*
X227456Y216362D01*
X228068Y215750D01*
X228867Y215419D01*
X229733D01*
X230532Y215750D01*
X231144Y216362D01*
X231475Y217161D01*
Y218026D01*
X231144Y218826D01*
X230532Y219437D01*
X229733Y219769D01*
D02*
G37*
G36*
X129933Y219175D02*
X129067D01*
X128268Y218844D01*
X127656Y218232D01*
X127325Y217433D01*
Y216567D01*
X127656Y215768D01*
X128268Y215156D01*
X129067Y214825D01*
X129933D01*
X130732Y215156D01*
X131344Y215768D01*
X131675Y216567D01*
Y217433D01*
X131344Y218232D01*
X130732Y218844D01*
X129933Y219175D01*
D02*
G37*
G36*
X123433D02*
X122567D01*
X121768Y218844D01*
X121156Y218232D01*
X120825Y217433D01*
Y216567D01*
X121156Y215768D01*
X121768Y215156D01*
X122567Y214825D01*
X123433D01*
X124232Y215156D01*
X124844Y215768D01*
X125175Y216567D01*
Y217433D01*
X124844Y218232D01*
X124232Y218844D01*
X123433Y219175D01*
D02*
G37*
G36*
X268433Y226675D02*
X267567D01*
X266768Y226344D01*
X266156Y225732D01*
X265825Y224933D01*
Y224067D01*
X266156Y223268D01*
X266768Y222656D01*
X267567Y222325D01*
X268433D01*
X268520Y222361D01*
X269132Y221749D01*
X269125Y221733D01*
Y220867D01*
X269456Y220068D01*
X270068Y219456D01*
X270867Y219125D01*
X271405D01*
X271932Y218622D01*
X272025Y218386D01*
Y217667D01*
X272356Y216868D01*
X272968Y216256D01*
X273767Y215925D01*
X274146D01*
X274721Y215645D01*
X274867Y215186D01*
Y214709D01*
X275198Y213909D01*
X275809Y213298D01*
X276609Y212967D01*
X277474D01*
X278273Y213298D01*
X278885Y213909D01*
X279216Y214709D01*
Y215574D01*
X278885Y216373D01*
X278273Y216985D01*
X277474Y217316D01*
X277095D01*
X276520Y217597D01*
X276375Y218055D01*
Y218533D01*
X276044Y219332D01*
X275432Y219944D01*
X274633Y220275D01*
X274095D01*
X273568Y220778D01*
X273475Y221014D01*
Y221733D01*
X273144Y222532D01*
X272532Y223144D01*
X271733Y223475D01*
X270867D01*
X270780Y223439D01*
X270168Y224051D01*
X270175Y224067D01*
Y224933D01*
X269844Y225732D01*
X269232Y226344D01*
X268433Y226675D01*
D02*
G37*
G36*
X363033Y215475D02*
X362167D01*
X361368Y215144D01*
X360756Y214532D01*
X360425Y213733D01*
Y212867D01*
X360756Y212068D01*
X361368Y211456D01*
X362167Y211125D01*
X363033D01*
X363832Y211456D01*
X364444Y212068D01*
X364775Y212867D01*
Y213733D01*
X364444Y214532D01*
X363832Y215144D01*
X363033Y215475D01*
D02*
G37*
G36*
X244433Y214575D02*
X243567D01*
X242768Y214244D01*
X242156Y213632D01*
X241825Y212833D01*
Y211967D01*
X242156Y211168D01*
X242768Y210556D01*
X243567Y210225D01*
X244433D01*
X245232Y210556D01*
X245844Y211168D01*
X246175Y211967D01*
Y212833D01*
X245844Y213632D01*
X245232Y214244D01*
X244433Y214575D01*
D02*
G37*
G36*
X283887Y214140D02*
X283022D01*
X282223Y213809D01*
X281611Y213197D01*
X281280Y212398D01*
Y211533D01*
X281611Y210734D01*
X282223Y210122D01*
X283022Y209791D01*
X283887D01*
X284686Y210122D01*
X285298Y210734D01*
X285629Y211533D01*
Y212398D01*
X285298Y213197D01*
X284686Y213809D01*
X283887Y214140D01*
D02*
G37*
G36*
X294933Y214075D02*
X294067D01*
X293268Y213744D01*
X292656Y213132D01*
X292325Y212333D01*
Y211467D01*
X292656Y210668D01*
X293268Y210056D01*
X294067Y209725D01*
X294933D01*
X295732Y210056D01*
X296344Y210668D01*
X296675Y211467D01*
Y212333D01*
X296344Y213132D01*
X295732Y213744D01*
X294933Y214075D01*
D02*
G37*
G36*
X131433Y212675D02*
X130567D01*
X129768Y212344D01*
X129156Y211732D01*
X128825Y210933D01*
Y210067D01*
X129156Y209268D01*
X129768Y208656D01*
X130567Y208325D01*
X131433D01*
X132232Y208656D01*
X132844Y209268D01*
X133175Y210067D01*
Y210933D01*
X132844Y211732D01*
X132232Y212344D01*
X131433Y212675D01*
D02*
G37*
G36*
X125433D02*
X124567D01*
X123768Y212344D01*
X123156Y211732D01*
X122825Y210933D01*
Y210067D01*
X123156Y209268D01*
X123768Y208656D01*
X124567Y208325D01*
X125433D01*
X126232Y208656D01*
X126844Y209268D01*
X127175Y210067D01*
Y210933D01*
X126844Y211732D01*
X126232Y212344D01*
X125433Y212675D01*
D02*
G37*
G36*
X255333Y211375D02*
X254467D01*
X253668Y211044D01*
X253056Y210432D01*
X252725Y209633D01*
Y208767D01*
X253056Y207968D01*
X253668Y207356D01*
X254467Y207025D01*
X255333D01*
X256132Y207356D01*
X256744Y207968D01*
X257075Y208767D01*
Y209633D01*
X256744Y210432D01*
X256132Y211044D01*
X255333Y211375D01*
D02*
G37*
G36*
X220833Y209769D02*
X219967D01*
X219168Y209437D01*
X218556Y208826D01*
X218225Y208026D01*
Y207161D01*
X218556Y206362D01*
X219168Y205750D01*
X219967Y205419D01*
X220833D01*
X221632Y205750D01*
X222244Y206362D01*
X222575Y207161D01*
Y208026D01*
X222244Y208826D01*
X221632Y209437D01*
X220833Y209769D01*
D02*
G37*
G36*
X128304Y207549D02*
X127439D01*
X126640Y207218D01*
X126028Y206606D01*
X125697Y205807D01*
Y204941D01*
X126028Y204142D01*
X126640Y203530D01*
X127439Y203199D01*
X128304D01*
X129104Y203530D01*
X129715Y204142D01*
X130046Y204941D01*
Y205807D01*
X129715Y206606D01*
X129104Y207218D01*
X128304Y207549D01*
D02*
G37*
G36*
X252244Y204480D02*
X251379D01*
X250580Y204149D01*
X249968Y203537D01*
X249637Y202738D01*
Y201873D01*
X249968Y201074D01*
X250580Y200462D01*
X251379Y200131D01*
X252244D01*
X253044Y200462D01*
X253656Y201074D01*
X253987Y201873D01*
Y202738D01*
X253656Y203537D01*
X253044Y204149D01*
X252244Y204480D01*
D02*
G37*
G36*
X306525Y209175D02*
X305660D01*
X304861Y208844D01*
X304249Y208232D01*
X303918Y207433D01*
Y206567D01*
X304249Y205768D01*
X304861Y205156D01*
X305446Y204914D01*
Y204086D01*
X304861Y203844D01*
X304249Y203232D01*
X303918Y202433D01*
Y201567D01*
X304249Y200768D01*
X304861Y200156D01*
X305660Y199825D01*
X306525D01*
X307325Y200156D01*
X307937Y200768D01*
X308268Y201567D01*
Y202433D01*
X307937Y203232D01*
X307325Y203844D01*
X306740Y204086D01*
Y204914D01*
X307325Y205156D01*
X307937Y205768D01*
X308268Y206567D01*
Y207433D01*
X307937Y208232D01*
X307325Y208844D01*
X306525Y209175D01*
D02*
G37*
G36*
X131433Y202675D02*
X130567D01*
X129768Y202344D01*
X129156Y201732D01*
X128825Y200933D01*
Y200067D01*
X129156Y199268D01*
X129768Y198656D01*
X130567Y198325D01*
X131433D01*
X132232Y198656D01*
X132844Y199268D01*
X133175Y200067D01*
Y200933D01*
X132844Y201732D01*
X132232Y202344D01*
X131433Y202675D01*
D02*
G37*
G36*
X125433D02*
X124567D01*
X123768Y202344D01*
X123156Y201732D01*
X122825Y200933D01*
Y200067D01*
X123156Y199268D01*
X123768Y198656D01*
X124567Y198325D01*
X125433D01*
X126232Y198656D01*
X126844Y199268D01*
X127175Y200067D01*
Y200933D01*
X126844Y201732D01*
X126232Y202344D01*
X125433Y202675D01*
D02*
G37*
G36*
X273133Y201675D02*
X272267D01*
X271468Y201344D01*
X270856Y200732D01*
X270525Y199933D01*
Y199067D01*
X270856Y198268D01*
X271468Y197656D01*
X272267Y197325D01*
X273133D01*
X273932Y197656D01*
X274544Y198268D01*
X274875Y199067D01*
Y199933D01*
X274544Y200732D01*
X273932Y201344D01*
X273133Y201675D01*
D02*
G37*
G36*
X276333Y196775D02*
X275467D01*
X274668Y196444D01*
X274056Y195832D01*
X273725Y195033D01*
Y194167D01*
X274056Y193368D01*
X274668Y192756D01*
X275467Y192425D01*
X276333D01*
X277132Y192756D01*
X277744Y193368D01*
X278075Y194167D01*
Y195033D01*
X277744Y195832D01*
X277132Y196444D01*
X276333Y196775D01*
D02*
G37*
G36*
X185195Y193875D02*
X184330D01*
X183530Y193544D01*
X182919Y192932D01*
X182676Y192347D01*
X181848D01*
X181606Y192932D01*
X180994Y193544D01*
X180195Y193875D01*
X179330D01*
X178530Y193544D01*
X177919Y192932D01*
X177587Y192133D01*
Y191267D01*
X177919Y190468D01*
X178530Y189856D01*
X179330Y189525D01*
X180195D01*
X180994Y189856D01*
X181606Y190468D01*
X181848Y191053D01*
X182676D01*
X182919Y190468D01*
X183530Y189856D01*
X184330Y189525D01*
X185195D01*
X185994Y189856D01*
X186606Y190468D01*
X186937Y191267D01*
Y192133D01*
X186606Y192932D01*
X185994Y193544D01*
X185195Y193875D01*
D02*
G37*
G36*
X171533Y199375D02*
X170667D01*
X169868Y199044D01*
X169256Y198432D01*
X168925Y197633D01*
Y196767D01*
X169256Y195968D01*
X169868Y195356D01*
X170045Y195283D01*
Y194417D01*
X169868Y194344D01*
X169256Y193732D01*
X168925Y192933D01*
Y192067D01*
X169256Y191268D01*
X169868Y190656D01*
X170667Y190325D01*
X171533D01*
X172332Y190656D01*
X172944Y191268D01*
X173275Y192067D01*
Y192933D01*
X172944Y193732D01*
X172332Y194344D01*
X172155Y194417D01*
Y195283D01*
X172332Y195356D01*
X172944Y195968D01*
X173275Y196767D01*
Y197633D01*
X172944Y198432D01*
X172332Y199044D01*
X171533Y199375D01*
D02*
G37*
G36*
X165433Y194675D02*
X164567D01*
X163768Y194344D01*
X163156Y193732D01*
X162825Y192933D01*
Y192067D01*
X163156Y191268D01*
X163768Y190656D01*
X164567Y190325D01*
X165433D01*
X166232Y190656D01*
X166844Y191268D01*
X167175Y192067D01*
Y192933D01*
X166844Y193732D01*
X166232Y194344D01*
X165433Y194675D01*
D02*
G37*
G36*
X342411Y192041D02*
X340442D01*
X339412Y191905D01*
X338452Y191508D01*
X337628Y190875D01*
X336995Y190051D01*
X336598Y189091D01*
X336462Y188061D01*
X336598Y187030D01*
X336995Y186070D01*
X337628Y185246D01*
X338452Y184613D01*
X339412Y184216D01*
X340442Y184080D01*
X342411D01*
X343441Y184216D01*
X344401Y184613D01*
X345226Y185246D01*
X345858Y186070D01*
X346256Y187030D01*
X346392Y188061D01*
X346256Y189091D01*
X345858Y190051D01*
X345226Y190875D01*
X344401Y191508D01*
X343441Y191905D01*
X342411Y192041D01*
D02*
G37*
G36*
X362154Y196802D02*
X360874D01*
X359619Y196552D01*
X358437Y196063D01*
X357373Y195352D01*
X356468Y194447D01*
X355757Y193383D01*
X355268Y192201D01*
X355018Y190946D01*
Y189666D01*
X355268Y188411D01*
X355757Y187229D01*
X356468Y186165D01*
X357373Y185260D01*
X358437Y184549D01*
X359619Y184059D01*
X360874Y183810D01*
X362154D01*
X363409Y184059D01*
X364591Y184549D01*
X365655Y185260D01*
X366560Y186165D01*
X367271Y187229D01*
X367761Y188411D01*
X368010Y189666D01*
Y190946D01*
X367761Y192201D01*
X367271Y193383D01*
X366560Y194447D01*
X365655Y195352D01*
X364591Y196063D01*
X363409Y196552D01*
X362154Y196802D01*
D02*
G37*
G36*
X175221Y180291D02*
X174356D01*
X173556Y179960D01*
X172944Y179348D01*
X172613Y178549D01*
Y177684D01*
X172944Y176884D01*
X173556Y176273D01*
X174356Y175942D01*
X175221D01*
X176020Y176273D01*
X176632Y176884D01*
X176963Y177684D01*
Y178549D01*
X176632Y179348D01*
X176020Y179960D01*
X175221Y180291D01*
D02*
G37*
G36*
X342411Y182041D02*
X340442D01*
X339412Y181905D01*
X338452Y181508D01*
X337628Y180875D01*
X336995Y180051D01*
X336598Y179091D01*
X336462Y178061D01*
X336598Y177030D01*
X336995Y176070D01*
X337628Y175246D01*
X338452Y174613D01*
X339412Y174216D01*
X340442Y174080D01*
X342411D01*
X343441Y174216D01*
X344401Y174613D01*
X345226Y175246D01*
X345858Y176070D01*
X346256Y177030D01*
X346392Y178061D01*
X346256Y179091D01*
X345858Y180051D01*
X345226Y180875D01*
X344401Y181508D01*
X343441Y181905D01*
X342411Y182041D01*
D02*
G37*
G36*
X274433Y176175D02*
X273567D01*
X272768Y175844D01*
X272156Y175232D01*
X271825Y174433D01*
Y173567D01*
X272156Y172768D01*
X272768Y172156D01*
X273567Y171825D01*
X274433D01*
X275232Y172156D01*
X275844Y172768D01*
X276175Y173567D01*
Y174433D01*
X275844Y175232D01*
X275232Y175844D01*
X274433Y176175D01*
D02*
G37*
G36*
X297633Y175775D02*
X296767D01*
X295968Y175444D01*
X295356Y174832D01*
X295025Y174033D01*
Y173167D01*
X295356Y172368D01*
X295968Y171756D01*
X296767Y171425D01*
X297633D01*
X298432Y171756D01*
X299044Y172368D01*
X299375Y173167D01*
Y174033D01*
X299044Y174832D01*
X298432Y175444D01*
X297633Y175775D01*
D02*
G37*
G36*
X215195Y172810D02*
X214330D01*
X213530Y172478D01*
X212918Y171867D01*
X212676Y171282D01*
X211848D01*
X211606Y171867D01*
X210994Y172478D01*
X210195Y172810D01*
X209330D01*
X208530Y172478D01*
X207918Y171867D01*
X207676Y171282D01*
X206848D01*
X206606Y171867D01*
X205994Y172478D01*
X205195Y172810D01*
X204330D01*
X203530Y172478D01*
X202919Y171867D01*
X202676Y171282D01*
X201848D01*
X201606Y171867D01*
X200994Y172478D01*
X200195Y172810D01*
X199330D01*
X198530Y172478D01*
X197918Y171867D01*
X197676Y171282D01*
X196848D01*
X196606Y171867D01*
X195994Y172478D01*
X195195Y172810D01*
X194330D01*
X193530Y172478D01*
X192919Y171867D01*
X192676Y171282D01*
X191848D01*
X191606Y171867D01*
X190994Y172478D01*
X190195Y172810D01*
X189330D01*
X188530Y172478D01*
X187918Y171867D01*
X187587Y171067D01*
Y170202D01*
X187918Y169403D01*
X188530Y168791D01*
X189330Y168460D01*
X190195D01*
X190994Y168791D01*
X191606Y169403D01*
X191848Y169988D01*
X192676D01*
X192919Y169403D01*
X193530Y168791D01*
X194330Y168460D01*
X195195D01*
X195994Y168791D01*
X196606Y169403D01*
X196848Y169988D01*
X197676D01*
X197918Y169403D01*
X198530Y168791D01*
X199330Y168460D01*
X200195D01*
X200994Y168791D01*
X201606Y169403D01*
X201848Y169988D01*
X202676D01*
X202919Y169403D01*
X203530Y168791D01*
X204330Y168460D01*
X205195D01*
X205994Y168791D01*
X206606Y169403D01*
X206848Y169988D01*
X207676D01*
X207918Y169403D01*
X208530Y168791D01*
X209330Y168460D01*
X210195D01*
X210994Y168791D01*
X211606Y169403D01*
X211848Y169988D01*
X212676D01*
X212918Y169403D01*
X213530Y168791D01*
X214330Y168460D01*
X215195D01*
X215994Y168791D01*
X216606Y169403D01*
X216937Y170202D01*
Y171067D01*
X216606Y171867D01*
X215994Y172478D01*
X215195Y172810D01*
D02*
G37*
G36*
X312433Y174175D02*
X311567D01*
X310768Y173844D01*
X310156Y173232D01*
X309825Y172433D01*
Y171567D01*
X310156Y170768D01*
X310768Y170156D01*
X311567Y169825D01*
X312433D01*
X313232Y170156D01*
X313844Y170768D01*
X314175Y171567D01*
Y172433D01*
X313844Y173232D01*
X313232Y173844D01*
X312433Y174175D01*
D02*
G37*
G36*
X363581Y181840D02*
X359447D01*
X358291Y181688D01*
X357214Y181242D01*
X356288Y180532D01*
X355578Y179606D01*
X355132Y178529D01*
X354980Y177373D01*
Y173239D01*
X355132Y172083D01*
X355578Y171005D01*
X356288Y170080D01*
X357214Y169370D01*
X358291Y168924D01*
X359447Y168772D01*
X363581D01*
X364737Y168924D01*
X365815Y169370D01*
X366740Y170080D01*
X367450Y171005D01*
X367896Y172083D01*
X368049Y173239D01*
Y177373D01*
X367896Y178529D01*
X367450Y179606D01*
X366740Y180532D01*
X365815Y181242D01*
X364737Y181688D01*
X363581Y181840D01*
D02*
G37*
G36*
X250933Y171675D02*
X250067D01*
X249268Y171344D01*
X248656Y170732D01*
X248325Y169933D01*
Y169067D01*
X248656Y168268D01*
X249268Y167656D01*
X250067Y167325D01*
X250933D01*
X251732Y167656D01*
X252344Y168268D01*
X252675Y169067D01*
Y169933D01*
X252344Y170732D01*
X251732Y171344D01*
X250933Y171675D01*
D02*
G37*
G36*
X225233Y167575D02*
X224367D01*
X223568Y167244D01*
X222956Y166632D01*
X222625Y165833D01*
Y164967D01*
X222956Y164168D01*
X223568Y163556D01*
X224367Y163225D01*
X225233D01*
X226032Y163556D01*
X226644Y164168D01*
X226975Y164967D01*
Y165833D01*
X226644Y166632D01*
X226032Y167244D01*
X225233Y167575D01*
D02*
G37*
G36*
X297741Y164799D02*
X296876D01*
X296077Y164468D01*
X295465Y163856D01*
X295134Y163057D01*
Y162192D01*
X295465Y161392D01*
X296077Y160781D01*
X296876Y160449D01*
X297741D01*
X298541Y160781D01*
X299152Y161392D01*
X299483Y162192D01*
Y163057D01*
X299152Y163856D01*
X298541Y164468D01*
X297741Y164799D01*
D02*
G37*
G36*
X265933Y161175D02*
X265067D01*
X264268Y160844D01*
X263656Y160232D01*
X263325Y159433D01*
Y158567D01*
X263656Y157768D01*
X264268Y157156D01*
X265067Y156825D01*
X265933D01*
X266732Y157156D01*
X267344Y157768D01*
X267675Y158567D01*
Y159433D01*
X267344Y160232D01*
X266732Y160844D01*
X265933Y161175D01*
D02*
G37*
G36*
X226433Y159375D02*
X225567D01*
X224768Y159044D01*
X224156Y158432D01*
X223825Y157633D01*
Y156767D01*
X224156Y155968D01*
X224768Y155356D01*
X225567Y155025D01*
X226433D01*
X227232Y155356D01*
X227844Y155968D01*
X228175Y156767D01*
Y157633D01*
X227844Y158432D01*
X227232Y159044D01*
X226433Y159375D01*
D02*
G37*
G36*
X175033Y157175D02*
X174167D01*
X173368Y156844D01*
X172756Y156232D01*
X172425Y155433D01*
Y154567D01*
X172756Y153768D01*
X173368Y153156D01*
X174167Y152825D01*
X175033D01*
X175832Y153156D01*
X176444Y153768D01*
X176775Y154567D01*
Y155433D01*
X176444Y156232D01*
X175832Y156844D01*
X175033Y157175D01*
D02*
G37*
G36*
X297933Y156675D02*
X297067D01*
X296268Y156344D01*
X295656Y155732D01*
X295325Y154933D01*
Y154067D01*
X295656Y153268D01*
X296268Y152656D01*
X297067Y152325D01*
X297933D01*
X298732Y152656D01*
X299344Y153268D01*
X299675Y154067D01*
Y154933D01*
X299344Y155732D01*
X298732Y156344D01*
X297933Y156675D01*
D02*
G37*
G36*
X259433Y156175D02*
X258567D01*
X257768Y155844D01*
X257156Y155232D01*
X256825Y154433D01*
Y153567D01*
X257156Y152768D01*
X257768Y152156D01*
X258567Y151825D01*
X259433D01*
X260232Y152156D01*
X260844Y152768D01*
X261175Y153567D01*
Y154433D01*
X260844Y155232D01*
X260232Y155844D01*
X259433Y156175D01*
D02*
G37*
G36*
X253933D02*
X253067D01*
X252268Y155844D01*
X251656Y155232D01*
X251325Y154433D01*
Y153567D01*
X251656Y152768D01*
X252268Y152156D01*
X253067Y151825D01*
X253933D01*
X254732Y152156D01*
X255344Y152768D01*
X255675Y153567D01*
Y154433D01*
X255344Y155232D01*
X254732Y155844D01*
X253933Y156175D01*
D02*
G37*
G36*
X248433D02*
X247567D01*
X246768Y155844D01*
X246156Y155232D01*
X245825Y154433D01*
Y153567D01*
X246156Y152768D01*
X246768Y152156D01*
X247567Y151825D01*
X248433D01*
X249232Y152156D01*
X249844Y152768D01*
X250175Y153567D01*
Y154433D01*
X249844Y155232D01*
X249232Y155844D01*
X248433Y156175D01*
D02*
G37*
G36*
X242933D02*
X242067D01*
X241268Y155844D01*
X240656Y155232D01*
X240325Y154433D01*
Y153567D01*
X240656Y152768D01*
X241268Y152156D01*
X242067Y151825D01*
X242933D01*
X243732Y152156D01*
X244344Y152768D01*
X244675Y153567D01*
Y154433D01*
X244344Y155232D01*
X243732Y155844D01*
X242933Y156175D01*
D02*
G37*
G36*
X276874Y158800D02*
X275926D01*
X275010Y158555D01*
X274190Y158081D01*
X273519Y157410D01*
X273045Y156590D01*
X272800Y155674D01*
Y154726D01*
X273045Y153810D01*
X273519Y152990D01*
X274190Y152319D01*
X275010Y151845D01*
X275926Y151600D01*
X276874D01*
X277790Y151845D01*
X278610Y152319D01*
X279281Y152990D01*
X279755Y153810D01*
X280000Y154726D01*
Y155674D01*
X279755Y156590D01*
X279281Y157410D01*
X278610Y158081D01*
X277790Y158555D01*
X276874Y158800D01*
D02*
G37*
G36*
X271533Y144475D02*
X270667D01*
X269868Y144144D01*
X269256Y143532D01*
X268925Y142733D01*
Y141867D01*
X269256Y141068D01*
X269868Y140456D01*
X270667Y140125D01*
X271533D01*
X272332Y140456D01*
X272944Y141068D01*
X273275Y141867D01*
Y142733D01*
X272944Y143532D01*
X272332Y144144D01*
X271533Y144475D01*
D02*
G37*
G36*
X216333Y144275D02*
X215467D01*
X214668Y143944D01*
X214056Y143332D01*
X213725Y142533D01*
Y141667D01*
X214056Y140868D01*
X214668Y140256D01*
X215467Y139925D01*
X216333D01*
X217132Y140256D01*
X217744Y140868D01*
X218075Y141667D01*
Y142533D01*
X217744Y143332D01*
X217132Y143944D01*
X216333Y144275D01*
D02*
G37*
G36*
X290433Y141500D02*
X289567D01*
X288768Y141169D01*
X288156Y140557D01*
X287825Y139758D01*
Y138893D01*
X288156Y138093D01*
X288768Y137481D01*
X289567Y137150D01*
X290433D01*
X291232Y137481D01*
X291844Y138093D01*
X292175Y138893D01*
Y139758D01*
X291844Y140557D01*
X291232Y141169D01*
X290433Y141500D01*
D02*
G37*
G36*
X284365D02*
X283500D01*
X282701Y141169D01*
X282089Y140557D01*
X281758Y139758D01*
Y138893D01*
X282089Y138093D01*
X282701Y137481D01*
X283500Y137150D01*
X284365D01*
X285164Y137481D01*
X285776Y138093D01*
X286107Y138893D01*
Y139758D01*
X285776Y140557D01*
X285164Y141169D01*
X284365Y141500D01*
D02*
G37*
G36*
X277865D02*
X277000D01*
X276201Y141169D01*
X275589Y140557D01*
X275258Y139758D01*
Y138893D01*
X275589Y138093D01*
X276201Y137481D01*
X277000Y137150D01*
X277865D01*
X278664Y137481D01*
X279276Y138093D01*
X279607Y138893D01*
Y139758D01*
X279276Y140557D01*
X278664Y141169D01*
X277865Y141500D01*
D02*
G37*
G36*
X245933Y141175D02*
X245067D01*
X244268Y140844D01*
X243656Y140232D01*
X243325Y139433D01*
Y138567D01*
X243656Y137768D01*
X244268Y137156D01*
X245067Y136825D01*
X245933D01*
X246732Y137156D01*
X247344Y137768D01*
X247675Y138567D01*
Y139433D01*
X247344Y140232D01*
X246732Y140844D01*
X245933Y141175D01*
D02*
G37*
G36*
X159908Y134427D02*
X159043D01*
X158244Y134096D01*
X157632Y133484D01*
X157301Y132685D01*
Y131819D01*
X157632Y131020D01*
X158244Y130408D01*
X159043Y130077D01*
X159908D01*
X160707Y130408D01*
X161319Y131020D01*
X161650Y131819D01*
Y132685D01*
X161319Y133484D01*
X160707Y134096D01*
X159908Y134427D01*
D02*
G37*
G36*
X178733Y134375D02*
X177867D01*
X177068Y134044D01*
X176456Y133432D01*
X176125Y132633D01*
Y131767D01*
X176456Y130968D01*
X177068Y130356D01*
X177867Y130025D01*
X178733D01*
X179532Y130356D01*
X180144Y130968D01*
X180475Y131767D01*
Y132633D01*
X180144Y133432D01*
X179532Y134044D01*
X178733Y134375D01*
D02*
G37*
G36*
X294933Y133775D02*
X294067D01*
X293268Y133444D01*
X292656Y132832D01*
X292325Y132033D01*
Y131167D01*
X292656Y130368D01*
X293268Y129756D01*
X294067Y129425D01*
X294933D01*
X295732Y129756D01*
X296344Y130368D01*
X296675Y131167D01*
Y132033D01*
X296344Y132832D01*
X295732Y133444D01*
X294933Y133775D01*
D02*
G37*
G36*
X197133Y127275D02*
X196267D01*
X195468Y126944D01*
X194856Y126332D01*
X194525Y125533D01*
Y124667D01*
X194856Y123868D01*
X195468Y123256D01*
X196267Y122925D01*
X197133D01*
X197932Y123256D01*
X198544Y123868D01*
X198875Y124667D01*
Y125533D01*
X198544Y126332D01*
X197932Y126944D01*
X197133Y127275D01*
D02*
G37*
G36*
X191033D02*
X190167D01*
X189368Y126944D01*
X188756Y126332D01*
X188425Y125533D01*
Y124667D01*
X188756Y123868D01*
X189368Y123256D01*
X190167Y122925D01*
X191033D01*
X191832Y123256D01*
X192444Y123868D01*
X192775Y124667D01*
Y125533D01*
X192444Y126332D01*
X191832Y126944D01*
X191033Y127275D01*
D02*
G37*
G36*
X255433Y124675D02*
X254567D01*
X253768Y124344D01*
X253156Y123732D01*
X252825Y122933D01*
Y122067D01*
X253156Y121268D01*
X253768Y120656D01*
X254567Y120325D01*
X255433D01*
X256232Y120656D01*
X256844Y121268D01*
X257175Y122067D01*
Y122933D01*
X256844Y123732D01*
X256232Y124344D01*
X255433Y124675D01*
D02*
G37*
G36*
X198833Y116375D02*
X197967D01*
X197168Y116044D01*
X196556Y115432D01*
X196225Y114633D01*
Y113767D01*
X196556Y112968D01*
X197168Y112356D01*
X197967Y112025D01*
X198833D01*
X199632Y112356D01*
X200244Y112968D01*
X200575Y113767D01*
Y114633D01*
X200244Y115432D01*
X199632Y116044D01*
X198833Y116375D01*
D02*
G37*
G36*
X166233Y116175D02*
X165367D01*
X164568Y115844D01*
X163956Y115232D01*
X163625Y114433D01*
Y113567D01*
X163956Y112768D01*
X164568Y112156D01*
X165367Y111825D01*
X166233D01*
X167032Y112156D01*
X167644Y112768D01*
X167975Y113567D01*
Y114433D01*
X167644Y115232D01*
X167032Y115844D01*
X166233Y116175D01*
D02*
G37*
G36*
X256374Y110400D02*
X255426D01*
X254510Y110155D01*
X253690Y109681D01*
X253019Y109010D01*
X252545Y108190D01*
X252300Y107274D01*
Y106326D01*
X252545Y105410D01*
X253019Y104590D01*
X253690Y103919D01*
X254510Y103445D01*
X255426Y103200D01*
X256374D01*
X257290Y103445D01*
X258110Y103919D01*
X258781Y104590D01*
X259255Y105410D01*
X259500Y106326D01*
Y107274D01*
X259255Y108190D01*
X258781Y109010D01*
X258110Y109681D01*
X257290Y110155D01*
X256374Y110400D01*
D02*
G37*
G36*
X195333Y105278D02*
X194467D01*
X193668Y104947D01*
X193056Y104335D01*
X192725Y103536D01*
Y102671D01*
X193056Y101871D01*
X193668Y101259D01*
X194467Y100928D01*
X195333D01*
X196132Y101259D01*
X196744Y101871D01*
X197075Y102671D01*
Y103536D01*
X196744Y104335D01*
X196132Y104947D01*
X195333Y105278D01*
D02*
G37*
G36*
X277933Y105175D02*
X277067D01*
X276268Y104844D01*
X275656Y104232D01*
X275325Y103433D01*
Y102567D01*
X275656Y101768D01*
X276268Y101156D01*
X277067Y100825D01*
X277933D01*
X278732Y101156D01*
X279344Y101768D01*
X279675Y102567D01*
Y103433D01*
X279344Y104232D01*
X278732Y104844D01*
X277933Y105175D01*
D02*
G37*
G36*
X295274Y104600D02*
X294326D01*
X293410Y104355D01*
X292590Y103881D01*
X291919Y103210D01*
X291445Y102390D01*
X291200Y101474D01*
Y100526D01*
X291445Y99611D01*
X291919Y98790D01*
X292590Y98119D01*
X293410Y97645D01*
X294326Y97400D01*
X295274D01*
X296190Y97645D01*
X297010Y98119D01*
X297681Y98790D01*
X298155Y99611D01*
X298400Y100526D01*
Y101474D01*
X298155Y102390D01*
X297681Y103210D01*
X297010Y103881D01*
X296190Y104355D01*
X295274Y104600D01*
D02*
G37*
G36*
X172433Y101575D02*
X171567D01*
X170768Y101244D01*
X170156Y100632D01*
X169825Y99833D01*
Y98967D01*
X170156Y98168D01*
X170768Y97556D01*
X171567Y97225D01*
X172433D01*
X173232Y97556D01*
X173844Y98168D01*
X174175Y98967D01*
Y99833D01*
X173844Y100632D01*
X173232Y101244D01*
X172433Y101575D01*
D02*
G37*
G36*
X180433Y95175D02*
X179567D01*
X178768Y94844D01*
X178156Y94232D01*
X177825Y93433D01*
Y92567D01*
X178156Y91768D01*
X178768Y91156D01*
X179567Y90825D01*
X180433D01*
X181232Y91156D01*
X181844Y91768D01*
X182175Y92567D01*
Y93433D01*
X181844Y94232D01*
X181232Y94844D01*
X180433Y95175D01*
D02*
G37*
G36*
Y88175D02*
X179567D01*
X178768Y87844D01*
X178156Y87232D01*
X177825Y86433D01*
Y85567D01*
X178156Y84768D01*
X178768Y84156D01*
X179567Y83825D01*
X180433D01*
X181232Y84156D01*
X181844Y84768D01*
X182175Y85567D01*
Y86433D01*
X181844Y87232D01*
X181232Y87844D01*
X180433Y88175D01*
D02*
G37*
G36*
X209018Y58337D02*
X207982D01*
X206980Y58069D01*
X206625Y57864D01*
X206270Y58069D01*
X205269Y58337D01*
X204232D01*
X203231Y58069D01*
X202333Y57550D01*
X201600Y56817D01*
X201082Y55920D01*
X200813Y54918D01*
Y53882D01*
X201082Y52880D01*
X201600Y51983D01*
X202333Y51250D01*
X203231Y50731D01*
X204232Y50463D01*
X205269D01*
X206270Y50731D01*
X206625Y50936D01*
X206980Y50731D01*
X207982Y50463D01*
X209018D01*
X210020Y50731D01*
X210917Y51250D01*
X211650Y51983D01*
X212169Y52880D01*
X212437Y53882D01*
Y54918D01*
X212169Y55920D01*
X211650Y56817D01*
X210917Y57550D01*
X210020Y58069D01*
X209018Y58337D01*
D02*
G37*
G36*
X189133Y44475D02*
X188267D01*
X187468Y44144D01*
X186856Y43532D01*
X186525Y42733D01*
Y41867D01*
X186856Y41068D01*
X187468Y40456D01*
X188267Y40125D01*
X189133D01*
X189932Y40456D01*
X190544Y41068D01*
X190875Y41867D01*
Y42733D01*
X190544Y43532D01*
X189932Y44144D01*
X189133Y44475D01*
D02*
G37*
G36*
X193533Y38675D02*
X192667D01*
X191868Y38344D01*
X191256Y37732D01*
X190925Y36933D01*
Y36067D01*
X191256Y35268D01*
X191868Y34656D01*
X192667Y34325D01*
X193533D01*
X194332Y34656D01*
X194944Y35268D01*
X195275Y36067D01*
Y36933D01*
X194944Y37732D01*
X194332Y38344D01*
X193533Y38675D01*
D02*
G37*
G36*
X159133Y29175D02*
X158267D01*
X157468Y28844D01*
X156856Y28232D01*
X156525Y27433D01*
Y26567D01*
X156856Y25768D01*
X157468Y25156D01*
X158267Y24825D01*
X159133D01*
X159932Y25156D01*
X160544Y25768D01*
X160875Y26567D01*
Y27433D01*
X160544Y28232D01*
X159932Y28844D01*
X159133Y29175D01*
D02*
G37*
G36*
X197848Y27368D02*
X197100D01*
X196409Y27082D01*
X195881Y26553D01*
X195595Y25862D01*
Y25114D01*
X195881Y24423D01*
X196409Y23895D01*
X197100Y23609D01*
X197848D01*
X198539Y23895D01*
X199067Y24423D01*
X199354Y25114D01*
Y25862D01*
X199067Y26553D01*
X198539Y27082D01*
X197848Y27368D01*
D02*
G37*
G36*
X191824Y32607D02*
X191128Y32516D01*
X190479Y32247D01*
X189922Y31819D01*
X189495Y31262D01*
X189226Y30613D01*
X189135Y29917D01*
Y24996D01*
X189226Y24300D01*
X189495Y23651D01*
X189922Y23094D01*
X190479Y22667D01*
X191128Y22398D01*
X191824Y22306D01*
X192521Y22398D01*
X193169Y22667D01*
X193727Y23094D01*
X194154Y23651D01*
X194423Y24300D01*
X194514Y24996D01*
Y29917D01*
X194423Y30613D01*
X194154Y31262D01*
X193727Y31819D01*
X193169Y32247D01*
X192521Y32516D01*
X191824Y32607D01*
D02*
G37*
G36*
X66416Y252224D02*
X65584D01*
X64781Y252009D01*
X64060Y251593D01*
X63472Y251005D01*
X63056Y250285D01*
X62841Y249481D01*
Y248649D01*
X63056Y247846D01*
X63472Y247126D01*
X64060Y246537D01*
X64781Y246122D01*
X65584Y245906D01*
X66416D01*
X67219Y246122D01*
X67940Y246537D01*
X68528Y247126D01*
X68944Y247846D01*
X69159Y248649D01*
Y249481D01*
X68944Y250285D01*
X68528Y251005D01*
X67940Y251593D01*
X67219Y252009D01*
X66416Y252224D01*
D02*
G37*
G36*
X77933Y222675D02*
X77067D01*
X76268Y222344D01*
X75656Y221732D01*
X75325Y220933D01*
Y220067D01*
X75656Y219268D01*
X76268Y218656D01*
X77067Y218325D01*
X77933D01*
X78732Y218656D01*
X79344Y219268D01*
X79675Y220067D01*
Y220933D01*
X79344Y221732D01*
X78732Y222344D01*
X77933Y222675D01*
D02*
G37*
G36*
X75433Y210175D02*
X74567D01*
X73768Y209844D01*
X73156Y209232D01*
X72825Y208433D01*
Y207567D01*
X73156Y206768D01*
X73768Y206156D01*
X74567Y205825D01*
X75433D01*
X76232Y206156D01*
X76844Y206768D01*
X77175Y207567D01*
Y208433D01*
X76844Y209232D01*
X76232Y209844D01*
X75433Y210175D01*
D02*
G37*
G36*
Y203675D02*
X74567D01*
X73768Y203344D01*
X73156Y202732D01*
X72825Y201933D01*
Y201067D01*
X73156Y200268D01*
X73768Y199656D01*
X74567Y199325D01*
X75433D01*
X76232Y199656D01*
X76844Y200268D01*
X77175Y201067D01*
Y201933D01*
X76844Y202732D01*
X76232Y203344D01*
X75433Y203675D01*
D02*
G37*
G36*
Y197175D02*
X74567D01*
X73768Y196844D01*
X73156Y196232D01*
X72825Y195433D01*
Y194567D01*
X73156Y193768D01*
X73768Y193156D01*
X74567Y192825D01*
X75433D01*
X76232Y193156D01*
X76844Y193768D01*
X77175Y194567D01*
Y195433D01*
X76844Y196232D01*
X76232Y196844D01*
X75433Y197175D01*
D02*
G37*
G36*
Y190675D02*
X74567D01*
X73768Y190344D01*
X73156Y189732D01*
X72825Y188933D01*
Y188067D01*
X73156Y187268D01*
X73768Y186656D01*
X74567Y186325D01*
X75433D01*
X76232Y186656D01*
X76844Y187268D01*
X77175Y188067D01*
Y188933D01*
X76844Y189732D01*
X76232Y190344D01*
X75433Y190675D01*
D02*
G37*
G36*
X79643Y173902D02*
X78777D01*
X77978Y173571D01*
X77366Y172959D01*
X77035Y172160D01*
Y171295D01*
X77366Y170495D01*
X77978Y169884D01*
X78777Y169552D01*
X79643D01*
X80442Y169884D01*
X81054Y170495D01*
X81385Y171295D01*
Y172160D01*
X81054Y172959D01*
X80442Y173571D01*
X79643Y173902D01*
D02*
G37*
G36*
X89333Y158875D02*
X88467D01*
X87668Y158544D01*
X87056Y157932D01*
X86725Y157133D01*
Y156267D01*
X87056Y155468D01*
X87668Y154856D01*
X88467Y154525D01*
X89333D01*
X90132Y154856D01*
X90744Y155468D01*
X91075Y156267D01*
Y157133D01*
X90744Y157932D01*
X90132Y158544D01*
X89333Y158875D01*
D02*
G37*
G36*
X90018Y152937D02*
X88982D01*
X87980Y152669D01*
X87083Y152150D01*
X86350Y151417D01*
X85831Y150520D01*
X85563Y149518D01*
Y148482D01*
X85831Y147480D01*
X86036Y147125D01*
X85831Y146770D01*
X85563Y145769D01*
Y144732D01*
X85831Y143731D01*
X86350Y142833D01*
X87083Y142100D01*
X87980Y141582D01*
X88982Y141313D01*
X90018D01*
X91020Y141582D01*
X91917Y142100D01*
X92650Y142833D01*
X93169Y143731D01*
X93437Y144732D01*
Y145769D01*
X93169Y146770D01*
X92964Y147125D01*
X93169Y147480D01*
X93437Y148482D01*
Y149518D01*
X93169Y150520D01*
X92650Y151417D01*
X91917Y152150D01*
X91020Y152669D01*
X90018Y152937D01*
D02*
G37*
G36*
X88833Y124675D02*
X87967D01*
X87168Y124344D01*
X86556Y123732D01*
X86225Y122933D01*
Y122067D01*
X86556Y121268D01*
X87168Y120656D01*
X87967Y120325D01*
X88833D01*
X89632Y120656D01*
X89827Y120852D01*
X90459Y121126D01*
X90873Y120852D01*
X91168Y120556D01*
X91967Y120225D01*
X92833D01*
X93632Y120556D01*
X94244Y121168D01*
X94575Y121967D01*
Y122833D01*
X94244Y123632D01*
X93632Y124244D01*
X92833Y124575D01*
X91967D01*
X91168Y124244D01*
X90973Y124048D01*
X90341Y123774D01*
X89927Y124048D01*
X89632Y124344D01*
X88833Y124675D01*
D02*
G37*
G36*
X95333Y79775D02*
X94467D01*
X93668Y79444D01*
X93056Y78832D01*
X92725Y78033D01*
Y77167D01*
X93056Y76368D01*
X93668Y75756D01*
X94467Y75425D01*
X95333D01*
X96132Y75756D01*
X96744Y76368D01*
X97075Y77167D01*
Y78033D01*
X96744Y78832D01*
X96132Y79444D01*
X95333Y79775D01*
D02*
G37*
G36*
X76033Y79275D02*
X75167D01*
X74368Y78944D01*
X73756Y78332D01*
X73425Y77533D01*
Y76667D01*
X73756Y75868D01*
X74368Y75256D01*
X75167Y74925D01*
X76033D01*
X76832Y75256D01*
X77444Y75868D01*
X77775Y76667D01*
Y77533D01*
X77444Y78332D01*
X76832Y78944D01*
X76033Y79275D01*
D02*
G37*
G36*
X80162Y71504D02*
X79297D01*
X78497Y71173D01*
X77886Y70561D01*
X77555Y69762D01*
Y68897D01*
X77886Y68097D01*
X78497Y67486D01*
X79297Y67155D01*
X80162D01*
X80961Y67486D01*
X81573Y68097D01*
X81904Y68897D01*
Y69762D01*
X81573Y70561D01*
X80961Y71173D01*
X80162Y71504D01*
D02*
G37*
G36*
X80833Y58375D02*
X79967D01*
X79168Y58044D01*
X78556Y57432D01*
X78225Y56633D01*
Y55767D01*
X78556Y54968D01*
X79168Y54356D01*
X79967Y54025D01*
X80833D01*
X81632Y54356D01*
X82244Y54968D01*
X82575Y55767D01*
Y56633D01*
X82244Y57432D01*
X81632Y58044D01*
X80833Y58375D01*
D02*
G37*
G36*
X11584Y222080D02*
X9616D01*
X8585Y221945D01*
X7626Y221547D01*
X6801Y220915D01*
X6168Y220090D01*
X5771Y219130D01*
X5635Y218100D01*
X5771Y217070D01*
X6168Y216110D01*
X6801Y215285D01*
X7626Y214653D01*
X8585Y214255D01*
X9616Y214120D01*
X11584D01*
X12615Y214255D01*
X13575Y214653D01*
X14399Y215285D01*
X15032Y216110D01*
X15429Y217070D01*
X15565Y218100D01*
X15429Y219130D01*
X15032Y220090D01*
X14399Y220915D01*
X13575Y221547D01*
X12615Y221945D01*
X11584Y222080D01*
D02*
G37*
G36*
Y212081D02*
X9616D01*
X8585Y211945D01*
X7626Y211547D01*
X6801Y210915D01*
X6168Y210090D01*
X5771Y209130D01*
X5635Y208100D01*
X5771Y207070D01*
X6168Y206110D01*
X6801Y205285D01*
X7626Y204653D01*
X8585Y204255D01*
X9616Y204119D01*
X11584D01*
X12615Y204255D01*
X13575Y204653D01*
X14399Y205285D01*
X15032Y206110D01*
X15429Y207070D01*
X15565Y208100D01*
X15429Y209130D01*
X15032Y210090D01*
X14399Y210915D01*
X13575Y211547D01*
X12615Y211945D01*
X11584Y212081D01*
D02*
G37*
G36*
X40333Y166375D02*
X39467D01*
X38668Y166044D01*
X38056Y165432D01*
X37725Y164633D01*
Y163767D01*
X38056Y162968D01*
X38668Y162356D01*
X39467Y162025D01*
X40333D01*
X41132Y162356D01*
X41744Y162968D01*
X42075Y163767D01*
Y164633D01*
X41744Y165432D01*
X41132Y166044D01*
X40333Y166375D01*
D02*
G37*
G36*
X20933Y156175D02*
X20067D01*
X19268Y155844D01*
X18656Y155232D01*
X18325Y154433D01*
Y153567D01*
X18656Y152768D01*
X19268Y152156D01*
X20067Y151825D01*
X20933D01*
X21732Y152156D01*
X22344Y152768D01*
X22675Y153567D01*
Y154433D01*
X22344Y155232D01*
X21732Y155844D01*
X20933Y156175D01*
D02*
G37*
G36*
X11584Y162081D02*
X9616D01*
X8585Y161945D01*
X7626Y161547D01*
X6801Y160915D01*
X6168Y160090D01*
X5771Y159130D01*
X5635Y158100D01*
X5771Y157070D01*
X6168Y156110D01*
X6801Y155285D01*
X7626Y154653D01*
X8014Y154492D01*
X8068Y154071D01*
X7977Y153641D01*
X6718Y153120D01*
X5517Y152198D01*
X4596Y150998D01*
X4017Y149600D01*
X3820Y148100D01*
X4017Y146600D01*
X4596Y145202D01*
X5517Y144002D01*
X6718Y143080D01*
X7977Y142559D01*
X8068Y142129D01*
X8014Y141708D01*
X7626Y141547D01*
X6801Y140915D01*
X6168Y140090D01*
X5771Y139130D01*
X5635Y138100D01*
X5771Y137070D01*
X6168Y136110D01*
X6801Y135285D01*
X7626Y134653D01*
X8014Y134492D01*
X8068Y134071D01*
X7977Y133641D01*
X6718Y133119D01*
X5517Y132198D01*
X4596Y130998D01*
X4017Y129600D01*
X3820Y128100D01*
X4017Y126600D01*
X4596Y125202D01*
X5517Y124002D01*
X6171Y123500D01*
Y122700D01*
X5517Y122198D01*
X4596Y120998D01*
X4017Y119600D01*
X3820Y118100D01*
X4017Y116600D01*
X4596Y115202D01*
X5517Y114002D01*
X6718Y113081D01*
X7977Y112559D01*
X8068Y112129D01*
X8014Y111708D01*
X7626Y111547D01*
X6801Y110915D01*
X6168Y110090D01*
X5771Y109130D01*
X5635Y108100D01*
X5771Y107070D01*
X6168Y106110D01*
X6801Y105285D01*
X7626Y104653D01*
X8585Y104255D01*
X9616Y104120D01*
X11584D01*
X12615Y104255D01*
X13575Y104653D01*
X14399Y105285D01*
X15032Y106110D01*
X15429Y107070D01*
X15565Y108100D01*
X15429Y109130D01*
X15032Y110090D01*
X14399Y110915D01*
X13575Y111547D01*
X13186Y111708D01*
X13132Y112129D01*
X13223Y112559D01*
X14482Y113081D01*
X15683Y114002D01*
X16604Y115202D01*
X17183Y116600D01*
X17380Y118100D01*
X17183Y119600D01*
X16604Y120998D01*
X15683Y122198D01*
X15029Y122700D01*
Y123500D01*
X15683Y124002D01*
X16604Y125202D01*
X17183Y126600D01*
X17380Y128100D01*
X17183Y129600D01*
X16604Y130998D01*
X15683Y132198D01*
X14482Y133119D01*
X13223Y133641D01*
X13132Y134071D01*
X13186Y134492D01*
X13575Y134653D01*
X14399Y135285D01*
X15032Y136110D01*
X15429Y137070D01*
X15565Y138100D01*
X15429Y139130D01*
X15032Y140090D01*
X14399Y140915D01*
X13575Y141547D01*
X13186Y141708D01*
X13132Y142129D01*
X13223Y142559D01*
X14482Y143080D01*
X15683Y144002D01*
X16604Y145202D01*
X17183Y146600D01*
X17380Y148100D01*
X17183Y149600D01*
X16604Y150998D01*
X15683Y152198D01*
X14482Y153120D01*
X13223Y153641D01*
X13132Y154071D01*
X13186Y154492D01*
X13575Y154653D01*
X14399Y155285D01*
X15032Y156110D01*
X15429Y157070D01*
X15565Y158100D01*
X15429Y159130D01*
X15032Y160090D01*
X14399Y160915D01*
X13575Y161547D01*
X12615Y161945D01*
X11584Y162081D01*
D02*
G37*
G36*
X44018Y91937D02*
X42982D01*
X41980Y91669D01*
X41625Y91464D01*
X41270Y91669D01*
X40269Y91937D01*
X39232D01*
X38231Y91669D01*
X37333Y91150D01*
X36600Y90417D01*
X36082Y89520D01*
X35813Y88518D01*
Y87482D01*
X36082Y86480D01*
X36600Y85583D01*
X37333Y84850D01*
X38231Y84331D01*
X39232Y84063D01*
X40269D01*
X41270Y84331D01*
X41625Y84536D01*
X41980Y84331D01*
X42982Y84063D01*
X44018D01*
X45020Y84331D01*
X45917Y84850D01*
X46650Y85583D01*
X47169Y86480D01*
X47437Y87482D01*
Y88518D01*
X47169Y89520D01*
X46650Y90417D01*
X45917Y91150D01*
X45020Y91669D01*
X44018Y91937D01*
D02*
G37*
G36*
X50792Y79000D02*
X49927D01*
X49128Y78669D01*
X48516Y78057D01*
X48185Y77258D01*
Y76393D01*
X48516Y75593D01*
X49128Y74981D01*
X49927Y74650D01*
X50792D01*
X51591Y74981D01*
X52203Y75593D01*
X52534Y76393D01*
Y77258D01*
X52203Y78057D01*
X51591Y78669D01*
X50792Y79000D01*
D02*
G37*
G36*
X15255Y83858D02*
X13819D01*
X12410Y83577D01*
X11083Y83027D01*
X9888Y82229D01*
X8872Y81213D01*
X8074Y80019D01*
X7524Y78692D01*
X7244Y77283D01*
Y75846D01*
X7524Y74437D01*
X8074Y73110D01*
X8872Y71916D01*
X9888Y70900D01*
X11083Y70102D01*
X12410Y69552D01*
X13819Y69272D01*
X15255D01*
X16664Y69552D01*
X17991Y70102D01*
X19186Y70900D01*
X20202Y71916D01*
X21000Y73110D01*
X21550Y74437D01*
X21830Y75846D01*
Y77283D01*
X21550Y78692D01*
X21000Y80019D01*
X20202Y81213D01*
X19186Y82229D01*
X17991Y83027D01*
X16664Y83577D01*
X15255Y83858D01*
D02*
G37*
G36*
X36233Y68675D02*
X35367D01*
X34568Y68344D01*
X33956Y67732D01*
X33625Y66933D01*
Y66067D01*
X33956Y65268D01*
X34568Y64656D01*
X35367Y64325D01*
X36233D01*
X37032Y64656D01*
X37644Y65268D01*
X37975Y66067D01*
Y66933D01*
X37644Y67732D01*
X37032Y68344D01*
X36233Y68675D01*
D02*
G37*
G36*
X5433Y68175D02*
X4567D01*
X3768Y67844D01*
X3156Y67232D01*
X2825Y66433D01*
Y65567D01*
X3156Y64768D01*
X3768Y64156D01*
X4567Y63825D01*
X5433D01*
X6232Y64156D01*
X6844Y64768D01*
X7175Y65567D01*
Y66433D01*
X6844Y67232D01*
X6232Y67844D01*
X5433Y68175D01*
D02*
G37*
G36*
X25833Y67175D02*
X24967D01*
X24168Y66844D01*
X23556Y66232D01*
X23225Y65433D01*
Y64567D01*
X23556Y63768D01*
X24168Y63156D01*
X24967Y62825D01*
X25833D01*
X26632Y63156D01*
X27244Y63768D01*
X27575Y64567D01*
Y65433D01*
X27244Y66232D01*
X26632Y66844D01*
X25833Y67175D01*
D02*
G37*
G36*
X32233Y62675D02*
X31367D01*
X30568Y62344D01*
X29956Y61732D01*
X29625Y60933D01*
Y60067D01*
X29956Y59268D01*
X30568Y58656D01*
X31367Y58325D01*
X32233D01*
X33032Y58656D01*
X33644Y59268D01*
X33975Y60067D01*
Y60933D01*
X33644Y61732D01*
X33032Y62344D01*
X32233Y62675D01*
D02*
G37*
G36*
X35033Y57775D02*
X34167D01*
X33368Y57444D01*
X32756Y56832D01*
X32425Y56033D01*
Y55167D01*
X32756Y54368D01*
X33368Y53756D01*
X34167Y53425D01*
X35033D01*
X35832Y53756D01*
X36444Y54368D01*
X36775Y55167D01*
Y56033D01*
X36444Y56832D01*
X35832Y57444D01*
X35033Y57775D01*
D02*
G37*
G36*
X21725Y53675D02*
X20860D01*
X20061Y53344D01*
X19449Y52732D01*
X19118Y51933D01*
Y51067D01*
X19449Y50268D01*
X20061Y49656D01*
X20860Y49325D01*
X21725D01*
X22525Y49656D01*
X23137Y50268D01*
X23468Y51067D01*
Y51933D01*
X23137Y52732D01*
X22525Y53344D01*
X21725Y53675D01*
D02*
G37*
G36*
X7933Y53175D02*
X7067D01*
X6268Y52844D01*
X5656Y52232D01*
X5325Y51433D01*
Y50567D01*
X5656Y49768D01*
X6268Y49156D01*
X7067Y48825D01*
X7933D01*
X8732Y49156D01*
X9344Y49768D01*
X9675Y50567D01*
Y51433D01*
X9344Y52232D01*
X8732Y52844D01*
X7933Y53175D01*
D02*
G37*
%LPD*%
D116*
X60300Y325867D02*
D03*
D145*
X377953Y15748D02*
D03*
Y377953D02*
D03*
X15748Y15748D02*
D03*
Y377953D02*
D03*
D146*
X361600Y118900D02*
X375000D01*
X383630D01*
X326882Y59128D02*
X360758Y25252D01*
X66500Y52100D02*
X79600D01*
X60700Y46300D02*
X66500Y52100D01*
X46400Y46300D02*
X60700D01*
X221700Y50100D02*
X226223D01*
X265113Y316728D02*
X269800D01*
X278465D01*
X231000Y51200D02*
X238928Y59128D01*
X301500D02*
X326882D01*
X360758Y25252D02*
X361052D01*
X265060Y316781D02*
X265113Y316728D01*
X265060Y346839D02*
X265171Y346728D01*
X278565D01*
X301500Y59128D02*
Y76100D01*
X238928Y59128D02*
X301500D01*
X349805Y149033D02*
Y159605D01*
Y135141D02*
Y149033D01*
X329167D02*
X349805D01*
X305800Y161000D02*
X317200D01*
X329167Y149033D01*
X354071Y163871D02*
X384000D01*
X349805Y159605D02*
X354071Y163871D01*
X383630Y118900D02*
X384000Y118530D01*
X241950Y324900D02*
Y336850D01*
Y312950D02*
Y324900D01*
X265024D01*
X42800Y42700D02*
X46400Y46300D01*
D149*
X277100Y357700D02*
X277300Y357900D01*
X265060Y357700D02*
X277100D01*
X265024Y324900D02*
X265060Y324936D01*
X241950Y312950D02*
X242000Y312900D01*
X241900Y336900D02*
X241950Y336850D01*
D150*
X332400Y72400D02*
X365400Y39400D01*
X93400Y6900D02*
Y43400D01*
X87800Y49000D02*
X93400Y43400D01*
Y6900D02*
X97700Y2600D01*
X227800D01*
X231100Y5900D01*
X316800Y125100D02*
X328700D01*
X332400Y121400D01*
Y72400D02*
Y121400D01*
X139939Y350302D02*
Y370539D01*
X145400Y376000D01*
X253500D01*
X139939Y350302D02*
X141700Y348540D01*
X253500Y376000D02*
X265060Y364440D01*
X141700Y342800D02*
Y348540D01*
X226400Y49924D02*
Y74300D01*
X232275Y80175D02*
X322375D01*
X226400Y74300D02*
X232275Y80175D01*
X326500Y84300D02*
Y115500D01*
X322375Y80175D02*
X326500Y84300D01*
X226400Y36544D02*
Y49924D01*
X226223Y50100D02*
X226400Y49924D01*
Y36544D02*
X231100Y31844D01*
X265060Y357700D02*
Y364440D01*
Y346839D02*
Y357700D01*
Y316781D02*
Y324936D01*
Y346839D01*
X231100Y5900D02*
Y31844D01*
D153*
X66000Y249065D02*
D03*
D154*
Y219735D02*
D03*
D155*
X44000Y355552D02*
D03*
D156*
X64000D02*
D03*
D157*
X192400Y214188D02*
D03*
Y208676D02*
D03*
Y219700D02*
D03*
X197912Y208676D02*
D03*
Y214188D02*
D03*
Y219700D02*
D03*
X189644Y211432D02*
D03*
Y216944D02*
D03*
X195156Y211432D02*
D03*
Y216944D02*
D03*
X200668Y211432D02*
D03*
Y216944D02*
D03*
X137106Y34716D02*
D03*
X142617D02*
D03*
X131594D02*
D03*
X142617Y40228D02*
D03*
X137106D02*
D03*
X131594D02*
D03*
X139861Y31961D02*
D03*
X134350D02*
D03*
X139861Y37472D02*
D03*
X134350D02*
D03*
X139861Y42984D02*
D03*
X134350D02*
D03*
X368504Y15748D02*
D03*
X384634Y22429D02*
D03*
X377953Y6299D02*
D03*
X387402Y15748D02*
D03*
X371271Y9067D02*
D03*
Y22429D02*
D03*
X384634Y9067D02*
D03*
X377953Y25197D02*
D03*
X368504Y377953D02*
D03*
X384634Y384634D02*
D03*
X377953Y368504D02*
D03*
X387402Y377953D02*
D03*
X371271Y371271D02*
D03*
Y384634D02*
D03*
X384634Y371271D02*
D03*
X377953Y387402D02*
D03*
X6299Y15748D02*
D03*
X22429Y22429D02*
D03*
X15748Y6299D02*
D03*
X25197Y15748D02*
D03*
X9067Y9067D02*
D03*
Y22429D02*
D03*
X22429Y9067D02*
D03*
X15748Y25197D02*
D03*
X6299Y377953D02*
D03*
X22429Y384634D02*
D03*
X15748Y368504D02*
D03*
X25197Y377953D02*
D03*
X9067Y371271D02*
D03*
Y384634D02*
D03*
X22429Y371271D02*
D03*
X15748Y387402D02*
D03*
X258900Y350600D02*
D03*
X260745Y380400D02*
D03*
X188400Y288100D02*
D03*
X193727Y318367D02*
D03*
X171100Y197200D02*
D03*
X154800Y235100D02*
D03*
X125546Y132691D02*
D03*
X73300Y151000D02*
D03*
X271100Y142300D02*
D03*
X369005Y147809D02*
D03*
X215900Y142100D02*
D03*
X156200Y196300D02*
D03*
X110000Y182600D02*
D03*
X102575Y286575D02*
D03*
X108500D02*
D03*
X114500D02*
D03*
X120500D02*
D03*
X126500D02*
D03*
X132500D02*
D03*
X347700Y30000D02*
D03*
X345500Y21900D02*
D03*
X339600Y38458D02*
D03*
X83500Y18500D02*
D03*
Y26500D02*
D03*
X369000Y47000D02*
D03*
X365400Y39400D02*
D03*
X354041Y36459D02*
D03*
X294500Y211900D02*
D03*
X283454Y211965D02*
D03*
X259799Y215000D02*
D03*
Y219200D02*
D03*
X190100Y265700D02*
D03*
X189762Y260500D02*
D03*
X301700Y262000D02*
D03*
X254900Y209200D02*
D03*
X79210Y171727D02*
D03*
X99000Y181600D02*
D03*
X229900Y261525D02*
D03*
X212962Y263838D02*
D03*
X243216Y281175D02*
D03*
X222100D02*
D03*
X226400D02*
D03*
X229300Y289000D02*
D03*
X204591Y278432D02*
D03*
X213300Y278562D02*
D03*
X223200Y227500D02*
D03*
X229300Y217594D02*
D03*
X220400Y207594D02*
D03*
X226100Y222600D02*
D03*
X92400Y122400D02*
D03*
X88400Y122500D02*
D03*
X131733Y131706D02*
D03*
X130600Y144100D02*
D03*
X39100Y153900D02*
D03*
X31005Y138061D02*
D03*
X37876Y97452D02*
D03*
X94900Y77600D02*
D03*
X69089Y86466D02*
D03*
X65077Y90477D02*
D03*
X79729Y69329D02*
D03*
X123700Y92300D02*
D03*
X88400Y35600D02*
D03*
X103175Y37000D02*
D03*
X105800Y47000D02*
D03*
X110400Y96000D02*
D03*
X106600Y31900D02*
D03*
X75600Y77100D02*
D03*
X43500Y88000D02*
D03*
X39750D02*
D03*
X172000Y99400D02*
D03*
X165800Y114000D02*
D03*
X168000Y86600D02*
D03*
X176900Y76700D02*
D03*
X166600Y107800D02*
D03*
X153900Y70700D02*
D03*
X3500Y173000D02*
D03*
X39900Y164200D02*
D03*
X58800Y156600D02*
D03*
X103000Y22200D02*
D03*
X88600Y26100D02*
D03*
X80400Y56200D02*
D03*
X316600Y267800D02*
D03*
X144400Y217000D02*
D03*
X147600Y233400D02*
D03*
X23100Y255500D02*
D03*
X260745Y389400D02*
D03*
X155100Y369200D02*
D03*
X163200Y369300D02*
D03*
X159200Y365800D02*
D03*
X239000Y84400D02*
D03*
X320500Y85500D02*
D03*
X231000Y51200D02*
D03*
X308000Y248000D02*
D03*
X205900Y21500D02*
D03*
X222000Y69800D02*
D03*
X232507Y84400D02*
D03*
X208500Y54400D02*
D03*
X204750D02*
D03*
X295000Y76500D02*
D03*
X111000Y8000D02*
D03*
X312800Y66700D02*
D03*
X375700Y31900D02*
D03*
X331500Y242000D02*
D03*
X292000Y248000D02*
D03*
X240500Y362515D02*
D03*
X79600Y52100D02*
D03*
X29500Y239400D02*
D03*
X35300Y239300D02*
D03*
X29500Y245200D02*
D03*
X23800D02*
D03*
X35200Y245100D02*
D03*
X102575Y247943D02*
D03*
X105200Y219600D02*
D03*
X102600Y189700D02*
D03*
X103000Y209550D02*
D03*
Y213300D02*
D03*
X88900Y156700D02*
D03*
X77500Y220500D02*
D03*
X75000Y201500D02*
D03*
Y208000D02*
D03*
Y188500D02*
D03*
Y195000D02*
D03*
X66000Y188500D02*
D03*
X89500Y145250D02*
D03*
Y149000D02*
D03*
X57000Y208000D02*
D03*
X49200Y219800D02*
D03*
Y226100D02*
D03*
X25400Y65000D02*
D03*
X28500Y78500D02*
D03*
X235300Y390600D02*
D03*
X245500Y139000D02*
D03*
X255000Y122500D02*
D03*
X115200Y160100D02*
D03*
X251812Y202306D02*
D03*
X258100Y258000D02*
D03*
X174600Y155000D02*
D03*
X183000Y164500D02*
D03*
X178500D02*
D03*
X286607Y134000D02*
D03*
X290000Y139325D02*
D03*
X283933D02*
D03*
X277433D02*
D03*
X221900Y57700D02*
D03*
X221700Y50100D02*
D03*
X58000Y42000D02*
D03*
X34600Y55600D02*
D03*
X31800Y60500D02*
D03*
X355400Y124200D02*
D03*
X362300Y131200D02*
D03*
X355500Y131100D02*
D03*
X342100Y138400D02*
D03*
X190600Y125100D02*
D03*
X129900Y266300D02*
D03*
X135800Y266400D02*
D03*
X280700Y184632D02*
D03*
X350100Y168600D02*
D03*
X240406Y217594D02*
D03*
X250800Y177700D02*
D03*
X244000Y212400D02*
D03*
X243800Y222500D02*
D03*
X297200Y173600D02*
D03*
X66073Y20593D02*
D03*
X56944Y20844D02*
D03*
X223200Y19800D02*
D03*
X14800Y39400D02*
D03*
X198400Y114200D02*
D03*
X196700Y125100D02*
D03*
X190600Y119800D02*
D03*
X135800Y270700D02*
D03*
X129900Y270600D02*
D03*
X43500Y219400D02*
D03*
Y226000D02*
D03*
X386100Y276000D02*
D03*
X377400Y198600D02*
D03*
X374000Y222700D02*
D03*
Y284700D02*
D03*
X380700Y244600D02*
D03*
X275900Y194600D02*
D03*
X93040Y364875D02*
D03*
X85000Y364900D02*
D03*
X144000Y249000D02*
D03*
X118900Y248700D02*
D03*
X111800D02*
D03*
X144000Y255800D02*
D03*
X121000Y273100D02*
D03*
X139468Y295156D02*
D03*
X258327Y292315D02*
D03*
X259700Y319500D02*
D03*
X254900Y332800D02*
D03*
X188700Y42300D02*
D03*
X202300Y9600D02*
D03*
X246500Y11500D02*
D03*
X297500Y25000D02*
D03*
X237000Y41500D02*
D03*
X292700Y85000D02*
D03*
X368958Y80868D02*
D03*
X352500Y112500D02*
D03*
X333500Y164500D02*
D03*
X327500D02*
D03*
X304500Y154500D02*
D03*
X297500D02*
D03*
X297309Y162624D02*
D03*
X265500Y159000D02*
D03*
X3500Y224000D02*
D03*
Y163000D02*
D03*
X20500Y154000D02*
D03*
X226000Y157200D02*
D03*
X180000Y86000D02*
D03*
Y93000D02*
D03*
X46800Y10000D02*
D03*
X111000Y14500D02*
D03*
X33500Y367000D02*
D03*
X40000D02*
D03*
X53000Y346000D02*
D03*
X118000Y332000D02*
D03*
X218000Y390600D02*
D03*
X189000Y386500D02*
D03*
Y391000D02*
D03*
X184000Y386500D02*
D03*
X164000D02*
D03*
X169000D02*
D03*
X174000D02*
D03*
X179000D02*
D03*
X169000Y391000D02*
D03*
X174000D02*
D03*
X179000D02*
D03*
X184000D02*
D03*
X164000D02*
D03*
X119000D02*
D03*
X114000Y386000D02*
D03*
X109000D02*
D03*
X114000Y391000D02*
D03*
X109000D02*
D03*
X104000D02*
D03*
X110815Y340025D02*
D03*
X111000Y348500D02*
D03*
X181500Y332000D02*
D03*
X189000D02*
D03*
X174000D02*
D03*
X181500Y338000D02*
D03*
X181431Y343959D02*
D03*
X181500Y350000D02*
D03*
X277300Y357900D02*
D03*
X157900Y297400D02*
D03*
X175300Y303900D02*
D03*
X179600Y318800D02*
D03*
X304200Y184700D02*
D03*
X343500Y226400D02*
D03*
X343700Y254800D02*
D03*
X366400Y265000D02*
D03*
X355600Y259600D02*
D03*
X346400Y217100D02*
D03*
X338600Y221400D02*
D03*
X346779Y197952D02*
D03*
X299000Y185000D02*
D03*
X263800Y258000D02*
D03*
X259799Y210253D02*
D03*
X185700Y25200D02*
D03*
X185600Y33000D02*
D03*
X180050Y33013D02*
D03*
X183300Y36900D02*
D03*
X193100Y36500D02*
D03*
X35800Y66500D02*
D03*
X30600Y218100D02*
D03*
X174000Y164500D02*
D03*
X169300D02*
D03*
X233400Y357900D02*
D03*
X230600Y41500D02*
D03*
X326500Y115500D02*
D03*
X206000Y339000D02*
D03*
X157800Y200700D02*
D03*
X76017Y52100D02*
D03*
X147700Y191500D02*
D03*
X130000Y259900D02*
D03*
X135700D02*
D03*
Y254200D02*
D03*
X98500Y317000D02*
D03*
X104500D02*
D03*
X140400Y300300D02*
D03*
X98500Y330000D02*
D03*
X104500D02*
D03*
X98500Y321500D02*
D03*
X104500D02*
D03*
Y326000D02*
D03*
X98500D02*
D03*
X215000Y9500D02*
D03*
X246500Y5500D02*
D03*
X243500Y26500D02*
D03*
X237000Y51000D02*
D03*
X222000Y75600D02*
D03*
X277500Y103000D02*
D03*
X321500Y76500D02*
D03*
X316500Y71000D02*
D03*
X266000Y44000D02*
D03*
Y50500D02*
D03*
X273500Y24500D02*
D03*
X267549Y24725D02*
D03*
X261500Y24500D02*
D03*
X310000Y39500D02*
D03*
X327000Y33500D02*
D03*
X310500Y19000D02*
D03*
X304000Y25000D02*
D03*
X324500Y14000D02*
D03*
X346751Y3835D02*
D03*
X361500Y8000D02*
D03*
X319000Y223000D02*
D03*
X311000D02*
D03*
X305000Y219500D02*
D03*
X328000Y227500D02*
D03*
X378000Y209300D02*
D03*
X260000Y250500D02*
D03*
X265500Y247000D02*
D03*
X271353Y247093D02*
D03*
X325000Y242000D02*
D03*
X333500Y248500D02*
D03*
X151500Y262500D02*
D03*
Y249000D02*
D03*
Y256000D02*
D03*
X158000D02*
D03*
Y262500D02*
D03*
X164500D02*
D03*
X274000Y174000D02*
D03*
X312000Y172000D02*
D03*
X250500Y169500D02*
D03*
X152268Y228300D02*
D03*
Y171644D02*
D03*
X157000Y178400D02*
D03*
Y185000D02*
D03*
X171100Y192500D02*
D03*
X165000D02*
D03*
X50360Y76825D02*
D03*
X55000Y65500D02*
D03*
X57500Y60500D02*
D03*
Y70500D02*
D03*
X5000Y66000D02*
D03*
X7500Y51000D02*
D03*
X3500Y34000D02*
D03*
X59300Y10000D02*
D03*
X104000Y14500D02*
D03*
Y8000D02*
D03*
X158500Y13000D02*
D03*
X185700Y6800D02*
D03*
X186000Y12000D02*
D03*
X158500Y7000D02*
D03*
X242000Y312900D02*
D03*
X241900Y336900D02*
D03*
X123000Y217000D02*
D03*
X129500D02*
D03*
X131000Y200500D02*
D03*
X125000D02*
D03*
X131000Y210500D02*
D03*
X125000D02*
D03*
X127872Y205374D02*
D03*
X53000Y353000D02*
D03*
Y360000D02*
D03*
Y367000D02*
D03*
X46500D02*
D03*
X33500Y360000D02*
D03*
Y353000D02*
D03*
X19500Y346000D02*
D03*
X29500Y329000D02*
D03*
X23000D02*
D03*
X16500D02*
D03*
X57000Y188500D02*
D03*
Y195000D02*
D03*
Y201500D02*
D03*
X33000Y226500D02*
D03*
X26500D02*
D03*
X20000Y226600D02*
D03*
X23600Y356400D02*
D03*
X307700Y354600D02*
D03*
X338300D02*
D03*
X330500Y17700D02*
D03*
X332800Y4100D02*
D03*
X301500Y76100D02*
D03*
X349805Y135141D02*
D03*
X305800Y161000D02*
D03*
X363300Y353200D02*
D03*
X379400Y353100D02*
D03*
X295500Y377000D02*
D03*
X374500Y361600D02*
D03*
X277041Y215141D02*
D03*
X272700Y199500D02*
D03*
X274200Y218100D02*
D03*
X244600Y242594D02*
D03*
X271300Y221300D02*
D03*
X268000Y224500D02*
D03*
X194900Y103103D02*
D03*
X326930Y257838D02*
D03*
X116800Y253900D02*
D03*
X200900Y296700D02*
D03*
Y320700D02*
D03*
X179762Y191700D02*
D03*
X184762D02*
D03*
X189762Y170635D02*
D03*
X194762D02*
D03*
X234683Y258900D02*
D03*
X356100Y250152D02*
D03*
X199762Y170635D02*
D03*
X204762D02*
D03*
X209762D02*
D03*
X214762D02*
D03*
X294500Y131600D02*
D03*
X250800Y237600D02*
D03*
X224800Y165400D02*
D03*
X147700Y238738D02*
D03*
X234600Y296700D02*
D03*
Y320700D02*
D03*
X258900Y344900D02*
D03*
Y314600D02*
D03*
X240700Y242594D02*
D03*
X250800Y232600D02*
D03*
X242500Y154000D02*
D03*
X248000D02*
D03*
X253500D02*
D03*
X259000D02*
D03*
X362600Y213300D02*
D03*
X305100Y194300D02*
D03*
X306093Y202000D02*
D03*
Y207000D02*
D03*
X129207Y178061D02*
D03*
X138700Y169800D02*
D03*
X178300Y132200D02*
D03*
X159476Y132252D02*
D03*
X174788Y178117D02*
D03*
X366300Y58800D02*
D03*
X312600Y86700D02*
D03*
X299200Y42700D02*
D03*
X212000Y339000D02*
D03*
Y344000D02*
D03*
X206000D02*
D03*
Y349000D02*
D03*
X212000D02*
D03*
X141700Y337100D02*
D03*
Y342800D02*
D03*
X135700D02*
D03*
Y337100D02*
D03*
X141700Y348500D02*
D03*
X85909Y340122D02*
D03*
X101800Y383200D02*
D03*
X158700Y27000D02*
D03*
X144142Y191500D02*
D03*
X173700Y24100D02*
D03*
X173600Y19100D02*
D03*
X21293Y51500D02*
D03*
X47100Y53700D02*
D03*
X50850D02*
D03*
X138700Y190400D02*
D03*
X215300Y38700D02*
D03*
X212700Y19800D02*
D03*
X238500Y21400D02*
D03*
X203200Y16500D02*
D03*
X42800Y42700D02*
D03*
X56800Y53200D02*
D03*
X60500Y35400D02*
D03*
X65400Y38500D02*
D03*
X78300Y18000D02*
D03*
X32400Y39800D02*
D03*
X77800Y43600D02*
D03*
X47900Y18000D02*
D03*
X29800Y31700D02*
D03*
X51000Y23300D02*
D03*
X146731Y365900D02*
D03*
X135731Y348500D02*
D03*
X70332Y370400D02*
D03*
D158*
X9316Y297521D02*
D03*
Y317206D02*
D03*
X60300Y288859D02*
D03*
Y307363D02*
D03*
D159*
X361614Y139606D02*
D03*
X361900Y298224D02*
D03*
X361600Y73900D02*
D03*
X361514Y175306D02*
D03*
D160*
X361614Y154606D02*
D03*
X361900Y313224D02*
D03*
Y328224D02*
D03*
Y343224D02*
D03*
X334646Y362205D02*
D03*
X319646D02*
D03*
X304646D02*
D03*
X267784Y32586D02*
D03*
X282784D02*
D03*
X297784D02*
D03*
X361600Y88900D02*
D03*
Y103900D02*
D03*
Y118900D02*
D03*
X361514Y190306D02*
D03*
D161*
X349646Y362205D02*
D03*
X252784Y32586D02*
D03*
D162*
X341427Y158061D02*
D03*
Y168061D02*
D03*
Y178061D02*
D03*
Y188061D02*
D03*
X10600Y108100D02*
D03*
Y118100D02*
D03*
Y128100D02*
D03*
Y138100D02*
D03*
Y148100D02*
D03*
Y158100D02*
D03*
Y168100D02*
D03*
Y178100D02*
D03*
Y188100D02*
D03*
Y198100D02*
D03*
Y208100D02*
D03*
Y218100D02*
D03*
Y228100D02*
D03*
Y238100D02*
D03*
D164*
X278565Y328224D02*
D03*
Y346728D02*
D03*
X323841Y328224D02*
D03*
X351400D02*
D03*
X278465Y298224D02*
D03*
Y316728D02*
D03*
X323741Y298224D02*
D03*
X351300D02*
D03*
D166*
X197474Y25488D02*
D03*
X220230D02*
D03*
X41422D02*
D03*
X64178D02*
D03*
D167*
X225880Y11000D02*
D03*
X191824D02*
D03*
X69828D02*
D03*
X35772D02*
D03*
D168*
X225880Y27457D02*
D03*
X191824D02*
D03*
X69828D02*
D03*
X35772D02*
D03*
D169*
X325000Y51500D02*
D03*
D170*
X357400Y56200D02*
D03*
X256000Y90300D02*
D03*
X255900Y106800D02*
D03*
X236900Y32800D02*
D03*
X294800Y101000D02*
D03*
X276400Y155200D02*
D03*
X315000Y10300D02*
D03*
D171*
X341427Y76565D02*
D03*
Y269635D02*
D03*
X14537D02*
D03*
Y76565D02*
D03*
D172*
X375000Y39494D02*
Y118900D01*
X360758Y25252D02*
X375000Y39494D01*
X384000Y118530D02*
Y163871D01*
X269800Y278500D02*
X311200Y237100D01*
X269800Y278500D02*
Y316728D01*
X311200Y237100D02*
X378700D01*
X384000Y163871D02*
Y231800D01*
X378700Y237100D02*
X384000Y231800D01*
X350800Y15000D02*
X361052Y25252D01*
X330500Y17700D02*
X333200Y15000D01*
X350800D01*
M02*
