G04*
G04 #@! TF.GenerationSoftware,Altium Limited,Altium Designer,24.10.1 (45)*
G04*
G04 Layer_Color=8421504*
%FSLAX25Y25*%
%MOIN*%
G70*
G04*
G04 #@! TF.SameCoordinates,F8DE0C88-6A82-4F8F-96BC-C1AF256D62EF*
G04*
G04*
G04 #@! TF.FilePolarity,Positive*
G04*
G01*
G75*
%ADD21R,0.26000X0.15500*%
%ADD22R,0.03200X0.03200*%
%ADD23R,0.02000X0.02600*%
%ADD24R,0.03200X0.03000*%
%ADD25R,0.03150X0.02953*%
%ADD26R,0.05700X0.04400*%
%ADD27R,0.01968X0.02362*%
%ADD28R,0.04700X0.04000*%
%ADD29R,0.02600X0.02000*%
%ADD30R,0.02362X0.01968*%
%ADD31R,0.09055X0.17717*%
G04:AMPARAMS|DCode=32|XSize=47.64mil|YSize=23.23mil|CornerRadius=2.9mil|HoleSize=0mil|Usage=FLASHONLY|Rotation=90.000|XOffset=0mil|YOffset=0mil|HoleType=Round|Shape=RoundedRectangle|*
%AMROUNDEDRECTD32*
21,1,0.04764,0.01742,0,0,90.0*
21,1,0.04183,0.02323,0,0,90.0*
1,1,0.00581,0.00871,0.02092*
1,1,0.00581,0.00871,-0.02092*
1,1,0.00581,-0.00871,-0.02092*
1,1,0.00581,-0.00871,0.02092*
%
%ADD32ROUNDEDRECTD32*%
%ADD33R,0.04400X0.05700*%
G04:AMPARAMS|DCode=34|XSize=57.87mil|YSize=11.02mil|CornerRadius=1.38mil|HoleSize=0mil|Usage=FLASHONLY|Rotation=0.000|XOffset=0mil|YOffset=0mil|HoleType=Round|Shape=RoundedRectangle|*
%AMROUNDEDRECTD34*
21,1,0.05787,0.00827,0,0,0.0*
21,1,0.05512,0.01102,0,0,0.0*
1,1,0.00276,0.02756,-0.00413*
1,1,0.00276,-0.02756,-0.00413*
1,1,0.00276,-0.02756,0.00413*
1,1,0.00276,0.02756,0.00413*
%
%ADD34ROUNDEDRECTD34*%
%ADD35R,0.03543X0.03543*%
%ADD36R,0.03543X0.05906*%
%ADD37R,0.05906X0.03543*%
%ADD38R,0.07756X0.02362*%
%ADD39R,0.05709X0.02362*%
%ADD40R,0.09843X0.13386*%
G04:AMPARAMS|DCode=41|XSize=80.71mil|YSize=23.23mil|CornerRadius=2.9mil|HoleSize=0mil|Usage=FLASHONLY|Rotation=0.000|XOffset=0mil|YOffset=0mil|HoleType=Round|Shape=RoundedRectangle|*
%AMROUNDEDRECTD41*
21,1,0.08071,0.01742,0,0,0.0*
21,1,0.07490,0.02323,0,0,0.0*
1,1,0.00581,0.03745,-0.00871*
1,1,0.00581,-0.03745,-0.00871*
1,1,0.00581,-0.03745,0.00871*
1,1,0.00581,0.03745,0.00871*
%
%ADD41ROUNDEDRECTD41*%
G04:AMPARAMS|DCode=42|XSize=90.55mil|YSize=58.27mil|CornerRadius=7.28mil|HoleSize=0mil|Usage=FLASHONLY|Rotation=0.000|XOffset=0mil|YOffset=0mil|HoleType=Round|Shape=RoundedRectangle|*
%AMROUNDEDRECTD42*
21,1,0.09055,0.04370,0,0,0.0*
21,1,0.07598,0.05827,0,0,0.0*
1,1,0.01457,0.03799,-0.02185*
1,1,0.01457,-0.03799,-0.02185*
1,1,0.01457,-0.03799,0.02185*
1,1,0.01457,0.03799,0.02185*
%
%ADD42ROUNDEDRECTD42*%
%ADD43R,0.02362X0.07756*%
%ADD44R,0.04724X0.04000*%
%ADD45R,0.03543X0.03543*%
%ADD46R,0.05906X0.03543*%
%ADD47R,0.03543X0.05906*%
%ADD48R,0.04000X0.04724*%
%ADD49R,0.03937X0.06693*%
%ADD50R,0.06693X0.08661*%
%ADD51R,0.08661X0.06693*%
%ADD52R,0.03000X0.03200*%
%ADD53R,0.04000X0.04700*%
%ADD54R,0.07480X0.20866*%
%ADD55R,0.15748X0.10630*%
%ADD56R,0.01181X0.04528*%
%ADD57R,0.02362X0.04528*%
G04:AMPARAMS|DCode=58|XSize=47.24mil|YSize=70.87mil|CornerRadius=11.81mil|HoleSize=0mil|Usage=FLASHONLY|Rotation=270.000|XOffset=0mil|YOffset=0mil|HoleType=Round|Shape=RoundedRectangle|*
%AMROUNDEDRECTD58*
21,1,0.04724,0.04724,0,0,270.0*
21,1,0.02362,0.07087,0,0,270.0*
1,1,0.02362,-0.02362,-0.01181*
1,1,0.02362,-0.02362,0.01181*
1,1,0.02362,0.02362,0.01181*
1,1,0.02362,0.02362,-0.01181*
%
%ADD58ROUNDEDRECTD58*%
G04:AMPARAMS|DCode=59|XSize=23.62mil|YSize=61.02mil|CornerRadius=5.91mil|HoleSize=0mil|Usage=FLASHONLY|Rotation=270.000|XOffset=0mil|YOffset=0mil|HoleType=Round|Shape=RoundedRectangle|*
%AMROUNDEDRECTD59*
21,1,0.02362,0.04921,0,0,270.0*
21,1,0.01181,0.06102,0,0,270.0*
1,1,0.01181,-0.02461,-0.00591*
1,1,0.01181,-0.02461,0.00591*
1,1,0.01181,0.02461,0.00591*
1,1,0.01181,0.02461,-0.00591*
%
%ADD59ROUNDEDRECTD59*%
%ADD60R,0.06299X0.03150*%
%ADD61R,0.11811X0.08268*%
%ADD62R,0.04921X0.01181*%
%ADD63R,0.12205X0.09055*%
%ADD64R,0.12598X0.05906*%
%ADD65R,0.03200X0.03200*%
%ADD66R,0.06693X0.09843*%
%ADD67R,0.05394X0.06811*%
G04:AMPARAMS|DCode=68|XSize=47.64mil|YSize=28.74mil|CornerRadius=2.59mil|HoleSize=0mil|Usage=FLASHONLY|Rotation=90.000|XOffset=0mil|YOffset=0mil|HoleType=Round|Shape=RoundedRectangle|*
%AMROUNDEDRECTD68*
21,1,0.04764,0.02357,0,0,90.0*
21,1,0.04247,0.02874,0,0,90.0*
1,1,0.00517,0.01178,0.02123*
1,1,0.00517,0.01178,-0.02123*
1,1,0.00517,-0.01178,-0.02123*
1,1,0.00517,-0.01178,0.02123*
%
%ADD68ROUNDEDRECTD68*%
G04:AMPARAMS|DCode=69|XSize=47.64mil|YSize=28.74mil|CornerRadius=2.59mil|HoleSize=0mil|Usage=FLASHONLY|Rotation=180.000|XOffset=0mil|YOffset=0mil|HoleType=Round|Shape=RoundedRectangle|*
%AMROUNDEDRECTD69*
21,1,0.04764,0.02357,0,0,180.0*
21,1,0.04247,0.02874,0,0,180.0*
1,1,0.00517,-0.02123,0.01178*
1,1,0.00517,0.02123,0.01178*
1,1,0.00517,0.02123,-0.01178*
1,1,0.00517,-0.02123,-0.01178*
%
%ADD69ROUNDEDRECTD69*%
%ADD70R,0.09843X0.06693*%
%ADD71R,0.02953X0.03150*%
%ADD72R,0.04400X0.07100*%
G36*
X84831Y363800D02*
Y369804D01*
X93026D01*
Y363800D01*
X84831D01*
D02*
G37*
G36*
X144372Y393756D02*
X144372Y390556D01*
X144372Y390317D01*
X144189Y389876D01*
X143852Y389539D01*
X143411Y389356D01*
X143172Y389356D01*
X143172Y389356D01*
X122772D01*
X122499Y389329D01*
X121994Y389120D01*
X121608Y388734D01*
X121399Y388229D01*
X121372Y387956D01*
D01*
Y384856D01*
Y384478D01*
X121083Y383780D01*
X120548Y383245D01*
X119850Y382956D01*
X119472D01*
D01*
X106172D01*
X105913Y382956D01*
X105436Y383154D01*
X105070Y383520D01*
X104872Y383997D01*
X104872Y384256D01*
X104872Y384256D01*
X104837Y384616D01*
X104561Y385280D01*
X104052Y385789D01*
X103388Y386065D01*
X103028Y386100D01*
D01*
X101172D01*
Y393756D01*
X144372D01*
D02*
G37*
G36*
X155031Y364000D02*
Y370004D01*
X163226D01*
Y364000D01*
X155031D01*
D02*
G37*
G36*
X214300Y393701D02*
Y389700D01*
X193300D01*
X193027Y389673D01*
X192522Y389464D01*
X192136Y389078D01*
X191927Y388573D01*
X191900Y388300D01*
D01*
Y385200D01*
Y384822D01*
X191611Y384124D01*
X191076Y383589D01*
X190378Y383300D01*
X190000D01*
D01*
X160500D01*
Y393701D01*
X214300D01*
D02*
G37*
D21*
X15000Y95750D02*
D03*
D22*
X249046Y314600D02*
D03*
X254951D02*
D03*
X15253Y35200D02*
D03*
X9347D02*
D03*
X108047Y277000D02*
D03*
X113953D02*
D03*
X110506Y253900D02*
D03*
X104600D02*
D03*
X254651Y344900D02*
D03*
X248746D02*
D03*
X363547Y361600D02*
D03*
X369453D02*
D03*
X379547D02*
D03*
X385453D02*
D03*
X324387Y7900D02*
D03*
X330293D02*
D03*
X186223Y308667D02*
D03*
X180318D02*
D03*
X186223Y298400D02*
D03*
X180318D02*
D03*
X169523Y308667D02*
D03*
X163618D02*
D03*
X169523Y298400D02*
D03*
X163618D02*
D03*
D23*
X199762Y174138D02*
D03*
Y178862D02*
D03*
X204762Y174138D02*
D03*
Y178862D02*
D03*
X143800Y243462D02*
D03*
Y238738D02*
D03*
X123700Y83800D02*
D03*
Y88524D02*
D03*
X143800Y228500D02*
D03*
Y233224D02*
D03*
X118700Y83800D02*
D03*
Y88524D02*
D03*
X237952Y11862D02*
D03*
Y7138D02*
D03*
X116800Y191962D02*
D03*
Y187238D02*
D03*
X234252Y26162D02*
D03*
Y21438D02*
D03*
X231152Y26162D02*
D03*
Y21438D02*
D03*
X112100Y197500D02*
D03*
Y202224D02*
D03*
X197637Y43386D02*
D03*
Y48110D02*
D03*
X153200Y205374D02*
D03*
Y200650D02*
D03*
X59600Y53162D02*
D03*
Y48438D02*
D03*
X81400Y12079D02*
D03*
Y7354D02*
D03*
X78300Y26662D02*
D03*
Y21938D02*
D03*
X75100Y26662D02*
D03*
Y21938D02*
D03*
X43500Y82724D02*
D03*
Y78000D02*
D03*
X39900Y82762D02*
D03*
Y78038D02*
D03*
X38426Y56739D02*
D03*
Y61463D02*
D03*
X79700Y65400D02*
D03*
Y60676D02*
D03*
X209800Y268562D02*
D03*
Y263838D02*
D03*
Y273838D02*
D03*
Y278562D02*
D03*
X365900Y213206D02*
D03*
Y208481D02*
D03*
X200900Y325938D02*
D03*
Y330662D02*
D03*
X244900Y363138D02*
D03*
Y367862D02*
D03*
Y382438D02*
D03*
Y387162D02*
D03*
X200900Y301938D02*
D03*
Y306662D02*
D03*
X276700Y126662D02*
D03*
Y121938D02*
D03*
X259800Y201468D02*
D03*
Y206193D02*
D03*
X209762Y178862D02*
D03*
Y174138D02*
D03*
X214762Y178862D02*
D03*
Y174138D02*
D03*
X366269Y250152D02*
D03*
Y254877D02*
D03*
X360931Y250152D02*
D03*
Y254877D02*
D03*
X33400Y169162D02*
D03*
Y164438D02*
D03*
X350100Y162762D02*
D03*
Y158038D02*
D03*
X350400Y188038D02*
D03*
Y192762D02*
D03*
X96600Y84338D02*
D03*
Y89062D02*
D03*
X172000Y72038D02*
D03*
Y76762D02*
D03*
Y81838D02*
D03*
Y86562D02*
D03*
X370700Y58835D02*
D03*
Y54110D02*
D03*
X91900Y12079D02*
D03*
Y7354D02*
D03*
X28500Y69337D02*
D03*
Y74061D02*
D03*
X28400Y44200D02*
D03*
Y39476D02*
D03*
D24*
X307200Y107950D02*
D03*
Y114050D02*
D03*
X303000D02*
D03*
Y107950D02*
D03*
X339800Y61650D02*
D03*
Y55550D02*
D03*
X106600Y232950D02*
D03*
Y239050D02*
D03*
X94500Y150250D02*
D03*
Y144150D02*
D03*
X350500Y144055D02*
D03*
Y150155D02*
D03*
X134200Y189750D02*
D03*
Y183650D02*
D03*
X82200Y30850D02*
D03*
Y36950D02*
D03*
X116800Y258350D02*
D03*
Y264450D02*
D03*
X99400Y265850D02*
D03*
Y271950D02*
D03*
X344200Y44350D02*
D03*
Y50450D02*
D03*
X303000Y49450D02*
D03*
Y55550D02*
D03*
X307300Y60650D02*
D03*
Y66750D02*
D03*
X348500Y50450D02*
D03*
Y44350D02*
D03*
X303000Y103050D02*
D03*
Y96950D02*
D03*
X307300Y92750D02*
D03*
Y86650D02*
D03*
X303000Y92750D02*
D03*
Y86650D02*
D03*
Y149126D02*
D03*
Y143026D02*
D03*
X298465D02*
D03*
Y149126D02*
D03*
Y137876D02*
D03*
Y131776D02*
D03*
X303000Y131826D02*
D03*
Y137926D02*
D03*
X352200Y201450D02*
D03*
Y207550D02*
D03*
X146731Y382850D02*
D03*
Y388950D02*
D03*
X76631Y383094D02*
D03*
Y389194D02*
D03*
X146731Y370650D02*
D03*
Y376750D02*
D03*
X76631Y370444D02*
D03*
Y376544D02*
D03*
D25*
X311100Y160964D02*
D03*
Y155649D02*
D03*
X327100Y153943D02*
D03*
Y159257D02*
D03*
X315500Y160964D02*
D03*
Y155649D02*
D03*
X331532Y153943D02*
D03*
Y159257D02*
D03*
X133638Y300617D02*
D03*
Y295302D02*
D03*
X268700Y252443D02*
D03*
Y257757D02*
D03*
X273100Y252485D02*
D03*
Y257800D02*
D03*
X327900Y247443D02*
D03*
Y252758D02*
D03*
X323300Y247443D02*
D03*
Y252758D02*
D03*
X365800Y222463D02*
D03*
Y217148D02*
D03*
X361400Y222463D02*
D03*
Y217148D02*
D03*
X296200Y108642D02*
D03*
Y113958D02*
D03*
X291800Y108642D02*
D03*
Y113958D02*
D03*
X293200Y194185D02*
D03*
Y199500D02*
D03*
X288800Y194185D02*
D03*
Y199500D02*
D03*
X307300Y55558D02*
D03*
Y50243D02*
D03*
X339900Y50500D02*
D03*
Y45185D02*
D03*
X330500Y27558D02*
D03*
Y22242D02*
D03*
X326100Y27558D02*
D03*
Y22242D02*
D03*
X310600Y24843D02*
D03*
Y30158D02*
D03*
X315000Y24785D02*
D03*
Y30100D02*
D03*
X339700Y102842D02*
D03*
Y108158D02*
D03*
X333200Y124515D02*
D03*
Y119200D02*
D03*
X337600Y124515D02*
D03*
Y119200D02*
D03*
X307300Y97742D02*
D03*
Y103058D02*
D03*
Y143018D02*
D03*
Y148333D02*
D03*
X298433Y121942D02*
D03*
Y127258D02*
D03*
X302900Y121942D02*
D03*
Y127258D02*
D03*
X311700Y124515D02*
D03*
Y119200D02*
D03*
X307300Y124515D02*
D03*
Y119200D02*
D03*
Y137933D02*
D03*
Y132618D02*
D03*
X365800Y235048D02*
D03*
Y240363D02*
D03*
X361400Y235048D02*
D03*
Y240363D02*
D03*
X24300Y232842D02*
D03*
Y238158D02*
D03*
X19900Y232842D02*
D03*
Y238158D02*
D03*
X174800Y137515D02*
D03*
Y132200D02*
D03*
X154142Y137515D02*
D03*
Y132200D02*
D03*
X171531Y357256D02*
D03*
Y362571D02*
D03*
X101331Y357056D02*
D03*
Y362371D02*
D03*
D26*
X321300Y160964D02*
D03*
Y153943D02*
D03*
X232752Y11911D02*
D03*
Y4889D02*
D03*
X221452Y35489D02*
D03*
Y42511D02*
D03*
X76500Y12079D02*
D03*
Y5057D02*
D03*
Y38211D02*
D03*
Y31189D02*
D03*
X286700Y121889D02*
D03*
Y128911D02*
D03*
X298900Y199500D02*
D03*
Y192479D02*
D03*
X320600Y30011D02*
D03*
Y22989D02*
D03*
X179800Y17800D02*
D03*
Y24821D02*
D03*
Y5059D02*
D03*
Y12100D02*
D03*
X172800Y5089D02*
D03*
Y12131D02*
D03*
D27*
X373900Y54898D02*
D03*
Y58835D02*
D03*
X241052Y7531D02*
D03*
Y11468D02*
D03*
X84700Y8142D02*
D03*
Y12079D02*
D03*
X28500Y58100D02*
D03*
Y62037D02*
D03*
X28400Y48137D02*
D03*
Y52074D02*
D03*
X158300Y144869D02*
D03*
Y140931D02*
D03*
X137843Y144900D02*
D03*
Y140963D02*
D03*
D28*
X345200Y61650D02*
D03*
Y54950D02*
D03*
D29*
X344324Y33600D02*
D03*
X339600D02*
D03*
X117738Y224100D02*
D03*
X122462D02*
D03*
X94462Y139700D02*
D03*
X89738D02*
D03*
X138662Y193500D02*
D03*
X133938D02*
D03*
X144438Y209311D02*
D03*
X149162D02*
D03*
X106638Y213248D02*
D03*
X111362D02*
D03*
X144438Y205374D02*
D03*
X149162D02*
D03*
X106638Y209311D02*
D03*
X111362D02*
D03*
X149162Y213200D02*
D03*
X144438D02*
D03*
X68662Y83260D02*
D03*
X63938D02*
D03*
X70438Y69400D02*
D03*
X75162D02*
D03*
X70438Y65400D02*
D03*
X75162D02*
D03*
Y73200D02*
D03*
X70438D02*
D03*
X24662Y35200D02*
D03*
X19938D02*
D03*
X253470Y349200D02*
D03*
X248746D02*
D03*
X254651Y336924D02*
D03*
X249927D02*
D03*
X254651Y340624D02*
D03*
X249927D02*
D03*
X253770Y318900D02*
D03*
X249046D02*
D03*
X254951Y306624D02*
D03*
X250227D02*
D03*
X254951Y310324D02*
D03*
X250227D02*
D03*
X241238Y207594D02*
D03*
X245962D02*
D03*
X241238Y227594D02*
D03*
X245962D02*
D03*
X287624Y78100D02*
D03*
X282900D02*
D03*
X272938D02*
D03*
X277662D02*
D03*
X241538Y232600D02*
D03*
X246262D02*
D03*
X241538Y237600D02*
D03*
X246262D02*
D03*
X108562Y83800D02*
D03*
X103838D02*
D03*
X19838Y218100D02*
D03*
X24562D02*
D03*
X19738Y138100D02*
D03*
X24462D02*
D03*
X171638Y110963D02*
D03*
X176362D02*
D03*
X176162Y107800D02*
D03*
X171438D02*
D03*
X329112Y4100D02*
D03*
X324387D02*
D03*
X353700Y32000D02*
D03*
X358424D02*
D03*
X9316Y342800D02*
D03*
X14040D02*
D03*
D30*
X343537Y30000D02*
D03*
X339600D02*
D03*
X138600Y217000D02*
D03*
X134663D02*
D03*
X64954Y78160D02*
D03*
X61017D02*
D03*
X175969Y117100D02*
D03*
X172031D02*
D03*
X175969Y103383D02*
D03*
X172032D02*
D03*
X175969Y114063D02*
D03*
X172032D02*
D03*
X353700Y28600D02*
D03*
X357637D02*
D03*
X13253Y345900D02*
D03*
X9316D02*
D03*
X169940Y132200D02*
D03*
X166003D02*
D03*
X149411D02*
D03*
X145474D02*
D03*
D31*
X66000Y265798D02*
D03*
Y201231D02*
D03*
D32*
X133598Y305645D02*
D03*
X137338D02*
D03*
X141078D02*
D03*
Y316275D02*
D03*
X137338D02*
D03*
X133598D02*
D03*
X210433Y37759D02*
D03*
X206693D02*
D03*
X202953D02*
D03*
Y47641D02*
D03*
X206693D02*
D03*
X210433D02*
D03*
X54540Y37759D02*
D03*
X50800D02*
D03*
X47060D02*
D03*
Y47641D02*
D03*
X50800D02*
D03*
X54540D02*
D03*
D33*
X130327Y322660D02*
D03*
X137369D02*
D03*
X293689Y61000D02*
D03*
X300711D02*
D03*
X238011Y66300D02*
D03*
X230989D02*
D03*
X342689Y119200D02*
D03*
X349711D02*
D03*
X33611Y153900D02*
D03*
X26589D02*
D03*
X175500Y171600D02*
D03*
X182521D02*
D03*
X9316Y337800D02*
D03*
X16337D02*
D03*
X162789Y171600D02*
D03*
X169831D02*
D03*
X162789Y178500D02*
D03*
X169831D02*
D03*
X130327Y329560D02*
D03*
X137369D02*
D03*
X117448Y317660D02*
D03*
X110407D02*
D03*
X117448Y324560D02*
D03*
X110407D02*
D03*
D34*
X265635Y203437D02*
D03*
Y201468D02*
D03*
Y199500D02*
D03*
Y197531D02*
D03*
Y195563D02*
D03*
X282565D02*
D03*
Y197531D02*
D03*
Y199500D02*
D03*
Y201468D02*
D03*
Y203437D02*
D03*
D35*
X195156Y214188D02*
D03*
Y208676D02*
D03*
Y219700D02*
D03*
X200668Y208676D02*
D03*
Y214188D02*
D03*
Y219700D02*
D03*
X189644Y208676D02*
D03*
Y214188D02*
D03*
Y219700D02*
D03*
D36*
X164762Y185645D02*
D03*
X169762D02*
D03*
X174762D02*
D03*
X179762D02*
D03*
X184762D02*
D03*
X189762D02*
D03*
X194762D02*
D03*
X199762D02*
D03*
X204762D02*
D03*
X209762D02*
D03*
X214762D02*
D03*
X219762D02*
D03*
X224762D02*
D03*
X229762D02*
D03*
Y254542D02*
D03*
X224762D02*
D03*
X219762D02*
D03*
X214762D02*
D03*
X209762D02*
D03*
X204762D02*
D03*
X199762D02*
D03*
X194762D02*
D03*
X189762D02*
D03*
X184762D02*
D03*
X179762D02*
D03*
X174762D02*
D03*
X169762D02*
D03*
X164762D02*
D03*
D37*
X234683Y192594D02*
D03*
Y197594D02*
D03*
Y202594D02*
D03*
Y207594D02*
D03*
Y212594D02*
D03*
Y217594D02*
D03*
Y222594D02*
D03*
Y227594D02*
D03*
Y232594D02*
D03*
Y237594D02*
D03*
Y242594D02*
D03*
Y247594D02*
D03*
D38*
X117756Y243500D02*
D03*
X137244Y233500D02*
D03*
Y238500D02*
D03*
Y243500D02*
D03*
X117756Y238500D02*
D03*
Y233500D02*
D03*
Y228500D02*
D03*
X137244D02*
D03*
X101256Y154700D02*
D03*
X120744Y144700D02*
D03*
Y149700D02*
D03*
Y154700D02*
D03*
X101256Y149700D02*
D03*
Y144700D02*
D03*
Y139700D02*
D03*
X120744D02*
D03*
X313756Y60500D02*
D03*
X333244Y50500D02*
D03*
Y55500D02*
D03*
Y60500D02*
D03*
X313756Y55500D02*
D03*
Y50500D02*
D03*
Y45500D02*
D03*
X333244D02*
D03*
Y98000D02*
D03*
X313756Y108000D02*
D03*
Y103000D02*
D03*
Y98000D02*
D03*
X333244Y103000D02*
D03*
Y108000D02*
D03*
Y113000D02*
D03*
X313756D02*
D03*
X333244Y132876D02*
D03*
X313756Y142876D02*
D03*
Y137876D02*
D03*
Y132876D02*
D03*
X333244Y137876D02*
D03*
Y142876D02*
D03*
Y147876D02*
D03*
X313756D02*
D03*
X333244Y197000D02*
D03*
X313756Y207000D02*
D03*
Y202000D02*
D03*
Y197000D02*
D03*
X333244Y202000D02*
D03*
Y207000D02*
D03*
Y212000D02*
D03*
X313756D02*
D03*
D39*
X117143Y213248D02*
D03*
Y209311D02*
D03*
Y205374D02*
D03*
Y201437D02*
D03*
Y197500D02*
D03*
X138600Y213248D02*
D03*
Y209311D02*
D03*
Y205374D02*
D03*
Y201437D02*
D03*
Y197500D02*
D03*
X43498Y73274D02*
D03*
Y69337D02*
D03*
Y65400D02*
D03*
Y61463D02*
D03*
Y57526D02*
D03*
X64954Y73274D02*
D03*
Y69337D02*
D03*
Y65400D02*
D03*
Y61463D02*
D03*
Y57526D02*
D03*
D40*
X127872Y205374D02*
D03*
X54226Y65400D02*
D03*
D41*
X316527Y262800D02*
D03*
Y257800D02*
D03*
Y252800D02*
D03*
Y247800D02*
D03*
Y242800D02*
D03*
Y237800D02*
D03*
Y232800D02*
D03*
Y227800D02*
D03*
X279873D02*
D03*
Y232800D02*
D03*
Y237800D02*
D03*
Y242800D02*
D03*
Y247800D02*
D03*
Y252800D02*
D03*
Y257800D02*
D03*
Y262800D02*
D03*
D42*
X241926Y330700D02*
D03*
Y320700D02*
D03*
X207674D02*
D03*
Y330700D02*
D03*
X253274Y357900D02*
D03*
Y367900D02*
D03*
X287526D02*
D03*
Y357900D02*
D03*
X242026Y306700D02*
D03*
Y296700D02*
D03*
X207774D02*
D03*
Y306700D02*
D03*
X253174Y377100D02*
D03*
Y387100D02*
D03*
X287426D02*
D03*
Y377100D02*
D03*
D43*
X271700Y94456D02*
D03*
X281700Y113944D02*
D03*
X276700D02*
D03*
X271700D02*
D03*
X276700Y94456D02*
D03*
X281700D02*
D03*
X286700D02*
D03*
Y113944D02*
D03*
X272800Y43856D02*
D03*
X282800Y63344D02*
D03*
X277800D02*
D03*
X272800D02*
D03*
X277800Y43856D02*
D03*
X282800D02*
D03*
X287800D02*
D03*
Y63344D02*
D03*
X259374Y76304D02*
D03*
X249374Y56816D02*
D03*
X254374D02*
D03*
X259374D02*
D03*
X254374Y76304D02*
D03*
X249374D02*
D03*
X244374D02*
D03*
Y56816D02*
D03*
X166631Y376744D02*
D03*
Y357256D02*
D03*
X161632D02*
D03*
X156632D02*
D03*
X151631Y376744D02*
D03*
X156632D02*
D03*
X161632D02*
D03*
X151631Y357256D02*
D03*
X96431Y376544D02*
D03*
Y357056D02*
D03*
X91431D02*
D03*
X86431D02*
D03*
X81432Y376544D02*
D03*
X86431D02*
D03*
X91431D02*
D03*
X81432Y357056D02*
D03*
D44*
X326473Y119760D02*
D03*
Y127240D02*
D03*
X318127Y123500D02*
D03*
X120827Y177140D02*
D03*
Y169660D02*
D03*
X129173Y173400D02*
D03*
X64427Y51340D02*
D03*
Y43860D02*
D03*
X72773Y47600D02*
D03*
X58147Y83260D02*
D03*
Y90740D02*
D03*
X49800Y87000D02*
D03*
X249927Y331965D02*
D03*
Y324484D02*
D03*
X258273Y328224D02*
D03*
X250227Y301965D02*
D03*
Y294484D02*
D03*
X258573Y298224D02*
D03*
X28773Y164460D02*
D03*
Y171940D02*
D03*
X20427Y168200D02*
D03*
D45*
X137106Y37472D02*
D03*
X142617D02*
D03*
X131594D02*
D03*
X142617Y42984D02*
D03*
X137106D02*
D03*
X131594D02*
D03*
X142617Y31961D02*
D03*
X137106D02*
D03*
X131594D02*
D03*
D46*
X165649Y7079D02*
D03*
Y12079D02*
D03*
Y17079D02*
D03*
Y22079D02*
D03*
Y27079D02*
D03*
Y32079D02*
D03*
Y37079D02*
D03*
Y42079D02*
D03*
Y47079D02*
D03*
Y52079D02*
D03*
Y57079D02*
D03*
Y62079D02*
D03*
Y67079D02*
D03*
Y72079D02*
D03*
X96751D02*
D03*
Y67079D02*
D03*
Y62079D02*
D03*
Y57079D02*
D03*
Y52079D02*
D03*
Y47079D02*
D03*
Y42079D02*
D03*
Y37079D02*
D03*
Y32079D02*
D03*
Y27079D02*
D03*
Y22079D02*
D03*
Y17079D02*
D03*
Y12079D02*
D03*
Y7079D02*
D03*
D47*
X158700Y77000D02*
D03*
X153700D02*
D03*
X148700D02*
D03*
X143700D02*
D03*
X138700D02*
D03*
X133700D02*
D03*
X128700D02*
D03*
X123700D02*
D03*
X118700D02*
D03*
X113700D02*
D03*
X108700D02*
D03*
X103700D02*
D03*
D48*
X162460Y136554D02*
D03*
X169940D02*
D03*
X166200Y144900D02*
D03*
X141902Y136554D02*
D03*
X149383D02*
D03*
X145642Y144900D02*
D03*
X129140Y191973D02*
D03*
X121660D02*
D03*
X125400Y183627D02*
D03*
X104360Y263627D02*
D03*
X111840D02*
D03*
X108100Y271973D02*
D03*
X345760Y95553D02*
D03*
X353240D02*
D03*
X349500Y103900D02*
D03*
X139460Y176590D02*
D03*
X146940D02*
D03*
X143200Y184936D02*
D03*
X41080Y48137D02*
D03*
X33600D02*
D03*
X37340Y39791D02*
D03*
D49*
X388460Y38165D02*
D03*
X381767D02*
D03*
X388460Y58835D02*
D03*
X381767D02*
D03*
D50*
X353700Y7907D02*
D03*
Y21293D02*
D03*
X339600Y7907D02*
D03*
Y21293D02*
D03*
D51*
X7907Y58100D02*
D03*
X21293D02*
D03*
X7907Y44200D02*
D03*
X21293D02*
D03*
D52*
X104350Y258300D02*
D03*
X110450D02*
D03*
X369450Y357000D02*
D03*
X363350D02*
D03*
X385500D02*
D03*
X379400D02*
D03*
X319600Y354600D02*
D03*
X313500D02*
D03*
X349650D02*
D03*
X343550D02*
D03*
X288950Y74300D02*
D03*
X282850D02*
D03*
X271650D02*
D03*
X277750D02*
D03*
X243224Y45916D02*
D03*
X249324D02*
D03*
Y41516D02*
D03*
X243224D02*
D03*
X254424D02*
D03*
X260524D02*
D03*
Y46016D02*
D03*
X254424D02*
D03*
X327150Y39600D02*
D03*
X333250D02*
D03*
X314250D02*
D03*
X320350D02*
D03*
X321150Y66400D02*
D03*
X327250D02*
D03*
X345750Y112800D02*
D03*
X339650D02*
D03*
X311181Y217100D02*
D03*
X317282D02*
D03*
X311181Y191900D02*
D03*
X317282D02*
D03*
X26550Y159600D02*
D03*
X20450D02*
D03*
X179650Y314200D02*
D03*
X185750D02*
D03*
X179650Y303933D02*
D03*
X185750D02*
D03*
X162950Y314200D02*
D03*
X169050D02*
D03*
X162950Y303933D02*
D03*
X169050D02*
D03*
X145688Y305660D02*
D03*
X151788D02*
D03*
Y297060D02*
D03*
X145688D02*
D03*
Y301360D02*
D03*
X151788D02*
D03*
Y316260D02*
D03*
X145688D02*
D03*
X151281Y387700D02*
D03*
X157381D02*
D03*
X156581Y350200D02*
D03*
X150481D02*
D03*
X81081Y387544D02*
D03*
X87182D02*
D03*
X86431Y350200D02*
D03*
X80331D02*
D03*
X91382Y387544D02*
D03*
X97482D02*
D03*
Y383144D02*
D03*
X91382D02*
D03*
D53*
X327456Y91400D02*
D03*
X320756D02*
D03*
X333000D02*
D03*
X339700D02*
D03*
D54*
X112445Y301660D02*
D03*
X125831D02*
D03*
D55*
X200731Y383209D02*
D03*
Y359390D02*
D03*
X129931Y383209D02*
D03*
Y359390D02*
D03*
D56*
X211805Y29681D02*
D03*
X215742D02*
D03*
X213773D02*
D03*
X209836D02*
D03*
X207868D02*
D03*
X205899D02*
D03*
X203931D02*
D03*
X201962D02*
D03*
X55753D02*
D03*
X59690D02*
D03*
X57721D02*
D03*
X53784D02*
D03*
X51816D02*
D03*
X49847D02*
D03*
X47879D02*
D03*
X45910D02*
D03*
D57*
X221450D02*
D03*
X218301D02*
D03*
X199403D02*
D03*
X196254D02*
D03*
X65398D02*
D03*
X62249D02*
D03*
X43351D02*
D03*
X40202D02*
D03*
D58*
X387256Y204150D02*
D03*
Y222261D02*
D03*
D59*
X372000Y217143D02*
D03*
Y213206D02*
D03*
Y209268D02*
D03*
D60*
X373677Y274758D02*
D03*
Y269837D02*
D03*
Y264916D02*
D03*
Y259995D02*
D03*
Y255073D02*
D03*
Y250152D02*
D03*
Y245231D02*
D03*
X373800Y240406D02*
D03*
D61*
X385217Y284799D02*
D03*
Y230366D02*
D03*
D62*
X183912Y97535D02*
D03*
Y99504D02*
D03*
Y101472D02*
D03*
Y103441D02*
D03*
Y105409D02*
D03*
Y107378D02*
D03*
Y109346D02*
D03*
Y111315D02*
D03*
Y113284D02*
D03*
Y115252D02*
D03*
Y117220D02*
D03*
Y119189D02*
D03*
Y121158D02*
D03*
Y123126D02*
D03*
Y125094D02*
D03*
Y127063D02*
D03*
Y129032D02*
D03*
Y131000D02*
D03*
Y132968D02*
D03*
Y134937D02*
D03*
Y136906D02*
D03*
Y138874D02*
D03*
Y140842D02*
D03*
Y142811D02*
D03*
D63*
X190900Y149386D02*
D03*
Y90961D02*
D03*
D64*
X75400Y325032D02*
D03*
Y341568D02*
D03*
D65*
X193937Y48101D02*
D03*
Y42195D02*
D03*
X88300Y7354D02*
D03*
Y13260D02*
D03*
D66*
X267600Y328224D02*
D03*
Y343972D02*
D03*
Y298224D02*
D03*
Y313972D02*
D03*
X179732Y361526D02*
D03*
Y377274D02*
D03*
X109432Y361626D02*
D03*
Y377374D02*
D03*
D67*
X290013Y168500D02*
D03*
X304187D02*
D03*
Y177600D02*
D03*
X290013D02*
D03*
X243013Y168500D02*
D03*
X257187D02*
D03*
Y177600D02*
D03*
X243013D02*
D03*
X266513Y168500D02*
D03*
X280687D02*
D03*
Y177600D02*
D03*
X266513D02*
D03*
D68*
X124038Y316446D02*
D03*
Y329674D02*
D03*
D69*
X156452Y322560D02*
D03*
X143224D02*
D03*
D70*
X28226Y340400D02*
D03*
X43974D02*
D03*
D71*
X124742Y254200D02*
D03*
X130058D02*
D03*
X124643Y249500D02*
D03*
X129957D02*
D03*
X132757Y149700D02*
D03*
X127443D02*
D03*
X132757Y154200D02*
D03*
X127443D02*
D03*
X149458Y201500D02*
D03*
X144142D02*
D03*
X149458Y197100D02*
D03*
X144142D02*
D03*
X75978Y57000D02*
D03*
X70663D02*
D03*
X75978Y61500D02*
D03*
X70663D02*
D03*
X282800Y69900D02*
D03*
X288115D02*
D03*
X296143Y70900D02*
D03*
X301458D02*
D03*
X296143Y66500D02*
D03*
X301458D02*
D03*
X298257Y55400D02*
D03*
X292943D02*
D03*
X298257Y51000D02*
D03*
X292943D02*
D03*
X277758Y69900D02*
D03*
X272443D02*
D03*
X249331Y50316D02*
D03*
X244017D02*
D03*
X236304Y56400D02*
D03*
X230989D02*
D03*
X236304Y60800D02*
D03*
X230989D02*
D03*
X232696Y71900D02*
D03*
X238011D02*
D03*
X232696Y76300D02*
D03*
X238011D02*
D03*
X254416Y50316D02*
D03*
X259732D02*
D03*
X320456Y35300D02*
D03*
X315141D02*
D03*
X327256Y70900D02*
D03*
X321941D02*
D03*
X344396Y129500D02*
D03*
X349711D02*
D03*
X344396Y125000D02*
D03*
X349711D02*
D03*
X327929Y221400D02*
D03*
X333244D02*
D03*
X327929Y217000D02*
D03*
X333244D02*
D03*
X163615Y149900D02*
D03*
X158300D02*
D03*
X143157D02*
D03*
X137843D02*
D03*
X151274Y383300D02*
D03*
X156589D02*
D03*
X81116Y383044D02*
D03*
X86431D02*
D03*
D72*
X200832Y340100D02*
D03*
X188631D02*
D03*
X200832Y348700D02*
D03*
X188631D02*
D03*
X161632Y348600D02*
D03*
X173831D02*
D03*
X161632Y340300D02*
D03*
X173831D02*
D03*
X129931Y348644D02*
D03*
X117731D02*
D03*
X129931Y340244D02*
D03*
X117731D02*
D03*
X91431Y348444D02*
D03*
X103631D02*
D03*
X91431Y340244D02*
D03*
X103631D02*
D03*
M02*
