M48
;Layer_Color=9474304
;FILE_FORMAT=2:5
INCH,LZ
;TYPE=PLATED
T01F00S00C0.01181
T02F00S00C0.01968
T03F00S00C0.03346
T04F00S00C0.03504
T05F00S00C0.03900
T06F00S00C0.04016
T07F00S00C0.04724
T08F00S00C0.05512
T09F00S00C0.06299
T10F00S00C0.06417
T11F00S00C0.06693
T13F00S00C0.12598
;TYPE=NON_PLATED
T14F00S00C0.07087
T15F00S00C0.11024
T16F00S00C0.12795
%
T01
X003154Y0031249
X0035433Y0031496
X003937
X0043307
X0047244
Y0035433
X0031496
Y003937
Y0043307
Y0047244
Y0051181
X0035433
X003937
X0043307
X0047244
X0240089Y0053806
X0250787Y0040197
X0259842Y0039764
X0267717
Y0031496
Y0027559
X0271654
X027559
X0279528
X0283465
X0287402
X029626Y0030945
X0295276Y0035433
Y003937
X0374016Y015748
X038189Y0165354
X0385827
X0389764
Y0185039
X0385827
X0377953
X0370079
X038189Y0200787
X0385827
X0389764
X0355635Y021115
X0332677Y0210832
Y0205832
Y0185832
Y0170832
X034252Y0169291
X0346457
X0350394
Y0173228
Y0177165
X0355635Y0183864
X0365709Y0164572
X0267717Y0181102
X0263779Y0177165
X0251969
X025185Y0180827
X0248031Y0173228
X0251969Y0166929
X0236886Y0156024
X0247638Y0118504
Y0114567
Y011063
Y0106693
X0244094Y0102362
Y0098425
X0240394Y0088116
Y007558
X0239896Y0060793
X0268819Y0057446
X027622Y0057486
X0279842Y0057446
X0283583
X0288819Y0069131
Y0072084
X0290512Y0076187
X0290457Y0079194
X0291968Y0091383
X0286299Y0091423
X0277165Y0098032
Y0118504
X0271654Y0121653
X0267717
X0263779
Y0090551
Y0086614
X0271654Y0074803
Y0070866
X027559
Y0074803
X0291339Y0106299
X0289449Y0209612
X0286693Y0212368
X0281181
X0283937Y0209612
X0292205Y0212368
X0220984Y0207519
Y0201417
Y0195107
X0220905Y0189016
X0206303Y0195107
X020626Y020748
X015748Y0188976
Y0185039
Y0181102
Y0177165
X0149606
X0145669
X0141732Y0173228
Y0169291
Y0165354
Y0161417
Y0153543
X0145669
X0129921Y015748
Y0165354
X0125984Y0173228
X0121426Y0177099
X0114173Y0177165
X0102362
X0094488
X0090551Y0181102
X0085704Y0178851
X0086614Y0185039
X0082677Y0188976
X0074803
X0066929
X0059055
Y015748
X0069331Y0157368
X0074803Y015748
Y0153543
X0086614Y0145669
X0090551Y0137795
Y0133858
Y0129921
Y0125984
X0094488
X0094692Y0129801
X0094643Y0133856
X0094488Y0137795
X0098425Y0145669
X011811Y0133858
X0122047
Y0129921
X011811
Y0125984
X0122047
Y0122047
X011811
X0102362Y0114173
X0097867Y0114034
X0090551Y0114173
X0082677
X0062992Y0125984
X0065827Y0133898
X0141732Y0133858
X0145669Y0125984
Y0122047
Y011811
Y0114173
X0106299Y019685
X0094488Y0188976
X0051181Y0185039
Y0177165
X0050551Y0160984
X0047244Y0153543
X003937Y0141732
Y0133858
Y0125984
X0023622
Y0122047
Y0129921
X0031496Y0133858
Y0141732
X0023622
X0019882Y0144528
X0014055Y0139685
X0009291Y0160197
X0003937Y0169291
Y0177165
Y0185039
X0007717
X0019685Y0181102
X0027559
X0035433
Y0188976
Y019685
X0027559Y0188976
X0017121Y0210557
X0035433Y0066929
Y0062992
Y0059055
X003937Y0066929
X0043307
X0094488Y0232283
Y0240158
Y0248031
X0106299
X011811
Y0240158
Y0232283
X0106299
X0129921Y0236221
X0141732
X0149606
X0149203Y0230054
X0141732Y0248031
Y0255906
Y0263779
X0137795Y0267717
X0129921
X0122047
X0111024Y0259882
X0177165Y0267717
X0181102
X0202992Y0265537
Y0262584
X0208268Y0261417
Y0266535
X0206693Y0269685
X0204724Y0251969
Y0248031
Y0244094
X020626Y0232341
Y021993
X0185774Y0228161
X0220905Y022622
X0220984Y0232341
Y021993
X0223937Y0217717
X0240158Y0216535
X0244094
Y0220472
X0240158
X025189Y0220832
Y0215832
Y0225832
Y0230827
X0265827Y0235787
X0263779Y0240158
Y0244094
X0267717
Y0248031
X0263779
X0251969Y0255906
Y0259842
X0244094Y0255906
Y0251969
X0236221
Y0255906
Y0259842
X0281181Y021788
X0283937Y0220635
X0286693Y021788
X0289449Y0220635
X0292205Y021788
X0289449Y0215124
X0283937
X0332677Y0220832
Y0235832
Y0240832
X0334646Y0251969
X0330709
Y0255906
X0318898Y0240158
Y0236221
X0355635Y023335
T02
X0009067Y0009067
X0015748Y0006299
X0022429Y0009067
X0025197Y0015748
X0022429Y0022429
X0015748Y0025197
X0009067Y0022429
X0006299Y0015748
X0368504
X0371271Y0022429
X0377953Y0025197
X0384634Y0022429
X0387402Y0015748
X0384634Y0009067
X0377953Y0006299
X0371271Y0009067
X0022429Y0253161
X0025197Y0259842
X0022429Y0266524
X0015748Y0269291
X0009067Y0266524
X0006299Y0259842
X0009067Y0253161
X0015748Y0250394
X0368504Y0259842
X0371271Y0266524
X0377953Y0269291
X0384634Y0266524
X0387402Y0259842
X0384634Y0253161
X0377953Y0250394
X0371271Y0253161
T03
X0019882Y016473
Y017473
X0029882
Y016473
T04
X0315669Y0061364
Y0071364
Y0081364
Y0091364
X0325669Y0086364
Y0076364
Y0066364
Y0056364
T05
X0191457Y0030669
X0201299
X0211142
Y0087756
X0191457
T06
X0369961Y0047801
Y0057801
Y0089966
Y0099966
T07
X0126339Y0033976
X0146024
Y0083189
X0126339
T08
X0386417Y020725
X0172224Y0243352
X0157224
X0386417Y022725
Y021725
T09
X0041063Y0040472
X0061063
T10
X0338661Y0043391
Y0104376
T11
X005937Y0076187
Y0094691
Y0113195
X0008386Y0104533
Y0084848
T13
X0015748Y0015748
X0377953
X0015748Y0259842
X0377953
T14
X0118465Y0058583
X0153898
T15
X0344488Y0132958
X0049213
Y0255006
X0344488
T16
X0350669Y0051384
Y0096384
M30
