M48
;Layer_Color=9474304
;FILE_FORMAT=2:4
INCH,TZ
;TYPE=PLATED
T01F00S00C0.0157
T02F00S00C0.0197
T03F00S00C0.0276
T04F00S00C0.0433
T05F00S00C0.0472
T06F00S00C0.0551
T07F00S00C0.0630
T08F00S00C0.0669
T09F00S00C0.1260
T10F00S00C0.1339
;TYPE=NON_PLATED
T11F00S00C0.0295
T12F00S00C0.0413
T13F00S00C0.0512
%
T01
X787Y3110
X1417
X2008
X2598
X3386Y2913
Y2323
Y1772
Y1220
Y630
X3988Y2112
X3972Y2612
X5518Y3612
X1480Y3940
X1457Y5157
X787
X2129Y5150
X5880Y4610
X8350Y3927
Y3376
X8901
X8626Y3651
X8901Y3927
X9452
Y3376
X9177Y3651
Y3100
X8626
Y4202
X9177
X11160Y3040
X12590Y2570
X14086Y2501
X14803Y2490
X14567Y295
X15059
X15551
X16043
X16535
X14075
X11063Y630
Y1142
X10551
Y591
X6142Y630
X5669
Y1142
X6142
X19291Y886
Y295
X19882
X20571
X19943Y1274
X19291Y1575
Y2264
Y2953
X19587Y3642
X20571Y4626
X23280Y2161
X25098Y2756
Y3346
Y3937
X25787
X26969Y4291
X27559
X27953Y3937
X28740
X29528
X30118
X30709Y3829
X30118Y3219
X29528
X31654Y3228
X32166Y3508
X33109Y3062
X34035Y3681
X34961Y3465
X35640
X34941Y4931
Y295
X35630
X36299
X34252
X33661
X32972
X31398
X30020
X38386Y3150
X39075
Y3937
X37008Y6693
Y7480
Y8268
Y9055
Y9843
Y10630
Y11516
Y12402
Y14567
Y15384
Y16142
Y16929
Y17717
Y18563
Y19390
X38058Y14121
X36201Y15394
X34528Y14094
X34980Y13614
X33701Y13976
X33386Y16260
X32913Y16535
X32362
X31299Y16732
Y17244
X30420Y18470
X29900Y18500
X30510Y19430
X30609Y20200
Y20700
X32785Y19341
X33327Y19331
Y18415
X32785
X36201Y18563
X35157Y19646
X27392Y19744
X28070Y18463
X25080Y17770
X25181Y20231
X25490Y20920
X25980Y21025
X26585Y20915
X24400Y21240
X22040Y20759
X21476Y17063
X21850Y15315
X23031
X23848Y15285
X24281
X24747
X25236
X27461Y15266
X27165Y14134
X28740
X28800Y13158
X28612Y11614
X27608Y11604
X27530Y10433
Y9940
X26969Y9941
Y10433
X27362Y6378
X27913
Y5866
X28543
Y6988
X29134
X29724
X30315
X30440Y7750
X31186Y9104
X32126Y6772
X32320Y11460
X30945Y12953
X30270Y16096
X29724Y15748
X29134
X23031Y14094
X21850
Y13189
Y12520
Y11811
X21535Y8278
Y7864
X23848Y8868
X23701Y5679
X27127Y5878
X36220Y8268
X21043Y8278
X21053Y7844
X21010Y11811
Y12520
Y13189
X20171
Y12520
Y11811
X19331
Y12520
Y13189
Y14567
X18307
X17126
X16110Y14570
X16260Y15827
Y16378
X15551
Y15827
Y17165
Y17835
Y18583
Y19252
X16181
X16811
Y19921
X16181
X15551
X14764Y17835
Y17165
X13692Y16340
X11613
X11220Y15827
X11260Y14252
X10709Y14213
X10197
X9606
Y13622
Y13071
X9055
Y13661
X9076Y14356
X10197Y13622
X10709
X10197Y13071
X8040Y12600
X6444Y14385
X6004Y14961
Y15846
Y16634
Y17421
X6299Y18799
X6988
X7677Y19390
Y20079
Y20768
X9291Y20945
Y20394
Y19803
X9843
Y19331
X10354
X10433Y17717
Y16968
X9685
Y17717
X8937
Y16929
Y16181
X9685
X7977Y17560
X7603
X11740Y20550
X12210
Y21045
X11740
X18971Y21143
X19247Y20868
X19522Y21143
X19798Y20868
X20074Y21143
X18476Y19170
X17976
X17479Y17812
X17400Y16450
X17850
X18300
X18307Y15827
X19331
X20669
X20476Y17063
X19976
X19476
X18976
X20976
X20984Y14094
X20157
X17126Y15827
X16930Y16450
X14146Y14647
X15925Y12067
X15927Y11663
X16893
X17752Y10282
X18543Y10344
X14246Y10260
X12580Y8090
X10561Y8299
X11160Y6612
X4850Y7570
X5039Y9646
Y10236
X5316Y13348
X5315Y13780
Y14173
X4030Y15390
X3990Y16420
X2930Y13810
X2850Y7850
X3180Y6050
X787Y6496
X276Y22244
Y22795
Y23307
X1969Y22795
X2559
X3110
Y22283
X3109Y21810
X3701Y22283
Y22795
Y23307
X3110
X2950Y23940
Y24520
X2380
X2362Y25118
Y25669
X2953
X3504
Y25118
X2953
X3520Y24510
X3530Y23930
X4331Y23307
X4350Y22600
X4920Y22610
Y21980
X4350Y21940
X3346Y33169
X2756
X2165
X1575
X2165Y34744
Y35236
X2756
Y34744
X3346
Y35236
Y35787
Y36299
Y36811
X3898
Y36299
X4449
Y36811
X5039
Y36299
X5591
Y36811
X5039Y34724
X4449
X3898
X7480Y35039
Y36614
X8591Y34012
X9803Y33346
X10394
Y32677
X9803Y32638
Y31969
X10394
X11063
X11024Y33760
Y34350
Y34941
X13573Y34850
X13570Y34280
Y33710
X14170
Y34280
Y34850
X14673Y36590
X14900Y32500
Y32000
X14380
Y32500
Y31449
X14900Y31450
X15551Y31280
X13386Y32087
Y28839
X14370
X12303Y29232
X11614
X11772Y27559
X12362
X12913Y26969
X12904Y25856
X12913Y25276
X15827
Y24606
Y23976
X16496
X17126
Y24606
X16496
X17990Y26760
X18460
X18990Y26460
X18976Y26050
X18937Y28150
X18386
Y28740
X18937
X18950Y29400
Y29950
Y30500
X18400
Y29950
Y29400
X20090Y29670
X20459Y27843
X20090Y32070
X19094Y32283
Y33031
Y31535
X17559Y32283
Y33031
X18032Y33819
Y34409
Y35000
X20600Y34900
Y34400
Y33900
X21200
Y34400
Y34900
X19798Y21970
X19247
Y21419
X19522Y21694
X19798Y21419
X20074Y21694
X18971
X13820Y21860
X13286
X12210Y21540
X11740
X10551Y23150
X10039Y25236
Y25866
Y26417
X10551Y27559
X11142
X8110Y26978
X7677Y21358
X6988
X6398
X22930Y21759
X22610Y22260
X22320Y22750
X24380Y22250
X24041Y21759
X25980Y21920
Y21500
X27704Y21514
X27420Y21810
X27130Y22130
X26800Y22450
X26880Y24646
X26309
Y25236
X26380Y25800
X25810
X23475Y25890
X22990Y26153
X21330Y26384
Y27856
X22205Y28504
X22638
X23465Y28543
X23376Y29670
X22953Y29409
X23376Y32070
X24211Y31290
X25890Y31460
X25906Y29016
X25890Y34490
X25894Y34920
X27730Y35790
X30770Y35460
X33830
X24016Y36417
X23031Y35787
X24211Y33690
X24220Y24250
X24660Y24260
X25080Y23760
Y23260
X30512Y22283
X30531Y21713
X31181Y22283
X31811
X32795Y22677
X33366Y22687
X34350Y22640
X33860Y22140
X34016Y24596
X34587Y24577
X33396Y24596
X32362Y25787
X31660Y26780
X35050Y25480
X35560Y25960
X35610Y25015
X36640Y26500
X37913Y25472
Y24961
Y24449
Y23937
X38356Y27136
X38839
Y27618
X38357Y27617
X37940Y35249
X36939Y35256
X37450Y36160
X29550Y37700
X26181Y38976
X22087Y39094
Y38622
X21457
Y39094
X18898
Y38622
X18110
Y39094
X17323
Y38622
X16535
Y39094
X11713Y39075
Y38583
X11024
Y39075
X10335
X10180Y38320
X7087Y37795
X7033Y37040
X7087Y38976
X6299
X5512
T02
X907Y907
X630Y1575
X907Y2243
X1575Y2520
X2243Y2243
X2520Y1575
X2243Y907
X1575Y630
X36850Y1575
X37127Y907
X37795Y630
X38463Y907
X38740Y1575
X38463Y2243
X37795Y2520
X37127Y2243
X1575Y36850
X37795
X37127Y37127
Y38463
X37795Y38740
X38463Y38463
X38740Y37795
X38463Y37127
X36850Y37795
X2520
X2243Y38463
X1575Y38740
X907Y38463
X630Y37795
X907Y37127
X2243
T03
X22281Y5148
X24311Y4301
X25689Y5594
X29140Y10115
X23337Y11240
X26660Y15810
X34419Y6240
T04
X34143Y15806
Y16806
Y17806
Y18806
X1060Y18810
Y19810
Y20810
Y17810
Y16810
Y15810
Y14810
Y13810
Y12810
Y11810
Y10810
Y21810
Y22810
Y23810
T05
X27847Y29822
Y31673
X27857Y32822
Y34673
X32384Y32822
X35140
X35130Y29822
X32374
T06
X14560Y1080
X15560
X16560
X24305Y3219
X25805
X27305
X28805
X36191Y4465
Y5965
Y7465
Y9621
Y11121
Y12621
Y14121
Y16282
Y17782
Y19952
X10400Y20407
Y21407
Y22407
X36191Y21452
X36190Y29822
Y31322
Y32822
Y34322
X34965Y36220
X33465
X31965
X30465
T07
X4400Y35555
X6400
T08
X932Y29752
Y31721
X6030Y32587
Y30736
Y28886
T09
X1575Y1575
X37795
Y37795
X1575
T10
X34143Y7656
X1454
Y26964
X34143
T11
X34616Y648
Y1731
T12
X6600Y21973
T13
X6600Y24907
M30
