M48
;Layer_Color=9474304
;FILE_FORMAT=2:4
INCH,TZ
;TYPE=PLATED
T01F00S00C0.0157
T02F00S00C0.0197
T04F00S00C0.0276
T05F00S00C0.0280
T06F00S00C0.0433
T07F00S00C0.0472
T08F00S00C0.0551
T09F00S00C0.0630
T10F00S00C0.0669
T11F00S00C0.1260
T12F00S00C0.1339
;TYPE=NON_PLATED
T13F00S00C0.0256
T14F00S00C0.0295
T15F00S00C0.0413
T16F00S00C0.0512
%
T01
X350Y3400
X1480Y3940
X3240Y3980
X2980Y3170
X4280Y4270
X4710Y5370
X5085
X3460Y5560
X2129Y5150
X750Y5100
X5100Y2330
X4790Y1800
X4680Y1000
X5930
X5694Y2084
X6607Y2059
X7830Y1800
X8350Y1850
Y2650
X8860Y2610
X8840Y3560
X10317Y3700
X10660Y3190
X10300Y2220
X10400Y1450
Y800
X11100
Y1450
X10580Y4700
X7960Y5210
X7602
X8040Y5620
X7780Y4360
X6540Y3850
X6050Y3540
X5800Y4200
X5680Y5320
X13159Y4023
Y3472
X13711
X13435Y3747
X13711Y4023
X14262
Y3472
X13986Y3747
Y3196
X13435
Y4298
X13986
X15870Y2700
X15850Y1300
Y700
X17360Y1910
X17370Y2410
X18570Y2520
X18560Y3300
X18005Y3301
X18330Y3690
X19310Y3650
X18870Y4230
X20475Y5440
X20850
X20590Y2150
X20320Y1650
X20230Y960
X18600Y1200
X18570Y680
X21500Y950
X21270Y1980
X22320
X23850Y2140
X24350Y2650
X24650Y1150
Y550
X26150Y2450
X26755Y2473
X27350Y2450
X29750Y2500
X30400
X31050Y1900
X32450Y1400
X33050Y1770
X33280Y410
X34675Y383
X36150Y800
X34550Y2190
X34770Y3000
X35404Y3646
X36540Y3940
X33960Y3846
X32700Y3350
X31000Y3950
X29920Y4270
X26600Y4400
Y5050
X23700Y5100
X23100Y5120
X23060Y4150
X23700
X22170Y5010
X21530Y3870
X36900Y4700
X37570Y3190
X36896Y8087
X36900Y14781
X37740Y19860
X37800Y20930
X34678Y19795
X35010Y16860
X33350Y16450
X32750
X31200Y17200
X29720Y17360
X29731Y16262
X29750Y15450
X30450
X30580Y16100
X30420Y18470
X29900Y18500
X30510Y19430
X30609Y20200
Y20700
X29450Y21190
X28345Y21197
X27270Y19950
X27590Y19460
X28070Y18463
X27400Y17400
X26550Y15900
X25900Y15400
X25350
X24800
X24250
X24550Y13900
X25500Y12250
X27110Y14230
X27743Y13933
X28393
X29000
X28661Y13400
X29450Y13160
X27750Y10300
X29270Y8500
X29500Y7650
X30150Y7610
X31650Y7100
X31280Y6670
X32150Y7650
X32050Y8550
X31260Y8670
X32650Y11550
X35250Y11250
X35540Y12420
X35550Y13110
X36230Y13120
X34980Y13514
X34210Y13840
X36630Y5880
X22190Y5770
X22200Y6980
Y7560
X23251Y8440
X23900
X21590Y14210
X22600Y15720
X22480Y16540
X21476Y17063
X25050Y16950
X25080Y17770
X25181Y20231
X25490Y20920
X25980Y21025
X24400Y21240
X22040Y20759
X20067Y21143
X19791Y20868
X19240
X19516Y21143
X18964
X18476Y19170
X17976
X17110Y19250
Y19720
X16500Y19250
X15620Y19630
X15780Y20070
X15700Y18500
Y17840
X15227Y17164
X13870Y16980
X12921Y17806
X13870Y19040
X14414Y19150
X14770
X13100Y20050
X12500
X12787Y20537
X12500Y21050
X13100
X10300Y20955
X10260Y18970
X9900Y18160
X11000Y18260
X11520Y16010
X8890Y15670
X8950Y14900
Y14525
X7330Y15100
X5880Y15660
X5700Y18850
Y19500
Y20150
Y20800
X7500
Y20150
Y19500
Y18850
X6600
X7921Y17173
X8840Y12250
X9240Y12240
X12555Y13269
X13173Y13171
X13060Y14410
X15948Y13225
X17830Y13220
X19060Y12510
Y11980
X19670Y12510
X19840Y11420
X19490Y10310
X18000Y9300
Y8600
X17690Y7670
X16800Y8660
X17200Y9940
X16660Y10780
X16580Y11400
X17460Y15500
X17400Y16450
X17850
X18300
X18976Y17063
X19476
X19976
X20476
X20976
X17479Y17812
X16930Y16450
X15390Y7070
X12370Y9230
X11040Y9600
X9490Y7760
X7560Y7710
X7973Y6933
X5750Y7050
Y6050
X6909Y8647
X6508Y9048
X4350Y8800
X3975
X3788Y9745
X2850Y7850
X2540Y6500
X3180Y6050
X3580Y6650
X5500Y6550
X5036Y7683
X500Y6600
X3101Y13806
X3910Y15390
X3990Y16420
X2050Y15400
X350Y16300
Y17300
Y22400
X2000Y22660
X2650Y22650
X3300
X3060Y21810
X4350Y21940
X4920Y21980
Y22610
X4350Y22600
X3530Y23930
X2950Y23940
Y24520
X2380
X2310Y25550
X3520Y24510
X2950Y32900
X2300
X1650
X1950Y34600
X2360Y35640
X3350Y35300
Y36000
Y36700
X4000
X4650
X5300
Y36000
Y35300
Y34600
X8591Y34012
X9850Y33000
Y32600
Y32150
Y31700
X10450
Y32150
Y32600
Y33000
X11800Y33200
X11081Y34003
X11100Y34850
X13573
X13570Y34280
Y33710
X14170
Y34280
Y34850
X14673Y36590
X15920Y36580
X18150Y35000
X18143Y34396
X18150Y33800
Y33200
X18900
X17400
X17960Y31880
X19373Y31837
X20090Y32070
X20600Y33900
Y34400
Y34900
X21200
Y34400
Y33900
X20090Y29670
X18840Y28810
X19010Y26570
X18976Y26050
X16450Y26250
X15800
X15150
Y25600
X15800
X15150Y24900
X14400
Y25580
X13570Y25420
Y25990
X13000
X12990Y26630
Y27060
X13580Y27070
Y26640
X12100Y27310
X12050Y28657
X11450
X10850
X10257
X12650
X13250
X13947Y29516
X14040Y30030
X15790Y29740
X17530Y30390
X20459Y27843
X19791Y21970
X19240
Y21419
X19516Y21694
X19791Y21419
X20067Y21694
X18964
X14440Y21700
X12950
X12300
X10520Y21960
X10300Y21330
X7750Y22050
X10257Y24794
X11180Y24870
X11890
X11680Y25390
X14770Y23874
X14760Y23340
X15480Y23510
X15227Y22830
X9304Y36488
X8500Y36490
X23340Y35790
X24050Y36252
X24190Y33690
X25490Y33280
X25890Y34490
Y35060
X27730Y35790
X30770Y35460
X33830
X36330Y35320
X36640Y26500
X35560Y25960
X35610Y25015
X34370Y25480
X33350Y24850
X33150Y24200
X32500
X32800Y22750
X31900Y22300
X31100
X30500Y21950
X30800Y24800
X29200
X27135Y24709
X26550Y24700
X26000Y25050
X25810Y25800
X26380
X23468Y25890
X22990Y26153
X21296Y26384
X21330Y27856
X22210Y28117
X22640
X22930Y28900
X23460Y29670
X24200Y31290
X23460Y32070
X25970Y31950
X25890Y31460
X25833Y29231
X24322Y28117
X24460Y24259
X24070
X25080Y23760
Y23260
X24380Y22250
X24041Y21759
X22930
X22610Y22260
X22320Y22750
X25980Y21920
Y21500
X27704Y21514
X27420Y21810
X27130Y22130
X26800Y22450
X30170Y26200
X31660Y26780
X32693Y25784
X34350Y22640
X33860Y22140
X34640Y21710
X36260Y21330
X37400Y22270
X38070Y24460
X38610Y27600
X37400Y28470
X37940Y35310
X37450Y36160
X29550Y37700
X26074Y38040
Y38940
X23530Y39060
X21800
X18900Y39100
Y38650
X18400
Y39100
X17900
Y38650
X17400
Y39100
X16900
Y38650
X16400
Y39100
X16320Y36930
X15510Y36920
X11900Y39100
X11400
Y38600
X10900
Y39100
X10400
X10180Y38320
X7033Y37040
T02
X907Y907
X630Y1575
X907Y2243
X1575Y2520
X2243Y2243
X2520Y1575
X2243Y907
X1575Y630
X36850Y1575
X37127Y907
X37795Y630
X38463Y907
X38740Y1575
X38463Y2243
X37795Y2520
X37127Y2243
X1575Y36850
X37795
X37127Y37127
Y38463
X37795Y38740
X38463Y38463
X38740Y37795
X38463Y37127
X36850Y37795
X2520
X2243Y38463
X1575Y38740
X907Y38463
X630Y37795
X907Y37127
X2243
T04
X23690Y3280
X31500Y1030
X35740Y5620
X29480Y10100
X25590Y10680
X25600Y9030
X27640Y15520
T05
X32500Y5150
T06
X34143Y15806
Y16806
Y17806
Y18806
X1060Y18810
Y17810
Y16810
Y15810
Y14810
Y13810
Y12810
Y11810
Y10810
Y19810
Y20810
Y21810
Y22810
Y23810
T07
X27847Y29822
Y31673
X27857Y32822
Y34673
X32384Y32822
X35140
X35130Y29822
X32374
T08
X25278Y3259
X26778
X28278
X29778
X36160Y7390
Y8890
Y10390
Y11890
X36161Y13961
Y15461
X36151Y17531
Y19031
X36190Y29822
Y31322
Y32822
Y34322
X34965Y36220
X33465
X31965
X30465
T09
X4400Y35555
X6400
T10
X932Y29752
Y31721
X6030Y32587
Y30736
Y28886
T11
X1575Y1575
X37795
Y37795
X1575
T12
X34143Y7656
X1454
Y26964
X34143
T13
X4142Y2549
X6418
X19747
X22023
T14
X37970Y4850
X39053
T15
X6600Y21973
T16
X6600Y24907
M30
