G04*
G04 #@! TF.GenerationSoftware,Altium Limited,Altium Designer,24.10.1 (45)*
G04*
G04 Layer_Color=16711935*
%FSLAX25Y25*%
%MOIN*%
G70*
G04*
G04 #@! TF.SameCoordinates,F8DE0C88-6A82-4F8F-96BC-C1AF256D62EF*
G04*
G04*
G04 #@! TF.FilePolarity,Negative*
G04*
G01*
G75*
%ADD116R,0.11811X0.11811*%
%ADD126C,0.05906*%
%ADD127C,0.05918*%
%ADD128C,0.04934*%
%ADD129C,0.10249*%
G04:AMPARAMS|DCode=130|XSize=102.49mil|YSize=102.49mil|CornerRadius=27.62mil|HoleSize=0mil|Usage=FLASHONLY|Rotation=180.000|XOffset=0mil|YOffset=0mil|HoleType=Round|Shape=RoundedRectangle|*
%AMROUNDEDRECTD130*
21,1,0.10249,0.04724,0,0,180.0*
21,1,0.04724,0.10249,0,0,180.0*
1,1,0.05524,-0.02362,0.02362*
1,1,0.05524,0.02362,0.02362*
1,1,0.05524,0.02362,-0.02362*
1,1,0.05524,-0.02362,-0.02362*
%
%ADD130ROUNDEDRECTD130*%
%ADD131C,0.00800*%
%ADD132C,0.12611*%
%ADD133R,0.12611X0.12611*%
G04:AMPARAMS|DCode=134|XSize=90.68mil|YSize=90.68mil|CornerRadius=24.67mil|HoleSize=0mil|Usage=FLASHONLY|Rotation=90.000|XOffset=0mil|YOffset=0mil|HoleType=Round|Shape=RoundedRectangle|*
%AMROUNDEDRECTD134*
21,1,0.09068,0.04134,0,0,90.0*
21,1,0.04134,0.09068,0,0,90.0*
1,1,0.04934,0.02067,0.02067*
1,1,0.04934,0.02067,-0.02067*
1,1,0.04934,-0.02067,-0.02067*
1,1,0.04934,-0.02067,0.02067*
%
%ADD134ROUNDEDRECTD134*%
%ADD135C,0.09068*%
G04:AMPARAMS|DCode=136|XSize=90.68mil|YSize=90.68mil|CornerRadius=24.67mil|HoleSize=0mil|Usage=FLASHONLY|Rotation=180.000|XOffset=0mil|YOffset=0mil|HoleType=Round|Shape=RoundedRectangle|*
%AMROUNDEDRECTD136*
21,1,0.09068,0.04134,0,0,180.0*
21,1,0.04134,0.09068,0,0,180.0*
1,1,0.04934,-0.02067,0.02067*
1,1,0.04934,0.02067,0.02067*
1,1,0.04934,0.02067,-0.02067*
1,1,0.04934,-0.02067,-0.02067*
%
%ADD136ROUNDEDRECTD136*%
%ADD137O,0.09461X0.07493*%
%ADD138C,0.20485*%
%ADD139C,0.07887*%
%ADD140R,0.07887X0.07887*%
%ADD141C,0.03359*%
%ADD142O,0.04934X0.09068*%
%ADD143O,0.04934X0.09855*%
%ADD144C,0.03950*%
%ADD145C,0.25197*%
%ADD147C,0.01000*%
%ADD173C,0.01000*%
%ADD174R,0.11811X0.11811*%
%ADD175C,0.02900*%
D116*
X11811Y356299D02*
D03*
X307200Y117600D02*
D03*
Y99528D02*
D03*
X11811Y251181D02*
D03*
D126*
X357400Y56200D02*
D03*
X256000Y90300D02*
D03*
X255900Y106800D02*
D03*
X236900Y32800D02*
D03*
X294800Y101000D02*
D03*
X276400Y155200D02*
D03*
X315000Y10300D02*
D03*
D127*
X66000Y249065D02*
D03*
D128*
Y219735D02*
D03*
D129*
X44000Y355552D02*
D03*
D130*
X64000D02*
D03*
D131*
X390527Y48500D02*
D03*
X379700D02*
D03*
D132*
X9316Y297521D02*
D03*
Y317206D02*
D03*
X60300Y288859D02*
D03*
Y307363D02*
D03*
D133*
Y325867D02*
D03*
D134*
X361614Y139606D02*
D03*
X361900Y298224D02*
D03*
X361600Y73900D02*
D03*
X361514Y175306D02*
D03*
D135*
X361614Y154606D02*
D03*
X361900Y313224D02*
D03*
Y328224D02*
D03*
Y343224D02*
D03*
X334646Y362205D02*
D03*
X319646D02*
D03*
X304646D02*
D03*
X267784Y32586D02*
D03*
X282784D02*
D03*
X297784D02*
D03*
X361600Y88900D02*
D03*
Y103900D02*
D03*
Y118900D02*
D03*
X361514Y190306D02*
D03*
D136*
X349646Y362205D02*
D03*
X252784Y32586D02*
D03*
D137*
X341427Y158061D02*
D03*
Y168061D02*
D03*
Y178061D02*
D03*
Y188061D02*
D03*
X10600Y108100D02*
D03*
Y118100D02*
D03*
Y128100D02*
D03*
Y138100D02*
D03*
Y148100D02*
D03*
Y158100D02*
D03*
Y168100D02*
D03*
Y178100D02*
D03*
Y188100D02*
D03*
Y198100D02*
D03*
Y208100D02*
D03*
Y218100D02*
D03*
Y228100D02*
D03*
Y238100D02*
D03*
D138*
X341427Y76565D02*
D03*
Y269635D02*
D03*
X14537D02*
D03*
Y76565D02*
D03*
D139*
X278565Y328224D02*
D03*
X323841D02*
D03*
X351400D02*
D03*
X278465Y298224D02*
D03*
X323741D02*
D03*
X351300D02*
D03*
D140*
X278565Y346728D02*
D03*
X278465Y316728D02*
D03*
D141*
X197474Y25488D02*
D03*
X220230D02*
D03*
X41422D02*
D03*
X64178D02*
D03*
D142*
X225880Y11000D02*
D03*
X191824D02*
D03*
X69828D02*
D03*
X35772D02*
D03*
D143*
X225880Y27457D02*
D03*
X191824D02*
D03*
X69828D02*
D03*
X35772D02*
D03*
D144*
X368504Y15748D02*
D03*
X384634Y22429D02*
D03*
X377953Y6299D02*
D03*
X387402Y15748D02*
D03*
X371271Y9067D02*
D03*
Y22429D02*
D03*
X384634Y9067D02*
D03*
X377953Y25197D02*
D03*
X368504Y377953D02*
D03*
X384634Y384634D02*
D03*
X377953Y368504D02*
D03*
X387402Y377953D02*
D03*
X371271Y371271D02*
D03*
Y384634D02*
D03*
X384634Y371271D02*
D03*
X377953Y387402D02*
D03*
X6299Y15748D02*
D03*
X22429Y22429D02*
D03*
X15748Y6299D02*
D03*
X25197Y15748D02*
D03*
X9067Y9067D02*
D03*
Y22429D02*
D03*
X22429Y9067D02*
D03*
X15748Y25197D02*
D03*
X6299Y377953D02*
D03*
X22429Y384634D02*
D03*
X15748Y368504D02*
D03*
X25197Y377953D02*
D03*
X9067Y371271D02*
D03*
Y384634D02*
D03*
X22429Y371271D02*
D03*
X15748Y387402D02*
D03*
D145*
X377953Y15748D02*
D03*
Y377953D02*
D03*
X15748Y15748D02*
D03*
Y377953D02*
D03*
D147*
X130000Y221900D02*
X132000D01*
X130100Y225900D02*
X132100D01*
X121500Y226200D02*
X123500D01*
X121600Y230200D02*
X123600D01*
D173*
X129300Y223900D02*
D03*
X132900D02*
D03*
X120800Y228200D02*
D03*
X124400D02*
D03*
D174*
X81200Y306400D02*
D03*
X104500Y306500D02*
D03*
X153200Y342800D02*
D03*
X223700Y349000D02*
D03*
D175*
X133200Y223900D02*
X132786Y224760D01*
X131855Y224972D01*
X131109Y224377D01*
Y223423D01*
X131855Y222828D01*
X132786Y223040D01*
X133200Y223900D01*
X131200D02*
X130786Y224760D01*
X129855Y224972D01*
X129109Y224377D01*
Y223423D01*
X129855Y222828D01*
X130786Y223040D01*
X131200Y223900D01*
X124700Y228200D02*
X124286Y229060D01*
X123355Y229272D01*
X122609Y228677D01*
Y227723D01*
X123355Y227128D01*
X124286Y227340D01*
X124700Y228200D01*
X122700D02*
X122286Y229060D01*
X121355Y229272D01*
X120609Y228677D01*
Y227723D01*
X121355Y227128D01*
X122286Y227340D01*
X122700Y228200D01*
M02*
