G04*
G04 #@! TF.GenerationSoftware,Altium Limited,Altium Designer,24.10.1 (45)*
G04*
G04 Layer_Physical_Order=2*
G04 Layer_Color=36540*
%FSLAX25Y25*%
%MOIN*%
G70*
G04*
G04 #@! TF.SameCoordinates,F8DE0C88-6A82-4F8F-96BC-C1AF256D62EF*
G04*
G04*
G04 #@! TF.FilePolarity,Positive*
G04*
G01*
G75*
%ADD116R,0.11811X0.11811*%
%ADD145C,0.25197*%
%ADD153C,0.05118*%
%ADD154C,0.04134*%
%ADD155C,0.09449*%
G04:AMPARAMS|DCode=156|XSize=94.49mil|YSize=94.49mil|CornerRadius=23.62mil|HoleSize=0mil|Usage=FLASHONLY|Rotation=180.000|XOffset=0mil|YOffset=0mil|HoleType=Round|Shape=RoundedRectangle|*
%AMROUNDEDRECTD156*
21,1,0.09449,0.04724,0,0,180.0*
21,1,0.04724,0.09449,0,0,180.0*
1,1,0.04724,-0.02362,0.02362*
1,1,0.04724,0.02362,0.02362*
1,1,0.04724,0.02362,-0.02362*
1,1,0.04724,-0.02362,-0.02362*
%
%ADD156ROUNDEDRECTD156*%
%ADD157C,0.03150*%
%ADD158C,0.11811*%
G04:AMPARAMS|DCode=159|XSize=82.68mil|YSize=82.68mil|CornerRadius=20.67mil|HoleSize=0mil|Usage=FLASHONLY|Rotation=90.000|XOffset=0mil|YOffset=0mil|HoleType=Round|Shape=RoundedRectangle|*
%AMROUNDEDRECTD159*
21,1,0.08268,0.04134,0,0,90.0*
21,1,0.04134,0.08268,0,0,90.0*
1,1,0.04134,0.02067,0.02067*
1,1,0.04134,0.02067,-0.02067*
1,1,0.04134,-0.02067,-0.02067*
1,1,0.04134,-0.02067,0.02067*
%
%ADD159ROUNDEDRECTD159*%
%ADD160C,0.08268*%
G04:AMPARAMS|DCode=161|XSize=82.68mil|YSize=82.68mil|CornerRadius=20.67mil|HoleSize=0mil|Usage=FLASHONLY|Rotation=180.000|XOffset=0mil|YOffset=0mil|HoleType=Round|Shape=RoundedRectangle|*
%AMROUNDEDRECTD161*
21,1,0.08268,0.04134,0,0,180.0*
21,1,0.04134,0.08268,0,0,180.0*
1,1,0.04134,-0.02067,0.02067*
1,1,0.04134,0.02067,0.02067*
1,1,0.04134,0.02067,-0.02067*
1,1,0.04134,-0.02067,-0.02067*
%
%ADD161ROUNDEDRECTD161*%
%ADD162O,0.08661X0.06693*%
%ADD164C,0.07087*%
%ADD166C,0.02559*%
%ADD167O,0.04134X0.08268*%
%ADD168O,0.04134X0.09055*%
%ADD169C,0.05000*%
%ADD170C,0.06000*%
%ADD171O,0.07874X0.05906*%
G36*
X9843Y392579D02*
X265748D01*
Y362600D01*
X256931Y354331D01*
X221331D01*
X216535Y349535D01*
Y290365D01*
X221467Y285433D01*
X295276D01*
X324803Y255906D01*
X325912D01*
X326498Y255663D01*
X327363D01*
X327948Y255906D01*
X341084D01*
X341528Y255240D01*
X341525Y255233D01*
Y254367D01*
X341856Y253568D01*
X342468Y252956D01*
X343267Y252625D01*
X344133D01*
X344932Y252956D01*
X345544Y253568D01*
X345875Y254367D01*
Y255233D01*
X345872Y255240D01*
X346316Y255906D01*
X392579D01*
Y50515D01*
X391779Y50184D01*
X391703Y50260D01*
X390940Y50576D01*
X390114D01*
X389351Y50260D01*
X388767Y49676D01*
X388450Y48913D01*
Y48087D01*
X388767Y47324D01*
X389351Y46740D01*
X390114Y46424D01*
X390940D01*
X391703Y46740D01*
X391779Y46816D01*
X392579Y46485D01*
Y9843D01*
X392588Y9797D01*
X392425Y8139D01*
X391928Y6500D01*
X391121Y4990D01*
X390035Y3666D01*
X388711Y2580D01*
X387201Y1773D01*
X385562Y1276D01*
X383904Y1112D01*
X383858Y1122D01*
X9843D01*
X9797Y1112D01*
X8139Y1276D01*
X6500Y1773D01*
X4990Y2580D01*
X3666Y3666D01*
X2580Y4990D01*
X1773Y6500D01*
X1276Y8139D01*
X1112Y9797D01*
X1122Y9843D01*
Y383858D01*
X1112Y383904D01*
X1276Y385562D01*
X1773Y387201D01*
X2580Y388711D01*
X3666Y390035D01*
X4990Y391121D01*
X6500Y391928D01*
X8139Y392425D01*
X9797Y392588D01*
X9843Y392579D01*
D02*
G37*
%LPC*%
G36*
X102233Y385375D02*
X101367D01*
X100568Y385044D01*
X99956Y384432D01*
X99625Y383633D01*
Y382767D01*
X99956Y381968D01*
X100568Y381356D01*
X101367Y381025D01*
X102233D01*
X103032Y381356D01*
X103644Y381968D01*
X103975Y382767D01*
Y383633D01*
X103644Y384432D01*
X103032Y385044D01*
X102233Y385375D01*
D02*
G37*
G36*
X70764Y372575D02*
X69899D01*
X69100Y372244D01*
X68488Y371632D01*
X68157Y370833D01*
Y369967D01*
X68488Y369168D01*
X69100Y368556D01*
X69899Y368225D01*
X70764D01*
X71563Y368556D01*
X72175Y369168D01*
X72506Y369967D01*
Y370833D01*
X72175Y371632D01*
X71563Y372244D01*
X70764Y372575D01*
D02*
G37*
G36*
X16787Y391151D02*
X14709D01*
X12657Y390826D01*
X10682Y390184D01*
X8830Y389241D01*
X7150Y388020D01*
X5681Y386551D01*
X4460Y384870D01*
X3517Y383019D01*
X2875Y381043D01*
X2550Y378992D01*
Y376914D01*
X2875Y374862D01*
X3517Y372886D01*
X4460Y371035D01*
X5681Y369355D01*
X7150Y367886D01*
X8830Y366665D01*
X10682Y365721D01*
X12657Y365079D01*
X14709Y364754D01*
X16787D01*
X18839Y365079D01*
X20814Y365721D01*
X22666Y366665D01*
X24346Y367886D01*
X25815Y369355D01*
X27036Y371035D01*
X27979Y372886D01*
X28622Y374862D01*
X28946Y376914D01*
Y378992D01*
X28622Y381043D01*
X27979Y383019D01*
X27036Y384870D01*
X25815Y386551D01*
X24346Y388020D01*
X22666Y389241D01*
X20814Y390184D01*
X18839Y390826D01*
X16787Y391151D01*
D02*
G37*
G36*
X147164Y368075D02*
X146299D01*
X145500Y367744D01*
X144888Y367132D01*
X144557Y366333D01*
Y365467D01*
X144888Y364668D01*
X145500Y364056D01*
X146299Y363725D01*
X147164D01*
X147963Y364056D01*
X148575Y364668D01*
X148906Y365467D01*
Y366333D01*
X148575Y367132D01*
X147963Y367744D01*
X147164Y368075D01*
D02*
G37*
G36*
X44750Y361070D02*
Y356302D01*
X49518D01*
X49148Y357684D01*
X48421Y358944D01*
X47392Y359973D01*
X46132Y360700D01*
X44750Y361070D01*
D02*
G37*
G36*
X43250D02*
X41868Y360700D01*
X40608Y359973D01*
X39579Y358944D01*
X38852Y357684D01*
X38482Y356302D01*
X43250D01*
Y361070D01*
D02*
G37*
G36*
X233833Y360075D02*
X232967D01*
X232168Y359744D01*
X231556Y359132D01*
X231225Y358333D01*
Y357467D01*
X231556Y356668D01*
X232168Y356056D01*
X232967Y355725D01*
X233833D01*
X234632Y356056D01*
X235244Y356668D01*
X235575Y357467D01*
Y358333D01*
X235244Y359132D01*
X234632Y359744D01*
X233833Y360075D01*
D02*
G37*
G36*
X66362Y360902D02*
X61638D01*
X60865Y360800D01*
X60144Y360502D01*
X59525Y360027D01*
X59050Y359408D01*
X58752Y358687D01*
X58650Y357914D01*
Y353190D01*
X58752Y352416D01*
X59050Y351696D01*
X59525Y351077D01*
X60144Y350602D01*
X60865Y350304D01*
X61638Y350202D01*
X66362D01*
X67136Y350304D01*
X67856Y350602D01*
X68475Y351077D01*
X68950Y351696D01*
X69248Y352416D01*
X69350Y353190D01*
Y357914D01*
X69248Y358687D01*
X68950Y359408D01*
X68475Y360027D01*
X67856Y360502D01*
X67136Y360800D01*
X66362Y360902D01*
D02*
G37*
G36*
X49518Y354802D02*
X44750D01*
Y350034D01*
X46132Y350404D01*
X47392Y351131D01*
X48421Y352160D01*
X49148Y353420D01*
X49518Y354802D01*
D02*
G37*
G36*
X43250D02*
X38482D01*
X38852Y353420D01*
X39579Y352160D01*
X40608Y351131D01*
X41868Y350404D01*
X43250Y350034D01*
Y354802D01*
D02*
G37*
G36*
X142133Y350675D02*
X141267D01*
X140468Y350344D01*
X139856Y349732D01*
X139525Y348933D01*
Y348067D01*
X139856Y347268D01*
X140468Y346656D01*
X141267Y346325D01*
X142133D01*
X142932Y346656D01*
X143544Y347268D01*
X143875Y348067D01*
Y348933D01*
X143544Y349732D01*
X142932Y350344D01*
X142133Y350675D01*
D02*
G37*
G36*
X136164D02*
X135299D01*
X134500Y350344D01*
X133888Y349732D01*
X133557Y348933D01*
Y348067D01*
X133888Y347268D01*
X134500Y346656D01*
X135299Y346325D01*
X136164D01*
X136963Y346656D01*
X137575Y347268D01*
X137906Y348067D01*
Y348933D01*
X137575Y349732D01*
X136963Y350344D01*
X136164Y350675D01*
D02*
G37*
G36*
X142133Y344975D02*
X141267D01*
X140468Y344644D01*
X139856Y344032D01*
X139525Y343233D01*
Y342367D01*
X139856Y341568D01*
X140468Y340956D01*
X141267Y340625D01*
X142133D01*
X142932Y340956D01*
X143544Y341568D01*
X143875Y342367D01*
Y343233D01*
X143544Y344032D01*
X142932Y344644D01*
X142133Y344975D01*
D02*
G37*
G36*
X136133D02*
X135267D01*
X134468Y344644D01*
X133856Y344032D01*
X133525Y343233D01*
Y342367D01*
X133856Y341568D01*
X134468Y340956D01*
X135267Y340625D01*
X136133D01*
X136932Y340956D01*
X137544Y341568D01*
X137875Y342367D01*
Y343233D01*
X137544Y344032D01*
X136932Y344644D01*
X136133Y344975D01*
D02*
G37*
G36*
X86342Y342297D02*
X85477D01*
X84677Y341966D01*
X84066Y341354D01*
X83735Y340555D01*
Y339690D01*
X84066Y338890D01*
X84677Y338279D01*
X85477Y337948D01*
X86342D01*
X87141Y338279D01*
X87753Y338890D01*
X88084Y339690D01*
Y340555D01*
X87753Y341354D01*
X87141Y341966D01*
X86342Y342297D01*
D02*
G37*
G36*
X212433Y351175D02*
X211567D01*
X210768Y350844D01*
X210156Y350232D01*
X209825Y349433D01*
Y348567D01*
X210156Y347768D01*
X210768Y347156D01*
X211353Y346914D01*
Y346086D01*
X210768Y345844D01*
X210156Y345232D01*
X209825Y344433D01*
Y343567D01*
X210156Y342768D01*
X210768Y342156D01*
X211353Y341914D01*
Y341086D01*
X210768Y340844D01*
X210156Y340232D01*
X209825Y339433D01*
Y338567D01*
X210156Y337768D01*
X210768Y337156D01*
X211567Y336825D01*
X212433D01*
X213232Y337156D01*
X213844Y337768D01*
X214175Y338567D01*
Y339433D01*
X213844Y340232D01*
X213232Y340844D01*
X212647Y341086D01*
Y341914D01*
X213232Y342156D01*
X213844Y342768D01*
X214175Y343567D01*
Y344433D01*
X213844Y345232D01*
X213232Y345844D01*
X212647Y346086D01*
Y346914D01*
X213232Y347156D01*
X213844Y347768D01*
X214175Y348567D01*
Y349433D01*
X213844Y350232D01*
X213232Y350844D01*
X212433Y351175D01*
D02*
G37*
G36*
X206433D02*
X205567D01*
X204768Y350844D01*
X204156Y350232D01*
X203825Y349433D01*
Y348567D01*
X204156Y347768D01*
X204768Y347156D01*
X205353Y346914D01*
Y346086D01*
X204768Y345844D01*
X204156Y345232D01*
X203825Y344433D01*
Y343567D01*
X204156Y342768D01*
X204768Y342156D01*
X205353Y341914D01*
Y341086D01*
X204768Y340844D01*
X204156Y340232D01*
X203825Y339433D01*
Y338567D01*
X204156Y337768D01*
X204768Y337156D01*
X205567Y336825D01*
X206433D01*
X207232Y337156D01*
X207844Y337768D01*
X208175Y338567D01*
Y339433D01*
X207844Y340232D01*
X207232Y340844D01*
X206647Y341086D01*
Y341914D01*
X207232Y342156D01*
X207844Y342768D01*
X208175Y343567D01*
Y344433D01*
X207844Y345232D01*
X207232Y345844D01*
X206647Y346086D01*
Y346914D01*
X207232Y347156D01*
X207844Y347768D01*
X208175Y348567D01*
Y349433D01*
X207844Y350232D01*
X207232Y350844D01*
X206433Y351175D01*
D02*
G37*
G36*
X142133Y339275D02*
X141267D01*
X140468Y338944D01*
X139856Y338332D01*
X139525Y337533D01*
Y336667D01*
X139856Y335868D01*
X140468Y335256D01*
X141267Y334925D01*
X142133D01*
X142932Y335256D01*
X143544Y335868D01*
X143875Y336667D01*
Y337533D01*
X143544Y338332D01*
X142932Y338944D01*
X142133Y339275D01*
D02*
G37*
G36*
X136133D02*
X135267D01*
X134468Y338944D01*
X133856Y338332D01*
X133525Y337533D01*
Y336667D01*
X133856Y335868D01*
X134468Y335256D01*
X135267Y334925D01*
X136133D01*
X136932Y335256D01*
X137544Y335868D01*
X137875Y336667D01*
Y337533D01*
X137544Y338332D01*
X136932Y338944D01*
X136133Y339275D01*
D02*
G37*
G36*
X66805Y332373D02*
X53794D01*
Y319361D01*
X66805D01*
Y332373D01*
D02*
G37*
G36*
X201333Y322875D02*
X200467D01*
X199668Y322544D01*
X199056Y321932D01*
X198725Y321133D01*
Y320267D01*
X199056Y319468D01*
X199668Y318856D01*
X200467Y318525D01*
X201333D01*
X202132Y318856D01*
X202744Y319468D01*
X203075Y320267D01*
Y321133D01*
X202744Y321932D01*
X202132Y322544D01*
X201333Y322875D01*
D02*
G37*
G36*
X180033Y320975D02*
X179167D01*
X178368Y320644D01*
X177756Y320032D01*
X177425Y319233D01*
Y318367D01*
X177756Y317568D01*
X178368Y316956D01*
X179167Y316625D01*
X180033D01*
X180832Y316956D01*
X181444Y317568D01*
X181775Y318367D01*
Y319233D01*
X181444Y320032D01*
X180832Y320644D01*
X180033Y320975D01*
D02*
G37*
G36*
X104933Y332175D02*
X104067D01*
X103268Y331844D01*
X102656Y331232D01*
X102325Y330433D01*
Y329567D01*
X102656Y328768D01*
X102902Y328523D01*
X103184Y328000D01*
X102902Y327477D01*
X102656Y327232D01*
X102325Y326433D01*
Y325567D01*
X102656Y324768D01*
X103268Y324156D01*
Y323344D01*
X102656Y322732D01*
X102325Y321933D01*
Y321067D01*
X102656Y320268D01*
X103268Y319656D01*
Y318844D01*
X102656Y318232D01*
X102325Y317433D01*
Y316567D01*
X102656Y315768D01*
X103268Y315156D01*
X104067Y314825D01*
X104933D01*
X105732Y315156D01*
X106344Y315768D01*
X106675Y316567D01*
Y317433D01*
X106344Y318232D01*
X105732Y318844D01*
Y319656D01*
X106344Y320268D01*
X106675Y321067D01*
Y321933D01*
X106344Y322732D01*
X105732Y323344D01*
Y324156D01*
X106344Y324768D01*
X106675Y325567D01*
Y326433D01*
X106344Y327232D01*
X106098Y327477D01*
X105816Y328000D01*
X106098Y328523D01*
X106344Y328768D01*
X106675Y329567D01*
Y330433D01*
X106344Y331232D01*
X105732Y331844D01*
X104933Y332175D01*
D02*
G37*
G36*
X98933D02*
X98067D01*
X97268Y331844D01*
X96656Y331232D01*
X96325Y330433D01*
Y329567D01*
X96656Y328768D01*
X96902Y328523D01*
X97184Y328000D01*
X96902Y327477D01*
X96656Y327232D01*
X96325Y326433D01*
Y325567D01*
X96656Y324768D01*
X97268Y324156D01*
Y323344D01*
X96656Y322732D01*
X96325Y321933D01*
Y321067D01*
X96656Y320268D01*
X97268Y319656D01*
Y318844D01*
X96656Y318232D01*
X96325Y317433D01*
Y316567D01*
X96656Y315768D01*
X97268Y315156D01*
X98067Y314825D01*
X98933D01*
X99732Y315156D01*
X100344Y315768D01*
X100675Y316567D01*
Y317433D01*
X100344Y318232D01*
X99732Y318844D01*
Y319656D01*
X100344Y320268D01*
X100675Y321067D01*
Y321933D01*
X100344Y322732D01*
X99732Y323344D01*
Y324156D01*
X100344Y324768D01*
X100675Y325567D01*
Y326433D01*
X100344Y327232D01*
X100098Y327477D01*
X99816Y328000D01*
X100098Y328523D01*
X100344Y328768D01*
X100675Y329567D01*
Y330433D01*
X100344Y331232D01*
X99732Y331844D01*
X98933Y332175D01*
D02*
G37*
G36*
X9956Y323711D02*
X8675D01*
X7418Y323461D01*
X6234Y322971D01*
X5169Y322259D01*
X4263Y321353D01*
X3551Y320287D01*
X3060Y319103D01*
X2810Y317846D01*
Y316565D01*
X3060Y315308D01*
X3551Y314124D01*
X4263Y313059D01*
X5169Y312153D01*
X6234Y311440D01*
X7418Y310950D01*
X8675Y310700D01*
X9956D01*
X11213Y310950D01*
X12397Y311440D01*
X13463Y312153D01*
X14369Y313059D01*
X15081Y314124D01*
X15571Y315308D01*
X15821Y316565D01*
Y317846D01*
X15571Y319103D01*
X15081Y320287D01*
X14369Y321353D01*
X13463Y322259D01*
X12397Y322971D01*
X11213Y323461D01*
X9956Y323711D01*
D02*
G37*
G36*
X175733Y306075D02*
X174867D01*
X174068Y305744D01*
X173456Y305132D01*
X173125Y304333D01*
Y303467D01*
X173456Y302668D01*
X174068Y302056D01*
X174867Y301725D01*
X175733D01*
X176532Y302056D01*
X177144Y302668D01*
X177475Y303467D01*
Y304333D01*
X177144Y305132D01*
X176532Y305744D01*
X175733Y306075D01*
D02*
G37*
G36*
X60941Y313869D02*
X59659D01*
X58402Y313619D01*
X57218Y313128D01*
X56153Y312416D01*
X55247Y311510D01*
X54535Y310445D01*
X54045Y309261D01*
X53794Y308004D01*
Y306722D01*
X54045Y305466D01*
X54535Y304282D01*
X55247Y303216D01*
X56153Y302310D01*
X57218Y301598D01*
X58402Y301108D01*
X59659Y300858D01*
X60941D01*
X62198Y301108D01*
X63381Y301598D01*
X64447Y302310D01*
X65353Y303216D01*
X66065Y304282D01*
X66556Y305466D01*
X66805Y306722D01*
Y308004D01*
X66556Y309261D01*
X66065Y310445D01*
X65353Y311510D01*
X64447Y312416D01*
X63381Y313128D01*
X62198Y313619D01*
X60941Y313869D01*
D02*
G37*
G36*
X158333Y299575D02*
X157467D01*
X156668Y299244D01*
X156056Y298632D01*
X155725Y297833D01*
Y296967D01*
X156056Y296168D01*
X156668Y295556D01*
X157467Y295225D01*
X158333D01*
X159132Y295556D01*
X159744Y296168D01*
X160075Y296967D01*
Y297833D01*
X159744Y298632D01*
X159132Y299244D01*
X158333Y299575D01*
D02*
G37*
G36*
X201333Y298875D02*
X200467D01*
X199668Y298544D01*
X199056Y297932D01*
X198725Y297133D01*
Y296267D01*
X199056Y295468D01*
X199668Y294856D01*
X200467Y294525D01*
X201333D01*
X202132Y294856D01*
X202744Y295468D01*
X203075Y296267D01*
Y297133D01*
X202744Y297932D01*
X202132Y298544D01*
X201333Y298875D01*
D02*
G37*
G36*
X139901Y297331D02*
X139035D01*
X138236Y297000D01*
X137624Y296388D01*
X137293Y295589D01*
Y294724D01*
X137624Y293924D01*
X138236Y293313D01*
X139035Y292982D01*
X139901D01*
X140700Y293313D01*
X141312Y293924D01*
X141643Y294724D01*
Y295589D01*
X141312Y296388D01*
X140700Y297000D01*
X139901Y297331D01*
D02*
G37*
G36*
X9956Y304026D02*
X8675D01*
X7418Y303776D01*
X6234Y303286D01*
X5169Y302574D01*
X4263Y301668D01*
X3551Y300602D01*
X3060Y299418D01*
X2810Y298161D01*
Y296880D01*
X3060Y295623D01*
X3551Y294439D01*
X4263Y293374D01*
X5169Y292467D01*
X6234Y291756D01*
X7418Y291265D01*
X8675Y291015D01*
X9956D01*
X11213Y291265D01*
X12397Y291756D01*
X13463Y292467D01*
X14369Y293374D01*
X15081Y294439D01*
X15571Y295623D01*
X15821Y296880D01*
Y298161D01*
X15571Y299418D01*
X15081Y300602D01*
X14369Y301668D01*
X13463Y302574D01*
X12397Y303286D01*
X11213Y303776D01*
X9956Y304026D01*
D02*
G37*
G36*
X226833Y283350D02*
X225967D01*
X225168Y283018D01*
X224735Y282586D01*
X224250Y282476D01*
X223765Y282586D01*
X223332Y283018D01*
X222533Y283350D01*
X221667D01*
X220868Y283018D01*
X220256Y282407D01*
X219925Y281607D01*
Y280742D01*
X220256Y279943D01*
X220868Y279331D01*
X221667Y279000D01*
X222533D01*
X223332Y279331D01*
X223765Y279764D01*
X224250Y279874D01*
X224735Y279764D01*
X225168Y279331D01*
X225967Y279000D01*
X226833D01*
X227632Y279331D01*
X228244Y279943D01*
X228575Y280742D01*
Y281607D01*
X228244Y282407D01*
X227632Y283018D01*
X226833Y283350D01*
D02*
G37*
G36*
X60941Y295365D02*
X59659D01*
X58402Y295115D01*
X57218Y294624D01*
X56153Y293912D01*
X55247Y293006D01*
X54535Y291941D01*
X54045Y290757D01*
X53794Y289500D01*
Y288218D01*
X54045Y286962D01*
X54535Y285778D01*
X55247Y284712D01*
X56153Y283806D01*
X57218Y283094D01*
X58402Y282604D01*
X59659Y282354D01*
X60941D01*
X62198Y282604D01*
X63381Y283094D01*
X64447Y283806D01*
X65353Y284712D01*
X66065Y285778D01*
X66556Y286962D01*
X66805Y288218D01*
Y289500D01*
X66556Y290757D01*
X66065Y291941D01*
X65353Y293006D01*
X64447Y293912D01*
X63381Y294624D01*
X62198Y295115D01*
X60941Y295365D01*
D02*
G37*
G36*
X243649Y283350D02*
X242784D01*
X241984Y283018D01*
X241372Y282407D01*
X241041Y281607D01*
Y280742D01*
X241372Y279943D01*
X241984Y279331D01*
X242784Y279000D01*
X243649D01*
X244448Y279331D01*
X245060Y279943D01*
X245391Y280742D01*
Y281607D01*
X245060Y282407D01*
X244448Y283018D01*
X243649Y283350D01*
D02*
G37*
G36*
X213733Y280737D02*
X212867D01*
X212068Y280406D01*
X211456Y279794D01*
X211125Y278995D01*
Y278130D01*
X211456Y277330D01*
X212068Y276718D01*
X212867Y276387D01*
X213733D01*
X214532Y276718D01*
X215144Y277330D01*
X215475Y278130D01*
Y278995D01*
X215144Y279794D01*
X214532Y280406D01*
X213733Y280737D01*
D02*
G37*
G36*
X205024Y280606D02*
X204159D01*
X203359Y280275D01*
X202748Y279663D01*
X202417Y278864D01*
Y277999D01*
X202748Y277200D01*
X203359Y276588D01*
X204159Y276257D01*
X205024D01*
X205823Y276588D01*
X206435Y277200D01*
X206766Y277999D01*
Y278864D01*
X206435Y279663D01*
X205823Y280275D01*
X205024Y280606D01*
D02*
G37*
G36*
X121433Y275275D02*
X120567D01*
X119768Y274944D01*
X119156Y274332D01*
X118825Y273533D01*
Y272667D01*
X119156Y271868D01*
X119768Y271256D01*
X120567Y270925D01*
X121433D01*
X122232Y271256D01*
X122844Y271868D01*
X123175Y272667D01*
Y273533D01*
X122844Y274332D01*
X122232Y274944D01*
X121433Y275275D01*
D02*
G37*
G36*
X136233Y272875D02*
X135367D01*
X134568Y272544D01*
X133956Y271932D01*
X133625Y271133D01*
Y270267D01*
X133956Y269468D01*
X134389Y269035D01*
X134499Y268550D01*
X134389Y268065D01*
X133956Y267632D01*
X133625Y266833D01*
Y265967D01*
X133956Y265168D01*
X134568Y264556D01*
X135367Y264225D01*
X136233D01*
X137032Y264556D01*
X137644Y265168D01*
X137975Y265967D01*
Y266833D01*
X137644Y267632D01*
X137211Y268065D01*
X137101Y268550D01*
X137211Y269035D01*
X137644Y269468D01*
X137975Y270267D01*
Y271133D01*
X137644Y271932D01*
X137032Y272544D01*
X136233Y272875D01*
D02*
G37*
G36*
X130333Y272775D02*
X129467D01*
X128668Y272444D01*
X128056Y271832D01*
X127725Y271033D01*
Y270167D01*
X128056Y269368D01*
X128489Y268935D01*
X128599Y268450D01*
X128489Y267965D01*
X128056Y267532D01*
X127725Y266733D01*
Y265867D01*
X128056Y265068D01*
X128668Y264456D01*
X129467Y264125D01*
X130333D01*
X131132Y264456D01*
X131744Y265068D01*
X132075Y265867D01*
Y266733D01*
X131744Y267532D01*
X131311Y267965D01*
X131201Y268450D01*
X131311Y268935D01*
X131744Y269368D01*
X132075Y270167D01*
Y271033D01*
X131744Y271832D01*
X131132Y272444D01*
X130333Y272775D01*
D02*
G37*
G36*
X190533Y267875D02*
X189667D01*
X188868Y267544D01*
X188256Y266932D01*
X187925Y266133D01*
Y265267D01*
X188256Y264468D01*
X188868Y263856D01*
X189667Y263525D01*
X190533D01*
X191332Y263856D01*
X191944Y264468D01*
X192275Y265267D01*
Y266133D01*
X191944Y266932D01*
X191332Y267544D01*
X190533Y267875D01*
D02*
G37*
G36*
X15255Y276928D02*
X13819D01*
X12410Y276648D01*
X11083Y276098D01*
X9888Y275300D01*
X8872Y274284D01*
X8074Y273090D01*
X7524Y271763D01*
X7244Y270354D01*
Y268917D01*
X7524Y267508D01*
X8074Y266181D01*
X8872Y264986D01*
X9888Y263971D01*
X11083Y263173D01*
X12410Y262623D01*
X13819Y262343D01*
X15255D01*
X16664Y262623D01*
X17991Y263173D01*
X19186Y263971D01*
X20202Y264986D01*
X21000Y266181D01*
X21550Y267508D01*
X21830Y268917D01*
Y270354D01*
X21550Y271763D01*
X21000Y273090D01*
X20202Y274284D01*
X19186Y275300D01*
X17991Y276098D01*
X16664Y276648D01*
X15255Y276928D01*
D02*
G37*
G36*
X213395Y266013D02*
X212530D01*
X211730Y265682D01*
X211119Y265070D01*
X210787Y264270D01*
Y263405D01*
X211119Y262606D01*
X211730Y261994D01*
X212530Y261663D01*
X213395D01*
X214194Y261994D01*
X214806Y262606D01*
X215137Y263405D01*
Y264270D01*
X214806Y265070D01*
X214194Y265682D01*
X213395Y266013D01*
D02*
G37*
G36*
X230333Y263700D02*
X229467D01*
X228668Y263369D01*
X228056Y262757D01*
X227725Y261958D01*
Y261093D01*
X228056Y260293D01*
X228668Y259682D01*
X229467Y259350D01*
X230333D01*
X231132Y259682D01*
X231744Y260293D01*
X232075Y261093D01*
Y261958D01*
X231744Y262757D01*
X231132Y263369D01*
X230333Y263700D01*
D02*
G37*
G36*
X190195Y262675D02*
X189330D01*
X188530Y262344D01*
X187918Y261732D01*
X187587Y260933D01*
Y260067D01*
X187918Y259268D01*
X188530Y258656D01*
X189330Y258325D01*
X190195D01*
X190994Y258656D01*
X191606Y259268D01*
X191937Y260067D01*
Y260933D01*
X191606Y261732D01*
X190994Y262344D01*
X190195Y262675D01*
D02*
G37*
G36*
X136133Y262075D02*
X135267D01*
X134468Y261744D01*
X133856Y261132D01*
X133525Y260333D01*
Y259467D01*
X133856Y258668D01*
X134468Y258056D01*
X135267Y257725D01*
X136133D01*
X136932Y258056D01*
X137544Y258668D01*
X137875Y259467D01*
Y260333D01*
X137544Y261132D01*
X136932Y261744D01*
X136133Y262075D01*
D02*
G37*
G36*
X130433D02*
X129567D01*
X128768Y261744D01*
X128156Y261132D01*
X127825Y260333D01*
Y259467D01*
X128156Y258668D01*
X128768Y258056D01*
X129567Y257725D01*
X130433D01*
X131232Y258056D01*
X131844Y258668D01*
X132175Y259467D01*
Y260333D01*
X131844Y261132D01*
X131232Y261744D01*
X130433Y262075D01*
D02*
G37*
G36*
X235116Y261075D02*
X234251D01*
X233452Y260744D01*
X232840Y260132D01*
X232509Y259333D01*
Y258467D01*
X232840Y257668D01*
X233452Y257056D01*
X234251Y256725D01*
X235116D01*
X235915Y257056D01*
X236527Y257668D01*
X236858Y258467D01*
Y259333D01*
X236527Y260132D01*
X235915Y260744D01*
X235116Y261075D01*
D02*
G37*
G36*
X264233Y260175D02*
X263367D01*
X262568Y259844D01*
X261956Y259232D01*
X261625Y258433D01*
Y257567D01*
X261956Y256768D01*
X262568Y256156D01*
X263367Y255825D01*
X264233D01*
X265032Y256156D01*
X265644Y256768D01*
X265975Y257567D01*
Y258433D01*
X265644Y259232D01*
X265032Y259844D01*
X264233Y260175D01*
D02*
G37*
G36*
X258533D02*
X257667D01*
X256868Y259844D01*
X256256Y259232D01*
X255925Y258433D01*
Y257567D01*
X256256Y256768D01*
X256868Y256156D01*
X257667Y255825D01*
X258533D01*
X259332Y256156D01*
X259944Y256768D01*
X260275Y257567D01*
Y258433D01*
X259944Y259232D01*
X259332Y259844D01*
X258533Y260175D01*
D02*
G37*
G36*
X136133Y256375D02*
X135267D01*
X134468Y256044D01*
X133856Y255432D01*
X133525Y254633D01*
Y253767D01*
X133856Y252968D01*
X134468Y252356D01*
X135267Y252025D01*
X136133D01*
X136932Y252356D01*
X137544Y252968D01*
X137875Y253767D01*
Y254633D01*
X137544Y255432D01*
X136932Y256044D01*
X136133Y256375D01*
D02*
G37*
G36*
X117233Y256075D02*
X116367D01*
X115568Y255744D01*
X114956Y255132D01*
X114625Y254333D01*
Y253467D01*
X114956Y252668D01*
X115568Y252056D01*
X116367Y251725D01*
X117233D01*
X118032Y252056D01*
X118644Y252668D01*
X118975Y253467D01*
Y254333D01*
X118644Y255132D01*
X118032Y255744D01*
X117233Y256075D01*
D02*
G37*
G36*
X356533Y252327D02*
X355667D01*
X354868Y251996D01*
X354256Y251384D01*
X353925Y250585D01*
Y249720D01*
X354256Y248920D01*
X354868Y248308D01*
X355667Y247977D01*
X356533D01*
X357332Y248308D01*
X357944Y248920D01*
X358275Y249720D01*
Y250585D01*
X357944Y251384D01*
X357332Y251996D01*
X356533Y252327D01*
D02*
G37*
G36*
X66416Y252224D02*
X65584D01*
X64781Y252009D01*
X64060Y251593D01*
X63472Y251005D01*
X63056Y250285D01*
X62841Y249481D01*
Y248649D01*
X63056Y247846D01*
X63472Y247126D01*
X64060Y246537D01*
X64781Y246122D01*
X65584Y245906D01*
X66416D01*
X67219Y246122D01*
X67940Y246537D01*
X68528Y247126D01*
X68944Y247846D01*
X69159Y248649D01*
Y249481D01*
X68944Y250285D01*
X68528Y251005D01*
X67940Y251593D01*
X67219Y252009D01*
X66416Y252224D01*
D02*
G37*
G36*
X245033Y244769D02*
X244167D01*
X243368Y244437D01*
X243173Y244242D01*
X242650Y243896D01*
X242127Y244242D01*
X241932Y244437D01*
X241133Y244769D01*
X240267D01*
X239468Y244437D01*
X238856Y243826D01*
X238525Y243026D01*
Y242161D01*
X238856Y241362D01*
X239468Y240750D01*
X240267Y240419D01*
X241133D01*
X241932Y240750D01*
X242127Y240945D01*
X242650Y241291D01*
X243173Y240945D01*
X243368Y240750D01*
X244167Y240419D01*
X245033D01*
X245832Y240750D01*
X246444Y241362D01*
X246775Y242161D01*
Y243026D01*
X246444Y243826D01*
X245832Y244437D01*
X245033Y244769D01*
D02*
G37*
G36*
X29933Y247375D02*
X29067D01*
X28268Y247044D01*
X27656Y246432D01*
X27325Y245633D01*
Y244767D01*
X27656Y243968D01*
X28268Y243356D01*
X29067Y243025D01*
X29933D01*
X30732Y243356D01*
X31344Y243968D01*
X31675Y244767D01*
Y245633D01*
X31344Y246432D01*
X30732Y247044D01*
X29933Y247375D01*
D02*
G37*
G36*
X24233D02*
X23367D01*
X22568Y247044D01*
X21956Y246432D01*
X21625Y245633D01*
Y244767D01*
X21956Y243968D01*
X22568Y243356D01*
X23367Y243025D01*
X24233D01*
X25032Y243356D01*
X25644Y243968D01*
X25975Y244767D01*
Y245633D01*
X25644Y246432D01*
X25032Y247044D01*
X24233Y247375D01*
D02*
G37*
G36*
X35633Y247275D02*
X34767D01*
X33968Y246944D01*
X33356Y246332D01*
X33025Y245533D01*
Y244667D01*
X33356Y243868D01*
X33968Y243256D01*
X34767Y242925D01*
X35633D01*
X36432Y243256D01*
X37044Y243868D01*
X37375Y244667D01*
Y245533D01*
X37044Y246332D01*
X36432Y246944D01*
X35633Y247275D01*
D02*
G37*
G36*
X29933Y241575D02*
X29067D01*
X28268Y241244D01*
X27656Y240632D01*
X27325Y239833D01*
Y238967D01*
X27656Y238168D01*
X28268Y237556D01*
X29067Y237225D01*
X29933D01*
X30732Y237556D01*
X31344Y238168D01*
X31675Y238967D01*
Y239833D01*
X31344Y240632D01*
X30732Y241244D01*
X29933Y241575D01*
D02*
G37*
G36*
X35733Y241475D02*
X34867D01*
X34068Y241144D01*
X33456Y240532D01*
X33125Y239733D01*
Y238867D01*
X33456Y238068D01*
X34068Y237456D01*
X34867Y237125D01*
X35733D01*
X36532Y237456D01*
X37144Y238068D01*
X37475Y238867D01*
Y239733D01*
X37144Y240532D01*
X36532Y241144D01*
X35733Y241475D01*
D02*
G37*
G36*
X148133Y240913D02*
X147267D01*
X146468Y240581D01*
X145856Y239970D01*
X145525Y239170D01*
Y238305D01*
X145856Y237506D01*
X146468Y236894D01*
X147267Y236563D01*
X148133D01*
X148932Y236894D01*
X149544Y237506D01*
X149875Y238305D01*
Y239170D01*
X149544Y239970D01*
X148932Y240581D01*
X148133Y240913D01*
D02*
G37*
G36*
X11584Y242080D02*
X9616D01*
X8585Y241945D01*
X7626Y241547D01*
X6801Y240915D01*
X6168Y240090D01*
X5771Y239130D01*
X5635Y238100D01*
X5771Y237070D01*
X6168Y236110D01*
X6801Y235285D01*
X7626Y234653D01*
X8585Y234255D01*
X9616Y234120D01*
X11584D01*
X12615Y234255D01*
X13575Y234653D01*
X14399Y235285D01*
X15032Y236110D01*
X15429Y237070D01*
X15565Y238100D01*
X15429Y239130D01*
X15032Y240090D01*
X14399Y240915D01*
X13575Y241547D01*
X12615Y241945D01*
X11584Y242080D01*
D02*
G37*
G36*
X148033Y235575D02*
X147167D01*
X146368Y235244D01*
X145756Y234632D01*
X145425Y233833D01*
Y232967D01*
X145756Y232168D01*
X146368Y231556D01*
X147167Y231225D01*
X148033D01*
X148832Y231556D01*
X149444Y232168D01*
X149775Y232967D01*
Y233833D01*
X149444Y234632D01*
X148832Y235244D01*
X148033Y235575D01*
D02*
G37*
G36*
X251233Y239775D02*
X250367D01*
X249568Y239444D01*
X248956Y238832D01*
X248625Y238033D01*
Y237167D01*
X248956Y236368D01*
X249568Y235756D01*
X250153Y235514D01*
Y234686D01*
X249568Y234444D01*
X248956Y233832D01*
X248625Y233033D01*
Y232167D01*
X248956Y231368D01*
X249568Y230756D01*
X250367Y230425D01*
X251233D01*
X252032Y230756D01*
X252644Y231368D01*
X252975Y232167D01*
Y233033D01*
X252644Y233832D01*
X252032Y234444D01*
X251447Y234686D01*
Y235514D01*
X252032Y235756D01*
X252644Y236368D01*
X252975Y237167D01*
Y238033D01*
X252644Y238832D01*
X252032Y239444D01*
X251233Y239775D01*
D02*
G37*
G36*
X11584Y232282D02*
X11350D01*
Y228850D01*
X15668D01*
X15624Y229182D01*
X15206Y230191D01*
X14541Y231057D01*
X13675Y231722D01*
X12667Y232140D01*
X11584Y232282D01*
D02*
G37*
G36*
X9850D02*
X9616D01*
X8533Y232140D01*
X7525Y231722D01*
X6658Y231057D01*
X5994Y230191D01*
X5576Y229182D01*
X5532Y228850D01*
X9850D01*
Y232282D01*
D02*
G37*
G36*
X152701Y230475D02*
X151836D01*
X151036Y230144D01*
X150424Y229532D01*
X150093Y228733D01*
Y227867D01*
X150424Y227068D01*
X151036Y226456D01*
X151836Y226125D01*
X152701D01*
X153500Y226456D01*
X154112Y227068D01*
X154443Y227867D01*
Y228733D01*
X154112Y229532D01*
X153500Y230144D01*
X152701Y230475D01*
D02*
G37*
G36*
X223633Y229675D02*
X222767D01*
X221968Y229344D01*
X221356Y228732D01*
X221025Y227933D01*
Y227067D01*
X221356Y226268D01*
X221968Y225656D01*
X222767Y225325D01*
X223633D01*
X224432Y225656D01*
X225044Y226268D01*
X225375Y227067D01*
Y227933D01*
X225044Y228732D01*
X224432Y229344D01*
X223633Y229675D01*
D02*
G37*
G36*
X343933Y228575D02*
X343067D01*
X342268Y228244D01*
X341656Y227632D01*
X341325Y226833D01*
Y225967D01*
X341656Y225168D01*
X342268Y224556D01*
X343067Y224225D01*
X343933D01*
X344732Y224556D01*
X345344Y225168D01*
X345675Y225967D01*
Y226833D01*
X345344Y227632D01*
X344732Y228244D01*
X343933Y228575D01*
D02*
G37*
G36*
X49633Y228275D02*
X48767D01*
X47968Y227944D01*
X47356Y227332D01*
X47025Y226533D01*
Y225667D01*
X47356Y224868D01*
X47968Y224256D01*
X48767Y223925D01*
X49633D01*
X50432Y224256D01*
X51044Y224868D01*
X51375Y225667D01*
Y226533D01*
X51044Y227332D01*
X50432Y227944D01*
X49633Y228275D01*
D02*
G37*
G36*
X15668Y227350D02*
X11350D01*
Y223918D01*
X11584D01*
X12667Y224060D01*
X13675Y224478D01*
X14541Y225143D01*
X15206Y226009D01*
X15624Y227018D01*
X15668Y227350D01*
D02*
G37*
G36*
X9850D02*
X5532D01*
X5576Y227018D01*
X5994Y226009D01*
X6658Y225143D01*
X7525Y224478D01*
X8533Y224060D01*
X9616Y223918D01*
X9850D01*
Y227350D01*
D02*
G37*
G36*
X43933Y228175D02*
X43067D01*
X42268Y227844D01*
X41656Y227232D01*
X41325Y226433D01*
Y225567D01*
X41656Y224768D01*
X42268Y224156D01*
X43067Y223825D01*
X43933D01*
X44732Y224156D01*
X45344Y224768D01*
X45675Y225567D01*
Y226433D01*
X45344Y227232D01*
X44732Y227844D01*
X43933Y228175D01*
D02*
G37*
G36*
X226533Y224775D02*
X225667D01*
X224868Y224444D01*
X224256Y223832D01*
X223925Y223033D01*
Y222167D01*
X224256Y221368D01*
X224868Y220756D01*
X225667Y220425D01*
X226533D01*
X227332Y220756D01*
X227944Y221368D01*
X228275Y222167D01*
Y223033D01*
X227944Y223832D01*
X227332Y224444D01*
X226533Y224775D01*
D02*
G37*
G36*
X244233Y224675D02*
X243367D01*
X242568Y224344D01*
X241956Y223732D01*
X241625Y222933D01*
Y222067D01*
X241956Y221268D01*
X242568Y220656D01*
X243367Y220325D01*
X244233D01*
X245032Y220656D01*
X245644Y221268D01*
X245975Y222067D01*
Y222933D01*
X245644Y223732D01*
X245032Y224344D01*
X244233Y224675D01*
D02*
G37*
G36*
X198662Y221960D02*
Y219700D01*
X197162D01*
Y221960D01*
X196567Y221713D01*
X195898Y221045D01*
X195537Y220172D01*
X194775D01*
X194413Y221045D01*
X193745Y221713D01*
X193150Y221960D01*
Y219700D01*
X191650D01*
Y221960D01*
X191055Y221713D01*
X190387Y221045D01*
X190025Y220172D01*
Y219319D01*
X189172D01*
X188299Y218957D01*
X187631Y218289D01*
X187384Y217694D01*
X189644D01*
Y216194D01*
X187384D01*
X187631Y215599D01*
X188299Y214931D01*
X189172Y214569D01*
Y213807D01*
X188299Y213445D01*
X187631Y212777D01*
X187384Y212182D01*
X189644D01*
Y210682D01*
X187384D01*
X187631Y210087D01*
X188299Y209419D01*
X189172Y209057D01*
X190025D01*
Y208204D01*
X190387Y207331D01*
X191055Y206663D01*
X191650Y206417D01*
Y208676D01*
X193150D01*
Y206417D01*
X193745Y206663D01*
X194413Y207331D01*
X194775Y208204D01*
X195537D01*
X195898Y207331D01*
X196567Y206663D01*
X197162Y206417D01*
Y208676D01*
X198662D01*
Y206417D01*
X199257Y206663D01*
X199925Y207331D01*
X200287Y208204D01*
Y209057D01*
X201140D01*
X202013Y209419D01*
X202681Y210087D01*
X202927Y210682D01*
X200668D01*
Y212182D01*
X202927D01*
X202681Y212777D01*
X202013Y213445D01*
X201140Y213807D01*
Y214569D01*
X202013Y214931D01*
X202681Y215599D01*
X202927Y216194D01*
X200668D01*
Y217694D01*
X202927D01*
X202681Y218289D01*
X202013Y218957D01*
X201140Y219319D01*
X200287D01*
Y220172D01*
X199925Y221045D01*
X199257Y221713D01*
X198662Y221960D01*
D02*
G37*
G36*
X339033Y223575D02*
X338167D01*
X337368Y223244D01*
X336756Y222632D01*
X336425Y221833D01*
Y220967D01*
X336756Y220168D01*
X337368Y219556D01*
X338167Y219225D01*
X339033D01*
X339832Y219556D01*
X340444Y220168D01*
X340775Y220967D01*
Y221833D01*
X340444Y222632D01*
X339832Y223244D01*
X339033Y223575D01*
D02*
G37*
G36*
X49633Y221975D02*
X48767D01*
X47968Y221644D01*
X47356Y221032D01*
X47025Y220233D01*
Y219367D01*
X47356Y218568D01*
X47968Y217956D01*
X48767Y217625D01*
X49633D01*
X50432Y217956D01*
X51044Y218568D01*
X51375Y219367D01*
Y220233D01*
X51044Y221032D01*
X50432Y221644D01*
X49633Y221975D01*
D02*
G37*
G36*
X43933Y221575D02*
X43067D01*
X42268Y221244D01*
X41656Y220632D01*
X41325Y219833D01*
Y218967D01*
X41656Y218168D01*
X42268Y217556D01*
X43067Y217225D01*
X43933D01*
X44732Y217556D01*
X45344Y218168D01*
X45675Y218967D01*
Y219833D01*
X45344Y220632D01*
X44732Y221244D01*
X43933Y221575D01*
D02*
G37*
G36*
X66351Y222402D02*
X65649D01*
X64971Y222220D01*
X64363Y221869D01*
X63866Y221372D01*
X63515Y220764D01*
X63333Y220086D01*
Y219384D01*
X63515Y218705D01*
X63866Y218097D01*
X64363Y217601D01*
X64971Y217249D01*
X65649Y217068D01*
X66351D01*
X67029Y217249D01*
X67637Y217601D01*
X68134Y218097D01*
X68485Y218705D01*
X68667Y219384D01*
Y220086D01*
X68485Y220764D01*
X68134Y221372D01*
X67637Y221869D01*
X67029Y222220D01*
X66351Y222402D01*
D02*
G37*
G36*
X31033Y220275D02*
X30167D01*
X29368Y219944D01*
X28756Y219332D01*
X28425Y218533D01*
Y217667D01*
X28756Y216868D01*
X29368Y216256D01*
X30167Y215925D01*
X31033D01*
X31832Y216256D01*
X32444Y216868D01*
X32775Y217667D01*
Y218533D01*
X32444Y219332D01*
X31832Y219944D01*
X31033Y220275D01*
D02*
G37*
G36*
X240839Y219769D02*
X239974D01*
X239174Y219437D01*
X238563Y218826D01*
X238231Y218026D01*
Y217161D01*
X238563Y216362D01*
X239174Y215750D01*
X239974Y215419D01*
X240839D01*
X241638Y215750D01*
X242250Y216362D01*
X242581Y217161D01*
Y218026D01*
X242250Y218826D01*
X241638Y219437D01*
X240839Y219769D01*
D02*
G37*
G36*
X229733D02*
X228867D01*
X228068Y219437D01*
X227456Y218826D01*
X227125Y218026D01*
Y217161D01*
X227456Y216362D01*
X228068Y215750D01*
X228867Y215419D01*
X229733D01*
X230532Y215750D01*
X231144Y216362D01*
X231475Y217161D01*
Y218026D01*
X231144Y218826D01*
X230532Y219437D01*
X229733Y219769D01*
D02*
G37*
G36*
X346833Y219275D02*
X345967D01*
X345168Y218944D01*
X344556Y218332D01*
X344225Y217533D01*
Y216667D01*
X344556Y215868D01*
X345168Y215256D01*
X345967Y214925D01*
X346833D01*
X347632Y215256D01*
X348244Y215868D01*
X348575Y216667D01*
Y217533D01*
X348244Y218332D01*
X347632Y218944D01*
X346833Y219275D01*
D02*
G37*
G36*
X144833Y219175D02*
X143967D01*
X143168Y218844D01*
X142556Y218232D01*
X142225Y217433D01*
Y216567D01*
X142556Y215768D01*
X143168Y215156D01*
X143967Y214825D01*
X144833D01*
X145632Y215156D01*
X146244Y215768D01*
X146575Y216567D01*
Y217433D01*
X146244Y218232D01*
X145632Y218844D01*
X144833Y219175D01*
D02*
G37*
G36*
X11584Y222080D02*
X9616D01*
X8585Y221945D01*
X7626Y221547D01*
X6801Y220915D01*
X6168Y220090D01*
X5771Y219130D01*
X5635Y218100D01*
X5771Y217070D01*
X6168Y216110D01*
X6801Y215285D01*
X7626Y214653D01*
X8585Y214255D01*
X9616Y214120D01*
X11584D01*
X12615Y214255D01*
X13575Y214653D01*
X14399Y215285D01*
X15032Y216110D01*
X15429Y217070D01*
X15565Y218100D01*
X15429Y219130D01*
X15032Y220090D01*
X14399Y220915D01*
X13575Y221547D01*
X12615Y221945D01*
X11584Y222080D01*
D02*
G37*
G36*
X268433Y226675D02*
X267567D01*
X266768Y226344D01*
X266156Y225732D01*
X265825Y224933D01*
Y224067D01*
X266156Y223268D01*
X266768Y222656D01*
X267567Y222325D01*
X268433D01*
X268520Y222361D01*
X269132Y221749D01*
X269125Y221733D01*
Y220867D01*
X269456Y220068D01*
X270068Y219456D01*
X270867Y219125D01*
X271405D01*
X271932Y218622D01*
X272025Y218386D01*
Y217667D01*
X272356Y216868D01*
X272968Y216256D01*
X273767Y215925D01*
X274146D01*
X274721Y215645D01*
X274867Y215186D01*
Y214709D01*
X275198Y213909D01*
X275809Y213298D01*
X276609Y212967D01*
X277474D01*
X278273Y213298D01*
X278885Y213909D01*
X279216Y214709D01*
Y215574D01*
X278885Y216373D01*
X278273Y216985D01*
X277474Y217316D01*
X277095D01*
X276520Y217597D01*
X276375Y218055D01*
Y218533D01*
X276044Y219332D01*
X275432Y219944D01*
X274633Y220275D01*
X274095D01*
X273568Y220778D01*
X273475Y221014D01*
Y221733D01*
X273144Y222532D01*
X272532Y223144D01*
X271733Y223475D01*
X270867D01*
X270780Y223439D01*
X270168Y224051D01*
X270175Y224067D01*
Y224933D01*
X269844Y225732D01*
X269232Y226344D01*
X268433Y226675D01*
D02*
G37*
G36*
X363033Y215475D02*
X362167D01*
X361368Y215144D01*
X360756Y214532D01*
X360425Y213733D01*
Y212867D01*
X360756Y212068D01*
X361368Y211456D01*
X362167Y211125D01*
X363033D01*
X363832Y211456D01*
X364444Y212068D01*
X364775Y212867D01*
Y213733D01*
X364444Y214532D01*
X363832Y215144D01*
X363033Y215475D01*
D02*
G37*
G36*
X260231Y221375D02*
X259366D01*
X258567Y221044D01*
X257955Y220432D01*
X257624Y219633D01*
Y218767D01*
X257955Y217968D01*
X258317Y217606D01*
X258483Y217100D01*
X258317Y216594D01*
X257955Y216232D01*
X257624Y215433D01*
Y214567D01*
X257955Y213768D01*
X258567Y213156D01*
X258800Y213060D01*
Y212194D01*
X258567Y212097D01*
X257955Y211485D01*
X257624Y210686D01*
Y210397D01*
X256824Y210238D01*
X256744Y210432D01*
X256132Y211044D01*
X255333Y211375D01*
X254467D01*
X253668Y211044D01*
X253056Y210432D01*
X252725Y209633D01*
Y208767D01*
X253056Y207968D01*
X253668Y207356D01*
X254467Y207025D01*
X255333D01*
X256132Y207356D01*
X256744Y207968D01*
X257075Y208767D01*
Y209056D01*
X257875Y209215D01*
X257955Y209021D01*
X258567Y208410D01*
X259366Y208079D01*
X260231D01*
X261031Y208410D01*
X261643Y209021D01*
X261974Y209821D01*
Y210686D01*
X261643Y211485D01*
X261031Y212097D01*
X260798Y212194D01*
Y213060D01*
X261031Y213156D01*
X261643Y213768D01*
X261974Y214567D01*
Y215433D01*
X261643Y216232D01*
X261281Y216594D01*
X261115Y217100D01*
X261281Y217606D01*
X261643Y217968D01*
X261974Y218767D01*
Y219633D01*
X261643Y220432D01*
X261031Y221044D01*
X260231Y221375D01*
D02*
G37*
G36*
X244433Y214575D02*
X243567D01*
X242768Y214244D01*
X242156Y213632D01*
X241825Y212833D01*
Y211967D01*
X242156Y211168D01*
X242768Y210556D01*
X243567Y210225D01*
X244433D01*
X245232Y210556D01*
X245844Y211168D01*
X246175Y211967D01*
Y212833D01*
X245844Y213632D01*
X245232Y214244D01*
X244433Y214575D01*
D02*
G37*
G36*
X103518Y217237D02*
X102482D01*
X101480Y216969D01*
X100583Y216450D01*
X99850Y215717D01*
X99331Y214820D01*
X99063Y213818D01*
Y212782D01*
X99331Y211780D01*
X99536Y211425D01*
X99331Y211070D01*
X99063Y210069D01*
Y209032D01*
X99331Y208031D01*
X99850Y207133D01*
X100583Y206400D01*
X101480Y205882D01*
X102482Y205613D01*
X103518D01*
X104520Y205882D01*
X105417Y206400D01*
X106150Y207133D01*
X106669Y208031D01*
X106937Y209032D01*
Y210069D01*
X106669Y211070D01*
X106464Y211425D01*
X106669Y211780D01*
X106937Y212782D01*
Y213818D01*
X106669Y214820D01*
X106150Y215717D01*
X105417Y216450D01*
X104520Y216969D01*
X103518Y217237D01*
D02*
G37*
G36*
X220833Y209769D02*
X219967D01*
X219168Y209437D01*
X218556Y208826D01*
X218225Y208026D01*
Y207161D01*
X218556Y206362D01*
X219168Y205750D01*
X219967Y205419D01*
X220833D01*
X221632Y205750D01*
X222244Y206362D01*
X222575Y207161D01*
Y208026D01*
X222244Y208826D01*
X221632Y209437D01*
X220833Y209769D01*
D02*
G37*
G36*
X11584Y212081D02*
X9616D01*
X8585Y211945D01*
X7626Y211547D01*
X6801Y210915D01*
X6168Y210090D01*
X5771Y209130D01*
X5635Y208100D01*
X5771Y207070D01*
X6168Y206110D01*
X6801Y205285D01*
X7626Y204653D01*
X8585Y204255D01*
X9616Y204119D01*
X11584D01*
X12615Y204255D01*
X13575Y204653D01*
X14399Y205285D01*
X15032Y206110D01*
X15429Y207070D01*
X15565Y208100D01*
X15429Y209130D01*
X15032Y210090D01*
X14399Y210915D01*
X13575Y211547D01*
X12615Y211945D01*
X11584Y212081D01*
D02*
G37*
G36*
X252244Y204480D02*
X251379D01*
X250580Y204149D01*
X249968Y203537D01*
X249637Y202738D01*
Y201873D01*
X249968Y201074D01*
X250580Y200462D01*
X251379Y200131D01*
X252244D01*
X253044Y200462D01*
X253656Y201074D01*
X253987Y201873D01*
Y202738D01*
X253656Y203537D01*
X253044Y204149D01*
X252244Y204480D01*
D02*
G37*
G36*
X306525Y209175D02*
X305660D01*
X304861Y208844D01*
X304249Y208232D01*
X303918Y207433D01*
Y206567D01*
X304249Y205768D01*
X304861Y205156D01*
X305446Y204914D01*
Y204086D01*
X304861Y203844D01*
X304249Y203232D01*
X303918Y202433D01*
Y201567D01*
X304249Y200768D01*
X304861Y200156D01*
X305660Y199825D01*
X306525D01*
X307325Y200156D01*
X307937Y200768D01*
X308268Y201567D01*
Y202433D01*
X307937Y203232D01*
X307325Y203844D01*
X306740Y204086D01*
Y204914D01*
X307325Y205156D01*
X307937Y205768D01*
X308268Y206567D01*
Y207433D01*
X307937Y208232D01*
X307325Y208844D01*
X306525Y209175D01*
D02*
G37*
G36*
X158233Y202875D02*
X157367D01*
X156568Y202544D01*
X155956Y201932D01*
X155625Y201133D01*
Y200267D01*
X155956Y199468D01*
X156568Y198856D01*
X157367Y198525D01*
X158233D01*
X159032Y198856D01*
X159644Y199468D01*
X159975Y200267D01*
Y201133D01*
X159644Y201932D01*
X159032Y202544D01*
X158233Y202875D01*
D02*
G37*
G36*
X347212Y200127D02*
X346347D01*
X345547Y199796D01*
X344936Y199184D01*
X344604Y198385D01*
Y197519D01*
X344936Y196720D01*
X345547Y196108D01*
X346347Y195777D01*
X347212D01*
X348011Y196108D01*
X348623Y196720D01*
X348954Y197519D01*
Y198385D01*
X348623Y199184D01*
X348011Y199796D01*
X347212Y200127D01*
D02*
G37*
G36*
X148133Y193675D02*
X147267D01*
X146468Y193344D01*
X145921Y192797D01*
X145375Y193344D01*
X144575Y193675D01*
X143710D01*
X142911Y193344D01*
X142299Y192732D01*
X141968Y191933D01*
Y191067D01*
X142299Y190268D01*
X142911Y189656D01*
X143710Y189325D01*
X144575D01*
X145375Y189656D01*
X145921Y190203D01*
X146468Y189656D01*
X147267Y189325D01*
X148133D01*
X148932Y189656D01*
X149544Y190268D01*
X149875Y191067D01*
Y191933D01*
X149544Y192732D01*
X148932Y193344D01*
X148133Y193675D01*
D02*
G37*
G36*
X185195Y193875D02*
X184330D01*
X183530Y193544D01*
X182919Y192932D01*
X182676Y192347D01*
X181848D01*
X181606Y192932D01*
X180994Y193544D01*
X180195Y193875D01*
X179330D01*
X178530Y193544D01*
X177919Y192932D01*
X177587Y192133D01*
Y191267D01*
X177919Y190468D01*
X178530Y189856D01*
X179330Y189525D01*
X180195D01*
X180994Y189856D01*
X181606Y190468D01*
X181848Y191053D01*
X182676D01*
X182919Y190468D01*
X183530Y189856D01*
X184330Y189525D01*
X185195D01*
X185994Y189856D01*
X186606Y190468D01*
X186937Y191267D01*
Y192133D01*
X186606Y192932D01*
X185994Y193544D01*
X185195Y193875D01*
D02*
G37*
G36*
X305533Y196475D02*
X304667D01*
X303868Y196144D01*
X303256Y195532D01*
X302925Y194733D01*
Y193867D01*
X303256Y193068D01*
X303868Y192456D01*
X304667Y192125D01*
X305533D01*
X306332Y192456D01*
X306944Y193068D01*
X307275Y193867D01*
Y194733D01*
X306944Y195532D01*
X306332Y196144D01*
X305533Y196475D01*
D02*
G37*
G36*
X139133Y192575D02*
X138267D01*
X137468Y192244D01*
X136856Y191632D01*
X136525Y190833D01*
Y189967D01*
X136856Y189168D01*
X137468Y188556D01*
X138267Y188225D01*
X139133D01*
X139932Y188556D01*
X140544Y189168D01*
X140875Y189967D01*
Y190833D01*
X140544Y191632D01*
X139932Y192244D01*
X139133Y192575D01*
D02*
G37*
G36*
X342411Y192041D02*
X340442D01*
X339412Y191905D01*
X338452Y191508D01*
X337628Y190875D01*
X336995Y190051D01*
X336598Y189091D01*
X336462Y188061D01*
X336598Y187030D01*
X336995Y186070D01*
X337628Y185246D01*
X338452Y184613D01*
X339412Y184216D01*
X340442Y184080D01*
X342411D01*
X343441Y184216D01*
X344401Y184613D01*
X345226Y185246D01*
X345858Y186070D01*
X346256Y187030D01*
X346392Y188061D01*
X346256Y189091D01*
X345858Y190051D01*
X345226Y190875D01*
X344401Y191508D01*
X343441Y191905D01*
X342411Y192041D01*
D02*
G37*
G36*
X362154Y196802D02*
X360874D01*
X359619Y196552D01*
X358437Y196063D01*
X357373Y195352D01*
X356468Y194447D01*
X355757Y193383D01*
X355268Y192201D01*
X355018Y190946D01*
Y189666D01*
X355268Y188411D01*
X355757Y187229D01*
X356468Y186165D01*
X357373Y185260D01*
X358437Y184549D01*
X359619Y184059D01*
X360874Y183810D01*
X362154D01*
X363409Y184059D01*
X364591Y184549D01*
X365655Y185260D01*
X366560Y186165D01*
X367271Y187229D01*
X367761Y188411D01*
X368010Y189666D01*
Y190946D01*
X367761Y192201D01*
X367271Y193383D01*
X366560Y194447D01*
X365655Y195352D01*
X364591Y196063D01*
X363409Y196552D01*
X362154Y196802D01*
D02*
G37*
G36*
X299433Y187175D02*
X298567D01*
X297768Y186844D01*
X297156Y186232D01*
X296825Y185433D01*
Y184567D01*
X297156Y183768D01*
X297768Y183156D01*
X298567Y182825D01*
X299433D01*
X300232Y183156D01*
X300844Y183768D01*
X301175Y184567D01*
Y185433D01*
X300844Y186232D01*
X300232Y186844D01*
X299433Y187175D01*
D02*
G37*
G36*
X304633Y186875D02*
X303767D01*
X302968Y186544D01*
X302356Y185932D01*
X302025Y185133D01*
Y184267D01*
X302356Y183468D01*
X302968Y182856D01*
X303767Y182525D01*
X304633D01*
X305432Y182856D01*
X306044Y183468D01*
X306375Y184267D01*
Y185133D01*
X306044Y185932D01*
X305432Y186544D01*
X304633Y186875D01*
D02*
G37*
G36*
X281133Y186807D02*
X280267D01*
X279468Y186476D01*
X278856Y185864D01*
X278525Y185065D01*
Y184200D01*
X278856Y183400D01*
X279468Y182789D01*
X280267Y182458D01*
X281133D01*
X281932Y182789D01*
X282544Y183400D01*
X282875Y184200D01*
Y185065D01*
X282544Y185864D01*
X281932Y186476D01*
X281133Y186807D01*
D02*
G37*
G36*
X99433Y183775D02*
X98567D01*
X97768Y183444D01*
X97156Y182832D01*
X96825Y182033D01*
Y181167D01*
X97156Y180368D01*
X97768Y179756D01*
X98567Y179425D01*
X99433D01*
X100232Y179756D01*
X100844Y180368D01*
X101175Y181167D01*
Y182033D01*
X100844Y182832D01*
X100232Y183444D01*
X99433Y183775D01*
D02*
G37*
G36*
X175221Y180291D02*
X174356D01*
X173556Y179960D01*
X172944Y179348D01*
X172613Y178549D01*
Y177684D01*
X172944Y176884D01*
X173556Y176273D01*
X174356Y175942D01*
X175221D01*
X176020Y176273D01*
X176632Y176884D01*
X176963Y177684D01*
Y178549D01*
X176632Y179348D01*
X176020Y179960D01*
X175221Y180291D01*
D02*
G37*
G36*
X129640Y180236D02*
X128774D01*
X127975Y179905D01*
X127363Y179293D01*
X127032Y178494D01*
Y177628D01*
X127363Y176829D01*
X127975Y176217D01*
X128774Y175886D01*
X129640D01*
X130439Y176217D01*
X131051Y176829D01*
X131382Y177628D01*
Y178494D01*
X131051Y179293D01*
X130439Y179905D01*
X129640Y180236D01*
D02*
G37*
G36*
X251233Y179875D02*
X250367D01*
X249568Y179544D01*
X248956Y178932D01*
X248625Y178133D01*
Y177267D01*
X248956Y176468D01*
X249568Y175856D01*
X250367Y175525D01*
X251233D01*
X252032Y175856D01*
X252644Y176468D01*
X252975Y177267D01*
Y178133D01*
X252644Y178932D01*
X252032Y179544D01*
X251233Y179875D01*
D02*
G37*
G36*
X342411Y182041D02*
X340442D01*
X339412Y181905D01*
X338452Y181508D01*
X337628Y180875D01*
X336995Y180051D01*
X336598Y179091D01*
X336462Y178061D01*
X336598Y177030D01*
X336995Y176070D01*
X337628Y175246D01*
X338452Y174613D01*
X339412Y174216D01*
X340442Y174080D01*
X342411D01*
X343441Y174216D01*
X344401Y174613D01*
X345226Y175246D01*
X345858Y176070D01*
X346256Y177030D01*
X346392Y178061D01*
X346256Y179091D01*
X345858Y180051D01*
X345226Y180875D01*
X344401Y181508D01*
X343441Y181905D01*
X342411Y182041D01*
D02*
G37*
G36*
X215195Y172810D02*
X214330D01*
X213530Y172478D01*
X212918Y171867D01*
X212676Y171282D01*
X211848D01*
X211606Y171867D01*
X210994Y172478D01*
X210195Y172810D01*
X209330D01*
X208530Y172478D01*
X207918Y171867D01*
X207676Y171282D01*
X206848D01*
X206606Y171867D01*
X205994Y172478D01*
X205195Y172810D01*
X204330D01*
X203530Y172478D01*
X202919Y171867D01*
X202676Y171282D01*
X201848D01*
X201606Y171867D01*
X200994Y172478D01*
X200195Y172810D01*
X199330D01*
X198530Y172478D01*
X197918Y171867D01*
X197676Y171282D01*
X196848D01*
X196606Y171867D01*
X195994Y172478D01*
X195195Y172810D01*
X194330D01*
X193530Y172478D01*
X192919Y171867D01*
X192676Y171282D01*
X191848D01*
X191606Y171867D01*
X190994Y172478D01*
X190195Y172810D01*
X189330D01*
X188530Y172478D01*
X187918Y171867D01*
X187587Y171067D01*
Y170202D01*
X187918Y169403D01*
X188530Y168791D01*
X189330Y168460D01*
X190195D01*
X190994Y168791D01*
X191606Y169403D01*
X191848Y169988D01*
X192676D01*
X192919Y169403D01*
X193530Y168791D01*
X194330Y168460D01*
X195195D01*
X195994Y168791D01*
X196606Y169403D01*
X196848Y169988D01*
X197676D01*
X197918Y169403D01*
X198530Y168791D01*
X199330Y168460D01*
X200195D01*
X200994Y168791D01*
X201606Y169403D01*
X201848Y169988D01*
X202676D01*
X202919Y169403D01*
X203530Y168791D01*
X204330Y168460D01*
X205195D01*
X205994Y168791D01*
X206606Y169403D01*
X206848Y169988D01*
X207676D01*
X207918Y169403D01*
X208530Y168791D01*
X209330Y168460D01*
X210195D01*
X210994Y168791D01*
X211606Y169403D01*
X211848Y169988D01*
X212676D01*
X212918Y169403D01*
X213530Y168791D01*
X214330Y168460D01*
X215195D01*
X215994Y168791D01*
X216606Y169403D01*
X216937Y170202D01*
Y171067D01*
X216606Y171867D01*
X215994Y172478D01*
X215195Y172810D01*
D02*
G37*
G36*
X152701Y173819D02*
X151836D01*
X151036Y173487D01*
X150424Y172876D01*
X150093Y172076D01*
Y171211D01*
X150424Y170412D01*
X151036Y169800D01*
X151836Y169469D01*
X152701D01*
X153500Y169800D01*
X154112Y170412D01*
X154443Y171211D01*
Y172076D01*
X154112Y172876D01*
X153500Y173487D01*
X152701Y173819D01*
D02*
G37*
G36*
X363581Y181840D02*
X359447D01*
X358291Y181688D01*
X357214Y181242D01*
X356288Y180532D01*
X355578Y179606D01*
X355132Y178529D01*
X354980Y177373D01*
Y173239D01*
X355132Y172083D01*
X355578Y171005D01*
X356288Y170080D01*
X357214Y169370D01*
X358291Y168924D01*
X359447Y168772D01*
X363581D01*
X364737Y168924D01*
X365815Y169370D01*
X366740Y170080D01*
X367450Y171005D01*
X367896Y172083D01*
X368049Y173239D01*
Y177373D01*
X367896Y178529D01*
X367450Y179606D01*
X366740Y180532D01*
X365815Y181242D01*
X364737Y181688D01*
X363581Y181840D01*
D02*
G37*
G36*
X139133Y171975D02*
X138267D01*
X137468Y171644D01*
X136856Y171032D01*
X136525Y170233D01*
Y169367D01*
X136856Y168568D01*
X137468Y167956D01*
X138267Y167625D01*
X139133D01*
X139932Y167956D01*
X140544Y168568D01*
X140875Y169367D01*
Y170233D01*
X140544Y171032D01*
X139932Y171644D01*
X139133Y171975D01*
D02*
G37*
G36*
X350533Y170775D02*
X349667D01*
X348868Y170444D01*
X348256Y169832D01*
X347925Y169033D01*
Y168167D01*
X348256Y167368D01*
X348868Y166756D01*
X349667Y166425D01*
X350533D01*
X351332Y166756D01*
X351944Y167368D01*
X352275Y168167D01*
Y169033D01*
X351944Y169832D01*
X351332Y170444D01*
X350533Y170775D01*
D02*
G37*
G36*
X183433Y166675D02*
X182567D01*
X181768Y166344D01*
X181156Y165732D01*
X180344D01*
X179732Y166344D01*
X178933Y166675D01*
X178067D01*
X177268Y166344D01*
X176656Y165732D01*
X175844D01*
X175232Y166344D01*
X174433Y166675D01*
X173567D01*
X172768Y166344D01*
X172156Y165732D01*
X172083Y165555D01*
X171217D01*
X171144Y165732D01*
X170532Y166344D01*
X169733Y166675D01*
X168867D01*
X168068Y166344D01*
X167456Y165732D01*
X167125Y164933D01*
Y164067D01*
X167456Y163268D01*
X168068Y162656D01*
X168867Y162325D01*
X169733D01*
X170532Y162656D01*
X171144Y163268D01*
X171217Y163445D01*
X172083D01*
X172156Y163268D01*
X172768Y162656D01*
X173567Y162325D01*
X174433D01*
X175232Y162656D01*
X175844Y163268D01*
X176656D01*
X177268Y162656D01*
X178067Y162325D01*
X178933D01*
X179732Y162656D01*
X180344Y163268D01*
X181156D01*
X181768Y162656D01*
X182567Y162325D01*
X183433D01*
X184232Y162656D01*
X184844Y163268D01*
X185175Y164067D01*
Y164933D01*
X184844Y165732D01*
X184232Y166344D01*
X183433Y166675D01*
D02*
G37*
G36*
X11584Y202080D02*
X9616D01*
X8585Y201945D01*
X7626Y201547D01*
X6801Y200915D01*
X6168Y200090D01*
X5771Y199130D01*
X5635Y198100D01*
X5771Y197070D01*
X6168Y196110D01*
X6801Y195285D01*
X7626Y194653D01*
X8014Y194492D01*
X8068Y194071D01*
X7977Y193641D01*
X6718Y193120D01*
X5517Y192198D01*
X4596Y190998D01*
X4017Y189600D01*
X3820Y188100D01*
X4017Y186600D01*
X4596Y185202D01*
X5517Y184002D01*
X6171Y183500D01*
Y182700D01*
X5517Y182198D01*
X4596Y180998D01*
X4017Y179600D01*
X3820Y178100D01*
X4017Y176600D01*
X4596Y175202D01*
X5517Y174002D01*
X6718Y173081D01*
X7977Y172559D01*
X8068Y172129D01*
X8014Y171708D01*
X7626Y171547D01*
X6801Y170915D01*
X6168Y170090D01*
X5771Y169130D01*
X5635Y168100D01*
X5771Y167070D01*
X6168Y166110D01*
X6801Y165285D01*
X7626Y164653D01*
X8585Y164255D01*
X9616Y164120D01*
X11584D01*
X12615Y164255D01*
X13575Y164653D01*
X14399Y165285D01*
X15032Y166110D01*
X15429Y167070D01*
X15565Y168100D01*
X15429Y169130D01*
X15032Y170090D01*
X14399Y170915D01*
X13575Y171547D01*
X13186Y171708D01*
X13132Y172129D01*
X13223Y172559D01*
X14482Y173081D01*
X15683Y174002D01*
X16604Y175202D01*
X17183Y176600D01*
X17380Y178100D01*
X17183Y179600D01*
X16604Y180998D01*
X15683Y182198D01*
X15029Y182700D01*
Y183500D01*
X15683Y184002D01*
X16604Y185202D01*
X17183Y186600D01*
X17380Y188100D01*
X17183Y189600D01*
X16604Y190998D01*
X15683Y192198D01*
X14482Y193120D01*
X13223Y193641D01*
X13132Y194071D01*
X13186Y194492D01*
X13575Y194653D01*
X14399Y195285D01*
X15032Y196110D01*
X15429Y197070D01*
X15565Y198100D01*
X15429Y199130D01*
X15032Y200090D01*
X14399Y200915D01*
X13575Y201547D01*
X12615Y201945D01*
X11584Y202080D01*
D02*
G37*
G36*
X342411Y172041D02*
X340442D01*
X339412Y171906D01*
X338452Y171508D01*
X337628Y170875D01*
X336995Y170051D01*
X336598Y169091D01*
X336462Y168061D01*
X336598Y167030D01*
X336995Y166070D01*
X337628Y165246D01*
X338452Y164613D01*
X339412Y164216D01*
X340442Y164080D01*
X342411D01*
X343441Y164216D01*
X344401Y164613D01*
X345226Y165246D01*
X345858Y166070D01*
X346256Y167030D01*
X346392Y168061D01*
X346256Y169091D01*
X345858Y170051D01*
X345226Y170875D01*
X344401Y171508D01*
X343441Y171906D01*
X342411Y172041D01*
D02*
G37*
G36*
X225233Y167575D02*
X224367D01*
X223568Y167244D01*
X222956Y166632D01*
X222625Y165833D01*
Y164967D01*
X222956Y164168D01*
X223568Y163556D01*
X224367Y163225D01*
X225233D01*
X226032Y163556D01*
X226644Y164168D01*
X226975Y164967D01*
Y165833D01*
X226644Y166632D01*
X226032Y167244D01*
X225233Y167575D01*
D02*
G37*
G36*
X40333Y166375D02*
X39467D01*
X38668Y166044D01*
X38056Y165432D01*
X37725Y164633D01*
Y163767D01*
X38056Y162968D01*
X38668Y162356D01*
X39467Y162025D01*
X40333D01*
X41132Y162356D01*
X41744Y162968D01*
X42075Y163767D01*
Y164633D01*
X41744Y165432D01*
X41132Y166044D01*
X40333Y166375D01*
D02*
G37*
G36*
X306233Y163175D02*
X305367D01*
X304568Y162844D01*
X303956Y162232D01*
X303625Y161433D01*
Y160567D01*
X303956Y159768D01*
X304568Y159156D01*
X305367Y158825D01*
X306233D01*
X307032Y159156D01*
X307644Y159768D01*
X307975Y160567D01*
Y161433D01*
X307644Y162232D01*
X307032Y162844D01*
X306233Y163175D01*
D02*
G37*
G36*
X89333Y158875D02*
X88467D01*
X87668Y158544D01*
X87056Y157932D01*
X86725Y157133D01*
Y156267D01*
X87056Y155468D01*
X87668Y154856D01*
X88467Y154525D01*
X89333D01*
X90132Y154856D01*
X90744Y155468D01*
X91075Y156267D01*
Y157133D01*
X90744Y157932D01*
X90132Y158544D01*
X89333Y158875D01*
D02*
G37*
G36*
X59233Y158775D02*
X58367D01*
X57568Y158444D01*
X56956Y157832D01*
X56625Y157033D01*
Y156167D01*
X56956Y155368D01*
X57568Y154756D01*
X58367Y154425D01*
X59233D01*
X60032Y154756D01*
X60644Y155368D01*
X60975Y156167D01*
Y157033D01*
X60644Y157832D01*
X60032Y158444D01*
X59233Y158775D01*
D02*
G37*
G36*
X342411Y162041D02*
X340442D01*
X339412Y161906D01*
X338452Y161508D01*
X337628Y160875D01*
X336995Y160051D01*
X336598Y159091D01*
X336462Y158061D01*
X336598Y157030D01*
X336995Y156070D01*
X337628Y155246D01*
X338452Y154613D01*
X339412Y154216D01*
X340442Y154080D01*
X342411D01*
X343441Y154216D01*
X344401Y154613D01*
X345226Y155246D01*
X345858Y156070D01*
X346256Y157030D01*
X346392Y158061D01*
X346256Y159091D01*
X345858Y160051D01*
X345226Y160875D01*
X344401Y161508D01*
X343441Y161906D01*
X342411Y162041D01*
D02*
G37*
G36*
X259433Y156175D02*
X258567D01*
X257768Y155844D01*
X257156Y155232D01*
X256825Y154433D01*
Y153567D01*
X257156Y152768D01*
X257768Y152156D01*
X258567Y151825D01*
X259433D01*
X260232Y152156D01*
X260844Y152768D01*
X261175Y153567D01*
Y154433D01*
X260844Y155232D01*
X260232Y155844D01*
X259433Y156175D01*
D02*
G37*
G36*
X253933D02*
X253067D01*
X252268Y155844D01*
X251656Y155232D01*
X251325Y154433D01*
Y153567D01*
X251656Y152768D01*
X252268Y152156D01*
X253067Y151825D01*
X253933D01*
X254732Y152156D01*
X255344Y152768D01*
X255675Y153567D01*
Y154433D01*
X255344Y155232D01*
X254732Y155844D01*
X253933Y156175D01*
D02*
G37*
G36*
X248433D02*
X247567D01*
X246768Y155844D01*
X246156Y155232D01*
X245825Y154433D01*
Y153567D01*
X246156Y152768D01*
X246768Y152156D01*
X247567Y151825D01*
X248433D01*
X249232Y152156D01*
X249844Y152768D01*
X250175Y153567D01*
Y154433D01*
X249844Y155232D01*
X249232Y155844D01*
X248433Y156175D01*
D02*
G37*
G36*
X242933D02*
X242067D01*
X241268Y155844D01*
X240656Y155232D01*
X240325Y154433D01*
Y153567D01*
X240656Y152768D01*
X241268Y152156D01*
X242067Y151825D01*
X242933D01*
X243732Y152156D01*
X244344Y152768D01*
X244675Y153567D01*
Y154433D01*
X244344Y155232D01*
X243732Y155844D01*
X242933Y156175D01*
D02*
G37*
G36*
X39533Y156075D02*
X38667D01*
X37868Y155744D01*
X37256Y155132D01*
X36925Y154333D01*
Y153467D01*
X37256Y152668D01*
X37868Y152056D01*
X38667Y151725D01*
X39533D01*
X40332Y152056D01*
X40944Y152668D01*
X41275Y153467D01*
Y154333D01*
X40944Y155132D01*
X40332Y155744D01*
X39533Y156075D01*
D02*
G37*
G36*
X276874Y158800D02*
X275926D01*
X275010Y158555D01*
X274190Y158081D01*
X273519Y157410D01*
X273045Y156590D01*
X272800Y155674D01*
Y154726D01*
X273045Y153810D01*
X273519Y152990D01*
X274190Y152319D01*
X275010Y151845D01*
X275926Y151600D01*
X276874D01*
X277790Y151845D01*
X278610Y152319D01*
X279281Y152990D01*
X279755Y153810D01*
X280000Y154726D01*
Y155674D01*
X279755Y156590D01*
X279281Y157410D01*
X278610Y158081D01*
X277790Y158555D01*
X276874Y158800D01*
D02*
G37*
G36*
X362254Y161102D02*
X360974D01*
X359719Y160852D01*
X358537Y160363D01*
X357473Y159652D01*
X356568Y158747D01*
X355857Y157683D01*
X355368Y156501D01*
X355118Y155246D01*
Y153966D01*
X355368Y152711D01*
X355857Y151529D01*
X356568Y150465D01*
X357473Y149560D01*
X358537Y148849D01*
X359719Y148359D01*
X360974Y148110D01*
X362254D01*
X363509Y148359D01*
X364691Y148849D01*
X365755Y149560D01*
X366660Y150465D01*
X367371Y151529D01*
X367861Y152711D01*
X368110Y153966D01*
Y155246D01*
X367861Y156501D01*
X367371Y157683D01*
X366660Y158747D01*
X365755Y159652D01*
X364691Y160363D01*
X363509Y160852D01*
X362254Y161102D01*
D02*
G37*
G36*
X90018Y152937D02*
X88982D01*
X87980Y152669D01*
X87083Y152150D01*
X86350Y151417D01*
X85831Y150520D01*
X85563Y149518D01*
Y148482D01*
X85831Y147480D01*
X86036Y147125D01*
X85831Y146770D01*
X85563Y145769D01*
Y144732D01*
X85831Y143731D01*
X86350Y142833D01*
X87083Y142100D01*
X87980Y141582D01*
X88982Y141313D01*
X90018D01*
X91020Y141582D01*
X91917Y142100D01*
X92650Y142833D01*
X93169Y143731D01*
X93437Y144732D01*
Y145769D01*
X93169Y146770D01*
X92964Y147125D01*
X93169Y147480D01*
X93437Y148482D01*
Y149518D01*
X93169Y150520D01*
X92650Y151417D01*
X91917Y152150D01*
X91020Y152669D01*
X90018Y152937D01*
D02*
G37*
G36*
X290433Y141500D02*
X289567D01*
X288768Y141169D01*
X288156Y140557D01*
X287825Y139758D01*
Y138893D01*
X288156Y138093D01*
X288768Y137481D01*
X289567Y137150D01*
X290433D01*
X291232Y137481D01*
X291844Y138093D01*
X292175Y138893D01*
Y139758D01*
X291844Y140557D01*
X291232Y141169D01*
X290433Y141500D01*
D02*
G37*
G36*
X284365D02*
X283500D01*
X282701Y141169D01*
X282089Y140557D01*
X281758Y139758D01*
Y138893D01*
X282089Y138093D01*
X282701Y137481D01*
X283500Y137150D01*
X284365D01*
X285164Y137481D01*
X285776Y138093D01*
X286107Y138893D01*
Y139758D01*
X285776Y140557D01*
X285164Y141169D01*
X284365Y141500D01*
D02*
G37*
G36*
X277865D02*
X277000D01*
X276201Y141169D01*
X275589Y140557D01*
X275258Y139758D01*
Y138893D01*
X275589Y138093D01*
X276201Y137481D01*
X277000Y137150D01*
X277865D01*
X278664Y137481D01*
X279276Y138093D01*
X279607Y138893D01*
Y139758D01*
X279276Y140557D01*
X278664Y141169D01*
X277865Y141500D01*
D02*
G37*
G36*
X342533Y140575D02*
X341667D01*
X340868Y140244D01*
X340256Y139632D01*
X339925Y138833D01*
Y137967D01*
X340256Y137168D01*
X340868Y136556D01*
X341667Y136225D01*
X342533D01*
X343332Y136556D01*
X343944Y137168D01*
X344275Y137967D01*
Y138833D01*
X343944Y139632D01*
X343332Y140244D01*
X342533Y140575D01*
D02*
G37*
G36*
X31438Y140236D02*
X30573D01*
X29773Y139904D01*
X29162Y139293D01*
X28831Y138493D01*
Y137628D01*
X29162Y136829D01*
X29773Y136217D01*
X30573Y135886D01*
X31438D01*
X32237Y136217D01*
X32849Y136829D01*
X33180Y137628D01*
Y138493D01*
X32849Y139293D01*
X32237Y139904D01*
X31438Y140236D01*
D02*
G37*
G36*
X363681Y146140D02*
X359547D01*
X358391Y145988D01*
X357314Y145542D01*
X356388Y144832D01*
X355679Y143906D01*
X355232Y142829D01*
X355080Y141673D01*
Y137539D01*
X355232Y136383D01*
X355679Y135305D01*
X356388Y134380D01*
X357314Y133670D01*
X358391Y133224D01*
X359547Y133071D01*
X363681D01*
X364837Y133224D01*
X365915Y133670D01*
X366840Y134380D01*
X367550Y135305D01*
X367996Y136383D01*
X368148Y137539D01*
Y141673D01*
X367996Y142829D01*
X367550Y143906D01*
X366840Y144832D01*
X365915Y145542D01*
X364837Y145988D01*
X363681Y146140D01*
D02*
G37*
G36*
X350237Y137316D02*
X349372D01*
X348573Y136985D01*
X347961Y136373D01*
X347630Y135573D01*
Y134708D01*
X347961Y133909D01*
X348573Y133297D01*
X349372Y132966D01*
X350237D01*
X351037Y133297D01*
X351648Y133909D01*
X351980Y134708D01*
Y135573D01*
X351648Y136373D01*
X351037Y136985D01*
X350237Y137316D01*
D02*
G37*
G36*
X287040Y136175D02*
X286175D01*
X285375Y135844D01*
X284764Y135232D01*
X284433Y134433D01*
Y133567D01*
X284764Y132768D01*
X285375Y132156D01*
X286175Y131825D01*
X287040D01*
X287839Y132156D01*
X288451Y132768D01*
X288782Y133567D01*
Y134433D01*
X288451Y135232D01*
X287839Y135844D01*
X287040Y136175D01*
D02*
G37*
G36*
X159908Y134427D02*
X159043D01*
X158244Y134096D01*
X157632Y133484D01*
X157301Y132685D01*
Y131819D01*
X157632Y131020D01*
X158244Y130408D01*
X159043Y130077D01*
X159908D01*
X160707Y130408D01*
X161319Y131020D01*
X161650Y131819D01*
Y132685D01*
X161319Y133484D01*
X160707Y134096D01*
X159908Y134427D01*
D02*
G37*
G36*
X178733Y134375D02*
X177867D01*
X177068Y134044D01*
X176456Y133432D01*
X176125Y132633D01*
Y131767D01*
X176456Y130968D01*
X177068Y130356D01*
X177867Y130025D01*
X178733D01*
X179532Y130356D01*
X180144Y130968D01*
X180475Y131767D01*
Y132633D01*
X180144Y133432D01*
X179532Y134044D01*
X178733Y134375D01*
D02*
G37*
G36*
X132165Y133881D02*
X131300D01*
X130501Y133550D01*
X129889Y132938D01*
X129558Y132139D01*
Y131274D01*
X129889Y130474D01*
X130501Y129863D01*
X131300Y129532D01*
X132165D01*
X132965Y129863D01*
X133576Y130474D01*
X133907Y131274D01*
Y132139D01*
X133576Y132938D01*
X132965Y133550D01*
X132165Y133881D01*
D02*
G37*
G36*
X294933Y133775D02*
X294067D01*
X293268Y133444D01*
X292656Y132832D01*
X292325Y132033D01*
Y131167D01*
X292656Y130368D01*
X293268Y129756D01*
X294067Y129425D01*
X294933D01*
X295732Y129756D01*
X296344Y130368D01*
X296675Y131167D01*
Y132033D01*
X296344Y132832D01*
X295732Y133444D01*
X294933Y133775D01*
D02*
G37*
G36*
X197133Y127275D02*
X196267D01*
X195468Y126944D01*
X194856Y126332D01*
X194525Y125533D01*
Y124667D01*
X194856Y123868D01*
X195468Y123256D01*
X196267Y122925D01*
X197133D01*
X197932Y123256D01*
X198544Y123868D01*
X198875Y124667D01*
Y125533D01*
X198544Y126332D01*
X197932Y126944D01*
X197133Y127275D01*
D02*
G37*
G36*
X88833Y124675D02*
X87967D01*
X87168Y124344D01*
X86556Y123732D01*
X86225Y122933D01*
Y122067D01*
X86556Y121268D01*
X87168Y120656D01*
X87967Y120325D01*
X88833D01*
X89632Y120656D01*
X89827Y120852D01*
X90459Y121126D01*
X90873Y120852D01*
X91168Y120556D01*
X91967Y120225D01*
X92833D01*
X93632Y120556D01*
X94244Y121168D01*
X94575Y121967D01*
Y122833D01*
X94244Y123632D01*
X93632Y124244D01*
X92833Y124575D01*
X91967D01*
X91168Y124244D01*
X90973Y124048D01*
X90341Y123774D01*
X89927Y124048D01*
X89632Y124344D01*
X88833Y124675D01*
D02*
G37*
G36*
X191033Y121975D02*
X190167D01*
X189368Y121644D01*
X188756Y121032D01*
X188425Y120233D01*
Y119367D01*
X188756Y118568D01*
X189368Y117956D01*
X190167Y117625D01*
X191033D01*
X191832Y117956D01*
X192444Y118568D01*
X192775Y119367D01*
Y120233D01*
X192444Y121032D01*
X191832Y121644D01*
X191033Y121975D01*
D02*
G37*
G36*
X362223Y123634D02*
X360977D01*
X359773Y123311D01*
X358693Y122688D01*
X357812Y121807D01*
X357189Y120727D01*
X356866Y119523D01*
Y118277D01*
X357189Y117073D01*
X357812Y115993D01*
X358693Y115112D01*
X359773Y114489D01*
X360977Y114166D01*
X362223D01*
X363427Y114489D01*
X364507Y115112D01*
X365388Y115993D01*
X366011Y117073D01*
X366334Y118277D01*
Y119523D01*
X366011Y120727D01*
X365388Y121807D01*
X364507Y122688D01*
X363427Y123311D01*
X362223Y123634D01*
D02*
G37*
G36*
X326933Y117675D02*
X326067D01*
X325268Y117344D01*
X324656Y116732D01*
X324325Y115933D01*
Y115067D01*
X324656Y114268D01*
X325268Y113656D01*
X326067Y113325D01*
X326933D01*
X327732Y113656D01*
X328344Y114268D01*
X328675Y115067D01*
Y115933D01*
X328344Y116732D01*
X327732Y117344D01*
X326933Y117675D01*
D02*
G37*
G36*
X198833Y116375D02*
X197967D01*
X197168Y116044D01*
X196556Y115432D01*
X196225Y114633D01*
Y113767D01*
X196556Y112968D01*
X197168Y112356D01*
X197967Y112025D01*
X198833D01*
X199632Y112356D01*
X200244Y112968D01*
X200575Y113767D01*
Y114633D01*
X200244Y115432D01*
X199632Y116044D01*
X198833Y116375D01*
D02*
G37*
G36*
X167033Y109975D02*
X166167D01*
X165368Y109644D01*
X164756Y109032D01*
X164425Y108233D01*
Y107367D01*
X164756Y106568D01*
X165368Y105956D01*
X166167Y105625D01*
X167033D01*
X167832Y105956D01*
X168444Y106568D01*
X168775Y107367D01*
Y108233D01*
X168444Y109032D01*
X167832Y109644D01*
X167033Y109975D01*
D02*
G37*
G36*
X11584Y162081D02*
X9616D01*
X8585Y161945D01*
X7626Y161547D01*
X6801Y160915D01*
X6168Y160090D01*
X5771Y159130D01*
X5635Y158100D01*
X5771Y157070D01*
X6168Y156110D01*
X6801Y155285D01*
X7626Y154653D01*
X8014Y154492D01*
X8068Y154071D01*
X7977Y153641D01*
X6718Y153120D01*
X5517Y152198D01*
X4596Y150998D01*
X4017Y149600D01*
X3820Y148100D01*
X4017Y146600D01*
X4596Y145202D01*
X5517Y144002D01*
X6718Y143080D01*
X7977Y142559D01*
X8068Y142129D01*
X8014Y141708D01*
X7626Y141547D01*
X6801Y140915D01*
X6168Y140090D01*
X5771Y139130D01*
X5635Y138100D01*
X5771Y137070D01*
X6168Y136110D01*
X6801Y135285D01*
X7626Y134653D01*
X8014Y134492D01*
X8068Y134071D01*
X7977Y133641D01*
X6718Y133119D01*
X5517Y132198D01*
X4596Y130998D01*
X4017Y129600D01*
X3820Y128100D01*
X4017Y126600D01*
X4596Y125202D01*
X5517Y124002D01*
X6171Y123500D01*
Y122700D01*
X5517Y122198D01*
X4596Y120998D01*
X4017Y119600D01*
X3820Y118100D01*
X4017Y116600D01*
X4596Y115202D01*
X5517Y114002D01*
X6718Y113081D01*
X7977Y112559D01*
X8068Y112129D01*
X8014Y111708D01*
X7626Y111547D01*
X6801Y110915D01*
X6168Y110090D01*
X5771Y109130D01*
X5635Y108100D01*
X5771Y107070D01*
X6168Y106110D01*
X6801Y105285D01*
X7626Y104653D01*
X8585Y104255D01*
X9616Y104120D01*
X11584D01*
X12615Y104255D01*
X13575Y104653D01*
X14399Y105285D01*
X15032Y106110D01*
X15429Y107070D01*
X15565Y108100D01*
X15429Y109130D01*
X15032Y110090D01*
X14399Y110915D01*
X13575Y111547D01*
X13186Y111708D01*
X13132Y112129D01*
X13223Y112559D01*
X14482Y113081D01*
X15683Y114002D01*
X16604Y115202D01*
X17183Y116600D01*
X17380Y118100D01*
X17183Y119600D01*
X16604Y120998D01*
X15683Y122198D01*
X15029Y122700D01*
Y123500D01*
X15683Y124002D01*
X16604Y125202D01*
X17183Y126600D01*
X17380Y128100D01*
X17183Y129600D01*
X16604Y130998D01*
X15683Y132198D01*
X14482Y133119D01*
X13223Y133641D01*
X13132Y134071D01*
X13186Y134492D01*
X13575Y134653D01*
X14399Y135285D01*
X15032Y136110D01*
X15429Y137070D01*
X15565Y138100D01*
X15429Y139130D01*
X15032Y140090D01*
X14399Y140915D01*
X13575Y141547D01*
X13186Y141708D01*
X13132Y142129D01*
X13223Y142559D01*
X14482Y143080D01*
X15683Y144002D01*
X16604Y145202D01*
X17183Y146600D01*
X17380Y148100D01*
X17183Y149600D01*
X16604Y150998D01*
X15683Y152198D01*
X14482Y153120D01*
X13223Y153641D01*
X13132Y154071D01*
X13186Y154492D01*
X13575Y154653D01*
X14399Y155285D01*
X15032Y156110D01*
X15429Y157070D01*
X15565Y158100D01*
X15429Y159130D01*
X15032Y160090D01*
X14399Y160915D01*
X13575Y161547D01*
X12615Y161945D01*
X11584Y162081D01*
D02*
G37*
G36*
X256374Y110400D02*
X255426D01*
X254510Y110155D01*
X253690Y109681D01*
X253019Y109010D01*
X252545Y108190D01*
X252300Y107274D01*
Y106326D01*
X252545Y105410D01*
X253019Y104590D01*
X253690Y103919D01*
X254510Y103445D01*
X255426Y103200D01*
X256374D01*
X257290Y103445D01*
X258110Y103919D01*
X258781Y104590D01*
X259255Y105410D01*
X259500Y106326D01*
Y107274D01*
X259255Y108190D01*
X258781Y109010D01*
X258110Y109681D01*
X257290Y110155D01*
X256374Y110400D01*
D02*
G37*
G36*
X195333Y105278D02*
X194467D01*
X193668Y104947D01*
X193056Y104335D01*
X192725Y103536D01*
Y102671D01*
X193056Y101871D01*
X193668Y101259D01*
X194467Y100928D01*
X195333D01*
X196132Y101259D01*
X196744Y101871D01*
X197075Y102671D01*
Y103536D01*
X196744Y104335D01*
X196132Y104947D01*
X195333Y105278D01*
D02*
G37*
G36*
X362223Y108634D02*
X360977D01*
X359773Y108311D01*
X358693Y107688D01*
X357812Y106807D01*
X357189Y105727D01*
X356866Y104523D01*
Y103277D01*
X357189Y102073D01*
X357812Y100993D01*
X358693Y100112D01*
X359773Y99489D01*
X360977Y99166D01*
X362223D01*
X363427Y99489D01*
X364507Y100112D01*
X365388Y100993D01*
X366011Y102073D01*
X366334Y103277D01*
Y104523D01*
X366011Y105727D01*
X365388Y106807D01*
X364507Y107688D01*
X363427Y108311D01*
X362223Y108634D01*
D02*
G37*
G36*
X295274Y104600D02*
X294326D01*
X293410Y104355D01*
X292590Y103881D01*
X291919Y103210D01*
X291445Y102390D01*
X291200Y101474D01*
Y100526D01*
X291445Y99611D01*
X291919Y98790D01*
X292590Y98119D01*
X293410Y97645D01*
X294326Y97400D01*
X295274D01*
X296190Y97645D01*
X297010Y98119D01*
X297681Y98790D01*
X298155Y99611D01*
X298400Y100526D01*
Y101474D01*
X298155Y102390D01*
X297681Y103210D01*
X297010Y103881D01*
X296190Y104355D01*
X295274Y104600D01*
D02*
G37*
G36*
X38308Y99626D02*
X37443D01*
X36644Y99295D01*
X36032Y98684D01*
X35701Y97884D01*
Y97019D01*
X36032Y96220D01*
X36644Y95608D01*
X37443Y95277D01*
X38308D01*
X39107Y95608D01*
X39719Y96220D01*
X40050Y97019D01*
Y97884D01*
X39719Y98684D01*
X39107Y99295D01*
X38308Y99626D01*
D02*
G37*
G36*
X110833Y98175D02*
X109967D01*
X109168Y97844D01*
X108556Y97232D01*
X108225Y96433D01*
Y95567D01*
X108556Y94768D01*
X109168Y94156D01*
X109967Y93825D01*
X110833D01*
X111632Y94156D01*
X112244Y94768D01*
X112575Y95567D01*
Y96433D01*
X112244Y97232D01*
X111632Y97844D01*
X110833Y98175D01*
D02*
G37*
G36*
X44018Y91937D02*
X42982D01*
X41980Y91669D01*
X41625Y91464D01*
X41270Y91669D01*
X40269Y91937D01*
X39232D01*
X38231Y91669D01*
X37333Y91150D01*
X36600Y90417D01*
X36082Y89520D01*
X35813Y88518D01*
Y87482D01*
X36082Y86480D01*
X36600Y85583D01*
X37333Y84850D01*
X38231Y84331D01*
X39232Y84063D01*
X40269D01*
X41270Y84331D01*
X41625Y84536D01*
X41980Y84331D01*
X42982Y84063D01*
X44018D01*
X45020Y84331D01*
X45917Y84850D01*
X46650Y85583D01*
X47169Y86480D01*
X47437Y87482D01*
Y88518D01*
X47169Y89520D01*
X46650Y90417D01*
X45917Y91150D01*
X45020Y91669D01*
X44018Y91937D01*
D02*
G37*
G36*
X124133Y94475D02*
X123267D01*
X122468Y94144D01*
X121856Y93532D01*
X121525Y92733D01*
Y91867D01*
X121856Y91068D01*
X122468Y90456D01*
X123267Y90125D01*
X124133D01*
X124932Y90456D01*
X125544Y91068D01*
X125875Y91867D01*
Y92733D01*
X125544Y93532D01*
X124932Y94144D01*
X124133Y94475D01*
D02*
G37*
G36*
X65510Y92652D02*
X64645D01*
X63845Y92321D01*
X63234Y91709D01*
X62902Y90910D01*
Y90045D01*
X63234Y89245D01*
X63845Y88634D01*
X64645Y88302D01*
X65510D01*
X66309Y88634D01*
X66921Y89245D01*
X67252Y90045D01*
Y90910D01*
X66921Y91709D01*
X66309Y92321D01*
X65510Y92652D01*
D02*
G37*
G36*
X256474Y93900D02*
X255526D01*
X254610Y93655D01*
X253790Y93181D01*
X253119Y92510D01*
X252645Y91689D01*
X252400Y90774D01*
Y89826D01*
X252645Y88911D01*
X253119Y88090D01*
X253790Y87419D01*
X254610Y86945D01*
X255526Y86700D01*
X256474D01*
X257390Y86945D01*
X258210Y87419D01*
X258881Y88090D01*
X259355Y88911D01*
X259600Y89826D01*
Y90774D01*
X259355Y91689D01*
X258881Y92510D01*
X258210Y93181D01*
X257390Y93655D01*
X256474Y93900D01*
D02*
G37*
G36*
X313033Y88875D02*
X312167D01*
X311368Y88544D01*
X310756Y87932D01*
X310425Y87133D01*
Y86267D01*
X310756Y85468D01*
X311368Y84856D01*
X312167Y84525D01*
X313033D01*
X313832Y84856D01*
X314444Y85468D01*
X314775Y86267D01*
Y87133D01*
X314444Y87932D01*
X313832Y88544D01*
X313033Y88875D01*
D02*
G37*
G36*
X168433Y88775D02*
X167567D01*
X166768Y88444D01*
X166156Y87832D01*
X165825Y87033D01*
Y86167D01*
X166156Y85368D01*
X166768Y84756D01*
X167567Y84425D01*
X168433D01*
X169232Y84756D01*
X169844Y85368D01*
X170175Y86167D01*
Y87033D01*
X169844Y87832D01*
X169232Y88444D01*
X168433Y88775D01*
D02*
G37*
G36*
X69521Y88641D02*
X68656D01*
X67857Y88310D01*
X67245Y87698D01*
X66914Y86898D01*
Y86033D01*
X67245Y85234D01*
X67857Y84622D01*
X68656Y84291D01*
X69521D01*
X70321Y84622D01*
X70932Y85234D01*
X71263Y86033D01*
Y86898D01*
X70932Y87698D01*
X70321Y88310D01*
X69521Y88641D01*
D02*
G37*
G36*
X362223Y93634D02*
X360977D01*
X359773Y93311D01*
X358693Y92688D01*
X357812Y91807D01*
X357189Y90727D01*
X356866Y89523D01*
Y88277D01*
X357189Y87073D01*
X357812Y85993D01*
X358693Y85112D01*
X359773Y84489D01*
X360977Y84166D01*
X362223D01*
X363427Y84489D01*
X364507Y85112D01*
X365388Y85993D01*
X366011Y87073D01*
X366334Y88277D01*
Y89523D01*
X366011Y90727D01*
X365388Y91807D01*
X364507Y92688D01*
X363427Y93311D01*
X362223Y93634D01*
D02*
G37*
G36*
X28933Y80675D02*
X28067D01*
X27268Y80344D01*
X26656Y79732D01*
X26325Y78933D01*
Y78067D01*
X26656Y77268D01*
X27268Y76656D01*
X28067Y76325D01*
X28933D01*
X29732Y76656D01*
X30344Y77268D01*
X30675Y78067D01*
Y78933D01*
X30344Y79732D01*
X29732Y80344D01*
X28933Y80675D01*
D02*
G37*
G36*
X95333Y79775D02*
X94467D01*
X93668Y79444D01*
X93056Y78832D01*
X92725Y78033D01*
Y77167D01*
X93056Y76368D01*
X93668Y75756D01*
X94467Y75425D01*
X95333D01*
X96132Y75756D01*
X96744Y76368D01*
X97075Y77167D01*
Y78033D01*
X96744Y78832D01*
X96132Y79444D01*
X95333Y79775D01*
D02*
G37*
G36*
X76033Y79275D02*
X75167D01*
X74368Y78944D01*
X73756Y78332D01*
X73425Y77533D01*
Y76667D01*
X73756Y75868D01*
X74368Y75256D01*
X75167Y74925D01*
X76033D01*
X76832Y75256D01*
X77444Y75868D01*
X77775Y76667D01*
Y77533D01*
X77444Y78332D01*
X76832Y78944D01*
X76033Y79275D01*
D02*
G37*
G36*
X363667Y78859D02*
X362350D01*
Y74650D01*
X366559D01*
Y75967D01*
X366460Y76715D01*
X366171Y77413D01*
X365712Y78012D01*
X365113Y78471D01*
X364415Y78760D01*
X363667Y78859D01*
D02*
G37*
G36*
X360850D02*
X359533D01*
X358785Y78760D01*
X358087Y78471D01*
X357488Y78012D01*
X357029Y77413D01*
X356740Y76715D01*
X356641Y75967D01*
Y74650D01*
X360850D01*
Y78859D01*
D02*
G37*
G36*
X177333Y78875D02*
X176467D01*
X175668Y78544D01*
X175056Y77932D01*
X174725Y77133D01*
Y76267D01*
X175056Y75468D01*
X175668Y74856D01*
X176467Y74525D01*
X177333D01*
X178132Y74856D01*
X178744Y75468D01*
X179075Y76267D01*
Y77133D01*
X178744Y77932D01*
X178132Y78544D01*
X177333Y78875D01*
D02*
G37*
G36*
X301933Y78275D02*
X301067D01*
X300268Y77944D01*
X299656Y77332D01*
X299325Y76533D01*
Y75667D01*
X299656Y74868D01*
X300268Y74256D01*
X301067Y73925D01*
X301933D01*
X302732Y74256D01*
X303344Y74868D01*
X303675Y75667D01*
Y76533D01*
X303344Y77332D01*
X302732Y77944D01*
X301933Y78275D01*
D02*
G37*
G36*
X342145Y83858D02*
X340708D01*
X339300Y83577D01*
X337972Y83027D01*
X336778Y82229D01*
X335762Y81213D01*
X334964Y80019D01*
X334414Y78692D01*
X334134Y77283D01*
Y75846D01*
X334414Y74437D01*
X334964Y73110D01*
X335762Y71916D01*
X336778Y70900D01*
X337972Y70102D01*
X339300Y69552D01*
X340708Y69272D01*
X342145D01*
X343554Y69552D01*
X344881Y70102D01*
X346076Y70900D01*
X347092Y71916D01*
X347890Y73110D01*
X348439Y74437D01*
X348720Y75846D01*
Y77283D01*
X348439Y78692D01*
X347890Y80019D01*
X347092Y81213D01*
X346076Y82229D01*
X344881Y83027D01*
X343554Y83577D01*
X342145Y83858D01*
D02*
G37*
G36*
X15255D02*
X13819D01*
X12410Y83577D01*
X11083Y83027D01*
X9888Y82229D01*
X8872Y81213D01*
X8074Y80019D01*
X7524Y78692D01*
X7244Y77283D01*
Y75846D01*
X7524Y74437D01*
X8074Y73110D01*
X8872Y71916D01*
X9888Y70900D01*
X11083Y70102D01*
X12410Y69552D01*
X13819Y69272D01*
X15255D01*
X16664Y69552D01*
X17991Y70102D01*
X19186Y70900D01*
X20202Y71916D01*
X21000Y73110D01*
X21550Y74437D01*
X21830Y75846D01*
Y77283D01*
X21550Y78692D01*
X21000Y80019D01*
X20202Y81213D01*
X19186Y82229D01*
X17991Y83027D01*
X16664Y83577D01*
X15255Y83858D01*
D02*
G37*
G36*
X366559Y73150D02*
X362350D01*
Y68941D01*
X363667D01*
X364415Y69040D01*
X365113Y69329D01*
X365712Y69788D01*
X366171Y70387D01*
X366460Y71085D01*
X366559Y71833D01*
Y73150D01*
D02*
G37*
G36*
X360850D02*
X356641D01*
Y71833D01*
X356740Y71085D01*
X357029Y70387D01*
X357488Y69788D01*
X358087Y69329D01*
X358785Y69040D01*
X359533Y68941D01*
X360850D01*
Y73150D01*
D02*
G37*
G36*
X154333Y72875D02*
X153467D01*
X152668Y72544D01*
X152056Y71932D01*
X151725Y71133D01*
Y70267D01*
X152056Y69468D01*
X152668Y68856D01*
X153467Y68525D01*
X154333D01*
X155132Y68856D01*
X155744Y69468D01*
X156075Y70267D01*
Y71133D01*
X155744Y71932D01*
X155132Y72544D01*
X154333Y72875D01*
D02*
G37*
G36*
X80162Y71504D02*
X79297D01*
X78497Y71173D01*
X77886Y70561D01*
X77555Y69762D01*
Y68897D01*
X77886Y68097D01*
X78497Y67486D01*
X79297Y67155D01*
X80162D01*
X80961Y67486D01*
X81573Y68097D01*
X81904Y68897D01*
Y69762D01*
X81573Y70561D01*
X80961Y71173D01*
X80162Y71504D01*
D02*
G37*
G36*
X313233Y68875D02*
X312367D01*
X311568Y68544D01*
X310956Y67932D01*
X310625Y67133D01*
Y66267D01*
X310956Y65468D01*
X311568Y64856D01*
X312367Y64525D01*
X313233D01*
X314032Y64856D01*
X314644Y65468D01*
X314975Y66267D01*
Y67133D01*
X314644Y67932D01*
X314032Y68544D01*
X313233Y68875D01*
D02*
G37*
G36*
X36233Y68675D02*
X35367D01*
X34568Y68344D01*
X33956Y67732D01*
X33625Y66933D01*
Y66067D01*
X33956Y65268D01*
X34568Y64656D01*
X35367Y64325D01*
X36233D01*
X37032Y64656D01*
X37644Y65268D01*
X37975Y66067D01*
Y66933D01*
X37644Y67732D01*
X37032Y68344D01*
X36233Y68675D01*
D02*
G37*
G36*
X32233Y62675D02*
X31367D01*
X30568Y62344D01*
X29956Y61732D01*
X29625Y60933D01*
Y60067D01*
X29956Y59268D01*
X30568Y58656D01*
X31367Y58325D01*
X32233D01*
X33032Y58656D01*
X33644Y59268D01*
X33975Y60067D01*
Y60933D01*
X33644Y61732D01*
X33032Y62344D01*
X32233Y62675D01*
D02*
G37*
G36*
X209018Y58337D02*
X207982D01*
X206980Y58069D01*
X206625Y57864D01*
X206270Y58069D01*
X205269Y58337D01*
X204232D01*
X203231Y58069D01*
X202333Y57550D01*
X201600Y56817D01*
X201082Y55920D01*
X200813Y54918D01*
Y53882D01*
X201082Y52880D01*
X201600Y51983D01*
X202333Y51250D01*
X203231Y50731D01*
X204232Y50463D01*
X205269D01*
X206270Y50731D01*
X206625Y50936D01*
X206980Y50731D01*
X207982Y50463D01*
X209018D01*
X210020Y50731D01*
X210917Y51250D01*
X211650Y51983D01*
X212169Y52880D01*
X212437Y53882D01*
Y54918D01*
X212169Y55920D01*
X211650Y56817D01*
X210917Y57550D01*
X210020Y58069D01*
X209018Y58337D01*
D02*
G37*
G36*
X51368Y57637D02*
X50331D01*
X49330Y57369D01*
X48975Y57164D01*
X48620Y57369D01*
X47618Y57637D01*
X46582D01*
X45580Y57369D01*
X44683Y56850D01*
X43950Y56117D01*
X43431Y55220D01*
X43163Y54218D01*
Y53182D01*
X43431Y52180D01*
X43950Y51283D01*
X44683Y50550D01*
X45580Y50031D01*
X46582Y49763D01*
X47618D01*
X48620Y50031D01*
X48975Y50236D01*
X49330Y50031D01*
X50331Y49763D01*
X51368D01*
X52369Y50031D01*
X53267Y50550D01*
X54000Y51283D01*
X54218Y51661D01*
X54380Y51728D01*
X55187Y51738D01*
X55568Y51356D01*
X56367Y51025D01*
X57233D01*
X58032Y51356D01*
X58644Y51968D01*
X58975Y52767D01*
Y53633D01*
X58644Y54432D01*
X58032Y55044D01*
X57233Y55375D01*
X56367D01*
X55568Y55044D01*
X55431Y54906D01*
X54538Y55145D01*
X54518Y55220D01*
X54000Y56117D01*
X53267Y56850D01*
X52369Y57369D01*
X51368Y57637D01*
D02*
G37*
G36*
X366733Y60975D02*
X365867D01*
X365068Y60644D01*
X364456Y60032D01*
X364125Y59233D01*
Y58367D01*
X364456Y57568D01*
X365068Y56956D01*
X365867Y56625D01*
X366733D01*
X367532Y56956D01*
X368144Y57568D01*
X368475Y58367D01*
Y59233D01*
X368144Y60032D01*
X367532Y60644D01*
X366733Y60975D01*
D02*
G37*
G36*
X35033Y57775D02*
X34167D01*
X33368Y57444D01*
X32756Y56832D01*
X32425Y56033D01*
Y55167D01*
X32756Y54368D01*
X33368Y53756D01*
X34167Y53425D01*
X35033D01*
X35832Y53756D01*
X36444Y54368D01*
X36775Y55167D01*
Y56033D01*
X36444Y56832D01*
X35832Y57444D01*
X35033Y57775D01*
D02*
G37*
G36*
X80033Y54275D02*
X79167D01*
X78368Y53944D01*
X77809Y53384D01*
X77249Y53944D01*
X76450Y54275D01*
X75585D01*
X74785Y53944D01*
X74174Y53332D01*
X73843Y52533D01*
Y51667D01*
X74174Y50868D01*
X74785Y50256D01*
X75585Y49925D01*
X76450D01*
X77249Y50256D01*
X77809Y50816D01*
X78368Y50256D01*
X79167Y49925D01*
X80033D01*
X80832Y50256D01*
X81444Y50868D01*
X81775Y51667D01*
Y52533D01*
X81444Y53332D01*
X80832Y53944D01*
X80033Y54275D01*
D02*
G37*
G36*
X357874Y59800D02*
X356926D01*
X356010Y59555D01*
X355190Y59081D01*
X354519Y58411D01*
X354045Y57590D01*
X353800Y56674D01*
Y55726D01*
X354045Y54811D01*
X354519Y53989D01*
X355190Y53319D01*
X356010Y52845D01*
X356926Y52600D01*
X357874D01*
X358790Y52845D01*
X359610Y53319D01*
X360281Y53989D01*
X360755Y54811D01*
X361000Y55726D01*
Y56674D01*
X360755Y57590D01*
X360281Y58411D01*
X359610Y59081D01*
X358790Y59555D01*
X357874Y59800D01*
D02*
G37*
G36*
X21725Y53675D02*
X20860D01*
X20061Y53344D01*
X19449Y52732D01*
X19118Y51933D01*
Y51067D01*
X19449Y50268D01*
X20061Y49656D01*
X20860Y49325D01*
X21725D01*
X22525Y49656D01*
X23137Y50268D01*
X23468Y51067D01*
Y51933D01*
X23137Y52732D01*
X22525Y53344D01*
X21725Y53675D01*
D02*
G37*
G36*
X231433Y53375D02*
X230567D01*
X229768Y53044D01*
X229156Y52432D01*
X228825Y51633D01*
Y50767D01*
X229156Y49968D01*
X229768Y49356D01*
X230567Y49025D01*
X231433D01*
X232232Y49356D01*
X232844Y49968D01*
X233175Y50767D01*
Y51633D01*
X232844Y52432D01*
X232232Y53044D01*
X231433Y53375D01*
D02*
G37*
G36*
X222133Y52275D02*
X221267D01*
X220468Y51944D01*
X219856Y51332D01*
X219525Y50533D01*
Y49667D01*
X219856Y48868D01*
X220468Y48256D01*
X221267Y47925D01*
X222133D01*
X222932Y48256D01*
X223544Y48868D01*
X223875Y49667D01*
Y50533D01*
X223544Y51332D01*
X222932Y51944D01*
X222133Y52275D01*
D02*
G37*
G36*
X380113Y50576D02*
X379287D01*
X378524Y50260D01*
X377940Y49676D01*
X377624Y48913D01*
Y48087D01*
X377940Y47324D01*
X378524Y46740D01*
X379287Y46424D01*
X380113D01*
X380876Y46740D01*
X381460Y47324D01*
X381776Y48087D01*
Y48913D01*
X381460Y49676D01*
X380876Y50260D01*
X380113Y50576D01*
D02*
G37*
G36*
X106233Y49175D02*
X105367D01*
X104568Y48844D01*
X103956Y48232D01*
X103625Y47433D01*
Y46567D01*
X103956Y45768D01*
X104568Y45156D01*
X105367Y44825D01*
X106233D01*
X107032Y45156D01*
X107644Y45768D01*
X107975Y46567D01*
Y47433D01*
X107644Y48232D01*
X107032Y48844D01*
X106233Y49175D01*
D02*
G37*
G36*
X135100Y45244D02*
Y42984D01*
X133600D01*
Y45244D01*
X133004Y44998D01*
X132336Y44330D01*
X131975Y43457D01*
Y42603D01*
X131121D01*
X130248Y42242D01*
X129580Y41574D01*
X129334Y40978D01*
X131594D01*
Y39478D01*
X129334D01*
X129580Y38883D01*
X130248Y38215D01*
X131121Y37854D01*
Y37091D01*
X130248Y36730D01*
X129580Y36062D01*
X129334Y35467D01*
X131594D01*
Y33966D01*
X129334D01*
X129580Y33371D01*
X130248Y32703D01*
X131121Y32342D01*
X131975D01*
Y31488D01*
X132336Y30615D01*
X133004Y29947D01*
X133600Y29701D01*
Y31961D01*
X135100D01*
Y29701D01*
X135695Y29947D01*
X136363Y30615D01*
X136724Y31488D01*
X137487D01*
X137848Y30615D01*
X138516Y29947D01*
X139111Y29701D01*
Y31961D01*
X140611D01*
Y29701D01*
X141207Y29947D01*
X141875Y30615D01*
X142236Y31488D01*
Y32342D01*
X143090D01*
X143963Y32703D01*
X144631Y33371D01*
X144877Y33966D01*
X142617D01*
Y35467D01*
X144877D01*
X144631Y36062D01*
X143963Y36730D01*
X143090Y37091D01*
Y37854D01*
X143963Y38215D01*
X144631Y38883D01*
X144877Y39478D01*
X142617D01*
Y40978D01*
X144877D01*
X144631Y41574D01*
X143963Y42242D01*
X143090Y42603D01*
X142236D01*
Y43457D01*
X141875Y44330D01*
X141207Y44998D01*
X140611Y45244D01*
Y42984D01*
X139111D01*
Y45244D01*
X138516Y44998D01*
X137848Y44330D01*
X137487Y43457D01*
X136724D01*
X136363Y44330D01*
X135695Y44998D01*
X135100Y45244D01*
D02*
G37*
G36*
X78233Y45775D02*
X77367D01*
X76568Y45444D01*
X75956Y44832D01*
X75625Y44033D01*
Y43167D01*
X75956Y42368D01*
X76568Y41756D01*
X77367Y41425D01*
X78233D01*
X79032Y41756D01*
X79644Y42368D01*
X79975Y43167D01*
Y44033D01*
X79644Y44832D01*
X79032Y45444D01*
X78233Y45775D01*
D02*
G37*
G36*
X299633Y44875D02*
X298767D01*
X297968Y44544D01*
X297356Y43932D01*
X297025Y43133D01*
Y42267D01*
X297356Y41468D01*
X297968Y40856D01*
X298767Y40525D01*
X299633D01*
X300432Y40856D01*
X301044Y41468D01*
X301375Y42267D01*
Y43133D01*
X301044Y43932D01*
X300432Y44544D01*
X299633Y44875D01*
D02*
G37*
G36*
X43233D02*
X42367D01*
X41568Y44544D01*
X40956Y43932D01*
X40625Y43133D01*
Y42267D01*
X40956Y41468D01*
X41568Y40856D01*
X42367Y40525D01*
X43233D01*
X44032Y40856D01*
X44644Y41468D01*
X44975Y42267D01*
Y43133D01*
X44644Y43932D01*
X44032Y44544D01*
X43233Y44875D01*
D02*
G37*
G36*
X231033Y43675D02*
X230167D01*
X229368Y43344D01*
X228756Y42732D01*
X228425Y41933D01*
Y41067D01*
X228756Y40268D01*
X229368Y39656D01*
X230167Y39325D01*
X231033D01*
X231832Y39656D01*
X232444Y40268D01*
X232775Y41067D01*
Y41933D01*
X232444Y42732D01*
X231832Y43344D01*
X231033Y43675D01*
D02*
G37*
G36*
X65833Y40675D02*
X64967D01*
X64168Y40344D01*
X63556Y39732D01*
X63341Y39212D01*
X62604Y38857D01*
X62425Y38835D01*
X62020Y39069D01*
X61018Y39337D01*
X59982D01*
X58980Y39069D01*
X58083Y38550D01*
X57350Y37817D01*
X56831Y36920D01*
X56563Y35918D01*
Y34882D01*
X56831Y33880D01*
X57350Y32983D01*
X58083Y32250D01*
X58980Y31731D01*
X59982Y31463D01*
X61018D01*
X62020Y31731D01*
X62917Y32250D01*
X63650Y32983D01*
X64169Y33880D01*
X64437Y34882D01*
Y35679D01*
X64804Y36126D01*
X65156Y36325D01*
X65833D01*
X66632Y36656D01*
X67244Y37268D01*
X67575Y38067D01*
Y38933D01*
X67244Y39732D01*
X66632Y40344D01*
X65833Y40675D01*
D02*
G37*
G36*
X32833Y41975D02*
X31967D01*
X31168Y41644D01*
X30556Y41032D01*
X30225Y40233D01*
Y39367D01*
X30556Y38568D01*
X31168Y37956D01*
X31967Y37625D01*
X32833D01*
X33632Y37956D01*
X34244Y38568D01*
X34575Y39367D01*
Y40233D01*
X34244Y41032D01*
X33632Y41644D01*
X32833Y41975D01*
D02*
G37*
G36*
X365833Y41575D02*
X364967D01*
X364168Y41244D01*
X363556Y40632D01*
X363225Y39833D01*
Y38967D01*
X363556Y38168D01*
X364168Y37556D01*
X364967Y37225D01*
X365833D01*
X366632Y37556D01*
X367244Y38168D01*
X367575Y38967D01*
Y39833D01*
X367244Y40632D01*
X366632Y41244D01*
X365833Y41575D01*
D02*
G37*
G36*
X15233D02*
X14367D01*
X13568Y41244D01*
X12956Y40632D01*
X12625Y39833D01*
Y38967D01*
X12956Y38168D01*
X13568Y37556D01*
X14367Y37225D01*
X15233D01*
X16032Y37556D01*
X16644Y38168D01*
X16975Y38967D01*
Y39833D01*
X16644Y40632D01*
X16032Y41244D01*
X15233Y41575D01*
D02*
G37*
G36*
X340033Y40633D02*
X339167D01*
X338368Y40302D01*
X337756Y39690D01*
X337425Y38891D01*
Y38026D01*
X337756Y37227D01*
X338368Y36615D01*
X339167Y36284D01*
X340033D01*
X340832Y36615D01*
X341444Y37227D01*
X341775Y38026D01*
Y38891D01*
X341444Y39690D01*
X340832Y40302D01*
X340033Y40633D01*
D02*
G37*
G36*
X183733Y39075D02*
X182867D01*
X182068Y38744D01*
X181456Y38132D01*
X181125Y37333D01*
Y36467D01*
X181456Y35668D01*
X181486Y35638D01*
X181033Y34960D01*
X180483Y35188D01*
X179617D01*
X178818Y34857D01*
X178206Y34245D01*
X177875Y33446D01*
Y32581D01*
X178206Y31781D01*
X178818Y31170D01*
X179617Y30838D01*
X180483D01*
X181282Y31170D01*
X181894Y31781D01*
X182225Y32581D01*
Y33446D01*
X181894Y34245D01*
X181864Y34275D01*
X182317Y34953D01*
X182867Y34725D01*
X183161D01*
X183239Y34661D01*
X183629Y33925D01*
X183425Y33433D01*
Y32567D01*
X183756Y31768D01*
X184368Y31156D01*
X185167Y30825D01*
X186033D01*
X186832Y31156D01*
X187444Y31768D01*
X187775Y32567D01*
Y33433D01*
X187444Y34232D01*
X186832Y34844D01*
X186033Y35175D01*
X185739D01*
X185661Y35239D01*
X185271Y35975D01*
X185475Y36467D01*
Y37333D01*
X185144Y38132D01*
X184532Y38744D01*
X183733Y39075D01*
D02*
G37*
G36*
X103607Y39175D02*
X102742D01*
X101943Y38844D01*
X101331Y38232D01*
X101000Y37433D01*
Y36567D01*
X101331Y35768D01*
X101943Y35156D01*
X102742Y34825D01*
X103607D01*
X104407Y35156D01*
X105018Y35768D01*
X105350Y36567D01*
Y37433D01*
X105018Y38232D01*
X104407Y38844D01*
X103607Y39175D01*
D02*
G37*
G36*
X215818Y42637D02*
X214782D01*
X213780Y42369D01*
X212883Y41850D01*
X212150Y41117D01*
X211631Y40220D01*
X211363Y39218D01*
Y38182D01*
X211631Y37180D01*
X212150Y36283D01*
X212883Y35550D01*
X213780Y35031D01*
X214782Y34763D01*
X215818D01*
X216820Y35031D01*
X217717Y35550D01*
X218450Y36283D01*
X218969Y37180D01*
X219237Y38182D01*
Y39218D01*
X218969Y40220D01*
X218450Y41117D01*
X217717Y41850D01*
X216820Y42369D01*
X215818Y42637D01*
D02*
G37*
G36*
X193533Y38675D02*
X192667D01*
X191868Y38344D01*
X191256Y37732D01*
X190925Y36933D01*
Y36067D01*
X191256Y35268D01*
X191868Y34656D01*
X192667Y34325D01*
X193533D01*
X194332Y34656D01*
X194944Y35268D01*
X195275Y36067D01*
Y36933D01*
X194944Y37732D01*
X194332Y38344D01*
X193533Y38675D01*
D02*
G37*
G36*
X354474Y38633D02*
X353609D01*
X352809Y38302D01*
X352198Y37691D01*
X351867Y36891D01*
Y36026D01*
X352198Y35227D01*
X352809Y34615D01*
X353609Y34284D01*
X354474D01*
X355273Y34615D01*
X355885Y35227D01*
X356216Y36026D01*
Y36891D01*
X355885Y37691D01*
X355273Y38302D01*
X354474Y38633D01*
D02*
G37*
G36*
X88833Y37775D02*
X87967D01*
X87168Y37444D01*
X86556Y36832D01*
X86225Y36033D01*
Y35167D01*
X86556Y34368D01*
X87168Y33756D01*
X87967Y33425D01*
X88833D01*
X89632Y33756D01*
X90244Y34368D01*
X90575Y35167D01*
Y36033D01*
X90244Y36832D01*
X89632Y37444D01*
X88833Y37775D01*
D02*
G37*
G36*
X298534Y37493D02*
Y33336D01*
X302691D01*
X302381Y34490D01*
X301732Y35615D01*
X300813Y36534D01*
X299688Y37183D01*
X298534Y37493D01*
D02*
G37*
G36*
X297034D02*
X295879Y37183D01*
X294754Y36534D01*
X293836Y35615D01*
X293186Y34490D01*
X292877Y33336D01*
X297034D01*
Y37493D01*
D02*
G37*
G36*
X268534D02*
Y33336D01*
X272691D01*
X272381Y34490D01*
X271732Y35615D01*
X270813Y36534D01*
X269688Y37183D01*
X268534Y37493D01*
D02*
G37*
G36*
X267034D02*
X265879Y37183D01*
X264754Y36534D01*
X263836Y35615D01*
X263186Y34490D01*
X262877Y33336D01*
X267034D01*
Y37493D01*
D02*
G37*
G36*
X107033Y34075D02*
X106167D01*
X105368Y33744D01*
X104756Y33132D01*
X104425Y32333D01*
Y31467D01*
X104756Y30668D01*
X105368Y30056D01*
X106167Y29725D01*
X107033D01*
X107832Y30056D01*
X108444Y30668D01*
X108775Y31467D01*
Y32333D01*
X108444Y33132D01*
X107832Y33744D01*
X107033Y34075D01*
D02*
G37*
G36*
X30233Y33875D02*
X29367D01*
X28568Y33544D01*
X27956Y32932D01*
X27625Y32133D01*
Y31267D01*
X27956Y30468D01*
X28568Y29856D01*
X29367Y29525D01*
X30233D01*
X31032Y29856D01*
X31644Y30468D01*
X31975Y31267D01*
Y32133D01*
X31644Y32932D01*
X31032Y33544D01*
X30233Y33875D01*
D02*
G37*
G36*
X237374Y36400D02*
X236426D01*
X235510Y36155D01*
X234690Y35681D01*
X234019Y35010D01*
X233545Y34190D01*
X233300Y33274D01*
Y32326D01*
X233545Y31410D01*
X234019Y30590D01*
X234690Y29919D01*
X235510Y29445D01*
X236426Y29200D01*
X237374D01*
X238290Y29445D01*
X239110Y29919D01*
X239781Y30590D01*
X240255Y31410D01*
X240500Y32326D01*
Y33274D01*
X240255Y34190D01*
X239781Y35010D01*
X239110Y35681D01*
X238290Y36155D01*
X237374Y36400D01*
D02*
G37*
G36*
X283407Y37320D02*
X282160D01*
X280957Y36997D01*
X279877Y36374D01*
X278996Y35492D01*
X278372Y34413D01*
X278050Y33209D01*
Y31962D01*
X278372Y30759D01*
X278996Y29679D01*
X279877Y28798D01*
X280957Y28174D01*
X282160Y27852D01*
X283407D01*
X284611Y28174D01*
X285690Y28798D01*
X286572Y29679D01*
X287195Y30759D01*
X287518Y31962D01*
Y33209D01*
X287195Y34413D01*
X286572Y35492D01*
X285690Y36374D01*
X284611Y36997D01*
X283407Y37320D01*
D02*
G37*
G36*
X254851Y37343D02*
X250717D01*
X250021Y37251D01*
X249372Y36982D01*
X248815Y36555D01*
X248387Y35998D01*
X248118Y35349D01*
X248027Y34653D01*
Y30519D01*
X248118Y29823D01*
X248387Y29174D01*
X248815Y28617D01*
X249372Y28189D01*
X250021Y27920D01*
X250717Y27829D01*
X254851D01*
X255547Y27920D01*
X256196Y28189D01*
X256753Y28617D01*
X257180Y29174D01*
X257449Y29823D01*
X257541Y30519D01*
Y34653D01*
X257449Y35349D01*
X257180Y35998D01*
X256753Y36555D01*
X256196Y36982D01*
X255547Y37251D01*
X254851Y37343D01*
D02*
G37*
G36*
X302691Y31836D02*
X298534D01*
Y27679D01*
X299688Y27988D01*
X300813Y28638D01*
X301732Y29556D01*
X302381Y30681D01*
X302691Y31836D01*
D02*
G37*
G36*
X297034D02*
X292877D01*
X293186Y30681D01*
X293836Y29556D01*
X294754Y28638D01*
X295879Y27988D01*
X297034Y27679D01*
Y31836D01*
D02*
G37*
G36*
X272691D02*
X268534D01*
Y27679D01*
X269688Y27988D01*
X270813Y28638D01*
X271732Y29556D01*
X272381Y30681D01*
X272691Y31836D01*
D02*
G37*
G36*
X267034D02*
X262877D01*
X263186Y30681D01*
X263836Y29556D01*
X264754Y28638D01*
X265879Y27988D01*
X267034Y27679D01*
Y31836D01*
D02*
G37*
G36*
X159133Y29175D02*
X158267D01*
X157468Y28844D01*
X156856Y28232D01*
X156525Y27433D01*
Y26567D01*
X156856Y25768D01*
X157468Y25156D01*
X158267Y24825D01*
X159133D01*
X159932Y25156D01*
X160544Y25768D01*
X160875Y26567D01*
Y27433D01*
X160544Y28232D01*
X159932Y28844D01*
X159133Y29175D01*
D02*
G37*
G36*
X83933Y28675D02*
X83067D01*
X82268Y28344D01*
X81656Y27732D01*
X81325Y26933D01*
Y26067D01*
X81656Y25268D01*
X82268Y24656D01*
X83067Y24325D01*
X83933D01*
X84732Y24656D01*
X85344Y25268D01*
X85587Y25856D01*
X85675Y26067D01*
X86425Y25948D01*
X86425Y25667D01*
X86756Y24868D01*
X87368Y24256D01*
X88167Y23925D01*
X89033D01*
X89832Y24256D01*
X90444Y24868D01*
X90775Y25667D01*
Y26533D01*
X90444Y27332D01*
X89832Y27944D01*
X89033Y28275D01*
X88167D01*
X87368Y27944D01*
X86756Y27332D01*
X86513Y26744D01*
X86425Y26533D01*
X85675Y26652D01*
X85675Y26933D01*
X85344Y27732D01*
X84732Y28344D01*
X83933Y28675D01*
D02*
G37*
G36*
X220604Y27368D02*
X219856D01*
X219165Y27082D01*
X218636Y26553D01*
X218350Y25862D01*
Y25114D01*
X218636Y24423D01*
X219165Y23895D01*
X219856Y23609D01*
X220604D01*
X221295Y23895D01*
X221823Y24423D01*
X222109Y25114D01*
Y25862D01*
X221823Y26553D01*
X221295Y27082D01*
X220604Y27368D01*
D02*
G37*
G36*
X197848D02*
X197100D01*
X196409Y27082D01*
X195881Y26553D01*
X195595Y25862D01*
Y25114D01*
X195881Y24423D01*
X196409Y23895D01*
X197100Y23609D01*
X197848D01*
X198539Y23895D01*
X199067Y24423D01*
X199354Y25114D01*
Y25862D01*
X199067Y26553D01*
X198539Y27082D01*
X197848Y27368D01*
D02*
G37*
G36*
X64552D02*
X63804D01*
X63113Y27082D01*
X62585Y26553D01*
X62298Y25862D01*
Y25114D01*
X62585Y24423D01*
X63113Y23895D01*
X63804Y23609D01*
X64552D01*
X65243Y23895D01*
X65771Y24423D01*
X66057Y25114D01*
Y25862D01*
X65771Y26553D01*
X65243Y27082D01*
X64552Y27368D01*
D02*
G37*
G36*
X41796D02*
X41048D01*
X40357Y27082D01*
X39829Y26553D01*
X39542Y25862D01*
Y25114D01*
X39829Y24423D01*
X40357Y23895D01*
X41048Y23609D01*
X41796D01*
X42487Y23895D01*
X43015Y24423D01*
X43302Y25114D01*
Y25862D01*
X43015Y26553D01*
X42487Y27082D01*
X41796Y27368D01*
D02*
G37*
G36*
X186133Y27375D02*
X185267D01*
X184468Y27044D01*
X183856Y26432D01*
X183525Y25633D01*
Y24767D01*
X183856Y23968D01*
X184468Y23356D01*
X185267Y23025D01*
X186133D01*
X186932Y23356D01*
X187544Y23968D01*
X187875Y24767D01*
Y25633D01*
X187544Y26432D01*
X186932Y27044D01*
X186133Y27375D01*
D02*
G37*
G36*
X225880Y32607D02*
X225183Y32516D01*
X224535Y32247D01*
X223977Y31819D01*
X223550Y31262D01*
X223281Y30613D01*
X223190Y29917D01*
Y24996D01*
X223281Y24300D01*
X223550Y23651D01*
X223977Y23094D01*
X224535Y22667D01*
X225183Y22398D01*
X225880Y22306D01*
X226576Y22398D01*
X227224Y22667D01*
X227782Y23094D01*
X228209Y23651D01*
X228478Y24300D01*
X228570Y24996D01*
Y29917D01*
X228478Y30613D01*
X228209Y31262D01*
X227782Y31819D01*
X227224Y32247D01*
X226576Y32516D01*
X225880Y32607D01*
D02*
G37*
G36*
X191824D02*
X191128Y32516D01*
X190479Y32247D01*
X189922Y31819D01*
X189495Y31262D01*
X189226Y30613D01*
X189135Y29917D01*
Y24996D01*
X189226Y24300D01*
X189495Y23651D01*
X189922Y23094D01*
X190479Y22667D01*
X191128Y22398D01*
X191824Y22306D01*
X192521Y22398D01*
X193169Y22667D01*
X193727Y23094D01*
X194154Y23651D01*
X194423Y24300D01*
X194514Y24996D01*
Y29917D01*
X194423Y30613D01*
X194154Y31262D01*
X193727Y31819D01*
X193169Y32247D01*
X192521Y32516D01*
X191824Y32607D01*
D02*
G37*
G36*
X69828D02*
X69131Y32516D01*
X68483Y32247D01*
X67926Y31819D01*
X67498Y31262D01*
X67229Y30613D01*
X67138Y29917D01*
Y24996D01*
X67229Y24300D01*
X67498Y23651D01*
X67926Y23094D01*
X68483Y22667D01*
X69131Y22398D01*
X69828Y22306D01*
X70524Y22398D01*
X71172Y22667D01*
X71730Y23094D01*
X72157Y23651D01*
X72426Y24300D01*
X72518Y24996D01*
Y29917D01*
X72426Y30613D01*
X72157Y31262D01*
X71730Y31819D01*
X71172Y32247D01*
X70524Y32516D01*
X69828Y32607D01*
D02*
G37*
G36*
X35772D02*
X35076Y32516D01*
X34427Y32247D01*
X33870Y31819D01*
X33443Y31262D01*
X33174Y30613D01*
X33083Y29917D01*
Y24996D01*
X33174Y24300D01*
X33443Y23651D01*
X33870Y23094D01*
X34427Y22667D01*
X35076Y22398D01*
X35772Y22306D01*
X36469Y22398D01*
X37117Y22667D01*
X37674Y23094D01*
X38102Y23651D01*
X38371Y24300D01*
X38462Y24996D01*
Y29917D01*
X38371Y30613D01*
X38102Y31262D01*
X37674Y31819D01*
X37117Y32247D01*
X36469Y32516D01*
X35772Y32607D01*
D02*
G37*
G36*
X103433Y24375D02*
X102567D01*
X101768Y24044D01*
X101156Y23432D01*
X100825Y22633D01*
Y21767D01*
X101156Y20968D01*
X101768Y20356D01*
X102567Y20025D01*
X103433D01*
X104232Y20356D01*
X104844Y20968D01*
X105175Y21767D01*
Y22633D01*
X104844Y23432D01*
X104232Y24044D01*
X103433Y24375D01*
D02*
G37*
G36*
X345933Y24075D02*
X345067D01*
X344268Y23744D01*
X343656Y23132D01*
X343325Y22333D01*
Y21467D01*
X343656Y20668D01*
X344268Y20056D01*
X345067Y19725D01*
X345933D01*
X346732Y20056D01*
X347344Y20668D01*
X347675Y21467D01*
Y22333D01*
X347344Y23132D01*
X346732Y23744D01*
X345933Y24075D01*
D02*
G37*
G36*
X238933Y23575D02*
X238067D01*
X237268Y23244D01*
X236656Y22632D01*
X236325Y21833D01*
Y20967D01*
X236656Y20168D01*
X237268Y19556D01*
X238067Y19225D01*
X238933D01*
X239732Y19556D01*
X240344Y20168D01*
X240675Y20967D01*
Y21833D01*
X240344Y22632D01*
X239732Y23244D01*
X238933Y23575D01*
D02*
G37*
G36*
X51518Y27237D02*
X50482D01*
X49480Y26969D01*
X48583Y26450D01*
X47850Y25717D01*
X47331Y24820D01*
X47063Y23818D01*
Y22782D01*
X47331Y21780D01*
X47796Y20975D01*
X47670Y20549D01*
X47467Y20175D01*
X46668Y19844D01*
X46056Y19232D01*
X45725Y18433D01*
Y17567D01*
X46056Y16768D01*
X46668Y16156D01*
X47467Y15825D01*
X48333D01*
X49132Y16156D01*
X49744Y16768D01*
X50075Y17567D01*
Y18433D01*
X49976Y18670D01*
X50339Y19168D01*
X50555Y19363D01*
X51518D01*
X52520Y19631D01*
X53417Y20150D01*
X53969Y20702D01*
X54722Y20461D01*
X54769Y20426D01*
Y20412D01*
X55101Y19612D01*
X55712Y19001D01*
X56512Y18669D01*
X57377D01*
X58176Y19001D01*
X58788Y19612D01*
X59119Y20412D01*
Y21277D01*
X58788Y22076D01*
X58176Y22688D01*
X57377Y23019D01*
X56512D01*
X55712Y22688D01*
X55697Y22672D01*
X55661Y22678D01*
X54937Y23044D01*
Y23818D01*
X54669Y24820D01*
X54150Y25717D01*
X53417Y26450D01*
X52520Y26969D01*
X51518Y27237D01*
D02*
G37*
G36*
X66506Y22768D02*
X65641D01*
X64841Y22437D01*
X64230Y21825D01*
X63898Y21026D01*
Y20161D01*
X64230Y19361D01*
X64841Y18750D01*
X65641Y18418D01*
X66506D01*
X67305Y18750D01*
X67917Y19361D01*
X68248Y20161D01*
Y21026D01*
X67917Y21825D01*
X67305Y22437D01*
X66506Y22768D01*
D02*
G37*
G36*
X223633Y21975D02*
X222767D01*
X221968Y21644D01*
X221356Y21032D01*
X221025Y20233D01*
Y19367D01*
X221356Y18568D01*
X221968Y17956D01*
X222767Y17625D01*
X223633D01*
X224432Y17956D01*
X225044Y18568D01*
X225375Y19367D01*
Y20233D01*
X225044Y21032D01*
X224432Y21644D01*
X223633Y21975D01*
D02*
G37*
G36*
X213133D02*
X212267D01*
X211468Y21644D01*
X210856Y21032D01*
X210525Y20233D01*
Y19367D01*
X210856Y18568D01*
X211468Y17956D01*
X212267Y17625D01*
X213133D01*
X213932Y17956D01*
X214544Y18568D01*
X214875Y19367D01*
Y20233D01*
X214544Y21032D01*
X213932Y21644D01*
X213133Y21975D01*
D02*
G37*
G36*
X174133Y26275D02*
X173267D01*
X172468Y25944D01*
X171856Y25332D01*
X171525Y24533D01*
Y23667D01*
X171856Y22868D01*
X172468Y22256D01*
X173037Y22021D01*
X173047Y21962D01*
X172957Y21188D01*
X172368Y20944D01*
X171756Y20332D01*
X171425Y19533D01*
Y18667D01*
X171756Y17868D01*
X172368Y17256D01*
X173167Y16925D01*
X174033D01*
X174832Y17256D01*
X175444Y17868D01*
X175775Y18667D01*
Y19533D01*
X175444Y20332D01*
X174832Y20944D01*
X174263Y21179D01*
X174253Y21238D01*
X174343Y22012D01*
X174932Y22256D01*
X175544Y22868D01*
X175875Y23667D01*
Y24533D01*
X175544Y25332D01*
X174932Y25944D01*
X174133Y26275D01*
D02*
G37*
G36*
X78733Y20175D02*
X77867D01*
X77068Y19844D01*
X76456Y19232D01*
X76125Y18433D01*
Y17567D01*
X76456Y16768D01*
X77068Y16156D01*
X77867Y15825D01*
X78733D01*
X79532Y16156D01*
X80144Y16768D01*
X80475Y17567D01*
Y18433D01*
X80144Y19232D01*
X79532Y19844D01*
X78733Y20175D01*
D02*
G37*
G36*
X330933Y19875D02*
X330067D01*
X329268Y19544D01*
X328656Y18932D01*
X328325Y18133D01*
Y17267D01*
X328656Y16468D01*
X329268Y15856D01*
X330067Y15525D01*
X330933D01*
X331732Y15856D01*
X332344Y16468D01*
X332675Y17267D01*
Y18133D01*
X332344Y18932D01*
X331732Y19544D01*
X330933Y19875D01*
D02*
G37*
G36*
X206418Y25437D02*
X205382D01*
X204380Y25169D01*
X203483Y24650D01*
X202750Y23917D01*
X202231Y23020D01*
X201963Y22018D01*
Y20982D01*
X202231Y19980D01*
X202558Y19414D01*
X202335Y18571D01*
X202243Y18458D01*
X201968Y18344D01*
X201356Y17732D01*
X201025Y16933D01*
Y16067D01*
X201356Y15268D01*
X201968Y14656D01*
X202767Y14325D01*
X203633D01*
X204432Y14656D01*
X205044Y15268D01*
X205375Y16067D01*
Y16817D01*
X205376Y16934D01*
X205980Y17563D01*
X206418D01*
X207420Y17831D01*
X208317Y18350D01*
X209050Y19083D01*
X209569Y19980D01*
X209837Y20982D01*
Y22018D01*
X209569Y23020D01*
X209050Y23917D01*
X208317Y24650D01*
X207420Y25169D01*
X206418Y25437D01*
D02*
G37*
G36*
X315474Y13900D02*
X314526D01*
X313610Y13655D01*
X312790Y13181D01*
X312119Y12510D01*
X311645Y11689D01*
X311400Y10774D01*
Y9826D01*
X311645Y8911D01*
X312119Y8089D01*
X312790Y7419D01*
X313610Y6945D01*
X314526Y6700D01*
X315474D01*
X316390Y6945D01*
X317210Y7419D01*
X317881Y8089D01*
X318355Y8911D01*
X318600Y9826D01*
Y10774D01*
X318355Y11689D01*
X317881Y12510D01*
X317210Y13181D01*
X316390Y13655D01*
X315474Y13900D01*
D02*
G37*
G36*
X225880Y15757D02*
X225183Y15665D01*
X224535Y15396D01*
X223977Y14969D01*
X223550Y14412D01*
X223281Y13763D01*
X223190Y13067D01*
Y8933D01*
X223281Y8237D01*
X223550Y7588D01*
X223977Y7031D01*
X224535Y6604D01*
X225183Y6335D01*
X225880Y6243D01*
X226576Y6335D01*
X227224Y6604D01*
X227782Y7031D01*
X228209Y7588D01*
X228478Y8237D01*
X228570Y8933D01*
Y13067D01*
X228478Y13763D01*
X228209Y14412D01*
X227782Y14969D01*
X227224Y15396D01*
X226576Y15665D01*
X225880Y15757D01*
D02*
G37*
G36*
X191824D02*
X191128Y15665D01*
X190479Y15396D01*
X189922Y14969D01*
X189495Y14412D01*
X189226Y13763D01*
X189135Y13067D01*
Y8933D01*
X189226Y8237D01*
X189495Y7588D01*
X189922Y7031D01*
X190479Y6604D01*
X191128Y6335D01*
X191824Y6243D01*
X192521Y6335D01*
X193169Y6604D01*
X193727Y7031D01*
X194154Y7588D01*
X194423Y8237D01*
X194514Y8933D01*
Y13067D01*
X194423Y13763D01*
X194154Y14412D01*
X193727Y14969D01*
X193169Y15396D01*
X192521Y15665D01*
X191824Y15757D01*
D02*
G37*
G36*
X69828D02*
X69131Y15665D01*
X68483Y15396D01*
X67926Y14969D01*
X67498Y14412D01*
X67229Y13763D01*
X67138Y13067D01*
Y8933D01*
X67229Y8237D01*
X67498Y7588D01*
X67926Y7031D01*
X68483Y6604D01*
X69131Y6335D01*
X69828Y6243D01*
X70524Y6335D01*
X71172Y6604D01*
X71730Y7031D01*
X72157Y7588D01*
X72426Y8237D01*
X72518Y8933D01*
Y13067D01*
X72426Y13763D01*
X72157Y14412D01*
X71730Y14969D01*
X71172Y15396D01*
X70524Y15665D01*
X69828Y15757D01*
D02*
G37*
G36*
X35772D02*
X35076Y15665D01*
X34427Y15396D01*
X33870Y14969D01*
X33443Y14412D01*
X33174Y13763D01*
X33083Y13067D01*
Y8933D01*
X33174Y8237D01*
X33443Y7588D01*
X33870Y7031D01*
X34427Y6604D01*
X35076Y6335D01*
X35772Y6243D01*
X36469Y6335D01*
X37117Y6604D01*
X37674Y7031D01*
X38102Y7588D01*
X38371Y8237D01*
X38462Y8933D01*
Y13067D01*
X38371Y13763D01*
X38102Y14412D01*
X37674Y14969D01*
X37117Y15396D01*
X36469Y15665D01*
X35772Y15757D01*
D02*
G37*
G36*
X378992Y28946D02*
X376914D01*
X374862Y28622D01*
X372886Y27979D01*
X371035Y27036D01*
X369355Y25815D01*
X367886Y24346D01*
X366665Y22666D01*
X365721Y20814D01*
X365079Y18839D01*
X364754Y16787D01*
Y14709D01*
X365079Y12657D01*
X365721Y10682D01*
X366665Y8830D01*
X367886Y7150D01*
X369355Y5681D01*
X371035Y4460D01*
X372886Y3517D01*
X374862Y2875D01*
X376914Y2550D01*
X378992D01*
X381043Y2875D01*
X383019Y3517D01*
X384870Y4460D01*
X386551Y5681D01*
X388020Y7150D01*
X389241Y8830D01*
X390184Y10682D01*
X390826Y12657D01*
X391151Y14709D01*
Y16787D01*
X390826Y18839D01*
X390184Y20814D01*
X389241Y22666D01*
X388020Y24346D01*
X386551Y25815D01*
X384870Y27036D01*
X383019Y27979D01*
X381043Y28622D01*
X378992Y28946D01*
D02*
G37*
G36*
X16787D02*
X14709D01*
X12657Y28622D01*
X10682Y27979D01*
X8830Y27036D01*
X7150Y25815D01*
X5681Y24346D01*
X4460Y22666D01*
X3517Y20814D01*
X2875Y18839D01*
X2550Y16787D01*
Y14709D01*
X2875Y12657D01*
X3517Y10682D01*
X4460Y8830D01*
X5681Y7150D01*
X7150Y5681D01*
X8830Y4460D01*
X10682Y3517D01*
X12657Y2875D01*
X14709Y2550D01*
X16787D01*
X18839Y2875D01*
X20814Y3517D01*
X22666Y4460D01*
X24346Y5681D01*
X25815Y7150D01*
X27036Y8830D01*
X27979Y10682D01*
X28622Y12657D01*
X28946Y14709D01*
Y16787D01*
X28622Y18839D01*
X27979Y20814D01*
X27036Y22666D01*
X25815Y24346D01*
X24346Y25815D01*
X22666Y27036D01*
X20814Y27979D01*
X18839Y28622D01*
X16787Y28946D01*
D02*
G37*
G36*
X333233Y6275D02*
X332367D01*
X331568Y5944D01*
X330956Y5332D01*
X330625Y4533D01*
Y3667D01*
X330956Y2868D01*
X331568Y2256D01*
X332367Y1925D01*
X333233D01*
X334032Y2256D01*
X334644Y2868D01*
X334975Y3667D01*
Y4533D01*
X334644Y5332D01*
X334032Y5944D01*
X333233Y6275D01*
D02*
G37*
%LPD*%
D116*
X60300Y325867D02*
D03*
D145*
X377953Y15748D02*
D03*
Y377953D02*
D03*
X15748Y15748D02*
D03*
Y377953D02*
D03*
D153*
X66000Y249065D02*
D03*
D154*
Y219735D02*
D03*
D155*
X44000Y355552D02*
D03*
D156*
X64000D02*
D03*
D157*
X192400Y214188D02*
D03*
Y208676D02*
D03*
Y219700D02*
D03*
X197912Y208676D02*
D03*
Y214188D02*
D03*
Y219700D02*
D03*
X189644Y211432D02*
D03*
Y216944D02*
D03*
X195156Y211432D02*
D03*
Y216944D02*
D03*
X200668Y211432D02*
D03*
Y216944D02*
D03*
X137106Y34716D02*
D03*
X142617D02*
D03*
X131594D02*
D03*
X142617Y40228D02*
D03*
X137106D02*
D03*
X131594D02*
D03*
X139861Y31961D02*
D03*
X134350D02*
D03*
X139861Y37472D02*
D03*
X134350D02*
D03*
X139861Y42984D02*
D03*
X134350D02*
D03*
X368504Y15748D02*
D03*
X384634Y22429D02*
D03*
X377953Y6299D02*
D03*
X387402Y15748D02*
D03*
X371271Y9067D02*
D03*
Y22429D02*
D03*
X384634Y9067D02*
D03*
X377953Y25197D02*
D03*
X368504Y377953D02*
D03*
X384634Y384634D02*
D03*
X377953Y368504D02*
D03*
X387402Y377953D02*
D03*
X371271Y371271D02*
D03*
Y384634D02*
D03*
X384634Y371271D02*
D03*
X377953Y387402D02*
D03*
X6299Y15748D02*
D03*
X22429Y22429D02*
D03*
X15748Y6299D02*
D03*
X25197Y15748D02*
D03*
X9067Y9067D02*
D03*
Y22429D02*
D03*
X22429Y9067D02*
D03*
X15748Y25197D02*
D03*
X6299Y377953D02*
D03*
X22429Y384634D02*
D03*
X15748Y368504D02*
D03*
X25197Y377953D02*
D03*
X9067Y371271D02*
D03*
Y384634D02*
D03*
X22429Y371271D02*
D03*
X15748Y387402D02*
D03*
X258900Y350600D02*
D03*
X260745Y380400D02*
D03*
X188400Y288100D02*
D03*
X193727Y318367D02*
D03*
X171100Y197200D02*
D03*
X154800Y235100D02*
D03*
X125546Y132691D02*
D03*
X73300Y151000D02*
D03*
X271100Y142300D02*
D03*
X369005Y147809D02*
D03*
X215900Y142100D02*
D03*
X156200Y196300D02*
D03*
X110000Y182600D02*
D03*
X102575Y286575D02*
D03*
X108500D02*
D03*
X114500D02*
D03*
X120500D02*
D03*
X126500D02*
D03*
X132500D02*
D03*
X347700Y30000D02*
D03*
X345500Y21900D02*
D03*
X339600Y38458D02*
D03*
X83500Y18500D02*
D03*
Y26500D02*
D03*
X369000Y47000D02*
D03*
X365400Y39400D02*
D03*
X354041Y36459D02*
D03*
X294500Y211900D02*
D03*
X283454Y211965D02*
D03*
X259799Y215000D02*
D03*
Y219200D02*
D03*
X190100Y265700D02*
D03*
X189762Y260500D02*
D03*
X301700Y262000D02*
D03*
X254900Y209200D02*
D03*
X79210Y171727D02*
D03*
X99000Y181600D02*
D03*
X229900Y261525D02*
D03*
X212962Y263838D02*
D03*
X243216Y281175D02*
D03*
X222100D02*
D03*
X226400D02*
D03*
X229300Y289000D02*
D03*
X204591Y278432D02*
D03*
X213300Y278562D02*
D03*
X223200Y227500D02*
D03*
X229300Y217594D02*
D03*
X220400Y207594D02*
D03*
X226100Y222600D02*
D03*
X92400Y122400D02*
D03*
X88400Y122500D02*
D03*
X131733Y131706D02*
D03*
X130600Y144100D02*
D03*
X39100Y153900D02*
D03*
X31005Y138061D02*
D03*
X37876Y97452D02*
D03*
X94900Y77600D02*
D03*
X69089Y86466D02*
D03*
X65077Y90477D02*
D03*
X79729Y69329D02*
D03*
X123700Y92300D02*
D03*
X88400Y35600D02*
D03*
X103175Y37000D02*
D03*
X105800Y47000D02*
D03*
X110400Y96000D02*
D03*
X106600Y31900D02*
D03*
X75600Y77100D02*
D03*
X43500Y88000D02*
D03*
X39750D02*
D03*
X172000Y99400D02*
D03*
X165800Y114000D02*
D03*
X168000Y86600D02*
D03*
X176900Y76700D02*
D03*
X166600Y107800D02*
D03*
X153900Y70700D02*
D03*
X3500Y173000D02*
D03*
X39900Y164200D02*
D03*
X58800Y156600D02*
D03*
X103000Y22200D02*
D03*
X88600Y26100D02*
D03*
X80400Y56200D02*
D03*
X316600Y267800D02*
D03*
X144400Y217000D02*
D03*
X147600Y233400D02*
D03*
X23100Y255500D02*
D03*
X260745Y389400D02*
D03*
X155100Y369200D02*
D03*
X163200Y369300D02*
D03*
X159200Y365800D02*
D03*
X239000Y84400D02*
D03*
X320500Y85500D02*
D03*
X231000Y51200D02*
D03*
X308000Y248000D02*
D03*
X205900Y21500D02*
D03*
X222000Y69800D02*
D03*
X232507Y84400D02*
D03*
X208500Y54400D02*
D03*
X204750D02*
D03*
X295000Y76500D02*
D03*
X111000Y8000D02*
D03*
X312800Y66700D02*
D03*
X375700Y31900D02*
D03*
X331500Y242000D02*
D03*
X292000Y248000D02*
D03*
X240500Y362515D02*
D03*
X79600Y52100D02*
D03*
X29500Y239400D02*
D03*
X35300Y239300D02*
D03*
X29500Y245200D02*
D03*
X23800D02*
D03*
X35200Y245100D02*
D03*
X102575Y247943D02*
D03*
X105200Y219600D02*
D03*
X102600Y189700D02*
D03*
X103000Y209550D02*
D03*
Y213300D02*
D03*
X88900Y156700D02*
D03*
X77500Y220500D02*
D03*
X75000Y201500D02*
D03*
Y208000D02*
D03*
Y188500D02*
D03*
Y195000D02*
D03*
X66000Y188500D02*
D03*
X89500Y145250D02*
D03*
Y149000D02*
D03*
X57000Y208000D02*
D03*
X49200Y219800D02*
D03*
Y226100D02*
D03*
X25400Y65000D02*
D03*
X28500Y78500D02*
D03*
X235300Y390600D02*
D03*
X245500Y139000D02*
D03*
X255000Y122500D02*
D03*
X115200Y160100D02*
D03*
X251812Y202306D02*
D03*
X258100Y258000D02*
D03*
X174600Y155000D02*
D03*
X183000Y164500D02*
D03*
X178500D02*
D03*
X286607Y134000D02*
D03*
X290000Y139325D02*
D03*
X283933D02*
D03*
X277433D02*
D03*
X221900Y57700D02*
D03*
X221700Y50100D02*
D03*
X58000Y42000D02*
D03*
X34600Y55600D02*
D03*
X31800Y60500D02*
D03*
X355400Y124200D02*
D03*
X362300Y131200D02*
D03*
X355500Y131100D02*
D03*
X342100Y138400D02*
D03*
X190600Y125100D02*
D03*
X129900Y266300D02*
D03*
X135800Y266400D02*
D03*
X280700Y184632D02*
D03*
X350100Y168600D02*
D03*
X240406Y217594D02*
D03*
X250800Y177700D02*
D03*
X244000Y212400D02*
D03*
X243800Y222500D02*
D03*
X297200Y173600D02*
D03*
X66073Y20593D02*
D03*
X56944Y20844D02*
D03*
X223200Y19800D02*
D03*
X14800Y39400D02*
D03*
X198400Y114200D02*
D03*
X196700Y125100D02*
D03*
X190600Y119800D02*
D03*
X135800Y270700D02*
D03*
X129900Y270600D02*
D03*
X43500Y219400D02*
D03*
Y226000D02*
D03*
X386100Y276000D02*
D03*
X377400Y198600D02*
D03*
X374000Y222700D02*
D03*
Y284700D02*
D03*
X380700Y244600D02*
D03*
X275900Y194600D02*
D03*
X93040Y364875D02*
D03*
X85000Y364900D02*
D03*
X144000Y249000D02*
D03*
X118900Y248700D02*
D03*
X111800D02*
D03*
X144000Y255800D02*
D03*
X121000Y273100D02*
D03*
X139468Y295156D02*
D03*
X258327Y292315D02*
D03*
X259700Y319500D02*
D03*
X254900Y332800D02*
D03*
X188700Y42300D02*
D03*
X202300Y9600D02*
D03*
X246500Y11500D02*
D03*
X297500Y25000D02*
D03*
X237000Y41500D02*
D03*
X292700Y85000D02*
D03*
X368958Y80868D02*
D03*
X352500Y112500D02*
D03*
X333500Y164500D02*
D03*
X327500D02*
D03*
X304500Y154500D02*
D03*
X297500D02*
D03*
X297309Y162624D02*
D03*
X265500Y159000D02*
D03*
X3500Y224000D02*
D03*
Y163000D02*
D03*
X20500Y154000D02*
D03*
X226000Y157200D02*
D03*
X180000Y86000D02*
D03*
Y93000D02*
D03*
X46800Y10000D02*
D03*
X111000Y14500D02*
D03*
X33500Y367000D02*
D03*
X40000D02*
D03*
X53000Y346000D02*
D03*
X118000Y332000D02*
D03*
X218000Y390600D02*
D03*
X189000Y386500D02*
D03*
Y391000D02*
D03*
X184000Y386500D02*
D03*
X164000D02*
D03*
X169000D02*
D03*
X174000D02*
D03*
X179000D02*
D03*
X169000Y391000D02*
D03*
X174000D02*
D03*
X179000D02*
D03*
X184000D02*
D03*
X164000D02*
D03*
X119000D02*
D03*
X114000Y386000D02*
D03*
X109000D02*
D03*
X114000Y391000D02*
D03*
X109000D02*
D03*
X104000D02*
D03*
X110815Y340025D02*
D03*
X111000Y348500D02*
D03*
X181500Y332000D02*
D03*
X189000D02*
D03*
X174000D02*
D03*
X181500Y338000D02*
D03*
X181431Y343959D02*
D03*
X181500Y350000D02*
D03*
X277300Y357900D02*
D03*
X157900Y297400D02*
D03*
X175300Y303900D02*
D03*
X179600Y318800D02*
D03*
X304200Y184700D02*
D03*
X343500Y226400D02*
D03*
X343700Y254800D02*
D03*
X366400Y265000D02*
D03*
X355600Y259600D02*
D03*
X346400Y217100D02*
D03*
X338600Y221400D02*
D03*
X346779Y197952D02*
D03*
X299000Y185000D02*
D03*
X263800Y258000D02*
D03*
X259799Y210253D02*
D03*
X185700Y25200D02*
D03*
X185600Y33000D02*
D03*
X180050Y33013D02*
D03*
X183300Y36900D02*
D03*
X193100Y36500D02*
D03*
X35800Y66500D02*
D03*
X30600Y218100D02*
D03*
X174000Y164500D02*
D03*
X169300D02*
D03*
X233400Y357900D02*
D03*
X230600Y41500D02*
D03*
X326500Y115500D02*
D03*
X206000Y339000D02*
D03*
X157800Y200700D02*
D03*
X76017Y52100D02*
D03*
X147700Y191500D02*
D03*
X130000Y259900D02*
D03*
X135700D02*
D03*
Y254200D02*
D03*
X98500Y317000D02*
D03*
X104500D02*
D03*
X140400Y300300D02*
D03*
X98500Y330000D02*
D03*
X104500D02*
D03*
X98500Y321500D02*
D03*
X104500D02*
D03*
Y326000D02*
D03*
X98500D02*
D03*
X215000Y9500D02*
D03*
X246500Y5500D02*
D03*
X243500Y26500D02*
D03*
X237000Y51000D02*
D03*
X222000Y75600D02*
D03*
X277500Y103000D02*
D03*
X321500Y76500D02*
D03*
X316500Y71000D02*
D03*
X266000Y44000D02*
D03*
Y50500D02*
D03*
X273500Y24500D02*
D03*
X267549Y24725D02*
D03*
X261500Y24500D02*
D03*
X310000Y39500D02*
D03*
X327000Y33500D02*
D03*
X310500Y19000D02*
D03*
X304000Y25000D02*
D03*
X324500Y14000D02*
D03*
X346751Y3835D02*
D03*
X361500Y8000D02*
D03*
X319000Y223000D02*
D03*
X311000D02*
D03*
X305000Y219500D02*
D03*
X328000Y227500D02*
D03*
X378000Y209300D02*
D03*
X260000Y250500D02*
D03*
X265500Y247000D02*
D03*
X271353Y247093D02*
D03*
X325000Y242000D02*
D03*
X333500Y248500D02*
D03*
X151500Y262500D02*
D03*
Y249000D02*
D03*
Y256000D02*
D03*
X158000D02*
D03*
Y262500D02*
D03*
X164500D02*
D03*
X274000Y174000D02*
D03*
X312000Y172000D02*
D03*
X250500Y169500D02*
D03*
X152268Y228300D02*
D03*
Y171644D02*
D03*
X157000Y178400D02*
D03*
Y185000D02*
D03*
X171100Y192500D02*
D03*
X165000D02*
D03*
X50360Y76825D02*
D03*
X55000Y65500D02*
D03*
X57500Y60500D02*
D03*
Y70500D02*
D03*
X5000Y66000D02*
D03*
X7500Y51000D02*
D03*
X3500Y34000D02*
D03*
X59300Y10000D02*
D03*
X104000Y14500D02*
D03*
Y8000D02*
D03*
X158500Y13000D02*
D03*
X185700Y6800D02*
D03*
X186000Y12000D02*
D03*
X158500Y7000D02*
D03*
X242000Y312900D02*
D03*
X241900Y336900D02*
D03*
X123000Y217000D02*
D03*
X129500D02*
D03*
X131000Y200500D02*
D03*
X125000D02*
D03*
X131000Y210500D02*
D03*
X125000D02*
D03*
X127872Y205374D02*
D03*
X53000Y353000D02*
D03*
Y360000D02*
D03*
Y367000D02*
D03*
X46500D02*
D03*
X33500Y360000D02*
D03*
Y353000D02*
D03*
X19500Y346000D02*
D03*
X29500Y329000D02*
D03*
X23000D02*
D03*
X16500D02*
D03*
X57000Y188500D02*
D03*
Y195000D02*
D03*
Y201500D02*
D03*
X33000Y226500D02*
D03*
X26500D02*
D03*
X20000Y226600D02*
D03*
X23600Y356400D02*
D03*
X307700Y354600D02*
D03*
X338300D02*
D03*
X330500Y17700D02*
D03*
X332800Y4100D02*
D03*
X301500Y76100D02*
D03*
X349805Y135141D02*
D03*
X305800Y161000D02*
D03*
X363300Y353200D02*
D03*
X379400Y353100D02*
D03*
X295500Y377000D02*
D03*
X374500Y361600D02*
D03*
X277041Y215141D02*
D03*
X272700Y199500D02*
D03*
X274200Y218100D02*
D03*
X244600Y242594D02*
D03*
X271300Y221300D02*
D03*
X268000Y224500D02*
D03*
X194900Y103103D02*
D03*
X326930Y257838D02*
D03*
X116800Y253900D02*
D03*
X200900Y296700D02*
D03*
Y320700D02*
D03*
X179762Y191700D02*
D03*
X184762D02*
D03*
X189762Y170635D02*
D03*
X194762D02*
D03*
X234683Y258900D02*
D03*
X356100Y250152D02*
D03*
X199762Y170635D02*
D03*
X204762D02*
D03*
X209762D02*
D03*
X214762D02*
D03*
X294500Y131600D02*
D03*
X250800Y237600D02*
D03*
X224800Y165400D02*
D03*
X147700Y238738D02*
D03*
X234600Y296700D02*
D03*
Y320700D02*
D03*
X258900Y344900D02*
D03*
Y314600D02*
D03*
X240700Y242594D02*
D03*
X250800Y232600D02*
D03*
X242500Y154000D02*
D03*
X248000D02*
D03*
X253500D02*
D03*
X259000D02*
D03*
X362600Y213300D02*
D03*
X305100Y194300D02*
D03*
X306093Y202000D02*
D03*
Y207000D02*
D03*
X129207Y178061D02*
D03*
X138700Y169800D02*
D03*
X178300Y132200D02*
D03*
X159476Y132252D02*
D03*
X174788Y178117D02*
D03*
X366300Y58800D02*
D03*
X312600Y86700D02*
D03*
X299200Y42700D02*
D03*
X212000Y339000D02*
D03*
Y344000D02*
D03*
X206000D02*
D03*
Y349000D02*
D03*
X212000D02*
D03*
X141700Y337100D02*
D03*
Y342800D02*
D03*
X135700D02*
D03*
Y337100D02*
D03*
X141700Y348500D02*
D03*
X85909Y340122D02*
D03*
X101800Y383200D02*
D03*
X158700Y27000D02*
D03*
X144142Y191500D02*
D03*
X173700Y24100D02*
D03*
X173600Y19100D02*
D03*
X21293Y51500D02*
D03*
X47100Y53700D02*
D03*
X50850D02*
D03*
X138700Y190400D02*
D03*
X215300Y38700D02*
D03*
X212700Y19800D02*
D03*
X238500Y21400D02*
D03*
X203200Y16500D02*
D03*
X42800Y42700D02*
D03*
X56800Y53200D02*
D03*
X60500Y35400D02*
D03*
X65400Y38500D02*
D03*
X78300Y18000D02*
D03*
X32400Y39800D02*
D03*
X77800Y43600D02*
D03*
X47900Y18000D02*
D03*
X29800Y31700D02*
D03*
X51000Y23300D02*
D03*
X146731Y365900D02*
D03*
X135731Y348500D02*
D03*
X70332Y370400D02*
D03*
D158*
X9316Y297521D02*
D03*
Y317206D02*
D03*
X60300Y288859D02*
D03*
Y307363D02*
D03*
D159*
X361614Y139606D02*
D03*
X361900Y298224D02*
D03*
X361600Y73900D02*
D03*
X361514Y175306D02*
D03*
D160*
X361614Y154606D02*
D03*
X361900Y313224D02*
D03*
Y328224D02*
D03*
Y343224D02*
D03*
X334646Y362205D02*
D03*
X319646D02*
D03*
X304646D02*
D03*
X267784Y32586D02*
D03*
X282784D02*
D03*
X297784D02*
D03*
X361600Y88900D02*
D03*
Y103900D02*
D03*
Y118900D02*
D03*
X361514Y190306D02*
D03*
D161*
X349646Y362205D02*
D03*
X252784Y32586D02*
D03*
D162*
X341427Y158061D02*
D03*
Y168061D02*
D03*
Y178061D02*
D03*
Y188061D02*
D03*
X10600Y108100D02*
D03*
Y118100D02*
D03*
Y128100D02*
D03*
Y138100D02*
D03*
Y148100D02*
D03*
Y158100D02*
D03*
Y168100D02*
D03*
Y178100D02*
D03*
Y188100D02*
D03*
Y198100D02*
D03*
Y208100D02*
D03*
Y218100D02*
D03*
Y228100D02*
D03*
Y238100D02*
D03*
D164*
X278565Y328224D02*
D03*
Y346728D02*
D03*
X323841Y328224D02*
D03*
X351400D02*
D03*
X278465Y298224D02*
D03*
Y316728D02*
D03*
X323741Y298224D02*
D03*
X351300D02*
D03*
D166*
X197474Y25488D02*
D03*
X220230D02*
D03*
X41422D02*
D03*
X64178D02*
D03*
D167*
X225880Y11000D02*
D03*
X191824D02*
D03*
X69828D02*
D03*
X35772D02*
D03*
D168*
X225880Y27457D02*
D03*
X191824D02*
D03*
X69828D02*
D03*
X35772D02*
D03*
D169*
X325000Y51500D02*
D03*
D170*
X357400Y56200D02*
D03*
X256000Y90300D02*
D03*
X255900Y106800D02*
D03*
X236900Y32800D02*
D03*
X294800Y101000D02*
D03*
X276400Y155200D02*
D03*
X315000Y10300D02*
D03*
D171*
X341427Y76565D02*
D03*
Y269635D02*
D03*
X14537D02*
D03*
Y76565D02*
D03*
M02*
