%TF.GenerationSoftware,Altium Limited,Altium Designer,25.1.2 (22)*%
G04 Layer_Color=8421504*
%FSLAX45Y45*%
%MOMM*%
%TF.SameCoordinates,6140C124-B29E-4EDD-BC75-2642A01B609D*%
%TF.FilePolarity,Positive*%
%TF.FileFunction,Paste,Top*%
%TF.Part,Single*%
G01*
G75*
%TA.AperFunction,SMDPad,CuDef*%
%ADD10R,1.20000X1.40000*%
%ADD11R,1.97000X0.60000*%
G04:AMPARAMS|DCode=12|XSize=0.86mm|YSize=0.26mm|CornerRadius=0.0091mm|HoleSize=0mm|Usage=FLASHONLY|Rotation=0.000|XOffset=0mm|YOffset=0mm|HoleType=Round|Shape=RoundedRectangle|*
%AMROUNDEDRECTD12*
21,1,0.86000,0.24180,0,0,0.0*
21,1,0.84180,0.26000,0,0,0.0*
1,1,0.01820,0.42090,-0.12090*
1,1,0.01820,-0.42090,-0.12090*
1,1,0.01820,-0.42090,0.12090*
1,1,0.01820,0.42090,0.12090*
%
%ADD12ROUNDEDRECTD12*%
G04:AMPARAMS|DCode=13|XSize=0.86mm|YSize=0.26mm|CornerRadius=0.0091mm|HoleSize=0mm|Usage=FLASHONLY|Rotation=270.000|XOffset=0mm|YOffset=0mm|HoleType=Round|Shape=RoundedRectangle|*
%AMROUNDEDRECTD13*
21,1,0.86000,0.24180,0,0,270.0*
21,1,0.84180,0.26000,0,0,270.0*
1,1,0.01820,-0.12090,-0.42090*
1,1,0.01820,-0.12090,0.42090*
1,1,0.01820,0.12090,0.42090*
1,1,0.01820,0.12090,-0.42090*
%
%ADD13ROUNDEDRECTD13*%
%TA.AperFunction,ConnectorPad*%
%ADD15R,1.50000X0.90000*%
%TA.AperFunction,BGAPad,CuDef*%
%ADD16R,0.90000X0.90000*%
%TA.AperFunction,SMDPad,CuDef*%
%ADD17R,2.48920X0.88900*%
%ADD18R,2.48920X3.20040*%
%ADD19R,0.60000X1.97000*%
%ADD23R,2.20000X1.70000*%
%ADD24R,0.81280X0.76200*%
%ADD25R,0.76200X0.81280*%
%ADD26R,4.00000X2.70000*%
%ADD27R,3.90000X1.80000*%
%ADD28R,4.50000X1.30000*%
%ADD29R,1.44780X1.11760*%
%ADD30R,3.20000X1.50000*%
%ADD31R,2.50000X1.70000*%
%ADD32R,0.81280X0.81280*%
%ADD33R,1.70000X2.50000*%
%ADD34R,0.80000X0.75000*%
%ADD35R,1.11760X1.44780*%
%ADD36R,0.75000X0.80000*%
%ADD37R,1.11760X1.80340*%
G36*
X1865000Y3920940D02*
X1656846D01*
Y4073453D01*
X1865000D01*
Y3920940D01*
D02*
G37*
G36*
X7062000Y1860425D02*
X6970011D01*
Y1952494D01*
X7062000D01*
Y1860425D01*
D02*
G37*
G36*
X6936000D02*
X6843840D01*
Y1952585D01*
X6936000D01*
Y1860425D01*
D02*
G37*
G36*
X7062000Y1734425D02*
X6970026D01*
Y1826399D01*
X7062000D01*
Y1734425D01*
D02*
G37*
G36*
X6936000D02*
X6843967D01*
Y1826420D01*
X6936000D01*
Y1734425D01*
D02*
G37*
D10*
X6646000Y2645140D02*
D03*
Y2865140D02*
D03*
X6816000D02*
D03*
Y2645140D02*
D03*
D11*
X4965500Y6897640D02*
D03*
X5460500Y6643640D02*
D03*
Y6770640D02*
D03*
Y6897640D02*
D03*
X4965500Y6770640D02*
D03*
Y6643640D02*
D03*
Y6516640D02*
D03*
X5460500D02*
D03*
D12*
X6759500Y1968425D02*
D03*
Y1918425D02*
D03*
Y1868425D02*
D03*
Y1818425D02*
D03*
Y1768425D02*
D03*
Y1718425D02*
D03*
X7146500D02*
D03*
Y1768425D02*
D03*
Y1818425D02*
D03*
Y1868425D02*
D03*
Y1918425D02*
D03*
Y1968425D02*
D03*
D13*
X7078000Y2036925D02*
D03*
X7028000D02*
D03*
X6978000D02*
D03*
X6928000D02*
D03*
X6878000D02*
D03*
X6828000D02*
D03*
Y1649925D02*
D03*
X6878000D02*
D03*
X6928000D02*
D03*
X6978000D02*
D03*
X7028000D02*
D03*
X7078000D02*
D03*
D15*
X6557000Y6244140D02*
D03*
Y6117140D02*
D03*
Y5990140D02*
D03*
Y5863140D02*
D03*
Y5736140D02*
D03*
Y5609140D02*
D03*
Y5482140D02*
D03*
Y5355140D02*
D03*
Y5228140D02*
D03*
Y5101140D02*
D03*
Y4974140D02*
D03*
Y4847140D02*
D03*
Y4720140D02*
D03*
Y4593140D02*
D03*
Y4466140D02*
D03*
Y4339140D02*
D03*
Y4212140D02*
D03*
Y4085140D02*
D03*
Y3958140D02*
D03*
X8307000Y6244140D02*
D03*
Y6117140D02*
D03*
Y5990140D02*
D03*
Y5863140D02*
D03*
Y5736140D02*
D03*
Y5609140D02*
D03*
Y5482140D02*
D03*
Y5355140D02*
D03*
Y5228140D02*
D03*
Y5101140D02*
D03*
Y4974140D02*
D03*
Y4847140D02*
D03*
Y4720140D02*
D03*
Y4593140D02*
D03*
Y4466140D02*
D03*
Y4339140D02*
D03*
Y4212140D02*
D03*
Y4085140D02*
D03*
Y3958140D02*
D03*
D16*
X7142000Y5464140D02*
D03*
X7282000D02*
D03*
X7422000D02*
D03*
X7142000Y5604140D02*
D03*
X7282000D02*
D03*
X7422000D02*
D03*
X7142000Y5324140D02*
D03*
X7282000D02*
D03*
X7422000D02*
D03*
D17*
X3400410Y3870140D02*
D03*
Y3641140D02*
D03*
Y3412139D02*
D03*
D18*
X3951590Y3641140D02*
D03*
D19*
X1570500Y3749640D02*
D03*
X1824500Y4244640D02*
D03*
X1697500D02*
D03*
X1570500D02*
D03*
X1697500Y3749640D02*
D03*
X1824500D02*
D03*
X1951500D02*
D03*
Y4244640D02*
D03*
D23*
X9405000Y4438670D02*
D03*
X9745000D02*
D03*
X9405000Y4901610D02*
D03*
X9745000D02*
D03*
D24*
X505000Y3939610D02*
D03*
Y3784670D02*
D03*
X759000Y3939610D02*
D03*
Y3784670D02*
D03*
X5508000Y5746530D02*
D03*
Y5901470D02*
D03*
X5507000Y5116030D02*
D03*
Y5270970D02*
D03*
Y5431280D02*
D03*
Y5586220D02*
D03*
X5506000Y4800780D02*
D03*
Y4955720D02*
D03*
X5507000Y4640470D02*
D03*
Y4485530D02*
D03*
Y4142530D02*
D03*
Y4297470D02*
D03*
X4741000Y6896610D02*
D03*
Y6741670D02*
D03*
Y6431917D02*
D03*
Y6586857D02*
D03*
Y6122164D02*
D03*
Y6277104D02*
D03*
X7386000Y940610D02*
D03*
Y785670D02*
D03*
X7042004Y2613270D02*
D03*
Y2768210D02*
D03*
X7212703Y2613270D02*
D03*
Y2768210D02*
D03*
X6980000Y1115359D02*
D03*
Y1270299D02*
D03*
X9170000Y4593610D02*
D03*
Y4438670D02*
D03*
Y4746670D02*
D03*
Y4901610D02*
D03*
X9524000Y5927080D02*
D03*
Y5772140D02*
D03*
X9525000Y5363200D02*
D03*
Y5518140D02*
D03*
X233000Y3176670D02*
D03*
Y3331610D02*
D03*
X236000Y3939610D02*
D03*
Y3784670D02*
D03*
X239000Y3481670D02*
D03*
Y3636610D02*
D03*
X1396000Y3749640D02*
D03*
Y3904580D02*
D03*
Y4409670D02*
D03*
Y4564610D02*
D03*
Y4089700D02*
D03*
Y4244640D02*
D03*
D25*
X7545130Y2297038D02*
D03*
X7700070D02*
D03*
X7545130Y1272839D02*
D03*
X7700070D02*
D03*
X7545130Y1443539D02*
D03*
X7700070D02*
D03*
X7545130Y1614239D02*
D03*
X7700070D02*
D03*
X7545130Y1784939D02*
D03*
X7700070D02*
D03*
X6370040Y1442111D02*
D03*
X6215100D02*
D03*
X7545130Y2614737D02*
D03*
X7700070D02*
D03*
X6215100Y2238139D02*
D03*
X6370040D02*
D03*
X6215100Y1919728D02*
D03*
X6370040D02*
D03*
X6215100Y1282905D02*
D03*
X6370040D02*
D03*
X6215100Y1123700D02*
D03*
X6370040D02*
D03*
X6215100Y2078934D02*
D03*
X6370040D02*
D03*
Y1760522D02*
D03*
X6215100D02*
D03*
X8537530Y4466140D02*
D03*
X8692470D02*
D03*
X1562500Y4619140D02*
D03*
X1717440D02*
D03*
X1873000D02*
D03*
X2027940D02*
D03*
Y4463000D02*
D03*
X1873000D02*
D03*
D26*
X2866000Y3676140D02*
D03*
Y4281140D02*
D03*
D27*
X2701000Y4806000D02*
D03*
Y6106000D02*
D03*
D28*
X3481000Y5081000D02*
D03*
Y5331000D02*
D03*
Y5581000D02*
D03*
Y5831000D02*
D03*
D29*
X7183000Y1109736D02*
D03*
Y1288079D02*
D03*
X6113000Y5924312D02*
D03*
Y5745968D02*
D03*
X433000Y3194968D02*
D03*
Y3373312D02*
D03*
X6113000Y6295992D02*
D03*
Y6117140D02*
D03*
X6343000Y6295992D02*
D03*
Y6117140D02*
D03*
D30*
X1932000Y1935140D02*
D03*
Y1515140D02*
D03*
D31*
X1101000D02*
D03*
X1501000D02*
D03*
D32*
X83000Y3939141D02*
D03*
Y3789139D02*
D03*
Y3484139D02*
D03*
Y3634141D02*
D03*
D33*
X2338000Y3871140D02*
D03*
Y4271140D02*
D03*
D34*
X5349000Y5586220D02*
D03*
Y5451220D02*
D03*
Y4955720D02*
D03*
Y4820720D02*
D03*
Y5901470D02*
D03*
Y5766470D02*
D03*
Y5270970D02*
D03*
Y5135970D02*
D03*
X6824000Y1269700D02*
D03*
Y1134700D02*
D03*
X6668000Y1269700D02*
D03*
Y1134700D02*
D03*
X6469000Y2730140D02*
D03*
Y2865140D02*
D03*
X6315000Y2436640D02*
D03*
Y2571640D02*
D03*
X6467000Y2436640D02*
D03*
Y2571640D02*
D03*
X7386000Y1269700D02*
D03*
Y1134700D02*
D03*
X7183000Y930640D02*
D03*
Y795640D02*
D03*
X6980640Y930640D02*
D03*
Y795640D02*
D03*
X81000Y3312040D02*
D03*
Y3177040D02*
D03*
X2101000Y3884640D02*
D03*
Y3749640D02*
D03*
D35*
X3481000Y6349001D02*
D03*
X3302149D02*
D03*
X3481000Y6601001D02*
D03*
X3302149D02*
D03*
X3772738Y4360000D02*
D03*
X3951590D02*
D03*
X3772738Y4130000D02*
D03*
X3951590D02*
D03*
X3579261Y3152140D02*
D03*
X3400410D02*
D03*
X3579261Y2919000D02*
D03*
X3400410D02*
D03*
D36*
X4965500Y6215140D02*
D03*
X5100500D02*
D03*
X4965500Y6369140D02*
D03*
X5100500D02*
D03*
X7690100Y2119738D02*
D03*
X7555100D02*
D03*
X6816000Y2450140D02*
D03*
X6681000D02*
D03*
X7545130Y2455140D02*
D03*
X7680130D02*
D03*
X7555100Y1949038D02*
D03*
X7690100D02*
D03*
X6360070Y1594716D02*
D03*
X6225070D02*
D03*
X9405000Y4180140D02*
D03*
X9540000D02*
D03*
X9405000Y5161140D02*
D03*
X9540000D02*
D03*
X1697500Y4463000D02*
D03*
X1562500D02*
D03*
D37*
X2556120Y3153140D02*
D03*
X2866000D02*
D03*
X2556120Y3401140D02*
D03*
X2866000D02*
D03*
X2134380D02*
D03*
X1824500D02*
D03*
X2134380Y3153140D02*
D03*
X1824500D02*
D03*
%TF.MD5,a6378e0868443c1fbd1dc6ed5890e310*%
M02*
